<?xml version="1.0" encoding="utf-8"?>
<!-- Generator: Adobe Illustrator 15.1.0, SVG Export Plug-In . SVG Version: 6.00 Build 0)  -->
<!DOCTYPE svg PUBLIC "-//W3C//DTD SVG 1.1//EN" "http://www.w3.org/Graphics/SVG/1.1/DTD/svg11.dtd">
<svg version="1.1" id="Layer_1" xmlns="http://www.w3.org/2000/svg" xmlns:xlink="http://www.w3.org/1999/xlink" x="0px" y="0px"
	 width="800px" height="800px" viewBox="0 0 800 800" enable-background="new 0 0 800 800" xml:space="preserve">
<rect fill="#1B1817" width="800" height="800"/>
<g>
	<g>
		<path fill="#FFFFFF" d="M233.112,461.898c-0.609,0.121-1.221,0.239-1.833,0.36c0.385,1.946,0.77,3.894,1.153,5.841
			c0.367,1.869-0.432,3.021-2.038,3.343c-1.619,0.324-2.811-0.488-3.194-2.371c-0.392-1.921-0.783-3.842-1.172-5.764
			c-0.609,0.126-1.221,0.252-1.828,0.377c0.398,1.944,0.798,3.886,1.196,5.831c0.607,2.938,2.625,4.104,5.297,3.567
			c2.688-0.536,4.126-2.396,3.539-5.426C233.86,465.736,233.486,463.818,233.112,461.898z M253.672,461.486
			c-0.002-0.009-0.004-0.02-0.004-0.028c-0.154-0.886-0.596-1.593-1.243-2.049c-0.781-0.526-1.876-0.727-3.191-0.496
			c-1.553,0.272-3.104,0.55-4.654,0.83c0.613,3.392,1.227,6.785,1.843,10.177c0.603-0.108,1.208-0.22,1.813-0.327
			c-0.211-1.182-0.423-2.365-0.634-3.548c0.759-0.137,1.519-0.271,2.28-0.405c1.057,1.034,2.111,2.068,3.163,3.105
			c0.713-0.122,1.427-0.246,2.141-0.364c-1.15-1.13-2.304-2.255-3.461-3.379C253.104,464.343,253.958,463.163,253.672,461.486z
			 M249.986,463.985c-0.889,0.157-1.78,0.315-2.671,0.476c-0.202-1.139-0.407-2.281-0.611-3.418
			c0.889-0.161,1.777-0.317,2.666-0.473c1.357-0.24,2.266,0.22,2.455,1.31c0,0.009,0.004,0.021,0.004,0.029
			C252.009,462.943,251.292,463.757,249.986,463.985z M274.164,462.459c-0.202-1.389-1.153-1.951-2.435-2.178
			c0.714-0.51,1.333-1.272,1.151-2.501c0-0.012-0.002-0.021-0.004-0.029c-0.102-0.685-0.423-1.207-0.955-1.592
			c-0.684-0.494-1.676-0.673-2.873-0.492c-1.568,0.237-3.135,0.479-4.701,0.727c0.538,3.407,1.076,6.812,1.612,10.217
			c1.598-0.251,3.194-0.499,4.791-0.742c2.306-0.352,3.687-1.552,3.418-3.378C274.168,462.479,274.167,462.47,274.164,462.459z
			 M266.406,457.703c0.882-0.139,1.762-0.273,2.644-0.408c1.182-0.181,1.911,0.219,2.034,1.021c0,0.012,0.003,0.02,0.005,0.028
			c0.138,0.938-0.583,1.508-1.76,1.687c-0.834,0.127-1.667,0.257-2.501,0.387C266.688,459.511,266.546,458.608,266.406,457.703z
			 M270.521,464.273c-1.008,0.153-2.015,0.309-3.022,0.465c-0.146-0.934-0.291-1.868-0.436-2.803
			c0.968-0.149,1.934-0.299,2.899-0.445c1.443-0.22,2.218,0.188,2.347,1.051c0.002,0.011,0.002,0.02,0.004,0.028
			C272.452,463.491,271.766,464.085,270.521,464.273z M287.867,452.938c-1.095,3.642-2.168,7.287-3.224,10.934
			c0.625-0.083,1.244-0.167,1.87-0.251c0.244-0.87,0.493-1.744,0.739-2.617c1.641-0.215,3.282-0.426,4.922-0.634
			c0.458,0.781,0.912,1.562,1.366,2.345c0.645-0.081,1.287-0.159,1.93-0.24c-1.947-3.256-3.912-6.513-5.893-9.756
			C289.007,452.789,288.438,452.864,287.867,452.938z M287.712,459.317c0.416-1.442,0.835-2.89,1.258-4.333
			c0.781,1.29,1.56,2.578,2.333,3.872C290.107,459.009,288.908,459.162,287.712,459.317z M312.385,450.173
			c0.243,2.371,0.482,4.742,0.721,7.113c-2.102-2.183-4.225-4.355-6.36-6.521c-0.57,0.061-1.142,0.121-1.712,0.187
			c0.376,3.426,0.752,6.854,1.131,10.28c0.598-0.067,1.196-0.133,1.796-0.197c-0.262-2.438-0.525-4.877-0.79-7.315
			c2.19,2.229,4.366,4.469,6.526,6.715c0.511-0.05,1.021-0.102,1.531-0.152c-0.34-3.431-0.684-6.863-1.022-10.291
			C313.599,450.049,312.992,450.109,312.385,450.173z M343.246,447.512c-1.319,3.565-2.619,7.137-3.901,10.709
			c0.625-0.044,1.251-0.089,1.878-0.132c0.299-0.855,0.598-1.71,0.902-2.565c1.648-0.112,3.294-0.217,4.944-0.321
			c0.406,0.808,0.81,1.617,1.215,2.428c0.644-0.041,1.291-0.079,1.935-0.116c-1.733-3.376-3.484-6.747-5.254-10.113
			C344.39,447.438,343.818,447.476,343.246,447.512z M342.688,453.872c0.505-1.418,1.016-2.834,1.528-4.248
			c0.695,1.338,1.388,2.675,2.08,4.014C345.094,453.714,343.891,453.79,342.688,453.872z M369.23,449.552
			c0-0.009-0.002-0.018-0.002-0.028c-0.03-0.899-0.376-1.656-0.955-2.198c-0.704-0.622-1.76-0.968-3.088-0.913
			c-1.568,0.064-3.137,0.132-4.707,0.205c0.161,3.444,0.321,6.89,0.479,10.329c0.611-0.026,1.223-0.052,1.835-0.08
			c-0.053-1.201-0.106-2.4-0.161-3.602c0.768-0.036,1.538-0.066,2.307-0.099c0.907,1.166,1.813,2.329,2.715,3.5
			c0.721-0.029,1.441-0.058,2.162-0.083c-0.988-1.271-1.978-2.539-2.972-3.807C368.294,452.306,369.292,451.249,369.23,449.552z
			 M365.261,451.541c-0.899,0.037-1.8,0.074-2.7,0.113c-0.05-1.155-0.103-2.312-0.153-3.467c0.9-0.039,1.797-0.079,2.694-0.116
			c1.373-0.055,2.209,0.517,2.252,1.625v0.029C367.394,450.775,366.58,451.484,365.261,451.541z M388.227,445.77
			c-2.859,0.043-5.717,0.101-8.576,0.17c0.013,0.562,0.029,1.122,0.042,1.684c1.115-0.029,2.229-0.053,3.345-0.076
			c0.059,2.885,0.119,5.771,0.179,8.656c0.618-0.014,1.233-0.026,1.849-0.038c-0.052-2.885-0.105-5.769-0.16-8.655
			c1.115-0.021,2.229-0.039,3.346-0.054C388.243,446.895,388.234,446.331,388.227,445.77z M403.095,450.021
			c-2.014-0.476-2.495-0.829-2.495-1.625v-0.031c0-0.681,0.632-1.229,1.716-1.227c0.966,0.003,1.914,0.374,2.859,1.073
			c0.334-0.457,0.669-0.912,1.003-1.369c-1.066-0.847-2.287-1.312-3.829-1.313c-2.101-0.002-3.604,1.229-3.601,3.002v0.029
			c0.005,1.906,1.27,2.552,3.501,3.086c1.949,0.446,2.367,0.85,2.365,1.586v0.031c-0.003,0.783-0.724,1.295-1.859,1.293
			c-1.3-0.002-2.3-0.488-3.305-1.344c-0.368,0.436-0.738,0.868-1.103,1.303c1.258,1.104,2.763,1.648,4.359,1.65
			c2.193,0.005,3.735-1.136,3.748-3.072v-0.028C406.469,451.352,405.315,450.56,403.095,450.021z M439.564,452.09
			c-0.453-0.26-0.908-0.522-1.363-0.783c-0.374,0.708-0.778,1.373-1.208,1.947c-0.574-0.628-1.149-1.25-1.727-1.874
			c1.416-0.462,2.367-1.234,2.424-2.593v-0.029c0.06-1.388-1.024-2.543-2.701-2.607c-1.889-0.074-3.08,1.099-3.128,2.486v0.03
			c-0.026,0.753,0.222,1.41,0.796,2.187c-1.465,0.553-2.291,1.488-2.336,2.815v0.03c-0.057,1.787,1.364,3.001,3.302,3.073
			c1.268,0.047,2.33-0.429,3.263-1.218c0.442,0.485,0.884,0.974,1.329,1.46c0.463-0.301,0.93-0.601,1.398-0.899
			c-0.524-0.574-1.048-1.15-1.573-1.725C438.61,453.691,439.109,452.899,439.564,452.09z M433.59,448.772
			c0.027-0.723,0.544-1.224,1.299-1.191c0.708,0.025,1.188,0.519,1.157,1.215v0.028c-0.029,0.736-0.621,1.2-1.717,1.544
			c-0.563-0.659-0.759-1.051-0.739-1.563V448.772z M433.874,455.273c-1.017-0.038-1.727-0.698-1.696-1.568
			c0.003-0.012,0.003-0.022,0.003-0.031c0.023-0.665,0.464-1.284,1.456-1.661c0.75,0.812,1.497,1.623,2.246,2.438
			C435.263,454.986,434.589,455.302,433.874,455.273z M467.649,449.661c0.961,0.075,1.881,0.516,2.772,1.282
			c0.366-0.428,0.734-0.86,1.102-1.288c-1.001-0.927-2.184-1.48-3.724-1.595c-2.094-0.161-3.691,0.955-3.817,2.724
			c0,0.011-0.002,0.02-0.002,0.03c-0.136,1.901,1.078,2.638,3.267,3.337c1.912,0.592,2.299,1.022,2.239,1.758
			c0,0.011-0.002,0.02-0.002,0.03c-0.062,0.78-0.818,1.239-1.951,1.152c-1.298-0.099-2.26-0.66-3.198-1.588
			c-0.4,0.407-0.798,0.812-1.198,1.219c1.174,1.194,2.637,1.85,4.229,1.971c2.188,0.167,3.812-0.853,3.971-2.784
			c0-0.009,0-0.02,0.003-0.028c0.138-1.71-0.951-2.586-3.131-3.285c-1.971-0.626-2.429-1.014-2.366-1.81v-0.028
			C465.893,450.079,466.564,449.581,467.649,449.661z M487.307,449.909c-1.382-0.135-2.769-0.27-4.154-0.4
			c-0.32,3.436-0.642,6.865-0.962,10.298c0.608,0.057,1.218,0.115,1.827,0.174c0.107-1.103,0.213-2.206,0.318-3.309
			c0.69,0.065,1.381,0.134,2.072,0.203c2.299,0.226,4.303-0.785,4.543-3.094c0.002-0.011,0.002-0.02,0.002-0.028
			C491.169,451.68,489.761,450.152,487.307,449.909z M489.077,453.603c-0.002,0.012-0.002,0.022-0.002,0.031
			c-0.111,1.074-1.055,1.751-2.444,1.612c-0.713-0.068-1.426-0.138-2.141-0.206c0.119-1.237,0.237-2.471,0.355-3.707
			c0.718,0.068,1.433,0.139,2.147,0.21C488.377,451.678,489.197,452.4,489.077,453.603z M507.294,451.933
			c-3.231-0.392-5.796,1.769-6.126,4.66c0,0.009-0.002,0.02-0.004,0.028c-0.331,2.893,1.623,5.539,4.809,5.927
			c3.187,0.387,5.749-1.738,6.123-4.627c0-0.009,0.002-0.02,0.005-0.028C512.473,455.006,510.527,452.326,507.294,451.933z
			 M510.171,457.678c-0.002,0.008-0.002,0.02-0.005,0.03c-0.252,1.992-1.897,3.436-3.961,3.185c-2.065-0.25-3.344-2.08-3.11-4.075
			c0-0.012,0.002-0.02,0.004-0.032c0.234-1.994,1.88-3.452,3.965-3.199C509.148,453.84,510.424,455.685,510.171,457.678z
			 M528.666,454.978c-1.558-0.226-3.117-0.452-4.675-0.672c-0.483,3.413-0.964,6.827-1.447,10.241
			c0.607,0.085,1.215,0.174,1.821,0.259c0.172-1.189,0.343-2.38,0.513-3.569c0.764,0.109,1.527,0.22,2.29,0.333
			c0.677,1.312,1.354,2.627,2.023,3.943c0.718,0.104,1.433,0.213,2.146,0.321c-0.737-1.433-1.478-2.862-2.222-4.292
			c1.519-0.194,2.697-1.046,2.951-2.725c0.002-0.009,0.002-0.021,0.004-0.032c0.134-0.888-0.063-1.695-0.535-2.335
			C530.96,455.706,529.983,455.172,528.666,454.978z M530.189,458.61c0,0.009-0.002,0.02-0.004,0.03
			c-0.153,1.036-1.087,1.584-2.397,1.391c-0.893-0.131-1.786-0.26-2.681-0.388c0.164-1.146,0.327-2.293,0.492-3.438
			c0.894,0.129,1.784,0.258,2.677,0.389C529.637,456.793,530.355,457.514,530.189,458.61z M542.737,458.867
			c1.104,0.181,2.206,0.363,3.311,0.548c-0.478,2.846-0.953,5.693-1.433,8.538c0.612,0.103,1.224,0.205,1.833,0.31
			c0.481-2.846,0.966-5.691,1.449-8.536c1.104,0.187,2.206,0.376,3.308,0.567c0.097-0.551,0.193-1.105,0.288-1.657
			c-2.826-0.494-5.654-0.968-8.485-1.433C542.918,457.758,542.825,458.312,542.737,458.867z M563.221,463.491
			c0.123-0.669,0.848-1.089,1.922-0.885c0.95,0.181,1.817,0.725,2.622,1.586c0.413-0.385,0.828-0.772,1.243-1.157
			c-0.896-1.031-2.016-1.715-3.535-2.006c-2.071-0.394-3.788,0.537-4.111,2.278c-0.002,0.009-0.004,0.021-0.006,0.03
			c-0.349,1.875,0.778,2.742,2.885,3.684c1.84,0.803,2.178,1.275,2.037,2.002c-0.002,0.009-0.004,0.018-0.004,0.028
			c-0.15,0.768-0.955,1.14-2.076,0.926c-1.282-0.247-2.181-0.91-3.014-1.938c-0.444,0.358-0.887,0.714-1.329,1.075
			c1.036,1.32,2.422,2.134,3.997,2.433c2.162,0.415,3.897-0.417,4.27-2.317c0.003-0.009,0.005-0.02,0.007-0.029
			c0.327-1.683-0.66-2.675-2.754-3.619c-1.899-0.842-2.308-1.276-2.16-2.062C563.216,463.511,563.216,463.499,563.221,463.491z
			 M522.773,342.666c-1.166,0-6.981,21.009-9.054,33.483c-2.091,12.727-3.767,24.295-2.459,24.713
			c0.02,0.006,0.039,0.011,0.061,0.011c1.472,0,8.927-16.126,10.69-27.322c1.79-11.24,1.879-30.384,0.796-30.881
			C522.795,342.666,522.786,342.666,522.773,342.666z M256.819,341.698c-1.22,0-7.928,22.503-9.97,36.708
			c-2.074,14.214-3.076,27.667-1.351,28.428c0.026,0.012,0.055,0.018,0.084,0.018c1.814,0,7.244-20.45,9-32.115
			c1.783-12.012,3.371-32.557,2.282-33.026C256.85,341.703,256.835,341.698,256.819,341.698z M210.938,339.701
			c-1.14,0.002-8.007,25.722-10.105,42.235c-2.127,16.478-3.229,32.674-1.509,33.077c0.011,0.002,0.022,0.004,0.033,0.004
			c1.749,0,6.651-23.361,8.471-37.003c1.833-13.948,4.158-37.85,3.15-38.303C210.963,339.706,210.95,339.701,210.938,339.701z
			 M660.313,340.823c0.712-5.483,1.07-8.235,0.956-10.714c-0.205-4.74-4.219-9.512-7.55-12.674
			c-3.288-3.126-8.127-6.848-12.495-6.848c-1.98,0-3.832,0.691-5.209,1.949c-2.081,1.901-3.41,4.896-6.242,15.059
			c-1.275-1.94-2.833-3.775-4.257-5.288c-7.109-7.562-11.201-7.565-12.544-7.567c0,0-0.002,0-0.006,0
			c-1.486,0-2.881,0.383-4.064,1.082c-1.721,0.814-2.969,2.306-3.429,4.052c-0.248,0.853-1.916,6.308-4.351,14.183
			c-0.971-1.944-2.959-4.588-7.072-7.892c-4.821-3.872-8.858-5.838-12.002-5.838c-2.32,0-4.416,0.95-5.784,2.615
			c-0.454,0.541-0.821,1.126-1.153,1.922c-2.366-1.126-4.92-1.949-7.329-1.949c-2.06,0-3.955,0.574-5.486,1.661
			c-0.044,0.032-0.088,0.063-0.132,0.097c-0.567,0.426-1.124,0.952-1.691,1.607c-0.852,0.601-1.533,1.386-1.989,2.281
			c-0.195,0.365-1.119,2.043-2.273,4.14c-2.032,3.691-5.241,9.518-8.936,16.264c-0.807-6.821-2.54-12.315-5.186-16.314
			c-1.796-2.778-6.078-4.91-10.231-6.078c0.191-0.838,0.374-1.663,0.55-2.472c0.073-0.339,0.141-0.665,0.207-0.985
			c0.035-0.149,0.066-0.299,0.09-0.451c2.616-13.004,1.329-18.378,0.706-20.969c-0.023-0.104-0.048-0.198-0.068-0.284
			c-0.402-4.29-4.586-7.411-12.773-9.531c-2.455-0.639-4.923-1.065-6.945-1.201c-0.488-0.033-0.959-0.051-1.4-0.051
			c-4.504,0-6.71,1.876-7.777,3.507c-1.456,2.188-1.044,4.228-0.572,6.581c0.124,0.605,0.271,1.342,0.424,2.171
			c0.463,6.54,0.658,20.364-3.87,35.423c-1.27-2.322-4.032-4.364-8.897-6.665c-2.648-1.251-7.615-3.353-11.159-3.353
			c-2.756,0-4.503,1.122-5.483,2.063c-1.287,1.248-3.367,4.333-5.596,7.98c-1.355-1.461-3.601-3.091-7.324-5.092
			c-4.886-2.631-8.747-3.962-11.477-3.964c-2.985,0-5.509,1.423-6.746,3.81c-0.177,0.333-0.335,0.695-0.488,1.103
			c-0.394,0.882-1.373,3.073-2.763,6.181c-1.236-2.052-3.616-4.034-7.418-6.24c-3.051-1.771-7.382-3.883-10.69-3.883
			c-1.943,0-3.755,0.656-5.095,1.848c-0.009,0.009-0.02,0.018-0.028,0.026c-1.062,0.953-2.16,1.94-6.812,13.796
			c-0.623,1.583-1.259,3.24-1.9,4.943c-1.236-1.168-2.807-2.294-4.62-3.449c-2.828-2.114-8.09-5.449-13.167-5.449
			c-0.083,0-0.185,0-0.268,0.004c-1.725,0.062-11.622,0.493-24.412,1.124c0.084-0.583,0.185-1.146,0.28-1.689
			c0.217-1.256,0.426-2.44,0.428-3.641c0.009-3.794-2.132-5.763-3.406-6.601c-2.249-1.474-12.039-6.115-16.747-6.115
			c-2.283,0-3.849,0.827-4.791,1.568c0.559-8.779,0.137-14.724-0.33-17.208c-0.419-2.201-1.641-4.927-10.942-9.595
			c-1.633-0.818-4.047-1.942-6.287-2.659c-1.319-0.422-2.472-0.669-3.519-0.752c-0.275-0.022-0.55-0.035-0.814-0.035
			c-3.294,0-5.16,1.636-5.981,2.608c-0.02,0.024-0.037,0.046-0.054,0.068c-2.005,2.448-1.897,5.264-1.721,9.927
			c0.004,0.07,0.004,0.14,0.009,0.211c-0.136-1.205-0.261-1.958-0.31-2.235c-0.39-2.173-1.564-4.901-10.648-10.045
			c-1.635-0.922-4.041-2.193-6.265-3.027c-1.333-0.499-2.497-0.803-3.563-0.93c-0.396-0.049-0.793-0.073-1.17-0.073
			c-2.405,0-4.578,0.979-5.961,2.688c-0.026,0.031-0.053,0.064-0.077,0.094c-1.186,1.523-1.498,3.188-1.601,4.4
			c-0.499,3.115-3.42,20.694-8.149,36.157c-0.139-0.261-0.269-0.495-0.383-0.697l-0.093-0.171c-0.053-0.097-0.11-0.194-0.167-0.286
			c-0.523-0.842-1.909-3.08-10.116-6.799c-3.732-1.691-9.053-3.707-13.217-3.707c-3.173,0-5.191,1.131-6.344,2.105
			c-0.545,0.457-1.078,1.021-1.632,1.737c-0.659,0.535-1.201,1.188-1.593,1.92l-0.048,0.088c-1.456,2.653-5.081,9.331-9.661,18.295
			c-0.665-9.388-2.64-13.506-3.661-15.64l-0.092-0.194c-0.037-0.079-0.077-0.158-0.119-0.233c-1.28-2.42-4.598-5.101-9.859-7.974
			c-3.658-1.997-8.906-4.379-13.132-4.379c-1.856,0-3.511,0.424-4.919,1.265c-1.658,0.959-3.744,2.787-7.322,11.144
			c-2.105,4.914-4.292,11.125-6.229,17.674c-0.163-10.891-2.308-18.904-3.724-22.221c-0.018-0.042-0.037-0.084-0.057-0.125
			c-1.558-3.43-6.371-6.898-10.134-9.204c-3.889-2.382-9.518-5.22-14.243-5.222c-2.125,0-3.995,0.532-5.559,1.582
			c-0.042,0.028-0.081,0.055-0.121,0.084c-3.81,2.679-7.236,8.77-10.18,18.103c-3.621,11.469-6.307,27.157-7.982,46.626
			c-0.526,6.086-0.9,11.99-1.113,17.546c-0.099,2.602-0.165,5.169-0.196,7.628c-0.013,1.188-0.02,2.378-0.018,3.537
			c0,1.128,0.011,2.257,0.027,3.354c0.127,7.865,0.653,14.854,1.566,20.772c1.469,9.532,3.601,14.02,4.511,15.938
			c0.068,0.145,0.13,0.269,0.174,0.369c1.144,2.731,4.025,4.919,8.803,6.684c3.643,1.347,7.623,2.119,10.919,2.119
			c3.471,0,6.321-0.82,8.473-2.437c0.012-0.009,0.022-0.015,0.031-0.021c1.337-1.019,2.367-2.445,3.218-4.47
			c0.981-1.915,3.135-6.96,7.682-20.25c0.741,3.847,1.678,6.273,2.487,7.782c2.09,3.948,8.302,5.826,13.167,6.706
			c2.165,0.398,4.325,0.608,6.228,0.608c4.366,0,7.643-1.114,9.737-3.309c0.018-0.016,0.033-0.033,0.048-0.052
			c2.741-2.931,6.421-10.079,9.617-18.675c1.108-2.527,2.329-5.332,3.623-8.345c0.622,5.723,1.876,10.091,3.754,12.979
			c1.531,2.408,4.415,3.898,9.6,4.966c3.249,0.673,7.056,1.07,10.188,1.07c4.634,0,7.637-0.803,9.731-2.606
			c0.02-0.018,0.041-0.034,0.058-0.052c2.283-2.01,5.691-7.156,9.116-14.748c0.002,0.02,0.004,0.039,0.009,0.06
			c0.792,4.889,6.734,8.106,11.583,9.942c1.685,0.64,4.249,1.481,6.827,1.826c0.774,0.104,1.514,0.155,2.2,0.155
			c0.583,0,1.147-0.039,1.68-0.112c0.189-0.025,0.376-0.06,0.558-0.094c2.218-0.065,5.083-1.285,6.15-4.554
			c0.337-1.03,1.145-3.343,2.698-7.021c1.231,1.329,2.639,2.188,3.301,2.592c1.769,1.082,4.058,2.16,6.45,3.033
			c1.705,0.622,4.278,1.447,6.843,1.825c0.902,0.133,1.754,0.2,2.529,0.2c0.423,0,0.839-0.021,1.232-0.059
			c2.984-0.298,4.72-1.677,5.657-2.796c1.861-2.223,1.813-4.711,1.743-8.152c-0.088-4.342-0.233-11.607,2.028-23.22
			c0.605-3.087,1.285-5.912,2.017-8.587c0.715,0.645,1.558,1.161,2.495,1.515c0.017,0.007,0.035,0.014,0.054,0.02
			c1.039,0.383,2.13,0.577,3.238,0.577c6.371,0,10.238-5.941,13.982-11.689c0.378-0.584,0.745-1.148,1.108-1.693
			c2.846,5.365,4.931,8.556,8.163,10.919c3.535,2.584,7.59,3.467,12.932,4.43c0.013,0,0.021,0.002,0.035,0.004
			c0.938,0.163,1.777,0.257,2.558,0.281c-0.254,2.424-0.42,4.521-0.525,6.089c-0.51,7.553-0.38,12.43,0.387,14.495
			c0.002,0.012,0.007,0.021,0.009,0.031c0.959,2.545,3.212,4.633,12.351,8.37c4.239,1.734,9.901,3.801,12.804,3.801
			c0.529,0,1.048-0.05,1.54-0.147c0.063-0.013,0.128-0.025,0.191-0.04c2.996-0.679,4.67-2.651,6.505-6.688
			c1.488,0.994,3.35,2.064,5.675,3.213c4.787,2.355,8.499,3.548,11.046,3.548c1.472,0,2.847-0.361,4.008-1.026
			c1.64-0.77,2.855-2.155,3.371-3.797c0.118-0.36,0.861-2.58,2.092-6.035c0.985,1.867,2.853,3.203,4.978,4.584
			c1.843,1.197,4.196,2.565,6.627,3.85c7.371,3.88,10.411,4.404,12.418,4.404c2.437,0,4.57-0.923,6.003-2.597
			c0.009-0.011,0.015-0.02,0.023-0.03c2.094-2.477,2.29-5.611,2.561-9.951c0.265-4.25,0.624-10.072,2.627-17.479
			c0.229-0.849,0.492-1.733,0.778-2.64c1.664,1.098,4.03,2.151,7.367,3.35c2.665,0.957,7.489,2.539,10.572,2.656
			c0.129,0.009,0.271,0.017,0.426,0.021h0.143c0.215,0,0.426-0.009,0.636-0.024c-1.062,10.42-0.574,14.469,0.028,16.651
			c0.007,0.025,0.014,0.052,0.021,0.078c1.47,5.04,8.975,9.591,13.242,11.227c4.036,2.39,12.015,5.492,16.887,5.492
			c1.441,0,2.694-0.239,3.839-0.732c0.044-0.017,0.088-0.037,0.129-0.058c3.922-1.79,10.363-7.804,15.639-18.866
			c0.538-1.02,1.134-2.17,1.82-3.512c0.499,8.996,2.523,13.88,4.571,17.809c0.009,0.017,0.018,0.036,0.028,0.054
			c2.149,4.026,7.589,7.881,10.64,9.824c6.981,4.422,10.374,4.422,11.486,4.422c1.663,0,3.229-0.421,4.531-1.219
			c0.238-0.143,0.533-0.328,0.879-0.57c0.291,0.223,0.586,0.444,0.886,0.664c7.565,5.556,10.343,6.023,12.353,6.023
			c2.035,0,3.903-0.757,5.234-2.079c1.141-0.966,1.915-2.304,2.126-3.798c0.068-0.392,0.51-2.908,1.368-7.039
			c0.599,2.198,2.564,5.531,10.458,12.93c9.075,8.455,11.691,9.123,14.17,9.123c1.082,0,2.16-0.237,3.115-0.689
			c0.034-0.019,0.071-0.036,0.107-0.054c3.496-1.735,4.104-5.429,4.361-7.003c0.264-1.591,0.449-3.615,0.664-5.955
			c0.009-0.084,0.016-0.165,0.022-0.251c1.354,2.404,3.713,5.961,7.849,11.365c2.366,3.072,4.412,5.547,6.093,7.373l13.128,3.758
			c0.127-0.098,0.25-0.197,0.371-0.304c2.686-2.371,2.617-5.97,2.562-8.86c-0.051-2.525-0.264-5.864-0.532-10.094
			c-0.853-13.365-2.142-33.561-0.229-56.547C657.722,360.709,659.343,348.26,660.313,340.823z M649.292,379.394
			c-3.176,38.117,2.354,69.604,0.26,71.451c-0.07,0.056-0.158,0.082-0.262,0.082c-1.396,0-5.549-4.851-9.522-10.011
			c-4.269-5.577-8.331-11.496-8.552-13.356c-0.439-3.757-0.911-19.15,0.075-29.469c0.805-8.476,1.093-17.067,0.517-17.789
			c-0.009-0.009-0.02-0.014-0.028-0.014c-0.697,0-5.605,20.708-8.892,33.7c-3.335,13.268-2.619,26.034-4.395,26.914
			c-0.044,0.022-0.101,0.034-0.167,0.034c-1.192,0-5.438-3.5-9.547-7.326c-4.337-4.063-8.52-8.476-8.777-10.36
			c-0.514-3.873-1.534-25.98,1.659-47.404c0.353-2.356,0.72-4.787,1.095-7.252c-1.856,5.312-3.657,10.66-5.252,15.721
			c-8.102,26.143-11.685,46.89-11.685,46.989c-0.018-0.136-0.04-0.272-0.058-0.408c-0.067,0.277-0.148,0.505-0.25,0.671
			c-0.102,0.158-0.286,0.23-0.542,0.23c-1.388,0-4.864-2.176-8.307-4.705c-1.798-1.326-3.58-2.743-5.054-4.045
			c-2.019,2.071-3.594,3.192-4.315,3.625c-0.25,0.156-0.581,0.229-0.973,0.229c-1.764,0-4.811-1.458-7.816-3.363
			c-3.679-2.341-7.3-5.327-8.444-7.472c-2.293-4.4-6.078-11.793-2.607-37.685c0.422-3.129,0.97-6.234,1.61-9.285
			c-2.538,4.342-4.919,8.585-6.871,12.369c-5.39,10.673-8.342,16.585-10.354,20.386c-5.189,10.938-10.889,15.178-12.559,15.939
			c-0.272,0.118-0.65,0.172-1.112,0.172c-3.269,0-10.669-2.75-13.892-4.854c-3.72-1.186-9.271-5.14-9.903-7.309
			c-0.812-2.941-0.921-12.101,3.675-38.853c-4.91,10.414-8.735,17.591-10.692,17.591c0,0-0.005,0-0.007,0
			c-0.046,0-0.09-0.011-0.134-0.018c-0.027,0.002-0.049,0.002-0.075,0.002c-2.928,0-14.87-4.131-15.338-5.667
			c-0.275-0.935-0.339-3.893-0.297-8.438c0.044-4.536,1.676-10.906,1.386-11.108c-0.007-0.004-0.016-0.004-0.025-0.004
			c-0.779,0-8.296,15.961-11.162,26.517c-3.797,14.058-2.121,22.927-3.95,25.089c-0.174,0.203-0.482,0.292-0.897,0.292
			c-1.785,0-5.559-1.688-9.208-3.61c-4.503-2.381-8.814-5.121-8.973-5.89c-0.143-0.701,2.439-26.257,5.322-41.463
			c0.002-0.007,0.002-0.011,0.002-0.02c-1.766,3.92-3.619,8.056-5.454,12.187c-8.024,18.129-14.104,36.43-14.104,36.446
			c-0.057-0.094-0.116-0.186-0.175-0.279c-0.056,0.191-0.115,0.341-0.183,0.427c-0.122,0.154-0.368,0.226-0.721,0.226
			c-1.474,0-4.764-1.248-8.004-2.844c-4.012-1.979-7.947-4.498-8.268-6.062c-0.644-3.125,0.505-8.235-0.424-8.585
			c-0.009-0.002-0.018-0.004-0.028-0.004c-1,0-6.143,17.167-8.035,17.596c-0.053,0.011-0.118,0.017-0.198,0.017
			c-2.638,0-18.229-6.088-18.965-8.049c-0.762-2.052-0.286-19.104,2.89-32.926c1.088-4.725,2.151-8.884,3.158-12.353
			c-6.056,0.259-13.091,0.493-20.438,0.688c9.472,14.405,13.312,19.858,8.728,19.858c-0.49,0-1.076-0.064-1.76-0.183
			c-9.951-1.795-11.539-2.699-16.677-12.45c-2.16-4.113-2.736-6.269-4.025-6.911c-0.559,0.011-1.114,0.02-1.667,0.031
			c-1.447,0.717-2.996,3.053-4.835,5.759c-3.404,4.993-6.928,11.498-10.211,11.498c-0.285,0-0.57-0.049-0.851-0.152
			c-2.611-0.99,0.587-8.772,4.061-16.921c-3.135,0.037-6.17,0.068-9.049,0.085c-2.911,8.971-6.192,17.133-8.423,28.545
			c-3.668,18.825-1.315,27.289-2.463,28.646c-0.22,0.267-0.637,0.417-1.196,0.473c-0.167,0.018-0.348,0.024-0.542,0.024
			c-0.448,0-0.961-0.045-1.519-0.125c-1.595-0.233-3.559-0.777-5.484-1.482c-3.854-1.406-7.547-3.482-7.802-4.957
			c-0.324-1.85-0.139-8.017,2.956-23.914c0.042-0.212,0.092-0.432,0.134-0.647c-1.093,2.114-2.151,4.14-3.15,6.029
			c-10.668,19.969-13.259,29.025-13.292,29.025c-0.104-0.08-0.208-0.16-0.311-0.237c-0.233,0.202-0.581,0.334-1.024,0.396
			c-0.215,0.03-0.458,0.045-0.717,0.045c-0.387,0-0.819-0.034-1.28-0.096c-1.544-0.205-3.446-0.732-5.303-1.44
			c-3.72-1.407-7.284-3.559-7.537-5.133c-0.325-1.979,0.354-8.703,3.438-25.779c3.079-17.125,9.806-36.737,12.616-54.006
			c0.102-0.62,0.196-1.231,0.286-1.839c-2.907,8.462-6.299,18.451-9.12,27.072c-4.676,13.932-11.334,31.305-15.441,41.859
			c-4.766,14.344-10.097,22.229-11.876,23.795c-0.812,0.701-2.844,0.99-5.308,0.99c-5.517,0-13.198-1.455-14.17-3.045
			c-1.412-2.146-5.271-10.498-1.978-38.638c0.438-3.752,1.027-7.438,1.727-11.012c-0.361,0.913-0.717,1.834-1.064,2.771
			c-6.74,17.839-14.779,36.318-17.817,43.24c-3.577,9.657-6.911,15.191-8.402,16.787c-0.854,0.894-2.68,1.259-4.863,1.259
			c-1.556,0-3.293-0.185-4.994-0.497c-4.084-0.738-7.947-2.234-8.533-3.392c-1.168-2.165-5.165-12.41-1.771-45.242
			c0.035-0.333,0.073-0.665,0.108-0.995c-3.137,9.549-6.428,19.607-9.331,28.536c-7.483,22.76-10.288,29.031-11.06,30.44
			c-0.414,1.037-0.854,1.788-1.318,2.141c-1.029,0.772-2.598,1.09-4.388,1.09c-5.391,0-12.806-2.88-13.621-4.896
			c-0.545-1.288-2.754-4.97-4.287-14.9c-0.766-4.964-1.362-11.492-1.499-19.972c-0.015-1.06-0.026-2.149-0.026-3.271
			c-0.002-1.122,0.004-2.272,0.018-3.455c0.029-2.366,0.092-4.857,0.191-7.476c0.2-5.237,0.552-10.991,1.095-17.27
			c3.729-43.309,11.705-57.558,15.536-60.255c0.449-0.299,1.047-0.436,1.758-0.436c5.345,0,16.999,7.708,18.342,10.667
			c1.522,3.557,3.713,12.942,3.177,24.961c-0.537,12.006-3.137,24.687-3.713,25.703c-0.107,0.196-0.294,0.284-0.545,0.284
			c-2.558,0-11.79-9.421-11.887-13.092c-0.104-3.875,1.408-24.289,0.587-24.289c-0.007,0-0.016,0.004-0.024,0.006
			c-0.872,0.359-5.434,11.106-7.748,38.446c-1.848,22.089,0.154,35.936,2.763,42.289c-0.104-0.479-0.123-0.926-0.123-1.03
			c0.105,0.498,0.211,0.99,0.317,1.481c0.101,0.235,0.204,0.455,0.308,0.664c0.154,0.16,0.348,0.26,0.587,0.26
			c1.749,0,6.012-5.353,16.379-31.95c6.407-16.029,12.049-30.952,15.505-40.234c4.395-15.411,9.329-26.061,11.257-27.15
			c0.361-0.224,0.854-0.326,1.448-0.326c4.727,0,15.824,6.482,17.118,8.924c1.441,3.027,6.069,11.693,1.359,45.438
			c1.203-2.578,2.424-5.169,3.64-7.728c10.266-21.867,20.323-40.002,20.323-40.014c0.048,0.075,0.097,0.149,0.146,0.224
			c0.653-1.025,1.194-1.722,1.584-2.042c0.426-0.369,1.108-0.532,1.971-0.532c5.146,0,16.638,5.778,17.663,7.435
			c0.954,1.742,4.375,7.148,3.273,24.555c2.309-5.726,4.597-11.469,6.498-16.383c6.585-17.408,10.585-41.581,11.225-45.623
			c0.042-0.664,0.15-1.137,0.359-1.403c0.14-0.178,0.398-0.258,0.748-0.258c0.105,0,0.222,0.007,0.347,0.022
			c0.528,0.063,1.199,0.257,1.964,0.543c1.531,0.572,3.438,1.524,5.308,2.58c3.744,2.121,7.351,4.646,7.549,5.741
			c0.392,2.237,1.887,13.678-0.985,32.811c-3.031,20.248-9.516,30.816-13.171,50.816c-0.726,3.997-1.254,7.552-1.644,10.706
			c2.769-5.088,6.011-11.014,9.375-17.094c4.142-7.589,8.569-16.488,12.309-24.242c-4.058-0.093-6.571-0.253-6.848-0.488
			c-1.867-1.602-1.05-5.116,1.175-6.881v0.002c0.405-0.324,3.388-0.707,8.003-1.115c1.315-5.035,2.49-10.009,3.322-14.799
			c3.776-21.766,0.663-33.013,2.16-34.84c0.154-0.183,0.439-0.266,0.831-0.266c0.084,0,0.174,0.004,0.269,0.013
			c0.528,0.039,1.199,0.2,1.967,0.444c1.531,0.493,3.44,1.327,5.314,2.263c3.748,1.881,7.356,4.164,7.554,5.198
			c0.394,2.096,1.386,12.918-1.498,31.116c-0.548,3.462-1.208,6.616-1.942,9.584c3.324-0.207,6.805-0.411,10.351-0.614
			c1.872-6.594,3.022-18.296,4.074-19.183c0.119-0.096,0.325-0.141,0.603-0.141c2.502,0,10.844,3.592,13.001,5.009
			c1.837,1.203-1.375,6.41-0.008,13.369c15.55-0.794,28.943-1.383,31.114-1.463h0.018c2.601,0.002,6.318,2.002,9.283,4.254
			c2.714,1.716,4.927,3.493,4.932,4.349c0,0.291-0.058,0.574-0.156,0.884c0.031,0.14,0.044,0.272,0.024,0.389
			c-0.009,0.06-0.095,0.117-0.243,0.173c-0.839,1.925-2.947,5.117-4.812,14.634c-2.108,10.763-4.458,23.149-3.025,23.149
			c0.195,0,0.459-0.229,0.803-0.719c2.874-4.107,7.067-12.978,11.057-25.05c5.134-15.522,11.769-32.359,13.167-33.617
			c0.124-0.11,0.326-0.16,0.594-0.16c2.763,0,12.386,5.413,12.573,7.47c0.204,2.237-2.612,10.69-6.525,29.049
			c-0.983,4.61-1.67,9.313-2.163,13.796c2.143-4.16,4.521-8.997,6.918-14.309c7.648-16.904,15.094-33.551,16.2-36.043
			c0.084-0.238,0.168-0.438,0.251-0.592c0.119-0.235,0.418-0.341,0.852-0.341c3.231,0,13.957,5.88,14.256,7.556
			c0.539,3.049-6.394,26.009-4.364,26.763c0.002,0.002,0.004,0.002,0.01,0.002c0.472,0,4.052-9.674,9.817-20.109
			c5.47-9.92,8.689-14.377,9.363-14.993c0.146-0.141,0.422-0.207,0.798-0.207c3.24,0,13.904,4.874,14.32,6.939
			c0.23,1.133-3.66,13.526-5.548,26.517c-0.259,1.791-0.462,3.458-0.622,5.011c3.195-3.603,7.25-8.913,11.31-16.266
			c11.808-21.722,11.72-44.838,10.996-54.552c-0.503-2.809-0.957-4.518-0.807-4.734c0.254-0.404,1.064-0.58,2.203-0.58
			c0.291,0,0.604,0.011,0.934,0.033c1.623,0.11,3.669,0.475,5.678,0.999c4.019,1.038,7.896,2.736,7.971,4.161
			c0.082,1.518,2.33,5.297-0.596,19.689c0,0.002,0.002,0.004,0.005,0.007c0,0-0.007,0.009-0.009,0.009
			c-0.075,0.371-0.15,0.743-0.234,1.128c-0.665,3.097-1.402,6.095-2.19,9.091c0.515-0.123,1.087-0.178,1.696-0.178
			c4.201,0,10.125,2.62,11.013,4.122c1.153,1.745,7.427,10.961,3.423,40.208c0.975-1.794,1.953-3.607,2.922-5.428
			c10.426-19.261,21.57-39.376,21.57-39.422c0.062,0.075,0.122,0.152,0.187,0.226c0.66-0.958,1.223-1.621,1.652-1.942
			c0.404-0.286,0.928-0.418,1.539-0.418c3.005,0.002,8.151,3.132,11.697,6.128c0.841-4.991,1.461-7.905,1.96-8.484
			c0.122-0.158,0.331-0.23,0.609-0.23c2.882,0,13.289,7.853,13.467,11.328c0.149,2.825-2.375,20.632-4.958,40.06
			c-0.089,0.735-0.181,1.476-0.284,2.239c-0.065,0.493-0.134,0.977-0.204,1.461c-0.56,4.236-1.108,8.501-1.63,12.674
			c1.537-3.744,3.335-8.649,5.378-15.072c8.37-26.242,18.032-57.748,18.032-57.855c0.044,0.062,0.089,0.125,0.132,0.189
			c0.023-0.042,0.045-0.084,0.062-0.119c0.198-0.339,0.515-0.493,0.923-0.493c3.326,0.002,12.741,10.047,12.904,13.699
			c0.185,3.929-2.2,15.507-3.691,26.987c-1.487,11.54-3.649,28.314-2.748,28.314c0.003,0,0.003,0,0.005,0
			c0.913-0.131,3.838-12.056,10.109-35.883c6.268-24.038,9.087-35.287,11.032-37.064c0.153-0.141,0.373-0.207,0.646-0.207
			c3.134,0,13.276,8.854,13.483,13.587C654.933,331.512,652.465,340.748,649.292,379.394z M576.563,339.586
			c-1.058,0.002-9.41,20.65-11.891,37.02c-2.194,14.632-0.907,31.079-0.133,31.724c0.013,0.012,0.026,0.016,0.04,0.016
			c0.896,0,5.833-20.877,8.123-34.024c2.275-12.881,4.851-34.28,3.883-34.732C576.581,339.589,576.572,339.586,576.563,339.586z"/>
	</g>
</g>
</svg>
