<?xml version="1.0" encoding="utf-8"?>
<!-- Generator: Adobe Illustrator 15.1.0, SVG Export Plug-In . SVG Version: 6.00 Build 0)  -->
<!DOCTYPE svg PUBLIC "-//W3C//DTD SVG 1.1//EN" "http://www.w3.org/Graphics/SVG/1.1/DTD/svg11.dtd">
<svg version="1.1" id="Layer_1" xmlns="http://www.w3.org/2000/svg" xmlns:xlink="http://www.w3.org/1999/xlink" x="0px" y="0px"
	 width="800px" height="800px" viewBox="0 0 800 800" enable-background="new 0 0 800 800" xml:space="preserve">
<rect fill="#1B1817" width="800" height="800"/>
<g>
	<g>
		<path fill="#FFFFFF" d="M582.88,400.963c-21.723-21.261-50.71-32.972-81.619-32.972H298.258c-30.89,0-59.89,11.844-81.658,33.351
			c-21.864,21.604-33.908,50.484-33.908,81.319c0,30.837,12.047,59.716,33.92,81.314c21.771,21.499,50.777,33.338,81.677,33.338
			c26.27,0,45.835-13.507,63.096-25.428c8.012-5.533,15.581-10.759,23.406-14.492c1.69-0.808,7.062-2.008,14.924-2.008
			c7.976,0,13.444,1.228,15.173,2.054c7.889,3.761,15.521,9.111,23.602,14.771c17.165,12.027,36.623,25.657,62.771,25.657
			c63.732,0,115.58-51.975,115.58-115.861C616.841,451.181,604.78,422.397,582.88,400.963z M501.261,569.293
			c-17.127,0-30.675-9.493-46.362-20.484c-8.686-6.084-17.663-12.373-27.7-17.16c-8.828-4.21-21.008-4.84-27.483-4.84
			c-6.42,0-18.495,0.622-27.24,4.797c-9.884,4.715-18.757,10.843-27.338,16.77c-15.824,10.926-29.492,20.364-46.848,20.364
			c-23.33,0-45.201-8.912-61.586-25.095c-16.396-16.188-25.421-37.847-25.421-60.983c0-23.142,9.026-44.804,25.414-60.993
			c16.383-16.186,38.245-25.098,61.563-25.098h203.002c23.388,0,45.271,8.811,61.618,24.812
			c16.363,16.017,25.376,37.546,25.376,60.624C588.255,530.135,549.228,569.293,501.261,569.293z M322.053,468.012h-10.003v-10.001
			c0-18.576-28.588-18.576-28.588,0c0,0,0,4.061,0,10.001h-10.006c-18.582,0-18.582,28.577,0,28.577c0,0,4.042,0,10.006,0v10.001
			c0,18.573,28.588,18.573,28.588,0v-10.001h10.003C340.637,496.589,340.637,468.012,322.053,468.012z M248.849,341.946
			c-0.175,18.434,28.411,18.417,28.587,0c0.136-14.132,4.451-25.261,10.232-37.953c3.318-7.291,1.957-15.065-5.129-19.551
			c-10.771-6.816-12.062-19.571-5.253-29.648c6.971-10.315,22.304-8.453,30.091-0.704c4.169,4.149,12.239,6.03,17.322,2.234
			c45.478-33.965,106.029-33.941,151.524-0.024c5.088,3.793,13.146,1.915,17.323-2.233c9.783-9.722,27.6-8.188,32.998,5.654
			c2.823,7.229,1.609,9.639-2.445,16.205c-2.516,4.074-4.876,6.942-8.585,10.728c-4.77,4.864-5.085,11.419-2.236,17.315
			c0.429,0.883,0.83,1.779,1.228,2.677c-0.373-0.821,0.952,2.284,1.05,2.526c0.847,2.116,1.621,4.26,2.38,6.41
			c3.008,8.494,5.411,17.318,5.588,26.364c0.36,18.402,28.948,18.439,28.586,0c-0.283-14.53-4.174-29.024-9.745-42.56
			c3.453-4.303,6.556-8.915,9.104-13.708c7.296-13.73,5.951-28.618-1.153-42.138c-13.043-24.825-44.69-30.208-67.181-17.159
			c-49.578-32.305-115.698-32.345-165.276-0.029c-19.78-11.728-46.182-8.87-61.89,9.633c-16.631,19.596-14.319,47.229,2.126,64.829
			C252.711,313.982,248.995,326.811,248.849,341.946z M426.043,325.604c0,7.825,6.345,14.167,14.175,14.167
			c7.829,0,14.176-6.343,14.176-14.167c0-7.827-6.347-14.168-14.176-14.168C432.388,311.436,426.043,317.777,426.043,325.604z
			 M518.206,449.883c-8.421,0-15.245,6.823-15.245,15.241c0,8.416,6.824,15.242,15.245,15.242s15.248-6.826,15.248-15.242
			C533.454,456.706,526.627,449.883,518.206,449.883z M482.832,485.245c-8.421,0-15.248,6.824-15.248,15.242
			c0,8.415,6.827,15.24,15.248,15.24c8.42,0,15.246-6.825,15.246-15.24C498.078,492.069,491.252,485.245,482.832,485.245z
			 M345.999,325.604c0,7.825,6.344,14.167,14.173,14.167c7.829,0,14.173-6.343,14.173-14.167c0-7.827-6.344-14.168-14.173-14.168
			C352.342,311.436,345.999,317.777,345.999,325.604z"/>
	</g>
</g>
</svg>
