<?xml version="1.0" encoding="utf-8"?>
<!-- Generator: Adobe Illustrator 15.1.0, SVG Export Plug-In . SVG Version: 6.00 Build 0)  -->
<!DOCTYPE svg PUBLIC "-//W3C//DTD SVG 1.1//EN" "http://www.w3.org/Graphics/SVG/1.1/DTD/svg11.dtd">
<svg version="1.1" id="Layer_1" xmlns="http://www.w3.org/2000/svg" xmlns:xlink="http://www.w3.org/1999/xlink" x="0px" y="0px"
	 width="800px" height="800px" viewBox="0 0 800 800" enable-background="new 0 0 800 800" xml:space="preserve">
<rect fill="#1B1817" width="800" height="800"/>
<g>
	<g>
		<path fill="#FFFFFF" d="M302.001,470.905c0,7.622-6.374,13.989-14.002,13.989c-7.625,0-13.999-6.367-13.999-13.989v-13.153
			h-27.999v13.153c0,18.1,12.494,34.537,28.702,40.252c4.449,1.588,8.531,1.715,13.296,1.715c4.769,0,10.219-0.127,14.668-1.715
			C318.875,505.442,330,489.005,330,470.905v-13.153h-28V470.905z M414.177,513.606h27.967l0.138-83.854h-28.002L414.177,513.606z
			 M358.242,513.606h27.967l0.072-83.854h-28.002L358.242,513.606z M526.249,471.083c0,7.627-6.357,13.983-13.984,13.983
			s-13.983-6.356-13.983-13.983v-13.667h-27.965v13.667c0,18.115,11.76,33.687,27.965,39.407c4.451,1.589,8.901,2.54,13.983,2.54
			h0.317c18.115-0.317,33.37-11.757,39.09-27.964c1.59-4.452,2.544-9.218,2.544-13.983l0.063-13.331H526.28L526.249,471.083z
			 M176.001,485.434c-7.627,0-13.868-6.967-13.868-14.595l-0.132-41.407H134l0.169,41.407c0,18.116,11.759,33.688,27.964,39.41
			c4.449,1.588,8.782,3.183,13.868,3.183c4.766,0,41.998,0,41.998,0v-27.998H190C190,485.434,179.861,485.434,176.001,485.434z
			 M638.01,471.627c0,7.604-6.376,13.807-14.01,13.807h-15.12v0.001l-26.319,0.02v27.978h26.319l15.133,0.005
			c4.771,0,9.542-0.951,13.997-2.532c16.221-5.702,27.673-20.906,27.99-38.961v-0.316c0-0.091,0-42.195,0-42.195h-28.001
			C637.999,429.432,638.01,471.531,638.01,471.627z M302.667,320.25c-4.449-1.587-9.215-2.541-13.981-2.541
			c-4.768,0-9.535,0.954-13.983,2.541c-16.208,5.715-28.702,20.61-28.702,39.027v70.476H274l0.28-70c0-7.623,6.372-14,14-14
			c7.627,0,14.001,6.377,14.001,14l-0.28,70h28v-70.476C330,340.86,318.875,325.965,302.667,320.25z M414.177,319.987
			c-4.449-1.588-9.215-2.542-13.983-2.542c-4.767,0-9.535,0.954-13.984,2.542c-16.208,5.722-27.967,21.293-27.967,39.409
			l0.037,42.355h84.002l-0.138-42.355C442.144,341.28,430.385,325.709,414.177,319.987z M414.177,373.433h-27.967v-14.037
			c0-7.627,6.356-13.983,13.984-13.983c7.627,0,13.983,6.356,13.983,13.983V373.433z M551.672,344.889
			c-5.72-16.206-20.975-27.65-39.09-27.967h-0.317c-5.082,0-9.532,0.954-13.983,2.544c-16.205,5.72-27.965,20.974-27.965,39.089
			v4.885c0,5.403,1.907,10.486,5.084,14.618l42.087,51.715l34.832-0.021l-51.813-65.044c-2.037-2.446-2.225-5.835-2.225-5.835
			c0-7.627,6.356-13.984,13.983-13.984s13.984,6.356,13.984,13.984l0.031,14.879h27.999l-0.063-14.879
			C554.216,354.106,553.262,349.338,551.672,344.889z M582.001,317.432v28.001l41.999,28h-41.999v83.999H610v-56.001h55.44v-27.998
			l-41.44-28h42v-28.001H582.001z M134,345.433h56v111.999h27.999v-140H134V345.433z"/>
	</g>
</g>
</svg>
