<?xml version="1.0" encoding="utf-8"?>
<!-- Generator: Adobe Illustrator 15.1.0, SVG Export Plug-In . SVG Version: 6.00 Build 0)  -->
<!DOCTYPE svg PUBLIC "-//W3C//DTD SVG 1.1//EN" "http://www.w3.org/Graphics/SVG/1.1/DTD/svg11.dtd">
<svg version="1.1" id="Layer_1" xmlns="http://www.w3.org/2000/svg" xmlns:xlink="http://www.w3.org/1999/xlink" x="0px" y="0px"
	 width="800px" height="800px" viewBox="0 0 800 800" enable-background="new 0 0 800 800" xml:space="preserve">
<rect fill="#1B1817" width="800" height="800"/>
<g>
	<g>
		<path fill-rule="evenodd" clip-rule="evenodd" fill="#FFFFFF" d="M625.895,434.303c-2.59-22.693-22.744-51.53-29.001-61.297
			c-45.978-71.743-104.506-76.292-179.849-76.292c-7.798,0-18.53,0.083-29.58,0.195c3.355-3.592,6.344-7.556,8.891-11.832
			c8.148-13.679,11.488-30.038,9.401-46.061c-0.49-3.759-1.32-7.464-2.126-11.05c-0.331-1.488-0.657-2.933-0.938-4.311
			c-6.329-15.767-15.137-28.372-26.182-37.472c-11.197-9.228-25.077-15.157-41.25-17.623c-14.375-2.193-28.609-0.949-42.307,3.698
			c-23.498,7.969-42.398,24.911-53.598,46.667c-6.541,10.793-11.492,21.121-14.115,26.203
			c-39.106,75.712-13.779,128.705,23.891,193.995c3.888,6.736,9.307,15.963,14.913,25.453c-9.426-2.193-19.328-2.373-29.167-0.398
			c-3.179,0.637-6.345,1.488-9.404,2.527c-16.597,5.629-30.979,17.104-40.491,32.303c-9.612,15.363-13.799,33.861-11.787,52.096
			c2.266,20.523,11.745,39.865,26.696,54.461c9.21,8.99,20.253,15.936,32.27,20.453c20.927,9.145,56.032,6.09,67.632,5.549
			c85.08-3.971,118.283-52.412,155.953-117.703c3.951-6.848,9.337-16.35,14.84-26.117c3.229,10.447,8.929,20.225,16.683,28.379
			c11.064,11.637,25.809,19.482,41.513,22.086c13.287,2.205,27.069,1.08,39.854-3.256c27.341-9.271,48.117-31.85,55.574-60.4
			C627.67,461.307,628.19,447.609,625.895,434.303z M274.916,207.987c7.484-6.912,16.055-12.036,25.485-15.234
			c27.463-9.316,56.995-0.329,73.484,22.368c16.973,23.361,13.877,54.215-7.201,71.768c-4.094,3.407-8.722,6.001-13.751,7.708
			c-15.086,5.116-30.678,1.433-40.689-9.617c-8.476-9.359-10.382-22.355-4.752-32.346c2.459-4.361,6.491-7.75,11.065-9.304
			c2.375-0.805,4.729-1.062,6.995-0.76c4.488,0.592,7.722,2.722,9.107,5.991c0.467,1.104,0.692,2.269,0.683,3.462
			c-0.001,0.108-0.013,0.217-0.018,0.326c0.905,3.65,4.191,6.359,8.118,6.359c4.5,0,8.16-3.555,8.354-8.009
			c0.011-1.111,0.019-1.434,0.019-0.369c0,0.125-0.013,0.246-0.019,0.369c-0.002,0.197-0.004,0.423-0.006,0.667
			c0.692-4.486-0.046-9.406-2.434-13.69c-7.196-12.909-23.323-18.582-38.348-13.486c-1.779,0.605-3.53,1.36-5.206,2.246
			c-20.291,10.727-28.542,37.059-18.401,58.696c6.232,13.296,16.881,23.588,29.983,28.98c8.761,3.606,18.375,4.919,28.03,3.954
			c9.744-0.05,30.821-0.113,75.095-0.113c55.308,0,104.008,3.208,138.721,39.464c-11.657-3.895-24.4-5.794-38.824-5.778
			l-30.484,0.035c-48.708,0.062-99.076,0.125-148.617-0.03c-34.534-0.11-61.125-14.542-79.029-42.896
			C241.684,276.142,247,233.768,274.916,207.987z M446.309,373.863L373.379,500.26L300.45,373.863H446.309z M315.395,592.697
			c-8.37,6.289-17.011,10.965-25.684,13.908c-18.139,6.152-36.887,4.938-55.729-3.611c-30.497-13.836-46.271-47.861-36.697-79.145
			c5.267-17.207,18.347-30.848,34.991-36.492c5.289-1.795,10.834-2.762,16.472-2.875c11.8-0.23,23.437,4.434,31.927,12.805
			c7.848,7.736,12.148,17.658,12.111,27.945c-0.05,13.662-7.896,25.488-19.52,29.434c-2.312,0.783-4.73,1.234-7.184,1.342
			c-7.708,0.334-13.762-2.682-17.046-8.492c-2.132-3.775-1.769-8.732-1.51-10.689c0.125-0.959,0.442-1.854,0.899-2.658
			c-0.49-0.049-0.518-0.232,0.125-0.604c0.171-0.1,0.33-0.209,0.491-0.318c0.489-0.617,1.08-1.148,1.751-1.582
			c2.18-2.621,2.625-6.422,0.824-9.545c-1.791-3.1-5.258-4.609-8.591-4.066c-0.088,0.033-0.178,0.057-0.266,0.092
			c-11.416,4.416-17.932,18.297-14.53,30.943c5.46,20.293,27.146,32.248,48.341,26.648c1.124-0.297,2.248-0.635,3.343-1.006
			c24.174-8.199,38.456-34.434,33.219-61.027c-1.13-5.742-3.093-11.225-5.783-16.336l0.075-0.043c0,0-5.078-8.451-41.642-71.82
			c-27.524-47.704-49.027-91.324-35.4-139.266c2.635,12.345,7.617,24.73,15.011,37.38c29.602,50.639,59.428,102.33,91.178,158.031
			c10.069,17.66,13.397,38.996,9.376,60.08C341.922,562.82,331.07,580.922,315.395,592.697z M569.513,510.988
			c-2.788,1.418-5.663,2.633-8.546,3.607c-26.533,9.004-54.744-1.971-67.086-26.088c-10.292-20.117-3.3-45.801,15.274-56.086
			c1.807-1.002,3.706-1.842,5.641-2.498c12.928-4.387,26.274-0.506,33.208,9.652c4.126,6.043,5.031,12.205,2.692,18.314
			c-1.548,4.041-4.162,6.711-7.765,7.934c-0.825,0.281-1.706,0.479-2.622,0.598c-2.437,0.311-4.557-0.188-6.219-1.396
			c-3.328-0.533-6.789,0.982-8.573,4.076c-1.627,2.814-1.421,6.172,0.23,8.729c4.986,5.244,12.999,7.941,20.543,6.555
			c1.503-0.275,2.986-0.66,4.411-1.141c15.092-5.119,24.236-21.715,21.27-38.607c-4.278-24.344-27.67-40.761-53.254-37.373
			c-3.749,0.494-7.445,1.357-10.99,2.559c-13.051,4.426-23.669,13.195-30.708,24.453l-0.042-0.025c0,0-0.213,0.385-0.888,1.578
			c-0.28,0.48-0.556,0.965-0.823,1.453c-3.446,6.07-13.29,23.309-39.633,68.965c-27.409,47.506-54.296,87.814-102.225,100.16
			c8.133-7.186,15.077-15.715,20.749-25.531c11.617-20.111,23.374-40.598,34.745-60.41c19.188-33.436,39.03-68.012,58.826-101.861
			c11.617-19.858,27.617-33.359,47.556-40.121c8.255-2.8,17.22-4.423,26.648-4.823c37.354-1.585,69.763,20.891,80.646,55.926
			C612.616,461.912,598.712,496.145,569.513,510.988z"/>
	</g>
</g>
</svg>
