<?xml version="1.0" encoding="utf-8"?>
<!-- Generator: Adobe Illustrator 15.1.0, SVG Export Plug-In . SVG Version: 6.00 Build 0)  -->
<!DOCTYPE svg PUBLIC "-//W3C//DTD SVG 1.1//EN" "http://www.w3.org/Graphics/SVG/1.1/DTD/svg11.dtd">
<svg version="1.1" id="Layer_1" xmlns="http://www.w3.org/2000/svg" xmlns:xlink="http://www.w3.org/1999/xlink" x="0px" y="0px"
	 width="250px" height="71.333px" viewBox="0 83.5 250 71.333" enable-background="new 0 83.5 250 71.333" xml:space="preserve">
<path fill="#CCBBA3" d="M205.734,99.927c0.529-0.918,1.168-1.671,1.913-2.266c0.745-0.598,1.532-1.054,2.36-1.377
	c0.831-0.315,1.41-0.445,2.18-0.476h-7.428v-7.151h-12.974c0.358,0.114,0.676,0.276,0.954,0.475
	c0.239,0.198,0.459,0.457,0.658,0.775c0.201,0.316,0.296,0.717,0.296,1.193v28.726c0,0.079-0.009,0.267-0.029,0.564
	c-0.019,0.3-0.027,0.629-0.027,0.987c0,1.153,0.185,2.227,0.564,3.219c0.377,0.997,0.896,1.854,1.55,2.569
	c0.659,0.714,1.443,1.28,2.357,1.702c0.911,0.417,1.93,0.622,3.043,0.622h6.472c-0.517-0.278-0.995-0.654-1.43-1.131
	c-0.361-0.438-0.688-0.984-0.983-1.643c-0.302-0.658-0.451-1.5-0.451-2.534v-21.233C204.899,101.817,205.22,100.807,205.734,99.927
	 M223.878,102.714c0.302-0.658,0.64-1.204,1.007-1.643c0.442-0.479,0.932-0.874,1.459-1.194h-6.323c-0.957,0-1.857,0.17-2.714,0.512
	c-0.855,0.335-1.63,0.824-2.328,1.456c-0.696,0.64-1.263,1.382-1.698,2.242c-0.438,0.854-0.68,1.779-0.717,2.773
	c-0.041,0.315-0.06,1.032-0.06,2.58v10.296c0,0.739,0.01,1.353,0.032,1.85c0.019,0.499,0.027,0.805,0.027,0.926
	c0.037,1.036,0.279,1.968,0.717,2.801c0.436,0.841,1.002,1.575,1.698,2.21c0.698,0.636,1.473,1.124,2.328,1.461
	c0.856,0.339,1.757,0.506,2.714,0.506h6.323c-0.527-0.278-1.017-0.654-1.459-1.131c-0.367-0.438-0.705-0.993-1.007-1.67
	c-0.304-0.676-0.456-1.533-0.456-2.568v-18.875C223.422,104.214,223.574,103.369,223.878,102.714 M239.601,128.555
	c0.772-0.407,1.372-0.97,1.808-1.694c0.432-0.722,0.648-1.696,0.648-2.917c0-1.536-0.536-2.835-1.604-3.901
	c-1.065-1.059-2.371-1.593-3.917-1.593c-1.547,0-2.851,0.534-3.918,1.593c-1.07,1.065-1.604,2.365-1.604,3.901
	c0,1.626,0.587,2.984,1.773,4.07c-1.137,0.813-2.546,1.29-4.228,1.426c0.818,0.041,1.626,0.076,2.423,0.099
	c0.793,0.025,1.575,0.038,2.352,0.038c1.267,0,2.44-0.072,3.51-0.205C237.911,129.234,238.826,128.962,239.601,128.555
	 M230.566,112.266c-0.322,0.568-0.657,1.041-1.021,1.42c-0.437,0.414-0.911,0.743-1.429,0.981h6.395
	c0.955,0,1.858-0.147,2.722-0.437c0.854-0.293,1.622-0.708,2.3-1.24c0.677-0.532,1.227-1.171,1.646-1.914
	c0.416-0.737,0.668-1.539,0.742-2.402c0,0.007,0.003-0.881,0.029-1.21c0.028-0.322,0.033-0.814,0.033-0.84
	c0-0.963-0.203-1.849-0.598-2.657c-0.398-0.808-0.942-1.514-1.616-2.117c-0.676-0.604-1.474-1.077-2.391-1.422
	c-0.916-0.344-1.872-0.516-2.867-0.516h-6.395c0.518,0.276,0.992,0.623,1.429,1.032c0.363,0.378,0.698,0.854,1.021,1.421
	c0.316,0.566,0.476,1.303,0.476,2.196v5.511C231.042,110.966,230.883,111.7,230.566,112.266 M168.249,102.638
	c0.304-0.656,0.638-1.203,1.004-1.639c0.445-0.476,0.935-0.875,1.463-1.196h-6.606c-0.915,0-1.811,0.173-2.684,0.508
	c-0.879,0.339-1.655,0.825-2.329,1.463c-0.677,0.633-1.233,1.385-1.67,2.237c-0.438,0.855-0.677,1.78-0.715,2.775
	c-0.04,0.319-0.059,1.252-0.059,2.804v10.146c0,0.739,0.01,1.353,0.029,1.85c0.021,0.499,0.029,0.805,0.029,0.926
	c0.038,1.036,0.277,1.968,0.715,2.801c0.437,0.841,0.993,1.575,1.67,2.21c0.674,0.636,1.45,1.124,2.329,1.461
	c0.873,0.339,1.769,0.506,2.684,0.506h6.606c-0.528-0.278-1.018-0.654-1.463-1.131c-0.366-0.438-0.7-0.993-1.004-1.67
	c-0.307-0.676-0.46-1.533-0.46-2.568v-18.944C167.789,104.143,167.942,103.296,168.249,102.638 M180.806,118.376
	c-1.492,0-2.77,0.526-3.827,1.592c-1.063,1.062-1.594,2.366-1.594,3.903c0,1.626,0.587,2.983,1.759,4.07
	c-1.22,0.814-2.618,1.285-4.199,1.424c0.771,0.046,1.535,0.082,2.304,0.101c0.77,0.021,1.513,0.033,2.236,0.033
	c1.266,0,2.426-0.064,3.49-0.201c1.062-0.14,1.987-0.408,2.775-0.814c0.793-0.408,1.415-0.974,1.866-1.698
	c0.45-0.725,0.678-1.694,0.678-2.914c0-1.537-0.529-2.841-1.595-3.903C183.641,118.902,182.341,118.376,180.806,118.376
	 M180.697,99.914c-1.52,0-2.823,0.539-3.905,1.623c-1.087,1.081-1.623,2.407-1.623,3.973c0,1.569,0.536,2.891,1.623,3.972
	c1.082,1.084,2.386,1.627,3.905,1.627c1.564,0,2.889-0.543,3.975-1.627c1.08-1.081,1.622-2.403,1.622-3.972
	c0-1.566-0.542-2.892-1.622-3.973C183.586,100.453,182.262,99.914,180.697,99.914 M137.652,112.266
	c-0.316,0.568-0.658,1.041-1.013,1.42c-0.444,0.414-0.921,0.743-1.437,0.981h6.543c0.956,0,1.862-0.147,2.719-0.437
	c0.856-0.293,1.627-0.708,2.303-1.24c0.679-0.532,1.223-1.171,1.642-1.914c0.418-0.737,0.669-1.539,0.75-2.402
	c0,0.007,0.004-0.734,0.028-1.063c0.027-0.342,0.029-1.112,0.029-1.058c0-0.964-0.2-1.854-0.595-2.665
	c-0.4-0.808-0.938-1.512-1.615-2.115s-1.476-1.075-2.393-1.421c-0.919-0.345-1.875-0.515-2.868-0.515h-6.543
	c0.516,0.275,0.992,0.617,1.437,1.034c0.354,0.376,0.696,0.85,1.013,1.42c0.319,0.566,0.479,1.296,0.479,2.195v5.583
	C138.132,110.966,137.972,111.7,137.652,112.266 M148.496,126.787c0.43-0.725,0.645-1.697,0.645-2.917c0-1.537-0.533-2.837-1.6-3.9
	c-1.067-1.065-2.376-1.595-3.92-1.595c-1.543,0-2.853,0.53-3.92,1.595c-1.065,1.062-1.6,2.363-1.6,3.9
	c0,1.629,0.588,2.983,1.77,4.07c-1.133,0.814-2.542,1.285-4.226,1.424c0.818,0.046,1.626,0.082,2.422,0.101
	c0.793,0.024,1.581,0.033,2.351,0.033c1.274,0,2.44-0.064,3.51-0.201c1.068-0.14,1.986-0.408,2.761-0.814
	C147.459,128.078,148.062,127.512,148.496,126.787 M131.113,102.714c0.303-0.658,0.642-1.204,1.003-1.643
	c0.449-0.479,0.937-0.874,1.464-1.194h-6.471c-0.955,0-1.861,0.17-2.714,0.512c-0.857,0.335-1.632,0.824-2.33,1.456
	c-0.698,0.64-1.262,1.382-1.697,2.242c-0.44,0.854-0.678,1.779-0.717,2.773c-0.043,0.315-0.062,1.104-0.062,2.658v10.217
	c0,0.739,0.01,1.353,0.032,1.85c0.02,0.499,0.03,0.805,0.03,0.926c0.039,1.036,0.276,1.968,0.717,2.801
	c0.435,0.841,1,1.575,1.697,2.21c0.697,0.636,1.472,1.124,2.33,1.461c0.854,0.339,1.759,0.506,2.714,0.506h6.471
	c-0.527-0.278-1.015-0.654-1.464-1.131c-0.361-0.438-0.7-0.993-1.003-1.67c-0.303-0.676-0.459-1.533-0.459-2.568v-18.875
	C130.654,104.214,130.811,103.369,131.113,102.714 M82.586,135.331c0,1.035-0.156,1.893-0.475,2.57
	c-0.32,0.674-0.658,1.23-1.015,1.667c-0.438,0.479-0.916,0.854-1.433,1.136h6.385c0.957,0,1.859-0.17,2.716-0.506
	c0.854-0.34,1.619-0.824,2.295-1.464c0.673-0.642,1.223-1.372,1.637-2.209c0.421-0.834,0.668-1.768,0.746-2.805
	c0.041-0.558,0.064-1.113,0.064-1.669v-29.74c0-0.518,0.099-0.925,0.298-1.223c0.198-0.298,0.415-0.546,0.653-0.749
	c0.278-0.198,0.599-0.358,0.956-0.475H82.586V135.331z M112.066,106.787c-0.082-0.996-0.328-1.92-0.746-2.775
	c-0.417-0.853-0.974-1.589-1.671-2.208c-0.697-0.615-1.472-1.091-2.326-1.433c-0.855-0.335-1.76-0.505-2.714-0.505h-6.324
	c0.518,0.277,0.995,0.658,1.433,1.134c0.357,0.437,0.685,0.994,0.981,1.668c0.301,0.677,0.448,1.514,0.448,2.511v19.006
	c0,1.035-0.147,1.876-0.448,2.534c-0.296,0.658-0.624,1.205-0.981,1.643c-0.438,0.477-0.915,0.853-1.433,1.131h6.324
	c0.955,0,1.859-0.167,2.714-0.506c0.854-0.337,1.629-0.815,2.326-1.434c0.697-0.615,1.254-1.35,1.671-2.206
	c0.418-0.857,0.664-1.778,0.746-2.776v-0.984c0-0.498,0.01-1.111,0.029-1.85c0.02-0.733,0.03-1.542,0.03-2.415v-2.687
	c0-1.871-0.01-3.44-0.03-5.015C112.076,108.053,112.066,107.106,112.066,106.787 M72.844,116.781
	c-0.692-0.659-1.487-1.171-2.38-1.547c-0.893-0.381-1.815-0.574-2.766-0.574h-6.373c0.522,0.323,1.004,0.72,1.446,1.196
	c0.362,0.437,0.696,0.984,0.998,1.642c0.3,0.658,0.451,1.501,0.451,2.534v4.165c0,1.034-0.151,1.879-0.451,2.535
	c-0.301,0.656-0.636,1.205-0.998,1.641c-0.442,0.477-0.924,0.857-1.446,1.135h6.373c0.911,0,1.803-0.171,2.678-0.505
	c0.874-0.338,1.646-0.815,2.321-1.435c0.673-0.618,1.22-1.35,1.635-2.205c0.419-0.856,0.666-1.781,0.747-2.779v-0.417
	c0-0.037,0.018-0.075,0.058-0.115c-0.009-1.05-0.217-1.964-0.624-2.883C74.092,118.235,73.539,117.438,72.844,116.781
	 M69.545,99.838c-1.522,0-2.825,0.535-3.903,1.61c-1.082,1.079-1.626,2.396-1.626,3.949c0,1.511,0.544,2.818,1.626,3.916
	c1.078,1.099,2.381,1.648,3.903,1.648c1.563,0,2.887-0.55,3.97-1.648c1.083-1.098,1.625-2.405,1.625-3.916
	c0-1.553-0.542-2.87-1.625-3.949C72.432,100.373,71.108,99.838,69.545,99.838 M56.623,123.938c0-1.556-0.556-2.872-1.665-3.947
	c-1.107-1.076-2.424-1.615-3.944-1.615c-1.571,0-2.899,0.539-3.985,1.615c-1.086,1.075-1.627,2.392-1.627,3.947
	c0,1.506,0.541,2.813,1.627,3.914c1.086,1.099,2.414,1.646,3.985,1.646h4.048c0.995,0,2.323-0.022,3.985-0.064
	c-1.525-0.05-2.958-0.528-4.294-1.445C56,126.889,56.623,125.541,56.623,123.938 M56.873,102.684
	c0.294-0.678,0.62-1.235,0.974-1.672c0.431-0.475,0.926-0.873,1.479-1.195h-6.373c-0.951,0-1.854,0.172-2.705,0.507
	c-0.855,0.342-1.629,0.828-2.326,1.463c-0.696,0.638-1.249,1.385-1.668,2.236c-0.415,0.858-0.644,1.783-0.683,2.78
	c-0.041,0.156-0.058,0.315-0.058,0.475c0,1.074,0.195,2.005,0.595,2.939c0.396,0.936,0.943,1.729,1.635,2.386
	c0.696,0.658,1.487,1.176,2.382,1.551c0.893,0.377,1.837,0.569,2.828,0.569h6.373c-0.553-0.319-1.048-0.717-1.479-1.196
	c-0.354-0.436-0.68-0.983-0.974-1.642c-0.299-0.658-0.445-1.5-0.445-2.535v-4.164C56.428,104.197,56.574,103.36,56.873,102.684
	 M75.137,122.108v-0.058v0.002C75.137,122.072,75.137,122.092,75.137,122.108 M38.286,128.27c-0.199-0.298-0.3-0.704-0.3-1.226
	v-18.587c0-0.554-0.021-1.11-0.059-1.669c-0.078-0.996-0.329-1.92-0.743-2.775c-0.42-0.853-0.964-1.604-1.639-2.237
	c-0.675-0.638-1.45-1.124-2.323-1.463c-0.874-0.335-1.913-0.508-2.829-0.508h-6.369c0.521,0.321,1.003,0.72,1.448,1.196
	c0.36,0.437,0.693,0.983,0.996,1.639c0.3,0.658,0.45,1.504,0.45,2.54v24.313h12.977c-0.358-0.116-0.677-0.278-0.954-0.477
	C38.701,128.818,38.482,128.569,38.286,128.27 M19.855,117.475c0.292-0.674,0.622-1.229,0.974-1.668
	c0.433-0.479,0.905-0.858,1.42-1.137h-6.313c-0.952,0-1.854,0.173-2.708,0.508c-0.853,0.342-1.627,0.818-2.323,1.434
	c-0.694,0.618-1.259,1.355-1.697,2.208c-0.436,0.855-0.674,1.779-0.713,2.773v0.919c0.039,1.036,0.277,1.968,0.713,2.801
	c0.438,0.841,1.003,1.575,1.697,2.21c0.696,0.636,1.47,1.124,2.323,1.461c0.854,0.339,1.756,0.506,2.708,0.506h6.313
	c-0.515-0.278-0.987-0.654-1.42-1.131c-0.353-0.438-0.682-0.993-0.974-1.67c-0.297-0.676-0.443-1.533-0.443-2.568v-4.138
	C19.412,118.99,19.559,118.156,19.855,117.475 M13.998,110.89c1.52,0,2.821-0.55,3.904-1.649c1.08-1.103,1.623-2.406,1.623-3.913
	c0-1.56-0.542-2.875-1.623-3.951c-1.083-1.075-2.385-1.613-3.904-1.613c-1.567,0-2.89,0.538-3.972,1.613
	c-1.083,1.076-1.626,2.391-1.626,3.951c0,1.507,0.543,2.81,1.626,3.913C11.108,110.34,12.43,110.89,13.998,110.89 M240.556,145.938
	c-0.234,0.697-0.8,1.091-1.567,1.091c-0.771,0-1.337-0.394-1.57-1.091c-0.113-0.377-0.159-0.756-0.159-1.423
	c0-0.671,0.046-1.034,0.159-1.408c0.233-0.696,0.8-1.092,1.57-1.092c0.768,0,1.333,0.396,1.567,1.092
	c0.118,0.374,0.159,0.737,0.159,1.408C240.715,145.183,240.674,145.562,240.556,145.938 M238.988,140.885
	c-1.35,0-2.367,0.681-2.747,1.87c-0.157,0.482-0.229,0.966-0.229,1.761c0,0.812,0.071,1.292,0.229,1.769
	c0.38,1.179,1.397,1.877,2.747,1.877c1.349,0,2.365-0.698,2.745-1.877c0.16-0.477,0.229-0.957,0.229-1.769
	c0-0.795-0.069-1.278-0.229-1.761C241.354,141.565,240.337,140.885,238.988,140.885 M231,141.045h-0.929
	c-0.087,0-0.146,0.055-0.146,0.147v6.666c0,0.085,0.06,0.143,0.146,0.143H231c0.091,0,0.145-0.058,0.145-0.143v-6.666
	C231.145,141.1,231.091,141.045,231,141.045 M223.262,145.969c-0.231,0.697-0.771,1.061-1.54,1.061
	c-0.771,0-1.295-0.381-1.524-1.061c-0.118-0.365-0.158-0.816-0.158-1.453c0-0.623,0.04-1.076,0.158-1.45
	c0.229-0.684,0.754-1.05,1.524-1.05c0.77,0,1.309,0.352,1.54,1.05c0.113,0.346,0.16,0.753,0.16,1.45
	C223.422,145.211,223.375,145.636,223.262,145.969 M224.493,137.977h-0.929c-0.085,0-0.143,0.061-0.143,0.143v3.724h-0.016
	c-0.333-0.55-0.93-0.958-1.976-0.958c-1.206,0-2.047,0.567-2.395,1.668c-0.188,0.555-0.251,1.105-0.251,1.963
	c0,0.871,0.062,1.423,0.251,1.974c0.348,1.104,1.188,1.672,2.395,1.672c1.046,0,1.643-0.425,1.976-0.972h0.016v0.669
	c0,0.085,0.058,0.143,0.143,0.143h0.929c0.093,0,0.145-0.058,0.145-0.143v-9.739C224.638,138.037,224.586,137.977,224.493,137.977
	 M213.556,141.045h-0.929c-0.085,0-0.146,0.055-0.146,0.147v4.121c0,1.049-0.623,1.716-1.566,1.716
	c-1.033,0-1.541-0.654-1.541-1.785v-4.052c0-0.093-0.061-0.147-0.145-0.147h-0.93c-0.087,0-0.147,0.055-0.147,0.147v4.34
	c0,1.579,0.888,2.629,2.411,2.629c0.9,0,1.54-0.379,1.905-0.957h0.013v0.654c0,0.085,0.061,0.143,0.146,0.143h0.929
	c0.089,0,0.144-0.058,0.144-0.143v-6.666C213.699,141.1,213.645,141.045,213.556,141.045 M203.243,141.045h-1.104
	c-0.057,0-0.084-0.025-0.084-0.088v-2.776c0-0.088-0.063-0.144-0.143-0.144h-0.934c-0.088,0-0.146,0.056-0.146,0.144v7.917
	c0,1.365,0.523,1.972,1.873,1.972h0.536c0.089,0,0.145-0.052,0.145-0.143v-0.845c0-0.081-0.056-0.143-0.145-0.143h-0.306
	c-0.622,0-0.882-0.188-0.882-0.883v-3.936c0-0.063,0.027-0.089,0.084-0.089h1.104c0.089,0,0.145-0.056,0.145-0.146v-0.694
	C203.388,141.1,203.332,141.045,203.243,141.045 M194.002,143.922l-0.727-0.077c-1.034-0.099-1.369-0.387-1.369-0.938
	c0-0.571,0.449-0.959,1.323-0.959c0.711,0,1.42,0.274,1.874,0.564c0.07,0.041,0.145,0.041,0.201-0.03l0.494-0.626
	c0.042-0.071,0.042-0.159-0.028-0.2c-0.579-0.437-1.453-0.771-2.472-0.771c-1.638,0-2.584,0.8-2.584,2.118
	c0,1.134,0.715,1.819,2.078,1.962l0.743,0.075c1.087,0.112,1.348,0.416,1.348,0.971c0,0.625-0.509,1.059-1.524,1.059
	c-0.841,0-1.626-0.346-2.149-0.798c-0.056-0.056-0.145-0.056-0.202,0l-0.598,0.638c-0.057,0.06-0.057,0.149,0,0.202
	c0.567,0.496,1.525,1.05,2.876,1.05c1.817,0,2.804-0.918,2.804-2.281C196.09,144.763,195.406,144.054,194.002,143.922
	 M176.802,140.885c-0.944,0-1.608,0.408-1.944,0.945h-0.014v-0.638c0-0.093-0.056-0.147-0.146-0.147h-0.93
	c-0.089,0-0.145,0.055-0.145,0.147v6.666c0,0.085,0.056,0.143,0.145,0.143h0.93c0.09,0,0.146-0.058,0.146-0.143v-4.138
	c0-1.036,0.654-1.705,1.6-1.705c1.041,0,1.551,0.656,1.551,1.776v4.066c0,0.085,0.062,0.143,0.145,0.143h0.931
	c0.087,0,0.147-0.058,0.147-0.143v-4.36C179.217,141.916,178.313,140.885,176.802,140.885 M167.105,145.75
	c-0.246,0.714-0.753,1.046-1.482,1.046c-0.752,0-1.231-0.364-1.463-1.046c-0.119-0.346-0.176-0.785-0.176-1.349
	c0-0.569,0.057-0.99,0.176-1.354c0.231-0.666,0.711-1.032,1.463-1.032c0.729,0,1.236,0.319,1.482,1.032
	c0.118,0.363,0.159,0.753,0.159,1.354C167.265,144.994,167.224,145.404,167.105,145.75 M168.338,141.045h-0.931
	c-0.08,0-0.143,0.055-0.143,0.147v0.65h-0.016c-0.316-0.582-0.91-0.958-1.929-0.958c-1.182,0-1.989,0.598-2.339,1.686
	c-0.173,0.523-0.232,1.033-0.232,1.831c0,0.795,0.06,1.308,0.232,1.831c0.35,1.087,1.157,1.679,2.339,1.679
	c1.019,0,1.612-0.374,1.929-0.956h0.016v0.812c0,1.279-0.606,1.876-1.757,1.876c-0.664,0-1.159-0.265-1.643-0.698
	c-0.069-0.074-0.142-0.074-0.213,0l-0.597,0.594c-0.074,0.075-0.074,0.134-0.017,0.206c0.466,0.605,1.439,1.028,2.411,1.028
	c1.957,0,3.035-1.101,3.035-3.074v-6.507C168.485,141.1,168.429,141.045,168.338,141.045 M157.757,141.045h-0.932
	c-0.086,0-0.143,0.055-0.143,0.147v6.666c0,0.085,0.057,0.143,0.143,0.143h0.932c0.085,0,0.146-0.058,0.146-0.143v-6.666
	C157.903,141.1,157.842,141.045,157.757,141.045 M149.768,143.922l-0.725-0.077c-1.034-0.099-1.365-0.387-1.365-0.938
	c0-0.571,0.451-0.959,1.319-0.959c0.718,0,1.425,0.274,1.877,0.564c0.071,0.041,0.144,0.041,0.201-0.03l0.493-0.626
	c0.044-0.071,0.044-0.159-0.028-0.2c-0.581-0.437-1.454-0.771-2.468-0.771c-1.639,0-2.586,0.8-2.586,2.118
	c0,1.134,0.712,1.819,2.078,1.962l0.739,0.075c1.088,0.112,1.349,0.416,1.349,0.971c0,0.625-0.506,1.059-1.524,1.059
	c-0.841,0-1.626-0.346-2.146-0.798c-0.06-0.056-0.147-0.056-0.204,0l-0.593,0.638c-0.062,0.06-0.062,0.149,0,0.202
	c0.564,0.496,1.522,1.05,2.875,1.05c1.814,0,2.799-0.918,2.799-2.281C151.858,144.763,151.176,144.054,149.768,143.922
	 M140.385,143.922h-3.225c-0.055,0-0.086-0.029-0.086-0.09c0-0.321,0.031-0.565,0.103-0.784c0.231-0.7,0.816-1.087,1.596-1.087
	c0.786,0,1.367,0.387,1.6,1.087c0.074,0.219,0.103,0.463,0.103,0.784C140.475,143.893,140.446,143.922,140.385,143.922
	 M138.772,140.885c-1.319,0-2.336,0.668-2.729,1.87c-0.146,0.425-0.216,0.966-0.216,1.761c0,0.798,0.084,1.307,0.229,1.756
	c0.38,1.206,1.383,1.89,2.789,1.89c1.221,0,2.165-0.495,2.719-1.192c0.053-0.069,0.053-0.145-0.017-0.202l-0.597-0.534
	c-0.071-0.059-0.146-0.045-0.214,0.023c-0.381,0.439-0.958,0.773-1.786,0.773c-0.859,0-1.481-0.41-1.759-1.207
	c-0.074-0.232-0.118-0.464-0.118-0.841c0-0.061,0.031-0.089,0.086-0.089h4.404c0.103,0,0.157-0.058,0.157-0.143
	c0-1.063-0.075-1.542-0.218-1.995C141.11,141.565,140.109,140.885,138.772,140.885 M129.658,145.969
	c-0.232,0.697-0.772,1.061-1.543,1.061c-0.768,0-1.29-0.381-1.522-1.061c-0.119-0.365-0.159-0.816-0.159-1.453
	c0-0.623,0.04-1.076,0.159-1.45c0.232-0.684,0.755-1.05,1.522-1.05c0.771,0,1.311,0.352,1.543,1.05
	c0.112,0.346,0.16,0.753,0.16,1.45C129.818,145.211,129.771,145.636,129.658,145.969 M130.888,137.977h-0.924
	c-0.091,0-0.146,0.061-0.146,0.143v3.724H129.8c-0.331-0.55-0.927-0.958-1.974-0.958c-1.206,0-2.048,0.567-2.395,1.668
	c-0.189,0.555-0.248,1.105-0.248,1.963c0,0.871,0.059,1.423,0.248,1.974c0.347,1.104,1.189,1.672,2.395,1.672
	c1.047,0,1.643-0.425,1.974-0.972h0.019v0.669c0,0.085,0.055,0.143,0.146,0.143h0.924c0.09,0,0.146-0.058,0.146-0.143v-9.739
	C131.034,138.037,130.978,137.977,130.888,137.977"/>
</svg>
