<?xml version="1.0" encoding="utf-8"?>
<!-- Generator: Adobe Illustrator 15.1.0, SVG Export Plug-In . SVG Version: 6.00 Build 0)  -->
<!DOCTYPE svg PUBLIC "-//W3C//DTD SVG 1.1//EN" "http://www.w3.org/Graphics/SVG/1.1/DTD/svg11.dtd">
<svg version="1.1" id="Layer_1" xmlns="http://www.w3.org/2000/svg" xmlns:xlink="http://www.w3.org/1999/xlink" x="0px" y="0px"
	 width="472px" height="250px" viewBox="-89.5 0 472 250" enable-background="new -89.5 0 472 250" xml:space="preserve">
<path fill="#FFFFFF" d="M272.165,94.109c0.827-1.433,1.827-2.609,2.991-3.538c1.158-0.933,2.389-1.645,3.682-2.147
	c1.299-0.493,2.201-0.696,3.403-0.742h-11.593V76.519h-20.254c0.562,0.177,1.055,0.433,1.491,0.743
	c0.372,0.307,0.719,0.711,1.027,1.21c0.312,0.493,0.458,1.119,0.458,1.861v44.842c0,0.124-0.013,0.417-0.045,0.88
	c-0.029,0.468-0.043,0.981-0.043,1.541c0,1.798,0.289,3.477,0.882,5.023c0.589,1.558,1.397,2.895,2.421,4.012
	c1.026,1.114,2.252,1.998,3.677,2.656c1.422,0.654,3.013,0.973,4.749,0.973h10.104c-0.805-0.434-1.552-1.02-2.231-1.764
	c-0.564-0.682-1.073-1.537-1.534-2.564c-0.47-1.027-0.704-2.343-0.704-3.957V98.831C270.866,97.06,271.365,95.483,272.165,94.109
	 M300.49,98.46c0.473-1.026,0.997-1.88,1.573-2.565c0.689-0.746,1.453-1.363,2.275-1.863h-9.87c-1.493,0-2.896,0.265-4.234,0.797
	c-1.334,0.524-2.543,1.287-3.635,2.273c-1.088,0.998-1.971,2.157-2.653,3.5c-0.682,1.334-1.059,2.776-1.118,4.328
	c-0.062,0.494-0.091,1.613-0.091,4.028v16.071c0,1.154,0.014,2.111,0.048,2.888c0.029,0.777,0.043,1.258,0.043,1.444
	c0.06,1.617,0.438,3.072,1.118,4.374c0.683,1.312,1.565,2.456,2.653,3.45c1.092,0.991,2.299,1.755,3.635,2.276
	c1.338,0.533,2.743,0.791,4.234,0.791h9.87c-0.822-0.434-1.586-1.02-2.275-1.763c-0.576-0.683-1.101-1.554-1.573-2.608
	s-0.714-2.393-0.714-4.009v-29.46C299.781,100.801,300.018,99.482,300.49,98.46 M325.033,138.801
	c1.209-0.639,2.144-1.515,2.823-2.646c0.673-1.127,1.013-2.649,1.013-4.555c0-2.397-0.836-4.427-2.505-6.088
	c-1.663-1.652-3.703-2.488-6.112-2.488c-2.418,0-4.454,0.833-6.118,2.488c-1.673,1.661-2.504,3.69-2.504,6.088
	c0,2.538,0.918,4.658,2.767,6.352c-1.776,1.271-3.974,2.017-6.599,2.226c1.277,0.068,2.539,0.121,3.782,0.155
	c1.236,0.04,2.458,0.059,3.67,0.059c1.979,0,3.809-0.113,5.479-0.323C322.393,139.859,323.824,139.433,325.033,138.801
	 M310.935,113.371c-0.507,0.886-1.027,1.624-1.595,2.216c-0.683,0.646-1.423,1.162-2.231,1.532h9.982
	c1.493,0,2.897-0.231,4.247-0.682c1.331-0.459,2.531-1.106,3.59-1.937c1.055-0.83,1.914-1.829,2.568-2.988
	c0.65-1.148,1.043-2.401,1.159-3.749c0,0.009,0.005-1.375,0.046-1.889c0.048-0.503,0.053-1.27,0.053-1.312
	c0-1.503-0.316-2.887-0.935-4.147c-0.623-1.261-1.468-2.364-2.522-3.305c-1.054-0.942-2.298-1.679-3.731-2.22
	c-1.428-0.535-2.923-0.805-4.475-0.805h-9.982c0.809,0.434,1.549,0.971,2.231,1.611c0.562,0.591,1.088,1.333,1.595,2.218
	c0.49,0.884,0.738,2.034,0.738,3.427v8.603C311.673,111.341,311.425,112.488,310.935,113.371 M213.655,98.342
	c0.472-1.023,0.998-1.878,1.565-2.558c0.696-0.743,1.46-1.366,2.284-1.866H207.19c-1.428,0-2.828,0.271-4.188,0.794
	c-1.373,0.531-2.584,1.287-3.634,2.283c-1.057,0.989-1.927,2.162-2.606,3.491c-0.684,1.335-1.057,2.778-1.116,4.333
	c-0.06,0.498-0.091,1.955-0.091,4.376v15.838c0,1.155,0.013,2.111,0.048,2.888c0.03,0.778,0.047,1.258,0.047,1.444
	c0.058,1.618,0.433,3.072,1.114,4.374c0.679,1.312,1.55,2.456,2.604,3.45c1.055,0.991,2.266,1.755,3.635,2.279
	c1.364,0.53,2.765,0.791,4.191,0.791h10.313c-0.824-0.436-1.591-1.022-2.282-1.768c-0.572-0.681-1.096-1.552-1.567-2.605
	c-0.48-1.058-0.719-2.394-0.719-4.01v-29.572C212.935,100.692,213.176,99.368,213.655,98.342 M233.256,122.908
	c-2.33,0-4.322,0.822-5.972,2.486c-1.659,1.656-2.488,3.691-2.488,6.092c0,2.539,0.914,4.656,2.746,6.352
	c-1.904,1.271-4.088,2.009-6.554,2.223c1.202,0.072,2.396,0.131,3.595,0.158c1.202,0.032,2.364,0.051,3.491,0.051
	c1.978,0,3.789-0.101,5.449-0.314c1.656-0.218,3.102-0.637,4.332-1.272c1.235-0.638,2.209-1.52,2.913-2.652
	c0.705-1.128,1.059-2.646,1.059-4.547c0-2.399-0.827-4.435-2.49-6.091C237.68,123.73,235.65,122.908,233.256,122.908 M233.087,94.09
	c-2.374,0-4.408,0.842-6.095,2.532c-1.697,1.689-2.536,3.759-2.536,6.204c0,2.447,0.839,4.512,2.536,6.202
	c1.689,1.692,3.723,2.539,6.095,2.539c2.441,0,4.509-0.847,6.205-2.539c1.686-1.69,2.531-3.754,2.531-6.202
	c0-2.443-0.846-4.515-2.531-6.204C237.594,94.93,235.528,94.09,233.087,94.09 M165.894,113.371
	c-0.495,0.886-1.029,1.624-1.584,2.216c-0.693,0.646-1.438,1.162-2.243,1.532h10.218c1.49,0,2.905-0.231,4.241-0.682
	c1.338-0.459,2.54-1.106,3.595-1.937c1.059-0.83,1.909-1.829,2.563-2.988c0.654-1.148,1.045-2.401,1.172-3.749
	c0,0.009,0.005-1.147,0.046-1.658c0.041-0.533,0.045-1.739,0.045-1.65c0-1.507-0.313-2.895-0.93-4.161
	c-0.624-1.261-1.463-2.36-2.52-3.3c-1.055-0.941-2.3-1.678-3.731-2.218c-1.434-0.538-2.927-0.803-4.477-0.803h-10.218
	c0.805,0.431,1.55,0.961,2.245,1.613c0.551,0.587,1.087,1.326,1.582,2.217c0.496,0.885,0.745,2.025,0.745,3.428v8.715
	C166.642,111.341,166.39,112.488,165.894,113.371 M182.819,136.037c0.673-1.128,1.01-2.65,1.01-4.551c0-2.4-0.832-4.428-2.5-6.088
	c-1.664-1.662-3.709-2.49-6.118-2.49s-4.453,0.826-6.117,2.49c-1.663,1.66-2.5,3.688-2.5,6.088c0,2.544,0.923,4.656,2.768,6.352
	c-1.771,1.271-3.967,2.009-6.599,2.223c1.277,0.072,2.54,0.131,3.779,0.158c1.24,0.036,2.47,0.051,3.672,0.051
	c1.988,0,3.811-0.101,5.479-0.314c1.668-0.218,3.1-0.637,4.309-1.272C181.205,138.053,182.143,137.168,182.819,136.037
	 M155.686,98.46c0.474-1.026,1.005-1.88,1.568-2.565c0.7-0.746,1.459-1.363,2.281-1.863h-10.104c-1.486,0-2.901,0.265-4.233,0.797
	c-1.338,0.524-2.547,1.287-3.635,2.273c-1.088,0.998-1.971,2.157-2.651,3.5c-0.687,1.334-1.058,2.776-1.119,4.328
	c-0.064,0.494-0.098,1.725-0.098,4.15v15.949c0,1.154,0.017,2.111,0.051,2.888c0.032,0.777,0.047,1.258,0.047,1.444
	c0.062,1.617,0.433,3.072,1.119,4.374c0.681,1.312,1.563,2.456,2.651,3.45c1.09,0.991,2.299,1.755,3.635,2.276
	c1.334,0.533,2.747,0.791,4.233,0.791h10.104c-0.822-0.434-1.581-1.02-2.281-1.763c-0.563-0.683-1.095-1.554-1.568-2.608
	c-0.473-1.055-0.715-2.393-0.715-4.009v-29.46C154.971,100.801,155.213,99.482,155.686,98.46 M79.937,149.373
	c0,1.617-0.242,2.956-0.743,4.013c-0.498,1.055-1.026,1.923-1.584,2.604c-0.684,0.746-1.428,1.332-2.236,1.771h9.966
	c1.494,0,2.902-0.261,4.24-0.788c1.333-0.532,2.527-1.287,3.584-2.282c1.049-1.005,1.91-2.142,2.554-3.447
	c0.657-1.303,1.043-2.761,1.164-4.38c0.063-0.872,0.101-1.74,0.101-2.604V97.834c0-0.808,0.153-1.445,0.465-1.908
	c0.311-0.466,0.649-0.853,1.019-1.168c0.435-0.311,0.935-0.559,1.492-0.744H79.937V149.373z M125.953,104.818
	c-0.127-1.552-0.51-2.998-1.163-4.333c-0.651-1.332-1.519-2.479-2.609-3.446c-1.089-0.961-2.296-1.704-3.633-2.237
	c-1.335-0.523-2.745-0.79-4.235-0.79h-9.872c0.808,0.434,1.552,1.026,2.237,1.771c0.555,0.68,1.068,1.553,1.53,2.604
	c0.471,1.059,0.702,2.365,0.702,3.919v29.67c0,1.616-0.231,2.931-0.702,3.957c-0.462,1.025-0.973,1.883-1.53,2.562
	c-0.686,0.744-1.43,1.332-2.237,1.769h9.872c1.49,0,2.902-0.262,4.235-0.792c1.336-0.525,2.544-1.273,3.633-2.236
	c1.09-0.961,1.958-2.109,2.609-3.441c0.655-1.339,1.038-2.776,1.163-4.335v-1.534c0-0.777,0.016-1.734,0.047-2.888
	c0.031-1.145,0.047-2.407,0.047-3.771v-4.192c0-2.92-0.016-5.371-0.047-7.832C125.969,106.793,125.953,105.315,125.953,104.818
	 M64.726,120.419c-1.079-1.026-2.322-1.83-3.715-2.416c-1.395-0.593-2.833-0.896-4.316-0.896h-9.949
	c0.817,0.505,1.567,1.125,2.258,1.867c0.566,0.682,1.086,1.537,1.557,2.564c0.468,1.026,0.705,2.343,0.705,3.957v6.5
	c0,1.613-0.237,2.934-0.705,3.954c-0.47,1.027-0.991,1.883-1.557,2.566c-0.691,0.74-1.443,1.336-2.258,1.771h9.949
	c1.421,0,2.813-0.267,4.179-0.789c1.364-0.527,2.568-1.271,3.622-2.239c1.052-0.966,1.907-2.107,2.553-3.441
	c0.655-1.338,1.038-2.779,1.164-4.337v-0.652c0-0.059,0.028-0.116,0.093-0.178c-0.014-1.643-0.34-3.067-0.973-4.501
	C66.676,122.688,65.813,121.444,64.726,120.419 M59.577,93.971c-2.375,0-4.41,0.833-6.092,2.514
	c-1.69,1.685-2.539,3.739-2.539,6.164c0,2.36,0.849,4.401,2.539,6.113c1.683,1.716,3.719,2.575,6.092,2.575
	c2.44,0,4.507-0.859,6.197-2.575c1.692-1.712,2.536-3.753,2.536-6.113c0-2.425-0.846-4.479-2.536-6.164
	C64.084,94.807,62.017,93.971,59.577,93.971 M39.408,131.59c0-2.428-0.868-4.483-2.6-6.162c-1.726-1.677-3.784-2.52-6.157-2.52
	c-2.452,0-4.524,0.843-6.22,2.52c-1.696,1.678-2.541,3.732-2.541,6.162c0,2.354,0.845,4.393,2.541,6.109
	c1.696,1.715,3.768,2.57,6.22,2.57h6.319c1.554,0,3.627-0.037,6.219-0.101c-2.377-0.077-4.616-0.825-6.701-2.258
	C38.434,136.195,39.408,134.092,39.408,131.59 M39.797,98.414c0.46-1.059,0.968-1.929,1.519-2.611
	c0.675-0.742,1.448-1.361,2.309-1.866h-9.948c-1.485,0-2.895,0.27-4.223,0.794c-1.336,0.532-2.544,1.292-3.63,2.283
	c-1.088,0.996-1.951,2.162-2.604,3.49c-0.647,1.341-1.005,2.782-1.066,4.338c-0.062,0.245-0.093,0.494-0.093,0.742
	c0,1.675,0.305,3.129,0.928,4.589c0.619,1.461,1.474,2.697,2.553,3.725c1.086,1.027,2.322,1.835,3.719,2.422
	c1.393,0.588,2.867,0.89,4.414,0.89h9.948c-0.863-0.499-1.636-1.119-2.309-1.867c-0.551-0.679-1.061-1.536-1.519-2.564
	c-0.466-1.026-0.693-2.34-0.693-3.956v-6.499C39.104,100.776,39.331,99.468,39.797,98.414 M68.308,128.734v-0.094v0.008
	C68.308,128.677,68.308,128.71,68.308,128.734 M10.784,138.353c-0.311-0.462-0.469-1.098-0.469-1.912v-29.016
	c0-0.866-0.033-1.734-0.091-2.607c-0.124-1.552-0.515-2.998-1.161-4.333c-0.655-1.332-1.505-2.504-2.558-3.491
	c-1.053-0.996-2.263-1.754-3.625-2.283c-1.365-0.523-2.986-0.794-4.416-0.794h-9.941c0.815,0.5,1.567,1.124,2.26,1.866
	c0.563,0.68,1.082,1.535,1.554,2.558c0.468,1.026,0.704,2.35,0.704,3.964v37.953h20.256c-0.558-0.182-1.058-0.434-1.489-0.74
	C11.433,139.205,11.091,138.819,10.784,138.353 M-17.986,121.502c0.456-1.053,0.97-1.919,1.52-2.603
	c0.677-0.748,1.413-1.341,2.218-1.776h-9.854c-1.485,0-2.896,0.269-4.226,0.793c-1.332,0.533-2.54,1.278-3.625,2.239
	c-1.082,0.963-1.967,2.115-2.651,3.446c-0.679,1.336-1.051,2.777-1.114,4.33v1.435c0.061,1.618,0.436,3.072,1.114,4.374
	c0.684,1.312,1.567,2.456,2.651,3.45c1.086,0.991,2.294,1.755,3.625,2.279c1.333,0.53,2.741,0.791,4.226,0.791h9.854
	c-0.802-0.436-1.541-1.022-2.218-1.768c-0.549-0.681-1.062-1.552-1.52-2.605c-0.462-1.058-0.69-2.394-0.69-4.01v-6.46
	C-18.677,123.867-18.448,122.564-17.986,121.502 M-27.132,111.222c2.374,0,4.406-0.857,6.095-2.574
	c1.687-1.722,2.532-3.755,2.532-6.108c0-2.435-0.846-4.489-2.532-6.167c-1.692-1.679-3.724-2.518-6.095-2.518
	c-2.444,0-4.51,0.839-6.198,2.518c-1.692,1.678-2.539,3.732-2.539,6.167c0,2.353,0.847,4.386,2.539,6.108
	C-31.642,110.364-29.577,111.222-27.132,111.222 M326.523,165.935c-0.363,1.087-1.244,1.702-2.444,1.702
	c-1.204,0-2.086-0.615-2.455-1.702c-0.175-0.591-0.245-1.182-0.245-2.223c0-1.045,0.07-1.611,0.245-2.195
	c0.364-1.09,1.251-1.704,2.455-1.704c1.2,0,2.081,0.619,2.444,1.704c0.185,0.584,0.251,1.15,0.251,2.195
	C326.774,164.753,326.708,165.344,326.523,165.935 M324.079,158.044c-2.109,0-3.697,1.063-4.291,2.92
	c-0.245,0.753-0.354,1.507-0.354,2.748c0,1.269,0.108,2.019,0.354,2.764c0.594,1.841,2.182,2.929,4.291,2.929
	c2.104,0,3.692-1.088,4.283-2.929c0.247-0.741,0.359-1.495,0.359-2.764c0-1.241-0.112-1.993-0.359-2.748
	C327.771,159.107,326.184,158.044,324.079,158.044 M311.607,158.295h-1.445c-0.139,0-0.232,0.086-0.232,0.229v10.405
	c0,0.132,0.094,0.224,0.232,0.224h1.445c0.146,0,0.228-0.092,0.228-0.224v-10.405C311.835,158.381,311.751,158.295,311.607,158.295
	 M299.526,165.98c-0.359,1.088-1.2,1.656-2.402,1.656s-2.021-0.598-2.379-1.656c-0.183-0.571-0.246-1.272-0.246-2.269
	c0-0.973,0.063-1.682,0.246-2.266c0.358-1.068,1.177-1.638,2.379-1.638s2.043,0.55,2.402,1.638c0.178,0.539,0.25,1.175,0.25,2.266
	C299.781,164.799,299.704,165.463,299.526,165.98 M301.449,153.504h-1.45c-0.134,0-0.223,0.095-0.223,0.223v5.813h-0.025
	c-0.521-0.859-1.451-1.496-3.084-1.496c-1.882,0-3.194,0.888-3.735,2.605c-0.296,0.862-0.392,1.723-0.392,3.062
	c0,1.359,0.096,2.223,0.392,3.079c0.541,1.723,1.856,2.609,3.735,2.609c1.633,0,2.563-0.661,3.084-1.517h0.025v1.046
	c0,0.132,0.089,0.224,0.223,0.224h1.45c0.146,0,0.228-0.092,0.228-0.224v-15.203C301.677,153.599,301.595,153.504,301.449,153.504
	 M284.378,158.295h-1.45c-0.134,0-0.228,0.086-0.228,0.229v6.433c0,1.637-0.972,2.68-2.444,2.68c-1.614,0-2.406-1.021-2.406-2.786
	v-6.326c0-0.144-0.094-0.229-0.226-0.229h-1.452c-0.134,0-0.229,0.086-0.229,0.229v6.774c0,2.468,1.387,4.104,3.763,4.104
	c1.407,0,2.402-0.591,2.974-1.495h0.02v1.022c0,0.132,0.094,0.224,0.229,0.224h1.45c0.139,0,0.226-0.092,0.226-0.224v-10.408
	C284.604,158.381,284.517,158.295,284.378,158.295 M268.279,158.295h-1.723c-0.086,0-0.131-0.043-0.131-0.139v-4.334
	c0-0.139-0.096-0.226-0.223-0.226h-1.457c-0.139,0-0.23,0.087-0.23,0.226v12.36c0,2.132,0.82,3.074,2.928,3.074h0.836
	c0.139,0,0.228-0.079,0.228-0.223v-1.317c0-0.128-0.089-0.223-0.228-0.223h-0.478c-0.973,0-1.376-0.296-1.376-1.378v-6.145
	c0-0.098,0.04-0.141,0.131-0.141h1.723c0.139,0,0.228-0.086,0.228-0.228v-1.084C268.507,158.381,268.418,158.295,268.279,158.295
	 M253.854,162.785l-1.134-0.123c-1.61-0.152-2.136-0.6-2.136-1.464c0-0.891,0.699-1.497,2.062-1.497c1.111,0,2.219,0.43,2.93,0.88
	c0.109,0.065,0.223,0.065,0.313-0.046l0.773-0.978c0.063-0.113,0.063-0.248-0.049-0.313c-0.904-0.682-2.27-1.205-3.855-1.205
	c-2.559,0-4.037,1.249-4.037,3.307c0,1.771,1.118,2.84,3.248,3.062l1.159,0.117c1.697,0.178,2.104,0.649,2.104,1.514
	c0,0.978-0.794,1.654-2.38,1.654c-1.311,0-2.538-0.538-3.354-1.244c-0.087-0.087-0.228-0.087-0.314,0l-0.934,0.994
	c-0.088,0.094-0.088,0.236,0,0.316c0.887,0.772,2.379,1.638,4.488,1.638c2.841,0,4.377-1.432,4.377-3.558
	C257.113,164.099,256.049,162.99,253.854,162.785 M227.006,158.044c-1.477,0-2.511,0.637-3.035,1.476h-0.023v-0.995
	c0-0.144-0.086-0.229-0.227-0.229h-1.453c-0.139,0-0.225,0.086-0.225,0.229v10.405c0,0.132,0.086,0.224,0.225,0.224h1.453
	c0.141,0,0.227-0.092,0.227-0.224v-6.459c0-1.615,1.018-2.658,2.496-2.658c1.622,0,2.419,1.018,2.419,2.771v6.347
	c0,0.132,0.098,0.224,0.229,0.224h1.45c0.136,0,0.231-0.092,0.231-0.224v-6.806C230.773,159.653,229.365,158.044,227.006,158.044
	 M211.867,165.639c-0.382,1.117-1.173,1.633-2.312,1.633c-1.174,0-1.922-0.568-2.282-1.633c-0.183-0.535-0.273-1.227-0.273-2.104
	c0-0.891,0.091-1.544,0.273-2.111c0.36-1.04,1.108-1.61,2.282-1.61c1.14,0,1.931,0.5,2.312,1.61
	c0.186,0.567,0.249,1.176,0.249,2.111C212.121,164.46,212.053,165.099,211.867,165.639 M213.794,158.295h-1.455
	c-0.127,0-0.223,0.086-0.223,0.229v1.016h-0.024c-0.496-0.909-1.421-1.496-3.011-1.496c-1.844,0-3.104,0.933-3.65,2.632
	c-0.268,0.819-0.363,1.609-0.363,2.858c0,1.242,0.096,2.041,0.363,2.859c0.546,1.696,1.807,2.62,3.65,2.62
	c1.59,0,2.515-0.582,3.011-1.493h0.024v1.268c0,2.001-0.944,2.931-2.742,2.931c-1.034,0-1.807-0.412-2.565-1.089
	c-0.11-0.118-0.223-0.118-0.335,0l-0.929,0.928c-0.119,0.112-0.119,0.204-0.027,0.317c0.727,0.945,2.249,1.606,3.763,1.606
	c3.054,0,4.738-1.72,4.738-4.802v-10.153C214.023,158.381,213.935,158.295,213.794,158.295 M197.275,158.295h-1.453
	c-0.136,0-0.223,0.086-0.223,0.229v10.405c0,0.132,0.087,0.224,0.223,0.224h1.453c0.134,0,0.229-0.092,0.229-0.224v-10.405
	C197.505,158.381,197.409,158.295,197.275,158.295 M184.807,162.785l-1.132-0.123c-1.614-0.152-2.133-0.6-2.133-1.464
	c0-0.891,0.705-1.497,2.06-1.497c1.118,0,2.225,0.43,2.932,0.88c0.113,0.065,0.223,0.065,0.313-0.046l0.768-0.978
	c0.072-0.113,0.072-0.248-0.043-0.313c-0.906-0.682-2.271-1.205-3.852-1.205c-2.56,0-4.036,1.249-4.036,3.307
	c0,1.771,1.113,2.84,3.245,3.062l1.154,0.117c1.7,0.178,2.104,0.649,2.104,1.514c0,0.978-0.791,1.654-2.377,1.654
	c-1.314,0-2.54-0.538-3.351-1.244c-0.092-0.087-0.23-0.087-0.317,0l-0.928,0.994c-0.096,0.094-0.096,0.236,0,0.316
	c0.882,0.772,2.377,1.638,4.488,1.638c2.835,0,4.37-1.432,4.37-3.558C188.068,164.099,187.003,162.99,184.807,162.785
	 M170.161,162.785h-5.036c-0.085,0-0.134-0.046-0.134-0.142c0-0.499,0.049-0.881,0.162-1.223c0.358-1.095,1.27-1.694,2.485-1.694
	c1.229,0,2.137,0.604,2.501,1.694c0.112,0.342,0.159,0.724,0.159,1.223C170.301,162.739,170.257,162.785,170.161,162.785
	 M167.639,158.044c-2.059,0-3.642,1.042-4.258,2.92c-0.229,0.662-0.339,1.507-0.339,2.748c0,1.245,0.134,2.041,0.358,2.741
	c0.594,1.883,2.16,2.951,4.353,2.951c1.904,0,3.381-0.772,4.245-1.86c0.082-0.107,0.082-0.228-0.028-0.318l-0.931-0.832
	c-0.109-0.09-0.228-0.068-0.335,0.037c-0.595,0.687-1.497,1.211-2.788,1.211c-1.341,0-2.313-0.639-2.747-1.889
	c-0.116-0.358-0.183-0.724-0.183-1.31c0-0.092,0.049-0.141,0.135-0.141h6.877c0.156,0,0.243-0.091,0.243-0.223
	c0-1.659-0.121-2.404-0.339-3.113C171.291,159.107,169.729,158.044,167.639,158.044 M153.413,165.98
	c-0.361,1.088-1.204,1.656-2.407,1.656c-1.201,0-2.013-0.598-2.374-1.656c-0.187-0.571-0.25-1.272-0.25-2.269
	c0-0.973,0.063-1.682,0.25-2.266c0.361-1.068,1.177-1.638,2.374-1.638c1.203,0,2.046,0.55,2.407,1.638
	c0.178,0.539,0.25,1.175,0.25,2.266C153.668,164.799,153.591,165.463,153.413,165.98 M155.332,153.504h-1.441
	c-0.144,0-0.228,0.095-0.228,0.223v5.813h-0.03c-0.52-0.859-1.446-1.496-3.079-1.496c-1.884,0-3.199,0.888-3.738,2.605
	c-0.296,0.862-0.39,1.723-0.39,3.062c0,1.359,0.094,2.223,0.39,3.079c0.539,1.723,1.857,2.609,3.738,2.609
	c1.633,0,2.563-0.661,3.079-1.517h0.03v1.046c0,0.132,0.084,0.224,0.228,0.224h1.441c0.143,0,0.231-0.092,0.231-0.224v-15.203
	C155.563,153.599,155.475,153.504,155.332,153.504"/>
</svg>
