<?xml version="1.0" encoding="utf-8"?>
<!-- Generator: Adobe Illustrator 15.1.0, SVG Export Plug-In . SVG Version: 6.00 Build 0)  -->
<!DOCTYPE svg PUBLIC "-//W3C//DTD SVG 1.1//EN" "http://www.w3.org/Graphics/SVG/1.1/DTD/svg11.dtd">
<svg version="1.1" id="Layer_1" xmlns="http://www.w3.org/2000/svg" xmlns:xlink="http://www.w3.org/1999/xlink" x="0px" y="0px"
	 width="250px" height="250px" viewBox="275 275 250 250" enable-background="new 275 275 250 250" xml:space="preserve">
<g>
	<g>
		<path fill="#FFFFFF" d="M344.259,427.216c-0.207,0.04-0.416,0.081-0.624,0.122c0.131,0.662,0.262,1.324,0.392,1.987
			c0.125,0.636-0.146,1.028-0.694,1.139c-0.55,0.109-0.956-0.167-1.085-0.808c-0.134-0.654-0.267-1.307-0.4-1.961
			c-0.207,0.043-0.416,0.086-0.621,0.128c0.135,0.661,0.271,1.322,0.406,1.983c0.207,1,0.893,1.397,1.802,1.214
			c0.915-0.182,1.404-0.815,1.204-1.847C344.513,428.521,344.386,427.868,344.259,427.216z M351.255,427.075
			c0-0.003-0.001-0.007-0.001-0.009c-0.053-0.302-0.204-0.543-0.423-0.697c-0.266-0.18-0.639-0.248-1.086-0.17
			c-0.528,0.093-1.056,0.188-1.583,0.283c0.208,1.154,0.417,2.308,0.627,3.463c0.205-0.037,0.411-0.075,0.616-0.111
			c-0.072-0.402-0.144-0.805-0.216-1.207c0.258-0.047,0.517-0.093,0.776-0.138c0.359,0.352,0.718,0.703,1.076,1.056
			c0.242-0.042,0.485-0.084,0.729-0.123c-0.391-0.385-0.784-0.768-1.178-1.15C351.061,428.048,351.352,427.645,351.255,427.075z
			 M350,427.926c-0.302,0.053-0.605,0.106-0.909,0.163c-0.068-0.389-0.137-0.777-0.207-1.165c0.302-0.054,0.604-0.106,0.907-0.16
			c0.461-0.082,0.771,0.075,0.835,0.445c0,0.004,0.001,0.008,0.001,0.01C350.689,427.57,350.445,427.847,350,427.926z
			 M358.228,427.405c-0.068-0.472-0.393-0.662-0.829-0.74c0.243-0.173,0.454-0.433,0.392-0.852c0-0.003,0-0.007-0.001-0.009
			c-0.036-0.233-0.144-0.41-0.325-0.542c-0.234-0.168-0.571-0.229-0.978-0.168c-0.534,0.08-1.066,0.164-1.6,0.248
			c0.184,1.16,0.367,2.317,0.549,3.477c0.543-0.085,1.086-0.17,1.63-0.253c0.785-0.119,1.254-0.528,1.163-1.148
			C358.229,427.413,358.229,427.41,358.228,427.405z M355.588,425.787c0.301-0.046,0.6-0.092,0.9-0.137
			c0.402-0.062,0.65,0.074,0.692,0.347c0,0.003,0,0.007,0.001,0.009c0.047,0.319-0.198,0.514-0.598,0.574
			c-0.284,0.043-0.568,0.088-0.851,0.133C355.684,426.403,355.635,426.095,355.588,425.787z M356.988,428.023
			c-0.343,0.052-0.686,0.105-1.028,0.158c-0.05-0.318-0.099-0.636-0.149-0.954c0.329-0.051,0.659-0.102,0.986-0.151
			c0.491-0.075,0.755,0.063,0.799,0.358c0,0.003,0,0.007,0.001,0.009C357.646,427.757,357.412,427.961,356.988,428.023z
			 M362.891,424.166c-0.373,1.24-0.738,2.48-1.098,3.722c0.213-0.029,0.423-0.058,0.636-0.086c0.083-0.296,0.168-0.594,0.251-0.89
			c0.559-0.074,1.117-0.146,1.675-0.217c0.156,0.266,0.311,0.532,0.465,0.799c0.219-0.027,0.438-0.054,0.657-0.083
			c-0.663-1.107-1.332-2.216-2.006-3.319C363.279,424.115,363.085,424.14,362.891,424.166z M362.838,426.338
			c0.142-0.492,0.284-0.984,0.428-1.475c0.266,0.438,0.531,0.876,0.794,1.316C363.653,426.232,363.245,426.284,362.838,426.338z
			 M371.234,423.225c0.083,0.808,0.163,1.613,0.245,2.421c-0.715-0.744-1.438-1.481-2.165-2.22
			c-0.193,0.021-0.388,0.042-0.583,0.063c0.128,1.167,0.256,2.333,0.385,3.498c0.204-0.021,0.407-0.044,0.612-0.067
			c-0.09-0.828-0.179-1.658-0.27-2.488c0.745,0.758,1.485,1.521,2.221,2.285c0.174-0.017,0.347-0.034,0.521-0.052
			c-0.116-1.168-0.233-2.335-0.348-3.502C371.647,423.183,371.439,423.204,371.234,423.225z M381.735,422.32
			c-0.449,1.213-0.891,2.428-1.327,3.645c0.213-0.016,0.426-0.031,0.639-0.046c0.102-0.29,0.204-0.581,0.307-0.873
			c0.561-0.038,1.121-0.073,1.682-0.108c0.139,0.274,0.276,0.55,0.414,0.826c0.22-0.015,0.439-0.026,0.659-0.039
			c-0.59-1.148-1.186-2.297-1.788-3.442C382.124,422.294,381.929,422.308,381.735,422.32z M381.545,424.484
			c0.172-0.482,0.346-0.965,0.521-1.445c0.235,0.456,0.472,0.91,0.708,1.366C382.364,424.431,381.954,424.456,381.545,424.484z
			 M390.576,423.013c0-0.003,0-0.006,0-0.009c-0.01-0.307-0.128-0.563-0.325-0.749c-0.24-0.21-0.599-0.329-1.051-0.31
			c-0.534,0.021-1.067,0.045-1.602,0.069c0.055,1.172,0.109,2.345,0.163,3.515c0.208-0.009,0.417-0.018,0.625-0.027
			c-0.018-0.408-0.035-0.815-0.054-1.225c0.261-0.014,0.523-0.022,0.784-0.035c0.31,0.397,0.617,0.793,0.924,1.191
			c0.246-0.01,0.491-0.021,0.736-0.027c-0.336-0.433-0.673-0.864-1.011-1.297C390.258,423.952,390.597,423.592,390.576,423.013z
			 M389.226,423.691c-0.306,0.012-0.612,0.024-0.919,0.038c-0.017-0.393-0.035-0.787-0.052-1.18c0.306-0.014,0.611-0.027,0.917-0.04
			c0.467-0.019,0.752,0.177,0.767,0.554v0.009C389.951,423.43,389.674,423.672,389.226,423.691z M397.041,421.727
			c-0.973,0.015-1.945,0.033-2.918,0.058c0.005,0.191,0.01,0.382,0.014,0.573c0.38-0.009,0.759-0.019,1.139-0.026
			c0.021,0.982,0.041,1.964,0.061,2.946c0.21-0.005,0.419-0.009,0.629-0.014c-0.017-0.981-0.035-1.962-0.054-2.944
			c0.379-0.007,0.759-0.014,1.139-0.019C397.046,422.11,397.043,421.919,397.041,421.727z M402.1,423.173
			c-0.686-0.161-0.849-0.28-0.849-0.552v-0.011c0-0.232,0.215-0.419,0.584-0.418c0.328,0.001,0.651,0.128,0.973,0.365
			c0.114-0.155,0.228-0.31,0.341-0.466c-0.362-0.288-0.778-0.445-1.302-0.445c-0.716-0.002-1.228,0.417-1.228,1.021v0.01
			c0.003,0.648,0.434,0.868,1.192,1.05c0.664,0.152,0.805,0.29,0.805,0.54v0.011c-0.001,0.267-0.246,0.441-0.632,0.439
			c-0.443-0.001-0.783-0.166-1.126-0.456c-0.124,0.146-0.25,0.294-0.375,0.442c0.427,0.375,0.939,0.561,1.482,0.562
			c0.746,0.001,1.272-0.388,1.276-1.045v-0.01C403.248,423.627,402.856,423.357,402.1,423.173z M414.509,423.879
			c-0.153-0.09-0.309-0.179-0.463-0.267c-0.128,0.24-0.265,0.466-0.411,0.662c-0.196-0.214-0.392-0.426-0.587-0.638
			c0.48-0.157,0.805-0.421,0.823-0.883v-0.01c0.021-0.473-0.348-0.865-0.918-0.888c-0.644-0.023-1.049,0.376-1.064,0.847v0.01
			c-0.009,0.257,0.075,0.479,0.271,0.745c-0.499,0.188-0.78,0.506-0.796,0.958v0.01c-0.019,0.607,0.466,1.021,1.124,1.045
			c0.433,0.017,0.793-0.146,1.111-0.414c0.149,0.164,0.3,0.331,0.452,0.496c0.158-0.102,0.317-0.204,0.475-0.306
			c-0.177-0.195-0.356-0.39-0.534-0.586C414.185,424.423,414.355,424.152,414.509,423.879z M412.477,422.749
			c0.009-0.247,0.186-0.417,0.441-0.405c0.242,0.008,0.404,0.177,0.395,0.413v0.01c-0.011,0.25-0.211,0.408-0.584,0.525
			c-0.191-0.224-0.259-0.358-0.252-0.531V422.749L412.477,422.749z M412.573,424.961c-0.346-0.013-0.587-0.238-0.576-0.533
			c0.001-0.005,0.001-0.007,0.001-0.011c0.008-0.226,0.158-0.437,0.495-0.564c0.256,0.276,0.51,0.552,0.765,0.829
			C413.046,424.863,412.817,424.97,412.573,424.961z M424.067,423.051c0.326,0.025,0.64,0.176,0.942,0.437
			c0.125-0.146,0.25-0.293,0.376-0.438c-0.341-0.314-0.743-0.504-1.268-0.542c-0.713-0.055-1.256,0.324-1.299,0.927
			c0,0.004,0,0.008,0,0.01c-0.047,0.647,0.365,0.898,1.11,1.137c0.651,0.2,0.784,0.347,0.762,0.598c0,0.004,0,0.007,0,0.01
			c-0.021,0.266-0.278,0.422-0.664,0.392c-0.441-0.033-0.769-0.225-1.089-0.54c-0.135,0.139-0.271,0.276-0.406,0.415
			c0.399,0.406,0.896,0.63,1.438,0.671c0.745,0.057,1.298-0.291,1.353-0.947c0-0.004,0-0.008,0-0.01
			c0.048-0.581-0.323-0.88-1.064-1.117c-0.672-0.214-0.827-0.346-0.806-0.617v-0.008
			C423.469,423.193,423.698,423.023,424.067,423.051z M430.756,423.135c-0.471-0.046-0.943-0.092-1.414-0.136
			c-0.108,1.17-0.219,2.336-0.328,3.504c0.207,0.02,0.415,0.039,0.622,0.06c0.037-0.375,0.073-0.751,0.109-1.126
			c0.234,0.021,0.47,0.045,0.704,0.069c0.782,0.076,1.465-0.267,1.545-1.054c0.001-0.004,0.001-0.006,0.001-0.009
			C432.07,423.739,431.59,423.219,430.756,423.135z M431.358,424.392c0,0.004,0,0.008,0,0.012c-0.039,0.364-0.359,0.595-0.832,0.547
			c-0.242-0.022-0.486-0.046-0.729-0.069c0.041-0.421,0.082-0.842,0.121-1.262c0.244,0.023,0.488,0.047,0.73,0.071
			C431.12,423.737,431.399,423.982,431.358,424.392z M437.557,423.825c-1.1-0.134-1.973,0.602-2.085,1.586
			c0,0.002-0.001,0.006-0.002,0.008c-0.112,0.985,0.553,1.885,1.637,2.018c1.085,0.132,1.957-0.592,2.084-1.575
			c0-0.003,0.001-0.007,0.002-0.01C439.32,424.87,438.657,423.958,437.557,423.825z M438.536,425.779
			c-0.001,0.004-0.001,0.007-0.003,0.011c-0.086,0.677-0.646,1.168-1.348,1.083c-0.703-0.085-1.139-0.708-1.059-1.387
			c0-0.004,0.002-0.006,0.002-0.011c0.079-0.679,0.64-1.175,1.349-1.087C438.187,424.474,438.622,425.1,438.536,425.779z
			 M444.829,424.86c-0.531-0.077-1.061-0.154-1.592-0.229c-0.164,1.161-0.328,2.323-0.491,3.485
			c0.205,0.028,0.413,0.059,0.619,0.087c0.059-0.404,0.117-0.81,0.175-1.214c0.259,0.037,0.519,0.074,0.779,0.114
			c0.229,0.446,0.461,0.894,0.688,1.342c0.244,0.034,0.488,0.071,0.731,0.108c-0.252-0.488-0.504-0.974-0.758-1.46
			c0.519-0.065,0.919-0.356,1.005-0.928c0-0.004,0-0.008,0.001-0.011c0.046-0.303-0.021-0.577-0.182-0.796
			C445.61,425.108,445.278,424.927,444.829,424.86z M445.347,426.095c0,0.004,0,0.008-0.001,0.011
			c-0.052,0.354-0.37,0.54-0.815,0.474c-0.304-0.045-0.607-0.088-0.913-0.133c0.057-0.39,0.111-0.779,0.168-1.169
			c0.305,0.044,0.607,0.088,0.911,0.133C445.159,425.477,445.405,425.724,445.347,426.095z M449.617,426.183
			c0.376,0.062,0.75,0.124,1.127,0.188c-0.163,0.969-0.324,1.937-0.488,2.905c0.208,0.034,0.418,0.069,0.623,0.104
			c0.164-0.969,0.329-1.936,0.494-2.904c0.375,0.064,0.75,0.129,1.125,0.193c0.034-0.188,0.066-0.377,0.099-0.564
			c-0.962-0.167-1.923-0.329-2.888-0.488C449.679,425.806,449.647,425.995,449.617,426.183z M456.587,427.757
			c0.042-0.227,0.288-0.37,0.654-0.301c0.323,0.062,0.618,0.247,0.893,0.54c0.14-0.131,0.282-0.263,0.423-0.395
			c-0.305-0.351-0.687-0.584-1.203-0.682c-0.705-0.134-1.289,0.182-1.399,0.775c-0.001,0.002-0.001,0.007-0.002,0.011
			c-0.118,0.637,0.266,0.932,0.981,1.253c0.627,0.272,0.742,0.433,0.694,0.681c-0.002,0.004-0.002,0.006-0.002,0.01
			c-0.051,0.262-0.325,0.389-0.706,0.315c-0.437-0.085-0.743-0.31-1.026-0.66c-0.15,0.122-0.302,0.244-0.452,0.366
			c0.353,0.449,0.824,0.726,1.359,0.828c0.737,0.142,1.327-0.142,1.453-0.789c0.003-0.002,0.003-0.006,0.004-0.01
			c0.111-0.572-0.225-0.91-0.938-1.23c-0.646-0.287-0.786-0.434-0.734-0.702C456.586,427.764,456.586,427.76,456.587,427.757z
			 M442.823,386.643c-0.396,0-2.375,7.148-3.081,11.393c-0.711,4.332-1.281,8.267-0.837,8.41c0.008,0.002,0.015,0.003,0.021,0.003
			c0.501,0,3.038-5.486,3.637-9.296c0.61-3.825,0.641-10.34,0.271-10.509C442.832,386.643,442.828,386.643,442.823,386.643z
			 M352.325,386.314c-0.415,0-2.698,7.657-3.393,12.491c-0.706,4.837-1.046,9.415-0.459,9.673c0.008,0.005,0.019,0.008,0.029,0.008
			c0.617,0,2.465-6.959,3.062-10.929c0.606-4.088,1.147-11.078,0.776-11.238C352.336,386.315,352.331,386.314,352.325,386.314z
			 M336.714,385.635c-0.388,0-2.725,8.752-3.438,14.371c-0.724,5.607-1.099,11.118-0.514,11.255
			c0.004,0.001,0.007,0.002,0.011,0.002c0.595,0,2.263-7.95,2.883-12.591c0.624-4.746,1.415-12.88,1.071-13.035
			C336.722,385.635,336.718,385.635,336.714,385.635z M489.626,386.016c0.241-1.866,0.363-2.802,0.325-3.646
			c-0.071-1.612-1.437-3.236-2.569-4.312c-1.119-1.063-2.766-2.331-4.253-2.331c-0.673,0-1.303,0.235-1.771,0.663
			c-0.708,0.647-1.16,1.667-2.124,5.125c-0.435-0.661-0.964-1.285-1.448-1.8c-2.42-2.573-3.812-2.574-4.269-2.575
			c0,0-0.001,0-0.003,0c-0.506,0-0.98,0.13-1.382,0.368c-0.586,0.277-1.011,0.785-1.167,1.378c-0.085,0.291-0.652,2.147-1.48,4.827
			c-0.332-0.661-1.008-1.561-2.406-2.686c-1.642-1.317-3.016-1.986-4.084-1.986c-0.79,0-1.504,0.324-1.969,0.89
			c-0.154,0.184-0.28,0.383-0.393,0.654c-0.805-0.383-1.674-0.663-2.493-0.663c-0.701,0-1.347,0.195-1.867,0.565
			c-0.016,0.011-0.029,0.021-0.045,0.033c-0.192,0.146-0.383,0.324-0.575,0.547c-0.29,0.205-0.521,0.472-0.678,0.776
			c-0.065,0.124-0.38,0.695-0.773,1.409c-0.689,1.256-1.781,3.239-3.04,5.534c-0.273-2.321-0.864-4.19-1.764-5.551
			c-0.612-0.945-2.069-1.67-3.482-2.068c0.065-0.285,0.128-0.565,0.188-0.84c0.025-0.116,0.048-0.227,0.07-0.335
			c0.013-0.05,0.023-0.102,0.03-0.154c0.891-4.425,0.452-6.253,0.24-7.135c-0.007-0.036-0.016-0.068-0.022-0.097
			c-0.137-1.459-1.561-2.521-4.347-3.243c-0.836-0.217-1.675-0.362-2.362-0.408c-0.167-0.011-0.327-0.018-0.477-0.018
			c-1.533,0-2.282,0.639-2.646,1.193c-0.495,0.745-0.354,1.439-0.194,2.24c0.041,0.206,0.092,0.457,0.145,0.739
			c0.157,2.226,0.224,6.929-1.317,12.054c-0.433-0.791-1.371-1.485-3.027-2.268c-0.9-0.426-2.591-1.142-3.797-1.142
			c-0.938,0-1.532,0.382-1.865,0.702c-0.438,0.424-1.146,1.475-1.904,2.715c-0.461-0.498-1.227-1.052-2.493-1.733
			c-1.662-0.895-2.975-1.348-3.905-1.349c-1.015,0-1.874,0.484-2.295,1.297c-0.06,0.113-0.114,0.236-0.165,0.375
			c-0.136,0.3-0.468,1.046-0.941,2.103c-0.42-0.699-1.229-1.373-2.524-2.123c-1.038-0.603-2.512-1.322-3.637-1.322
			c-0.661,0-1.277,0.224-1.734,0.629c-0.004,0.003-0.007,0.006-0.01,0.008c-0.361,0.324-0.734,0.66-2.317,4.695
			c-0.212,0.538-0.428,1.102-0.646,1.682c-0.421-0.398-0.956-0.781-1.573-1.174c-0.961-0.719-2.752-1.854-4.479-1.854
			c-0.029,0-0.064,0-0.092,0.001c-0.587,0.021-3.955,0.167-8.307,0.383c0.028-0.199,0.063-0.391,0.095-0.575
			c0.074-0.427,0.145-0.83,0.146-1.239c0.003-1.291-0.726-1.962-1.159-2.247c-0.765-0.501-4.097-2.081-5.698-2.081
			c-0.777,0-1.311,0.281-1.631,0.534c0.19-2.987,0.047-5.01-0.112-5.856c-0.143-0.749-0.559-1.676-3.724-3.265
			c-0.556-0.278-1.377-0.661-2.139-0.905c-0.449-0.144-0.841-0.228-1.198-0.256c-0.093-0.008-0.188-0.012-0.277-0.012
			c-1.121,0-1.755,0.557-2.035,0.888c-0.007,0.008-0.012,0.016-0.018,0.022c-0.683,0.834-0.646,1.792-0.587,3.379
			c0.002,0.023,0.002,0.047,0.004,0.071c-0.047-0.409-0.089-0.666-0.106-0.76c-0.133-0.739-0.532-1.668-3.623-3.418
			c-0.557-0.313-1.375-0.747-2.132-1.03c-0.454-0.17-0.85-0.273-1.212-0.316c-0.135-0.017-0.271-0.024-0.398-0.024
			c-0.818,0-1.558,0.333-2.028,0.914c-0.009,0.01-0.019,0.021-0.026,0.032c-0.403,0.519-0.51,1.085-0.545,1.498
			c-0.17,1.06-1.164,7.041-2.773,12.303c-0.047-0.089-0.091-0.168-0.13-0.237l-0.032-0.059c-0.018-0.033-0.037-0.065-0.057-0.097
			c-0.178-0.287-0.649-1.048-3.442-2.314c-1.27-0.575-3.081-1.262-4.498-1.262c-1.08,0-1.766,0.386-2.159,0.717
			c-0.185,0.155-0.366,0.347-0.555,0.591c-0.224,0.183-0.409,0.404-0.542,0.653l-0.017,0.03c-0.495,0.903-1.729,3.175-3.287,6.225
			c-0.227-3.194-0.898-4.596-1.246-5.322l-0.031-0.066c-0.013-0.027-0.026-0.054-0.041-0.08c-0.435-0.823-1.564-1.735-3.355-2.713
			c-1.245-0.68-3.03-1.49-4.468-1.49c-0.631,0-1.194,0.144-1.674,0.43c-0.564,0.326-1.274,0.948-2.492,3.792
			c-0.716,1.672-1.46,3.786-2.119,6.014c-0.056-3.706-0.786-6.433-1.268-7.561c-0.006-0.015-0.012-0.029-0.019-0.043
			c-0.53-1.167-2.168-2.347-3.448-3.131c-1.324-0.811-3.239-1.777-4.847-1.778c-0.724,0-1.36,0.181-1.892,0.539
			c-0.015,0.01-0.028,0.02-0.041,0.028c-1.297,0.913-2.462,2.985-3.464,6.161c-1.232,3.902-2.146,9.241-2.716,15.865
			c-0.18,2.071-0.306,4.081-0.379,5.972c-0.034,0.885-0.056,1.758-0.067,2.595c-0.004,0.404-0.006,0.809-0.006,1.203
			c0,0.384,0.003,0.768,0.009,1.141c0.044,2.677,0.222,5.056,0.533,7.069c0.5,3.243,1.226,4.771,1.535,5.424
			c0.023,0.049,0.045,0.091,0.06,0.124c0.389,0.931,1.369,1.676,2.995,2.276c1.239,0.458,2.594,0.721,3.715,0.721
			c1.181,0,2.151-0.28,2.883-0.83c0.005-0.004,0.008-0.005,0.011-0.007c0.455-0.347,0.806-0.833,1.095-1.521
			c0.334-0.651,1.066-2.368,2.614-6.891c0.252,1.31,0.571,2.135,0.846,2.647c0.711,1.345,2.825,1.982,4.48,2.282
			c0.736,0.136,1.471,0.208,2.12,0.208c1.485,0,2.601-0.381,3.312-1.127c0.007-0.006,0.012-0.012,0.017-0.019
			c0.932-0.997,2.185-3.429,3.272-6.354c0.376-0.859,0.792-1.814,1.233-2.84c0.211,1.948,0.639,3.435,1.277,4.416
			c0.521,0.819,1.502,1.326,3.267,1.69c1.105,0.229,2.401,0.364,3.467,0.364c1.577,0,2.599-0.273,3.311-0.886
			c0.007-0.008,0.014-0.013,0.02-0.02c0.777-0.684,1.937-2.435,3.102-5.018c0,0.007,0.001,0.013,0.003,0.021
			c0.27,1.662,2.292,2.758,3.941,3.382c0.574,0.218,1.446,0.505,2.323,0.622c0.264,0.035,0.516,0.052,0.749,0.052
			c0.199,0,0.391-0.014,0.572-0.038c0.064-0.008,0.128-0.021,0.19-0.032c0.755-0.022,1.73-0.437,2.092-1.549
			c0.115-0.352,0.391-1.138,0.918-2.389c0.418,0.451,0.897,0.743,1.123,0.881c0.603,0.368,1.381,0.735,2.195,1.032
			c0.58,0.212,1.455,0.493,2.328,0.622c0.307,0.044,0.597,0.066,0.861,0.066c0.144,0,0.285-0.007,0.418-0.02
			c1.015-0.103,1.606-0.571,1.925-0.951c0.633-0.757,0.617-1.604,0.593-2.774c-0.03-1.479-0.079-3.949,0.69-7.901
			c0.205-1.05,0.437-2.012,0.686-2.922c0.243,0.22,0.53,0.396,0.849,0.516c0.006,0.003,0.012,0.005,0.019,0.007
			c0.353,0.131,0.725,0.197,1.101,0.197c2.168,0,3.484-2.022,4.758-3.979c0.128-0.199,0.253-0.39,0.376-0.575
			c0.968,1.825,1.678,2.911,2.778,3.716c1.203,0.879,2.583,1.179,4.4,1.507c0.005,0,0.008,0.001,0.012,0.001
			c0.319,0.057,0.605,0.089,0.871,0.096c-0.086,0.825-0.143,1.538-0.179,2.072c-0.173,2.57-0.129,4.23,0.132,4.933
			c0,0.003,0.003,0.007,0.003,0.011c0.327,0.865,1.093,1.576,4.203,2.847c1.443,0.59,3.369,1.295,4.357,1.295
			c0.18,0,0.356-0.019,0.524-0.051c0.021-0.004,0.043-0.008,0.064-0.013c1.02-0.232,1.589-0.902,2.215-2.276
			c0.506,0.339,1.139,0.702,1.93,1.093c1.629,0.802,2.892,1.207,3.759,1.207c0.501,0,0.969-0.122,1.364-0.349
			c0.558-0.261,0.972-0.732,1.146-1.292c0.04-0.122,0.294-0.878,0.713-2.054c0.334,0.635,0.971,1.09,1.693,1.56
			c0.628,0.408,1.428,0.873,2.255,1.311c2.508,1.32,3.543,1.499,4.226,1.499c0.83,0,1.556-0.314,2.043-0.884
			c0.003-0.004,0.006-0.006,0.008-0.011c0.713-0.842,0.779-1.909,0.872-3.385c0.09-1.447,0.212-3.428,0.894-5.948
			c0.077-0.29,0.167-0.589,0.266-0.898c0.565,0.373,1.37,0.73,2.506,1.14c0.907,0.325,2.549,0.863,3.597,0.904
			c0.045,0.002,0.093,0.005,0.146,0.007h0.049c0.073,0,0.145-0.003,0.217-0.008c-0.362,3.546-0.195,4.924,0.01,5.665
			c0.002,0.01,0.003,0.019,0.007,0.027c0.5,1.715,3.054,3.264,4.505,3.821c1.373,0.812,4.089,1.868,5.747,1.868
			c0.49,0,0.916-0.082,1.307-0.249c0.015-0.006,0.03-0.013,0.043-0.02c1.335-0.609,3.527-2.657,5.322-6.42
			c0.183-0.348,0.386-0.738,0.619-1.195c0.17,3.062,0.858,4.724,1.556,6.061c0.003,0.005,0.006,0.012,0.009,0.019
			c0.731,1.369,2.582,2.682,3.621,3.342c2.375,1.505,3.53,1.505,3.908,1.505c0.565,0,1.099-0.144,1.542-0.414
			c0.081-0.049,0.182-0.112,0.299-0.194c0.099,0.076,0.199,0.151,0.301,0.226c2.575,1.892,3.521,2.05,4.204,2.05
			c0.692,0,1.328-0.258,1.782-0.708c0.387-0.327,0.651-0.783,0.723-1.292c0.023-0.134,0.174-0.99,0.465-2.395
			c0.204,0.747,0.873,1.882,3.559,4.399c3.088,2.877,3.979,3.104,4.822,3.104c0.368,0,0.735-0.081,1.06-0.234
			c0.012-0.007,0.024-0.012,0.037-0.02c1.189-0.589,1.396-1.846,1.482-2.382c0.091-0.542,0.153-1.23,0.227-2.027
			c0.003-0.027,0.006-0.056,0.008-0.085c0.461,0.818,1.263,2.028,2.671,3.868c0.805,1.045,1.501,1.887,2.073,2.508l4.467,1.279
			c0.043-0.033,0.085-0.067,0.127-0.104c0.914-0.807,0.89-2.031,0.871-3.016c-0.017-0.858-0.09-1.994-0.181-3.435
			c-0.291-4.548-0.729-11.42-0.078-19.241C488.744,392.782,489.296,388.547,489.626,386.016z M485.875,399.141
			c-1.081,12.971,0.8,23.684,0.089,24.313c-0.024,0.02-0.054,0.027-0.09,0.027c-0.475,0-1.889-1.651-3.239-3.405
			c-1.453-1.898-2.835-3.912-2.91-4.546c-0.149-1.277-0.31-6.516,0.025-10.026c0.273-2.885,0.372-5.809,0.176-6.054
			c-0.003-0.003-0.008-0.005-0.01-0.005c-0.237,0-1.906,7.046-3.025,11.466c-1.136,4.517-0.892,8.859-1.496,9.159
			c-0.015,0.008-0.034,0.012-0.057,0.012c-0.405,0-1.85-1.191-3.249-2.492c-1.476-1.383-2.899-2.885-2.986-3.526
			c-0.175-1.317-0.521-8.84,0.564-16.129c0.121-0.802,0.245-1.629,0.373-2.468c-0.632,1.807-1.244,3.626-1.787,5.349
			c-2.758,8.896-3.978,15.956-3.978,15.989c-0.005-0.045-0.013-0.093-0.019-0.139c-0.022,0.095-0.051,0.173-0.085,0.229
			c-0.035,0.054-0.097,0.078-0.185,0.078c-0.474,0-1.655-0.742-2.827-1.601c-0.612-0.452-1.219-0.934-1.72-1.378
			c-0.688,0.706-1.224,1.086-1.469,1.234c-0.085,0.053-0.197,0.078-0.331,0.078c-0.601,0-1.637-0.496-2.658-1.145
			c-1.254-0.797-2.485-1.813-2.874-2.543c-0.779-1.497-2.067-4.014-0.888-12.823c0.144-1.065,0.332-2.121,0.548-3.159
			c-0.863,1.477-1.673,2.921-2.338,4.208c-1.833,3.632-2.838,5.644-3.523,6.938c-1.765,3.722-3.704,5.164-4.273,5.422
			c-0.093,0.041-0.221,0.059-0.378,0.059c-1.112,0-3.63-0.935-4.728-1.651c-1.266-0.404-3.154-1.748-3.37-2.487
			c-0.275-1-0.313-4.117,1.252-13.22c-1.671,3.543-2.973,5.985-3.64,5.985c0,0-0.001,0-0.002,0c-0.016,0-0.03-0.002-0.046-0.005
			c-0.009,0-0.017,0-0.024,0c-0.996,0-5.061-1.406-5.22-1.928c-0.094-0.319-0.115-1.325-0.102-2.872
			c0.016-1.543,0.57-3.71,0.473-3.779c-0.002-0.001-0.006-0.001-0.01-0.001c-0.264,0-2.822,5.432-3.798,9.022
			c-1.292,4.784-0.722,7.803-1.343,8.538c-0.061,0.068-0.164,0.099-0.306,0.099c-0.607,0-1.892-0.573-3.133-1.228
			c-1.533-0.811-2.999-1.742-3.054-2.005c-0.05-0.239,0.829-8.935,1.811-14.109c0-0.002,0-0.003,0-0.006
			c-0.6,1.334-1.23,2.742-1.854,4.147c-2.731,6.17-4.8,12.396-4.8,12.402c-0.02-0.033-0.04-0.064-0.059-0.096
			c-0.02,0.065-0.04,0.116-0.063,0.146c-0.041,0.053-0.125,0.077-0.245,0.077c-0.502,0-1.621-0.425-2.724-0.969
			c-1.365-0.672-2.704-1.529-2.813-2.062c-0.221-1.063,0.172-2.803-0.144-2.922c-0.005-0.001-0.008-0.001-0.01-0.001
			c-0.341,0-2.091,5.841-2.734,5.987c-0.019,0.004-0.04,0.007-0.067,0.007c-0.898,0-6.203-2.071-6.454-2.739
			c-0.259-0.698-0.098-6.5,0.984-11.204c0.37-1.608,0.731-3.023,1.074-4.204c-2.061,0.088-4.454,0.168-6.954,0.234
			c3.223,4.902,4.529,6.757,2.97,6.757c-0.167,0-0.366-0.022-0.599-0.062c-3.386-0.611-3.926-0.918-5.674-4.237
			c-0.735-1.399-0.931-2.133-1.37-2.352c-0.189,0.003-0.379,0.006-0.567,0.011c-0.492,0.244-1.02,1.039-1.646,1.959
			c-1.158,1.699-2.357,3.913-3.474,3.913c-0.098,0-0.194-0.017-0.29-0.051c-0.888-0.337,0.2-2.985,1.382-5.759
			c-1.067,0.013-2.1,0.023-3.079,0.029c-0.991,3.053-2.107,5.83-2.866,9.713c-1.249,6.406-0.448,9.286-0.838,9.748
			c-0.075,0.091-0.217,0.143-0.407,0.161c-0.057,0.006-0.119,0.007-0.184,0.007c-0.152,0-0.327-0.014-0.518-0.041
			c-0.543-0.079-1.21-0.265-1.865-0.504c-1.312-0.479-2.568-1.187-2.655-1.688c-0.11-0.63-0.048-2.728,1.006-8.138
			c0.015-0.072,0.032-0.146,0.046-0.221c-0.372,0.72-0.732,1.41-1.072,2.053c-3.63,6.795-4.512,9.876-4.523,9.876
			c-0.036-0.026-0.071-0.055-0.106-0.08c-0.08,0.067-0.198,0.113-0.349,0.135c-0.073,0.01-0.156,0.015-0.244,0.015
			c-0.131,0-0.278-0.011-0.435-0.032c-0.526-0.071-1.173-0.249-1.805-0.489c-1.266-0.479-2.479-1.213-2.564-1.747
			c-0.111-0.674,0.121-2.962,1.17-8.772c1.047-5.827,3.336-12.501,4.293-18.377c0.035-0.211,0.066-0.419,0.097-0.625
			c-0.989,2.879-2.144,6.278-3.104,9.211c-1.591,4.741-3.856,10.652-5.253,14.243c-1.623,4.881-3.436,7.564-4.041,8.098
			c-0.276,0.238-0.968,0.337-1.807,0.337c-1.877,0-4.491-0.495-4.822-1.036c-0.481-0.731-1.794-3.572-0.673-13.149
			c0.149-1.276,0.349-2.53,0.588-3.747c-0.123,0.31-0.244,0.624-0.362,0.943c-2.294,6.071-5.029,12.357-6.063,14.713
			c-1.217,3.285-2.352,5.169-2.858,5.713c-0.292,0.304-0.913,0.428-1.655,0.428c-0.53,0-1.121-0.063-1.699-0.169
			c-1.39-0.252-2.705-0.76-2.904-1.154c-0.398-0.737-1.757-4.223-0.603-15.396c0.012-0.112,0.025-0.226,0.037-0.338
			c-1.067,3.249-2.187,6.672-3.175,9.709c-2.546,7.746-3.5,9.88-3.763,10.359c-0.141,0.353-0.29,0.607-0.449,0.729
			c-0.35,0.262-0.884,0.372-1.493,0.372c-1.834,0-4.358-0.98-4.635-1.667c-0.185-0.438-0.937-1.691-1.459-5.07
			c-0.261-1.689-0.463-3.91-0.51-6.796c-0.005-0.361-0.008-0.732-0.008-1.113c-0.001-0.382,0.001-0.772,0.006-1.176
			c0.01-0.805,0.031-1.652,0.065-2.544c0.068-1.782,0.188-3.74,0.373-5.876c1.269-14.738,3.983-19.586,5.287-20.503
			c0.152-0.103,0.356-0.149,0.599-0.149c1.818,0,5.784,2.623,6.241,3.629c0.519,1.211,1.264,4.404,1.082,8.494
			c-0.183,4.085-1.068,8.401-1.264,8.746c-0.036,0.067-0.1,0.097-0.186,0.097c-0.87,0-4.012-3.206-4.044-4.455
			c-0.035-1.318,0.479-8.265,0.2-8.265c-0.002,0-0.006,0.001-0.008,0.001c-0.297,0.122-1.849,3.779-2.637,13.083
			c-0.629,7.518,0.052,12.229,0.941,14.391c-0.036-0.164-0.042-0.316-0.042-0.351c0.035,0.17,0.072,0.337,0.107,0.503
			c0.035,0.08,0.069,0.154,0.105,0.227c0.052,0.055,0.118,0.088,0.2,0.088c0.595,0,2.045-1.821,5.573-10.87
			c2.18-5.456,4.101-10.533,5.276-13.692c1.496-5.244,3.174-8.868,3.831-9.238c0.123-0.077,0.291-0.111,0.493-0.111
			c1.609,0,5.385,2.206,5.825,3.037c0.491,1.03,2.065,3.979,0.462,15.461c0.41-0.877,0.825-1.759,1.239-2.629
			c3.494-7.441,6.915-13.612,6.915-13.617c0.017,0.026,0.034,0.051,0.05,0.077c0.222-0.349,0.406-0.585,0.539-0.695
			c0.145-0.125,0.377-0.181,0.671-0.181c1.751,0,5.662,1.966,6.01,2.53c0.324,0.592,1.489,2.432,1.113,8.355
			c0.786-1.949,1.564-3.903,2.211-5.575c2.24-5.924,3.602-14.149,3.82-15.525c0.014-0.226,0.051-0.387,0.122-0.478
			c0.048-0.06,0.135-0.087,0.255-0.087c0.035,0,0.075,0.002,0.118,0.007c0.18,0.021,0.409,0.087,0.669,0.184
			c0.521,0.195,1.17,0.519,1.806,0.878c1.274,0.722,2.501,1.581,2.569,1.954c0.133,0.761,0.642,4.654-0.335,11.165
			c-1.031,6.89-3.238,10.486-4.482,17.291c-0.247,1.361-0.426,2.571-0.559,3.644c0.941-1.731,2.045-3.748,3.189-5.816
			c1.41-2.582,2.916-5.611,4.188-8.249c-1.381-0.032-2.236-0.086-2.33-0.166c-0.635-0.545-0.357-1.741,0.4-2.342v0
			c0.138-0.11,1.153-0.24,2.723-0.379c0.447-1.712,0.847-3.406,1.13-5.036c1.285-7.406,0.226-11.233,0.736-11.855
			c0.052-0.062,0.149-0.09,0.282-0.09c0.029,0,0.059,0.001,0.092,0.004c0.18,0.013,0.408,0.068,0.669,0.151
			c0.521,0.167,1.17,0.452,1.808,0.77c1.275,0.641,2.503,1.417,2.571,1.77c0.134,0.713,0.471,4.396-0.51,10.587
			c-0.187,1.179-0.411,2.251-0.661,3.261c1.131-0.07,2.316-0.139,3.522-0.208c0.637-2.244,1.028-6.226,1.386-6.527
			c0.041-0.034,0.11-0.048,0.206-0.048c0.852,0,3.69,1.222,4.424,1.704c0.625,0.41-0.468,2.181-0.002,4.549
			c5.291-0.271,9.848-0.471,10.587-0.498h0.006c0.885,0,2.15,0.681,3.159,1.447c0.923,0.584,1.677,1.189,1.678,1.481
			c0,0.099-0.021,0.195-0.053,0.301c0.011,0.047,0.016,0.092,0.009,0.132c-0.004,0.021-0.034,0.04-0.084,0.059
			c-0.284,0.655-1.002,1.741-1.638,4.979c-0.716,3.663-1.516,7.878-1.029,7.878c0.066,0,0.157-0.079,0.273-0.245
			c0.978-1.397,2.405-4.417,3.763-8.524c1.746-5.281,4.004-11.011,4.48-11.439c0.042-0.037,0.111-0.054,0.202-0.054
			c0.939,0,4.214,1.842,4.278,2.542c0.068,0.761-0.89,3.638-2.221,9.885c-0.335,1.568-0.567,3.169-0.735,4.694
			c0.729-1.416,1.538-3.062,2.354-4.869c2.603-5.752,5.137-11.417,5.513-12.265c0.028-0.082,0.057-0.149,0.086-0.202
			c0.04-0.08,0.142-0.116,0.289-0.116c1.1,0,4.75,2.001,4.851,2.571c0.185,1.038-2.175,8.851-1.484,9.107
			c0.002,0.001,0.002,0.001,0.004,0.001c0.16,0,1.379-3.292,3.34-6.842c1.862-3.376,2.957-4.893,3.187-5.103
			c0.049-0.048,0.144-0.07,0.271-0.07c1.103,0,4.73,1.658,4.873,2.361c0.078,0.386-1.246,4.603-1.889,9.023
			c-0.088,0.61-0.157,1.177-0.211,1.706c1.087-1.226,2.467-3.033,3.848-5.535c4.019-7.393,3.989-15.258,3.742-18.563
			c-0.171-0.956-0.325-1.537-0.274-1.61c0.087-0.138,0.362-0.197,0.749-0.197c0.1,0,0.206,0.003,0.318,0.011
			c0.553,0.037,1.249,0.162,1.933,0.34c1.367,0.353,2.687,0.93,2.711,1.416c0.029,0.517,0.795,1.803-0.202,6.699
			c0,0.001,0.002,0.002,0.002,0.002l-0.003,0.003c-0.026,0.126-0.051,0.252-0.08,0.384c-0.226,1.054-0.477,2.074-0.745,3.094
			c0.176-0.042,0.371-0.061,0.578-0.061c1.429,0,3.445,0.891,3.746,1.402c0.394,0.594,2.528,3.73,1.165,13.682
			c0.333-0.61,0.665-1.227,0.995-1.847c3.547-6.554,7.34-13.399,7.34-13.414c0.021,0.025,0.041,0.051,0.063,0.076
			c0.225-0.326,0.417-0.551,0.562-0.66c0.138-0.097,0.317-0.142,0.523-0.142c1.023,0,2.773,1.065,3.98,2.085
			c0.287-1.698,0.498-2.689,0.667-2.887c0.042-0.054,0.112-0.078,0.207-0.078c0.98,0,4.522,2.672,4.583,3.854
			c0.05,0.961-0.809,7.021-1.688,13.632c-0.03,0.25-0.061,0.502-0.096,0.762c-0.022,0.168-0.047,0.333-0.069,0.498
			c-0.191,1.441-0.377,2.892-0.555,4.312c0.522-1.274,1.135-2.943,1.829-5.129c2.85-8.929,6.137-19.65,6.137-19.687
			c0.015,0.021,0.03,0.043,0.044,0.064c0.009-0.014,0.016-0.029,0.021-0.041c0.067-0.115,0.176-0.167,0.313-0.167
			c1.133,0.001,4.337,3.418,4.392,4.661c0.063,1.337-0.749,5.277-1.256,9.184c-0.506,3.927-1.241,9.634-0.935,9.634
			c0.001,0,0.001,0,0.002,0c0.31-0.046,1.306-4.103,3.439-12.21c2.132-8.18,3.092-12.007,3.754-12.612
			c0.052-0.048,0.127-0.07,0.219-0.07c1.066,0,4.519,3.013,4.588,4.624C487.795,382.848,486.955,385.99,485.875,399.141z
			 M461.127,385.595c-0.36,0-3.201,7.026-4.046,12.598c-0.746,4.979-0.309,10.576-0.046,10.794c0.005,0.005,0.009,0.006,0.014,0.006
			c0.305,0,1.985-7.104,2.764-11.578c0.775-4.383,1.651-11.665,1.321-11.818C461.133,385.596,461.131,385.595,461.127,385.595z"/>
	</g>
</g>
</svg>
