<?xml version="1.0" encoding="utf-8"?>
<!-- Generator: Adobe Illustrator 15.1.0, SVG Export Plug-In . SVG Version: 6.00 Build 0)  -->
<!DOCTYPE svg PUBLIC "-//W3C//DTD SVG 1.1//EN" "http://www.w3.org/Graphics/SVG/1.1/DTD/svg11.dtd">
<svg version="1.1" id="Layer_1" xmlns="http://www.w3.org/2000/svg" xmlns:xlink="http://www.w3.org/1999/xlink" x="0px" y="0px"
	 width="250px" height="250px" viewBox="275 275 250 250" enable-background="new 275 275 250 250" xml:space="preserve">
<g>
	<g>
		<path fill="#FFFFFF" d="M472.64,400.383c-8.617-8.434-20.116-13.08-32.378-13.08h-80.529c-12.254,0-23.758,4.698-32.394,13.231
			c-8.674,8.569-13.452,20.026-13.452,32.259c0,12.231,4.779,23.688,13.456,32.256c8.636,8.527,20.143,13.225,32.401,13.225
			c10.421,0,18.182-5.357,25.03-10.087c3.178-2.195,6.181-4.268,9.285-5.749c0.669-0.32,2.801-0.796,5.92-0.796
			c3.164,0,5.333,0.486,6.02,0.813c3.129,1.492,6.156,3.615,9.362,5.86c6.81,4.771,14.527,10.177,24.9,10.177
			c25.281,0,45.851-20.617,45.851-45.96C486.112,420.304,481.327,408.885,472.64,400.383z M440.262,467.159
			c-6.794,0-12.168-3.766-18.391-8.126c-3.446-2.414-7.008-4.908-10.989-6.808c-3.502-1.671-8.334-1.92-10.901-1.92
			c-2.547,0-7.337,0.247-10.807,1.903c-3.921,1.87-7.44,4.301-10.844,6.653c-6.277,4.334-11.699,8.077-18.585,8.077
			c-9.254,0-17.931-3.535-24.43-9.955c-6.505-6.422-10.084-15.014-10.084-24.191c0-9.181,3.58-17.773,10.081-24.195
			c6.5-6.421,15.171-9.957,24.421-9.957h80.529c9.278,0,17.959,3.496,24.444,9.842c6.49,6.354,10.066,14.895,10.066,24.05
			C474.772,451.625,459.29,467.159,440.262,467.159z M369.171,426.981h-3.967v-3.969c0-7.368-11.341-7.368-11.341,0
			c0,0,0,1.612,0,3.969h-3.969c-7.372,0-7.372,11.336,0,11.336c0,0,1.603,0,3.969,0v3.968c0,7.366,11.341,7.366,11.341,0v-3.968
			h3.967C376.544,438.317,376.544,426.981,369.171,426.981z M340.133,376.971c-0.07,7.312,11.27,7.306,11.34,0
			c0.054-5.606,1.766-10.021,4.059-15.056c1.317-2.892,0.777-5.976-2.034-7.756c-4.273-2.704-4.785-7.764-2.084-11.761
			c2.766-4.091,8.847-3.354,11.937-0.279c1.654,1.646,4.854,2.393,6.871,0.887c18.042-13.474,42.061-13.464,60.108-0.009
			c2.019,1.505,5.215,0.76,6.872-0.886c3.88-3.856,10.949-3.248,13.09,2.243c1.119,2.868,0.638,3.824-0.97,6.429
			c-0.999,1.616-1.935,2.753-3.406,4.255c-1.893,1.93-2.017,4.53-0.887,6.869c0.17,0.35,0.329,0.705,0.488,1.062
			c-0.148-0.326,0.377,0.907,0.416,1.002c0.336,0.839,0.644,1.69,0.943,2.543c1.194,3.37,2.147,6.87,2.217,10.458
			c0.144,7.299,11.484,7.314,11.341,0c-0.113-5.764-1.655-11.514-3.866-16.884c1.37-1.708,2.602-3.536,3.611-5.438
			c2.895-5.447,2.36-11.353-0.458-16.716c-5.174-9.848-17.728-11.983-26.649-6.807c-19.667-12.815-45.896-12.831-65.563-0.011
			c-7.847-4.653-18.32-3.519-24.551,3.821c-6.597,7.773-5.68,18.735,0.843,25.717C341.665,365.878,340.191,370.967,340.133,376.971z
			 M410.424,370.489c0,3.104,2.517,5.62,5.623,5.62c3.105,0,5.624-2.516,5.624-5.62c0-3.105-2.519-5.62-5.624-5.62
			C412.941,364.868,410.424,367.384,410.424,370.489z M446.984,419.79c-3.341,0-6.047,2.706-6.047,6.046
			c0,3.338,2.706,6.046,6.047,6.046s6.049-2.708,6.049-6.046C453.032,422.496,450.324,419.79,446.984,419.79z M432.951,433.817
			c-3.341,0-6.049,2.707-6.049,6.046s2.708,6.045,6.049,6.045c3.34,0,6.048-2.706,6.048-6.045S436.291,433.817,432.951,433.817z
			 M378.67,370.489c0,3.104,2.517,5.62,5.623,5.62c3.105,0,5.623-2.516,5.623-5.62c0-3.105-2.517-5.62-5.623-5.62
			C381.187,364.868,378.67,367.384,378.67,370.489z"/>
	</g>
</g>
</svg>
