<?xml version="1.0" encoding="utf-8"?>
<!-- Generator: Adobe Illustrator 15.1.0, SVG Export Plug-In . SVG Version: 6.00 Build 0)  -->
<!DOCTYPE svg PUBLIC "-//W3C//DTD SVG 1.1//EN" "http://www.w3.org/Graphics/SVG/1.1/DTD/svg11.dtd">
<svg version="1.1" id="Layer_1" xmlns="http://www.w3.org/2000/svg" xmlns:xlink="http://www.w3.org/1999/xlink" x="0px" y="0px"
	 width="800px" height="800px" viewBox="0 0 800 800" enable-background="new 0 0 800 800" xml:space="preserve">
<rect x="-10.74" y="-13" fill="#1B1817" width="826.001" height="826"/>
<g>
	<g>
		<path fill="#FFFFFF" d="M334.636,317.985c3.984,3.699,8.019,7.342,11.998,11.045c4.913,4.569,9.176,9.971,15.393,13.307
			c-0.826-3.979-3.612-6.226-5.846-8.764c-3.847-4.378-7.985-8.473-11.984-12.703c-3.765-3.982-7.951-7.385-12.618-10.112
			c-0.704-0.411-1.659-1.244-2.405-0.266c-0.757,0.99-0.076,2.014,0.609,2.734C331.346,314.871,332.979,316.445,334.636,317.985z
			 M276.741,265.248c1.07,0.154,2.21,0.35,2.873,1.294c1.625,2.312,4.81,2.423,6.242,4.998c0.172,0.307,0.787,0.341,1.009,0.426
			c0.865,0.017,1.546-0.065,1.757-0.805c0.27-0.95-0.312-1.588-0.991-2.097c-3.836-2.886-7.566-5.948-11.924-7.964
			c-0.894-0.413-1.868-1.8-2.772-0.498c-0.822,1.188,0.311,2.258,1.011,3.182C274.64,264.704,275.647,265.089,276.741,265.248z
			 M297.712,279.708c4.141,2.917,7.668,6.568,11.18,10.245c4.346,4.552,8.74,9.051,13.127,13.56c0.485,0.498,1.046,1.32,1.785,0.676
			c0.705-0.609,0.23-1.436-0.243-1.981c-3.375-3.903-6.826-7.735-10.174-11.667c-2.607-3.062-5.571-5.709-8.629-8.218
			c-2.14-1.757-4.153-3.767-6.227-4.767c-1.106-0.218-1.633-0.087-1.755,0.598C296.644,278.912,297.177,279.329,297.712,279.708z
			 M340.632,330.461c-0.424-0.324-0.892-0.587-1.17-0.77c-0.822-0.12-1.251,0.193-1.56,0.689c-0.461,0.746-0.633,1.542-0.204,2.379
			c0.4,0.781,1.135,1.146,1.785,1.638c3.501,2.638,7.184,5.067,10.422,8.031c5.143,4.708,10.432,9.279,14.796,14.871
			c1.733,2.218,3.724,4.23,5.902,6.011c0.683,0.559,1.344,1.061,2.138,0.479c0.877-0.644,0.475-1.533,0.074-2.255
			c-0.489-0.883-1.037-1.753-1.679-2.518C362.076,348.196,351.69,338.934,340.632,330.461z M517.522,271.859
			c3.002-2.242,5.776-4.826,9.123-6.548c0.664-0.344,1.029-1.007,1.074-1.814c-0.041-0.496-0.211-0.955-0.685-1.091
			c-1.22-0.348-2.436,0.041-3.192,0.913c-2.249,2.595-5.574,3.512-7.944,5.896c-0.813,0.817-2.322,1.365-1.453,2.766
			C515.233,273.251,516.588,272.557,517.522,271.859z M431.526,364.01c1.202-0.833,2.76-1.538,3.857-2.697
			c-0.009-0.761-0.006-2.44,0.009-2.44c0.018,0,0.02,1.646,0.011,2.417c0.042-0.042,0.085-0.079,0.122-0.122
			c4.249-4.836,8.508-9.623,13.168-14.055c4.722-4.489,9.723-8.544,14.893-12.4c1.296-0.966,3.368-1.79,2.155-3.706
			c-1.277-2.018-2.976-0.491-4.317,0.592c-0.489,0.396-0.863,0.948-1.342,1.361c-1.771,1.529-3.395,3.364-5.385,4.469
			c-3.747,2.079-6.271,5.585-9.464,8.294c-3.073,2.61-5.8,5.696-8.519,8.731c-2.105,2.351-4.437,4.517-6.035,7.34
			C430.134,362.762,429.982,363.515,431.526,364.01z M481.593,303.21c0.787,0.431,1.438-0.118,1.729-0.837
			c0.601-1.492,1.983-2.105,2.96-3.167c6.259-6.787,12.3-13.816,19.624-19.418c0.405-0.311,0.652-0.846,0.918-1.205
			c-0.124-1.426-0.924-1.309-1.757-1.078c-1.327,0.37-1.71,1.907-2.758,2.555c-6.381,3.951-12.305,8.575-17.356,14.081
			c-1.663,1.812-2.113,4.904-3.593,6.89C480.886,301.668,480.611,302.673,481.593,303.21z M443.72,341.035
			c0.679,0.011,1.133-0.383,1.609-0.848c3.033-2.971,6.165-5.833,9.132-8.877c5.906-6.065,12.904-10.83,18.535-17.221
			c0.661-0.75,1.764-1.434,1.02-2.532c-0.774-1.144-2.033-0.652-2.864,0.028c-2.248,1.842-4.908,2.99-7.094,4.957
			c-2.566,2.312-4.761,5-7.225,7.405c-4.78,4.667-9.375,9.516-13.714,14.633c-0.435,0.511-0.724,1.074-0.467,1.779
			C442.835,340.867,443.261,340.989,443.72,341.035z M512.556,357.403c0.874,0.142,1.758,0.339,2.636,0.337
			c1.718-0.011,4.484,1.227,4.654-1.383c0.154-2.379-2.625-2.035-4.743-2.159c-0.668,0.091-1.648,0.137-2.586,0.38
			c-0.819,0.211-1.944,0.394-1.833,1.607C510.774,357.184,511.769,357.275,512.556,357.403z M491.067,347.006
			c2.494,1.203,4.982,2.429,7.526,3.508c1.49,0.633,3.114,0.924,4.704,0.389c2.451-0.822,4.839-1.825,7.432-2.151
			c1.016-0.128,1.865-0.883,1.854-2.062c-0.011-1.224-0.961-1.733-1.973-1.918c-1.846-0.337-3.588-1.092-5.393-1.516
			c-3.354-0.792-6.31-3.227-9.986-2.755c-1.146,0.126-2.314,0.154-3.435,0.406c-1.313,0.298-2.696,0.729-2.796,2.503
			C488.91,345.051,489.623,346.311,491.067,347.006z M519.984,334.693c-1.892-0.189-3.593-0.872-5.328-1.631
			c-3.214-1.405-6.637-2.014-9.825-2.453c-1.407,0-2.701-0.222-3.184,1.277c-0.337,1.042,0.239,1.927,1.131,2.244
			c4.73,1.692,9.051,4.791,14.44,4.247c2.17-0.22,3.609-0.465,6.27,1.868C526.147,342.579,528.962,335.596,519.984,334.693z
			 M542.717,362.092c-0.892-0.411-1.877-0.705-2.636-1.312c-4.974-3.969-9.905-2.018-14.834,0.042
			c-0.752,0.315-1.333,1.007-1.353,1.933c-0.021,0.972,0.64,1.542,1.418,1.82c1.957,0.698,3.604,2.003,5.433,2.942
			c2.464,1.266,4.947,2.549,7.529,3.499c3.053,1.125,7.215-1.62,7.278-4.812C545.351,364.474,544.537,362.93,542.717,362.092z
			 M541.958,346.437c-5.691-1.34-11.585-1.735-17.392-2.538c-0.009,0.074-0.015,0.15-0.023,0.224c-0.711,0-1.427-0.065-2.129,0.015
			c-0.925,0.106-1.788,0.477-1.966,1.566c-0.163,0.992,0.554,1.749,1.268,1.914c2.997,0.7,5.467,2.625,8.189,3.908
			c4.041,1.903,8.486,2.531,12.368,4.932c2.283,1.412,4.589,2.764,6.815,4.291c2.705,1.853,5.096,1.146,7.163-1.752
			c1.501-2.105,1.184-3.358-1.326-5.972C551.318,349.264,546.645,347.539,541.958,346.437z M355.103,366.87
			c-1.31-0.674-2.214,0.063-2.314,1.07c-0.304,3.582,4.689,9.83,7.568,10.095c2.063,0.189,3.299-1.359,2.427-3.355
			C361.209,371.067,358.44,368.586,355.103,366.87z M308.131,311.185c-12.252-11.191-19.005-14.277-6.946-1.923
			c3.858,3.954,3.687,6.677,7.492,10.683c3.703,3.897,10.019,8.09,13.379,12.365c3.219,4.1,7.092,9.21,10.701,12.931
			c5.583,5.752,14.632,9.969,20.845,14.914c2.19,1.742,4.236,4.004,7.15,4.654c0.979,0.22,1.797,0.285,1.983-1.09
			c-0.034-0.937-0.695-1.392-1.335-1.933c-4.754-4.008-9.614-7.894-14.192-12.115c-7.285-6.718-14.336-13.677-20.755-21.375
			C321.063,321.832,314.301,316.819,308.131,311.185z M489.404,326.599c18.965-15.325,25.307-25.396,2.537-8.031
			c-6.698,5.108-12.837,10.861-18.817,16.809c-5.158,5.13-10.786,9.638-16.387,14.179c-4.541,3.684-9.362,6.983-14.055,10.46
			c-0.537,0.4-0.898,0.959-0.718,1.681c0.202,0.798,0.872,0.822,1.953,0.855c2.32-0.135,4.199-2.308,6.289-3.66
			c8.605-5.565,18.963-9.069,26.393-16.28C481.203,338.142,484.431,330.618,489.404,326.599z M415.831,410.128
			c-1.246-0.4-1.735,0.659-2.175,1.599c-0.339,0.722-3.864,1.055-4.023,1.83c-0.995,4.842,0.605,7.119-0.356,11.964
			c-1.854,6.092-1.359,15.479-2.629,21.688c-0.099,0.484-0.235,1.077-0.274,1.641c-2.859-0.963-7.324,0.521-8.177,3.223
			c-0.892,2.825-3.354,5.084-2.733,8.462c-1.207-6.579-1.849,7.577,3.934,4.31c2.605-1.472,1.942-3.682,2.377-5.041
			c0.357-1.119,0.911-5.123,1.186-6.273c0.098-0.413,0.278-0.871,0.757-0.842c0.47,0.033,0.617,0.522,0.693,0.932
			c0.246,1.33,0.024,5.495,0.29,6.822c0.33,1.67,1.23,2.742,2.953,2.818c1.629,0.071,2.225-1.127,2.661-2.467
			c1.275-3.904,0.405-7.398-1.927-10.406c0.469-0.604,0.525-1.841,0.774-2.629c2.673-8.451,3.912-17.273,5.943-25.892
			c0.723-3.061,2.008-6.133,1.803-9.428C416.852,411.523,416.852,410.454,415.831,410.128z M492.455,417.246
			c1.354-0.159,2.425-0.795,2.588-2.328c0.147-1.389-0.716-2.234-1.82-2.791c-1.17-0.59-2.436-0.331-3.667-0.283
			c-0.974,0-1.952-0.074-2.918,0.02c-0.927,0.09-1.737,0.582-2.014,1.568c-0.309,1.109,0.463,1.691,1.235,2.207
			C487.88,416.982,490.08,417.525,492.455,417.246z M451.627,421.051c-1.055,1.609,0.37,2.567,1.361,3.437
			c4.437,3.893,8.646,8.088,13.448,11.506c1.764,1.256,3.602,2.412,5.35,2.633c2.74,0.039,5.842-2.43,6.496-4.783
			c0.829-2.979-1.461-3.641-3.18-4.682c-3.145-1.908-6.665-2.949-9.838-4.891c-2.964-1.816-6.429-2.68-9.554-4.294
			C454.245,419.219,452.579,419.599,451.627,421.051z M486.642,423.211c0.262-2.32-1.48-2.398-2.942-2.751
			c-0.259-0.063-0.521-0.14-0.785-0.152c-3.418-0.179-6.661-1.013-9.668-2.779c-1.393-0.817-2.91-0.755-4.424-0.574
			c-0.735,0.087-1.42,0.409-1.629,1.231c-0.224,0.873,0.418,1.264,0.968,1.785c4.343,4.104,10.021,3.735,14.471,5.124
			C484.726,424.983,486.392,425.409,486.642,423.211z M385.955,358.375c1.992,0.757,3.354,1.966,3.24,3.989
			c-0.324,5.752,3.988,8.274,7.146,11.495c1.42,1.449,2.659,2.351,1.661,4.654c-0.709,1.637-0.305,3.329,1.248,4.321
			c1.664,1.059,3.508,1.162,5.115-0.113c1.331-1.055,2.159-2.588,1.287-4.314c-0.998-1.979-0.098-2.779,1.329-3.956
			c3.793-3.134,7.548-6.37,7.576-12.185c0.012-2.244,1.238-3.653,3.584-3.982c2.062-0.287,3.497-1.475,3.963-3.816
			c1.159-5.867-3.08-13.768-8.605-15.44c-2.464-0.746-3.082-2.101-2.395-4.471c0.243-0.846,0.439-4.926,0.598-5.793
			c0.294-1.592,1.005-5.88-0.92-6.622c-2.07-0.796-3.427-5.013-7.376-4.28c-2.832,0.526-1.434,8.777,0.569,10.41
			c0.652,0.531,1.503,0.794,2.264,1.179c0.531,0.27,1.281,1.786,1.26,2.547c-0.028,1.018,0.252,3.377-1.218,3.71
			c-1.471,0.333-3.134,1.018-5.172,1.685c-2.04,0.668-4.523-2.477-6.087-2.616c-0.861-0.076-2.04-0.265-2.168,0.762
			c-0.367,2.91-2.521,3.247-4.536,4.075c-2.019,0.831-3.121,2.696-3.876,4.78c-0.47,1.294-0.846,2.668-1.544,3.821
			C379.489,353.839,380.068,356.134,385.955,358.375z M352.093,418.785c-3.162-0.82-6.374-0.332-8.978,1.49
			c-1.563,1.092-3.162,1.555-4.806,2.142c-0.631,0.226-1.475,0.696-1.827-0.326c-0.271-0.78,0.45-1.131,1.005-1.415
			c1.138-0.588,1.934-1.34,1.557-2.844c-0.415-1.663-1.604-2.135-3.042-2.16c-2.049-0.04-4.098-0.006-6.144-0.04
			c-0.596-0.011-1.42,0.155-1.645-0.591c-0.298-1.001,0.723-1.084,1.242-1.506c0.938-0.761,3.051-0.547,2.814-2.031
			c-0.246-1.551-2.277-1.418-3.591-1.861c-0.496-0.168-1.079-0.254-1.586-0.156c-4.973,0.953-9.934,0.144-14.898-0.082
			c-2.182-0.099-3.932,0.621-4.6,2.945c-0.563,1.965-0.578,4.27,1.152,5.373l15.1-1.352c0.718-0.069,1.544-0.113,1.668,0.895
			c0.102,0.824-0.622,1.098-1.218,1.236c-1.562,0.363-3.132,0.805-4.717,0.916c-2.979,0.211-4.902,1.277-5.424,4.774
			c-0.287,1.913,0.217,2.818,1.735,2.99c3.614,0.41,7.244,0.914,10.564-1.527c2.345-1.723,5.048-1.959,8.068-1.299
			c-0.535,1.233-1.403,1.877-2.281,2.031c-2.295,0.4-4.075,1.766-5.977,2.971c-2.733,1.736-3.357,4.502-1.135,6.868
			c1.714,1.822,3.414,3.856,5.897,4.626c2.331,0.724,3.848-0.781,5.3-2.355c0.115-0.122,0.315-0.184,0.485-0.223
			c3.003-0.701,5.052-3.148,7.115-5.092c2.99-2.821,6.27-5.289,9.167-8.232c0.941-0.954,1.943-1.511,1.722-3.058
			C354.578,420.201,353.545,419.164,352.093,418.785z M281.254,348.193c1.119-0.48,2.664-0.896,2.388-2.531
			c-0.272-1.592-1.799-1.531-2.607-1.579c-6.57,0.431-12.681,1.185-18.679,2.466c-4.958,1.061-9.634,3.109-13.288,7.148
			c-1.575,1.738-2.175,3.373-0.733,5.426c1.565,2.233,4.117,3.19,6.037,1.888c4.693-3.178,9.456-6.072,14.862-7.823
			C273.34,351.86,277.265,349.912,281.254,348.193z M282.804,338.251c1.244,0.059,2.492,0.018,3.741,0.018
			c5.348,1.144,9.538-2.401,14.23-3.906c0.971-0.311,1.696-1.172,1.479-2.379c-0.23-1.292-1.257-1.455-2.286-1.405
			c-6.152,0.3-11.621,3.395-17.511,4.78c-0.72,0.17-1.179,0.857-1.005,1.744C281.602,337.847,282.143,338.221,282.804,338.251z
			 M538.672,340.649c3.047,1.233,5.846,3.029,8.923,4.064c1.864,0.629,3.653,1.325,5.454,2.136c4.726,2.125,9.334,5.52,14.882,2.653
			c3.175-1.642,5.681-4.191,7.522-7.255c1.466-2.44,0.897-5.933-0.818-7.225c-5.961-4.488-12.824-6.75-19.881-8.305
			c-2.242-0.494-4.637-0.522-6.789-1.376c-6.638-2.629-13.701-2.097-20.726-3.493c-3.338,0.622-6.839,1.268-10.338,1.933
			c-1.107,0.211-1.907,0.927-1.662,2.118c0.4,1.932,1.094,4.312,2.973,4.632c3.488,0.598,6.144,2.716,9.114,4.291
			C531.087,336.815,534.76,339.064,538.672,340.649z M231.152,336.215c-1.118,1.009-1.657,2.418-1.181,4.054
			c1.009,3.471,7.009,8.14,10.935,8.127c0.315-0.059,1.144-0.081,1.879-0.366c6.983-2.705,14.016-5.289,20.905-8.242
			c6.961-2.984,13.062-7.899,20.327-10.273c0.631-0.205,1.146-0.866,1.657-1.376c0.576-0.577,1.233-1.186,0.989-2.153
			c-0.27-1.055-1.115-1.344-2.035-1.526c-6.044-1.196-12.159-0.768-18.059,0.374c-9.867,1.905-19.312,5.763-29.232,7.62
			C235.019,332.888,232.977,334.567,231.152,336.215z M520.193,317.472c0.528-0.028,1.053-0.181,1.579-0.268
			c9.469-1.577,18.707-0.979,27.551,3.247c0.794,0.381,1.547,0.463,2.265-0.095c0.743-0.579,0.887-1.403,0.567-2.255
			c-0.356-0.946-0.635-2.031-1.271-2.738c-4.021-4.484-8.535-7.949-14.579-7.103c-2.808-0.144-5.206,0.259-7.62,1.111
			c-3.349,1.188-6.681,2.288-9.519,4.625c-0.853,0.703-2.494,0.816-1.983,2.453C517.645,317.933,519.067,317.526,520.193,317.472z
			 M207.079,240.169c1.27,1.303,2.492,2.655,4.119,3.51c2.723,1.431,5.191,3.275,7.301,5.559
			c8.092,8.762,18.667,11.341,29.584,13.137c1.838,0.148,1.983-0.909,1.468-2.455c-0.966-2.901-3.588-4.319-5.307-6.557
			c-4.528-5.898-10.162-10.115-17.435-11.472c-5.53-1.033-10.86-2.825-16.21-4.554c-0.674-0.218-1.376-0.385-2.079-0.45
			c-0.903-0.085-1.857-0.004-2.355,0.939C205.591,238.917,206.445,239.519,207.079,240.169z M570.969,287.182
			c-0.73-0.263-1.583-0.317-2.359-0.237c-12.129,1.237-24.168,3.134-36.138,5.519c-2.434,0.485-4.88,1.27-6.759,3.11
			c-2.286,2.238-1.76,4.35,1.198,5.237c2.914,0.876,5.826,1.755,8.806,1.466c4.321,0.374,8.398-0.883,12.552-1.266
			c8.797-0.809,16.526-4.787,23.305-10.708C572.972,289.081,572.736,287.819,570.969,287.182z M234.763,286.934
			c-1.116-0.154-2.21,0.178-2.673,1.39c-0.457,1.196,0.396,1.883,1.181,2.544c2.923,2.471,6.133,4.478,9.478,6.213
			c8.12,4.217,17.056,4.01,25.74,5.156c2.719,0.098,5.328-0.444,7.905-1.242c1.322-0.407,3.101-0.281,3.325-2.221
			c0.228-1.99-1.011-3.393-2.521-4.293c-2.24-1.337-4.589-2.438-7.218-2.786c-3.621-0.48-7.231-1.052-10.826-1.696
			C251.071,288.557,242.883,288.052,234.763,286.934z M556.37,264.756c0.667-0.146,1.502-0.183,2.218-0.509
			c3.458-1.579,7.083-2.453,10.795-3.014c3.449-0.52,5.95-3.519,9.421-4.019c0.216-0.031,0.381-0.381,0.594-0.544
			c3.345-2.56,6.377-5.521,9.564-8.262c1.481-1.274,2.687-3.347,4.773-3.714c3.258-0.572,4.846-3.325,6.835-5.511
			c0.914-1.005,0.845-2.473,0.055-3.662c-0.783-1.179-1.831-0.631-2.901-0.398c-4.453,0.979-8.877,1.47-13.285,3.379
			c-4.201,1.82-9.294,1.479-13.613,3.823c-0.837,0.455-1.957,0.394-2.71,1.096c-2.788,2.611-5.697,5.047-8.313,7.918
			c-1.618,1.776-2.834,4.049-5.052,5.498c-1.692,1.103-2.46,3.947-1.967,6.311C553.13,264.798,555.011,264.289,556.37,264.756z
			 M275.708,375.099c0.205,1.823,0.916,3.423,2.701,3.745c4.604,0.831,8.812,3.799,13.455,2.725
			c9.055,1.033,15.314-3.814,20.659-10.136c3.93-4.647,7.361-9.753,12.033-13.683c1.722-1.449,1.048-3.404,0.813-5.215
			c-0.211-1.622-1.494-1.968-2.74-2.207c-2.806-0.535-5.463,0.1-8.093,1.133c-7.274,2.854-14.638,5.55-21.269,9.843
			c-2.227,1.444-4.708,2.109-6.878,3.464c-3.015,1.879-5.752,4.25-8.754,6.161C275.986,371.977,275.503,373.262,275.708,375.099z
			 M396.103,444.586c1.317-0.3,0.739-1.923,0.624-2.968c-0.533-4.803-1.079-13.969-1.662-18.765l0.053-0.006
			c-0.57-4.693,0.224-7.223-1.785-9.708c-0.563-0.696-0.326-1.825-0.655-2.669c-0.337-0.869-0.902-1.696-1.97-1.494
			c-1.04,0.197-1.34,1.145-1.44,2.084c-0.075,0.703-0.117,1.485,0.099,2.131c1.307,3.941,1.283,8.104,1.964,12.146
			c0.937,5.561,1.883,11.124,2.953,16.658C394.482,443.042,394.479,444.952,396.103,444.586z M525.298,379.096
			c1.459-0.239,2.907-0.531,3.058-2.488c0.156-2.055,0.397-4.132-1.51-5.622c-4.969-3.882-10.435-6.916-15.944-9.775
			c-2.017-1.046-3.641-3.066-5.567-3.482c-3.865-0.835-7.019-3.19-10.635-4.417c-3.864-1.309-7.537-3.478-11.819-3.143
			c-1.746,0.137-3.362,0.559-3.469,2.679c-0.108,2.162-0.585,4.876,1.7,6.009c2.405,1.192,3.825,3.438,5.078,5.356
			c2.467,3.777,5.28,7.185,8.201,10.51c1.477,1.681,3.26,3.479,5.238,4.171c4.076,1.426,8.054,3.849,12.673,2.609
			C516.962,382.698,520.935,379.814,525.298,379.096z M205.55,264.761c-6.626-1.909-13.59-1.45-20.308-2.638
			c-1.05,0.108-2.327-0.335-2.816,1.042c-0.455,1.281,0.167,2.36,1.035,3.258c0.252,0.259,0.565,0.452,0.851,0.674
			c7.322,5.697,15.107,10.473,23.924,13.168c3.999,1.222,7.959,2.786,12.215,0.924c2.912-1.27,3.566-3.318,1.651-5.869
			C217.839,269.641,211.963,266.609,205.55,264.761z M624.116,261.396c-0.763-2.398-2.76-1.505-4.332-1.618
			c-0.695-0.052-1.411,0.176-2.116,0.278c-3.086,0.45-6.16,1.035-9.26,1.325c-8.172,0.766-15.795,3.147-22.608,8.057
			c-1.892,1.364-3.207,3.389-5.195,4.726c-1.609,1.085-1.959,6.344-0.606,6.931c2.64,1.148,4.656,3.984,7.955,3.486
			c0.975-0.096,2.116,0.12,2.891-0.344c3.094-1.854,6.693-1.966,9.857-3.325c2.501-1.077,5.287-1.936,7.418-3.501
			c4.534-3.325,9.467-6.002,13.82-9.602C623.301,266.686,624.706,263.25,624.116,261.396z M570.295,304.756
			c4.414,0.528,8.875,1.629,13.243,1.333c6.259-0.424,12.701,3.878,18.772-0.73c0.135-0.103,0.353-0.074,0.509-0.154
			c3.811-1.936,7.703-6.75,7.938-11.457c0.138-2.34-1.457-2.857-3.109-2.975c-3.19-0.222-6.394-0.324-9.593-0.324
			c-2.575,0-5.422-0.467-7.661,0.503c-3.941,1.713-7.901,1.979-11.992,1.998c-0.928,0.005-1.8,0.248-2.32,1.125
			c-0.778,1.307-2.055,1.772-3.325,2.16c-1.681,0.515-2.987,1.507-4.188,2.814c-0.979,1.063-1.824,2.162-1.461,3.68
			C567.504,304.391,568.968,304.595,570.295,304.756z M292.649,348.083c1.491,0.97,3.4,0.628,4.832,1.489
			c6.142,3.695,10.908-0.552,15.953-2.94c1.264-0.598,2.228-2.049,1.857-3.732c-0.387-1.785-1.9-2.036-3.357-2.188
			c-0.799-0.083-1.601-0.104-2.401-0.152c-5.961,0.389-11.286,3.221-16.903,4.904C291.044,345.94,291.268,347.187,292.649,348.083z
			 M286.503,357.856c0.524,0.057,1.058,0.011,1.299,0.011c1.629,0.148,2.914-0.191,4.188-0.559c0.729-0.211,1.81-0.25,1.742-1.305
			c-0.063-0.968-1.131-0.98-1.862-1.252c-1.817-0.681-3.641-0.446-5.474-0.083c-0.896,0.178-1.874,0.354-1.911,1.516
			C284.446,357.53,285.503,357.75,286.503,357.856z M590.736,253.248c-0.743,0.176-0.982,1.002-1.165,1.755
			c-1.097,4.5,0.108,6.1,5.293,5.939c3.437,0.659,6.851-2.464,10.826-2.803c5.715-0.485,11.13-2.414,16.715-3.519
			c5.775-1.142,9.292-7.89,7-13.54c-1.02-2.512-2.303-5.135-5.515-5.9c-7.024-1.668-12.616,1.611-17.815,5.643
			c-2.912,2.257-5.585,5.011-8.375,7.449C595.632,250.079,593.682,252.559,590.736,253.248z M232.723,304.799
			c1.509-0.132,3.282-0.111,3.762-1.985c0.472-1.835-0.2-3.662-1.762-4.647c-2.705-1.705-5.447-4.132-8.373-4.5
			c-7.313-0.92-14.396-3.745-22.378-2.951c-1.924,0-4.343-0.178-6.729,0.046c-3.218,0.3-4.954,3.362-3.473,6
			c2.997,5.341,7.439,8.836,13.055,10.634c1.34,0.428,2.753,0.453,4.195-0.098c1.405-0.537,2.93-0.831,4.423-0.977
			C221.199,305.759,226.962,305.304,232.723,304.799z M240.082,268.208c-3.658-1.866-7.514-2.121-10.643-2.267
			c-1.59,0-2.392-0.015-3.193,0.005c-1.252,0.032-2.577-0.009-3.188,1.48c-0.565,1.373,0.439,2.24,1.033,3.26
			c1.376,2.371,3.701,3.673,5.491,5.543c2.883,3.016,6.041,4.96,10.112,5.456c4.147,0.507,8.264,1.266,12.37,2.118
			c3.997,0.831,8.081,1.22,12.137,1.723c1.355,0.167,2.425-0.535,3.068-1.808c0.477-0.943,0.285-1.868-0.446-2.555
			c-3.732-3.523-7.407-7.152-12.374-8.745c-0.95-0.307-1.813-0.726-2.599-1.381c-1.442-1.205-3.102-1.753-4.958-1.742
			C244.57,269.311,242.159,269.267,240.082,268.208z M589.527,311.271c-4.343-0.394-8.646-0.851-12.935-1.746
			c-3.654-0.764-7.398-1.022-10.328-1.403c-3.643-0.067-6.039,0.598-8.148,2.033c-2.545,1.729-3.001,3.495-1.331,6.076
			c1.444,2.233,3.019,4.332,5.197,5.943c3.428,2.538,7.099,4.523,10.869,6.411c2.543,1.274,4.693,1.318,6.948-0.455
			c4.376-3.442,7.682-8.022,11.562-11.991C593.625,313.822,592.716,311.559,589.527,311.271z M180.197,251.41
			c1.546,0.911,3.134,1.729,4.902,2.16c7.785,1.901,15.693,3.258,23.33,5.819c1.56,0.524,3.347,0.664,4.208-1.266
			c0.868-1.946-0.106-3.495-1.633-4.549c-4.63-3.192-8.542-7.325-12.946-10.802c-3.719-2.938-7.694-5.394-12.474-5.996
			c-5.48-0.687-8.864,2.417-8.84,8.523C176.45,247.983,177.844,250.021,180.197,251.41z M540.514,285.553
			c0.126-0.017,0.479-0.081,0.831-0.115c8.166-0.833,16.146-2.908,24.268-4.03c1.214-0.167,2.544-0.083,3.607-0.887
			c4.13-3.116,8.419-6.033,11.48-10.454c1.201-1.731,0.826-3.447-1.154-3.817c-3.908-0.731-8.09-0.735-11.596,0.772
			c-3.336,1.433-6.587,2.103-10.025,2.288c-4.062,0.217-7.272,2.816-10.83,4.31c-3.134,1.313-5.667,4.223-8.43,6.479
			c-1.224,1.002-1.213,2.436-0.865,3.854C538.122,285.272,539.104,285.621,540.514,285.553z M405.978,406.439
			c0.661-2.726,1.951-4.091,4.66-4.062c2.869,0.03,3.204-2.051,3.217-4.426c0.011-2.364-0.609-4.115-3.223-4.11
			c-2.217,0.004-3.85-0.861-5.27-2.738c-1.977-2.616-5.315-2.275-6.679,0.652c-0.84,1.798-1.84,2.233-3.675,2.07
			c-3.054-0.27-3.667,0.694-3.584,4.71c0.067,3.334,0.759,4.043,4.025,3.891c2.59-0.944,2.968,0.865,3.055,3.114
			c0.064,1.648,0.267,3.275,1.676,3.958c-0.202,7.081-0.967,14.145-0.581,21.24c0.206,3.789,0.41,7.574,0.674,11.359
			c0.055,0.775,0.229,1.732,1.181,1.828c1.005,0.103,1.227-0.874,1.372-1.617c0.237-1.231,0.409-2.494,0.424-3.748
			c0.048-4.486,0.018-8.975,0.018-13.461c-0.034,0,1.936-0.309,1.898-0.309c0-5.149-1.852-10.01-2.013-15.14
			C404.58,409.223,405.582,408.08,405.978,406.439z M224.202,327.864c1.172,0.892,2.375,1.64,4.01,1.777
			c0.374-0.106,0.911-0.193,1.394-0.411c3.664-1.666,7.285-3.428,10.623-5.757c2.769-1.931,5.178-4.304,6.987-7.222
			c1.853-2.99,1.266-4.773-1.592-6.38c-2.783-1.566-5.646-1.705-8.762-1.501c-7.366,0.485-14.501,2.951-21.94,2.664
			c-1.133-0.045-2.186,0.398-2.597,1.585c-0.45,1.3-0.337,2.792,0.681,3.656C217.108,319.755,219.914,324.596,224.202,327.864z
			 M342.344,377.848c1.606,1.318,3.294,1.764,5.139,1.999c3.327,0.422,4.419-0.909,3.336-4.187
			c-0.964-2.907-1.859-5.897-3.265-8.575c-2.312-4.399-5.35-8.021-10.937-7.401c-3.508,0.753-7.122,0.305-10.423,3.195
			c-2.91,2.551-5.498,5.278-7.854,8.299c-1.57,2.014-0.902,5.391,1.118,7.013c1.716,1.375,3.731,1.714,5.802,1.783
			c3.811,0.126,7.372-1.1,10.937-2.312C338.268,376.958,340.566,376.393,342.344,377.848z M252.586,316.871
			c-0.474,0.872-1.213,1.836-0.455,2.827c0.837,1.096,1.886,0.477,2.921,0.126c9.155-3.095,18.431-4.737,28.025-2.477
			c0.842,0.198,1.764,0.122,2.64,0.045c0.652-0.059,1.175-0.52,1.316-1.22c0.152-0.752-0.353-1.185-0.886-1.575
			c-5.273-3.858-11.151-5.887-16.201-6.398C261.257,308.238,255.611,311.278,252.586,316.871z M481.196,320.203
			c2.682-0.081,3.935-2.129,5.484-3.941c3.399-3.975,7.547-7.079,11.511-10.382c4.906-4.091,9.052-8.995,12.994-14.014
			c1.457-1.857,4.098-3.294,3.86-6.417c-0.021-0.996,0.193-2.101-0.794-2.786c-0.676-0.468-1.455-0.365-1.989,0.163
			c-1.194,1.181-2.979,1.544-4.002,2.697c-4.058,4.576-9.327,7.79-12.943,12.846c-0.799,1.113-1.701,2.186-2.712,3.079
			c-5.024,4.423-9.93,8.944-13.575,14.769c-0.642,1.026-0.982,2.003-0.408,3.121C479.2,320.462,480.186,320.233,481.196,320.203z
			 M483.699,368.14c-0.902-0.737-1.585-1.766-2.42-2.605c-4.413-4.428-9.632-6.37-15.719-5.471c-1.216,0.178-2.554,0.004-3.6,0.863
			c-4.869,3.995-7.035,9.621-8.287,15.695c-0.453,2.188,0.832,3.345,2.962,3.19c1.796-0.13,3.581-0.559,5.029-1.691
			c1.934-1.512,3.852-1.572,6.02-0.7c3.412,1.37,6.955,2.227,10.606,2.496c0.535,0,1.085,0.089,1.599-0.015
			c2.312-0.479,4.972-0.396,5.885-3.451C486.729,373.249,486.444,370.38,483.699,368.14z M303.816,301.607
			c4.712,4.941,10.76,8.262,15.008,13.783c0.924,1.201,2.272,2.129,3.572,2.906c1.962,1.174,3.573,0.27,3.604-2.223
			c-0.234-1.627-1.108-3.316-2.457-4.763c-8.194-8.792-16.385-17.587-25.205-25.718c-1.9-1.75-3.818-3.262-6.096-4.354
			c-1.011-0.487-2.026-1.063-2.975-0.181c-1.079,1.007-0.246,2.038,0.254,3.014C293.066,291.014,298.614,296.153,303.816,301.607z
			 M484.011,397.203c-5.445,0.08-9.893,1.735-14.297,3.469c-1.879,0.739-2.029,2.516-0.563,3.984
			c0.812,0.811,1.836,1.176,2.901,1.27c3.003,0.266,6.009,0.514,9.021,0.638c2.937,0.119,5.524-1.313,8.118-2.456
			c1.96-0.861,2.173-2.675,0.707-4.304C488.143,397.855,485.837,397.253,484.011,397.203z M273.829,369.204
			c1.052-0.072,1.829-0.674,2.455-1.505c0.8-1.063,1.833-1.788,3.045-2.155c1.315-0.4,2.268-1.035,2.315-2.629
			c0.051-1.644-0.115-3.077-1.694-4.073c-2.814-1.776-5.856-1.731-8.983-1.837c-4.602-0.159-7.788,3.108-11.583,4.85
			c-2.173,0.996-3.43,5.258-2.286,6.739c1.851,2.395,3.758,4.893,6.626,4.149c2.688-0.115,4.846,0.139,6.411-1.594
			C271.178,369.991,272.333,369.306,273.829,369.204z M452.229,416.672c1.37-0.514,1.309-1.847,1.324-3.268
			c0.188-1.435-0.15-2.7-1.737-3.494c-3.364-1.684-6.452-3.773-9.243-6.448c-1.413-1.353-3.625-1.44-5.559-1.657
			c-1.076-0.117-1.392,0.879-1.603,1.873c-0.491,2.32,1.439,3.058,2.384,4.521c2.216,3.437,5.102,5.952,8.305,8.208
			C448.119,417.826,450.177,417.443,452.229,416.672z M573.635,358.632c-1.14-2.368-3.395-1.461-5.252-1.674
			c-0.353-0.042-0.713-0.013-1.07-0.013c-4.476,0.008-9.31,5.008-9.44,9.769c-0.091,3.28,1.764,4.634,4.878,3.904
			c3.112-0.729,5.322-2.849,7.712-4.78C572.056,364.545,574.303,360.018,573.635,358.632z M493.229,432.435
			c-2.634-1.051-4.278,2.402-6.879,2.979c-3.07,0.679-4.426,3.494-6.646,5.202c-1.012,0.776-1.238,2.278-0.565,3.605
			c0.676,1.335,1.915,1.204,3.066,1.079c1.879-0.205,3.662-0.73,5.249-1.893c1.016-0.742,2.001-1.594,3.263-1.865
			c2.292-0.496,4.045-1.76,5.417-3.773c0.8-1.17,2.318-1.922,1.429-3.781C496.755,432.294,495.275,432.466,493.229,432.435z
			 M362.801,404.419c-2.643,2.04-5.22,4.173-8.107,5.839c-0.927,0.535-1.992,1.166-1.494,2.578c0.473,1.334,1.607,1.621,2.836,1.609
			c1.586-0.003,2.91-0.639,4.112-1.708c1.905-1.694,3.55-3.625,5.122-5.65c0.739-0.95,1.902-1.831,0.846-3.062
			C365.041,402.772,363.829,403.625,362.801,404.419z M588.379,337.225c-2.657-0.348-4.127,1.679-5.699,3.114
			c-2.643,2.409-5.968,4.284-6.696,8.514c-0.482,2.803-0.106,3.569,3.105,3.599c1.099,0.102,2.049-0.472,3.079-1.873
			c1.221-1.657,2.816-3.466,4.428-4.377c2.269-1.281,3.1-3.255,4.067-5.248C591.716,338.786,590.702,337.527,588.379,337.225z
			 M319.78,443.34c1.547,0.177,2.401-0.146,2.68-0.79c0.402-0.926-0.146-1.513-0.65-2.217c-2.522-3.518-6.665-4.014-10.01-5.988
			c-0.748-0.443-1.814-0.38-2.393,0.56c-0.535,0.868,0.094,1.59,0.522,2.281C312.382,441.147,317.332,440.505,319.78,443.34z
			 M286.478,311.108c1.227,0.807,3.088,0.748,4.658,0.718c1.431-0.028,2.303-1.066,1.952-2.671c-0.765-3.499-3.951-6.069-7.48-6.146
			c-3.062-0.067-4.876,1.47-3.734,3.294C283.043,308.179,284.679,309.923,286.478,311.108z M234.158,357.388
			c-1.139,0.242-2.527,0.172-2.709,1.696c-0.222,1.84-1.468,4.236,0.543,5.433c3.154,1.873,5.48,5.189,9.556,5.561
			c3.24,0.293,4.212-0.25,4.184-3.767c0.008-2.225-0.746-4.008-2.088-5.828C241.069,356.993,237.876,356.601,234.158,357.388z
			 M222.001,350.621c1.189,0.985,2.24,1.742,3.738,1.753c1.283,0.017,2.57-0.046,3.138-1.544c0.511-1.353-0.507-2.058-1.083-3.099
			c-1.298-2.355-3.467-3.816-4.869-5.965c-1.444-2.209-3.85-2.827-5.746-4.26c-0.789-0.598-1.907-0.048-2.542,0.916
			c-0.892,1.361-0.237,5.676,1.12,6.437C218.278,346.269,219.818,348.812,222.001,350.621z M178.007,278.214
			c2.375-0.322,3.027-1.979,2.997-4.187c-0.008-0.844,0.142-1.873-0.478-2.41c-1.781-1.548-2.194-3.762-2.945-5.843
			c-0.246-0.681-0.633-1.436-1.17-1.849c-1.505-1.157-2.729-3.288-4.98-2.492c-1.448,0.509-1.684,4.032-0.435,6.448
			c1.196,2.318,2.268,4.636,2.714,7.266C174.127,277.624,175.699,278.527,178.007,278.214z M386.09,389.805
			c0.144,1.155,0.679,1.84,1.931,1.755c4.226-0.289,5.592-1.835,5.585-6.416c-0.004-0.409,0.014-0.82-0.007-1.227
			c-0.13-2.842-2.063-4.41-5.297-4.093c-2.379,0.233-2.932,2.101-2.827,4.208C385.57,385.964,385.853,387.884,386.09,389.805z
			 M603.278,314.64c-4.352,1.711-7.067,5.056-8.62,9.617c-1.136,3.333-0.198,5.043,3.188,5.093c1.605-0.074,2.951-0.709,4.309-2.072
			c2.799-2.818,3.003-6.694,4.206-10.119C607.182,314.823,605.673,313.698,603.278,314.64z M183.95,291.728
			c-1.927,1.1-1.616,3.549-0.937,5.339c1.231,3.249,2.714,6.419,4.375,9.451c1.104,2.016,3.292,2.266,5.221,1.772
			c1.664-0.424,1.126-2.281,1.379-4.195c-0.339-3.677-2.847-7.013-4.649-10.53C188.591,292.104,185.992,290.564,183.95,291.728z
			 M508.789,419.451c-1.361-0.588-3.132-0.969-4.125-0.061c-2.473,2.254-5.8,3.596-7.122,7.187
			c-0.996,2.705-0.186,4.169,3.364,4.187c2.233-0.849,4.645-2.855,7.069-4.692c1.016-0.771,1.355-2.558,1.936-3.917
			C510.459,420.873,509.939,419.947,508.789,419.451z M200.861,314.688c-1.024-0.426-1.74,0.346-1.981,1.333
			c-0.242,0.981-0.259,2.02-0.374,3.036c-0.52,4.243,2.527,6.689,4.647,9.356c1.296,1.629,3.905,1.526,5.724,0.328
			c1.746-1.148,1.731-3.33,0.946-5.074C207.955,319.516,204.986,316.401,200.861,314.688z M414.909,378.855
			c-2.938-0.128-5.443,2.04-5.493,4.649c-0.067,3.551,2.381,6.548,5.426,6.305c3.641-0.29,2.436-3.462,2.849-5.666
			C417.325,382.03,418.562,379.014,414.909,378.855z M305.084,423.443c-1.672-1.078-3.256-2.221-4.765-3.547
			c-1.2-1.055-2.843-1.227-4.298-0.443c-1.502,0.809-1.122,2.393-1.018,3.758c0.17,2.218,0.998,3.954,3.275,4.548
			c1.501,0.391,2.719,1.3,3.901,2.335c1.033,0.907,2.329,0.962,3.525,0.339c1.057-0.547,0.935-1.695,0.966-2.824
			C306.53,426.122,306.521,424.368,305.084,423.443z M443.833,379.501c0.521-0.085,1.798,0.12,2.383-0.453
			c3.387-3.305,6.903-6.635,7.109-12.004c0.092-2.416-2.186-3.773-4.071-2.235c-3.068,2.505-6.314,4.843-8.805,8.057
			c-1.127,1.455-1.738,3.112-1.003,4.935C440.19,379.642,441.906,379.31,443.833,379.501z M632.037,261.166
			c-4.667,2.371-7.136,6.172-7.325,11.608c0,0.655-0.028,1.31,0.007,1.962c0.074,1.366-0.183,2.966,1.59,3.414
			c1.652,0.418,2.771-0.515,3.476-1.942c2.09-4.236,3.733-8.658,4.475-13.387C634.558,260.929,634.007,260.166,632.037,261.166z
			 M616.161,307.312c2.814-3.978,4.543-8.423,5.195-13.331c0.289-2.19-0.785-2.993-2.657-2.647
			c-2.862,0.529-4.854,2.279-5.726,5.228c-0.818,2.767-1.573,5.554-2.254,8.362c-0.482,1.999,0.64,3.46,2.608,3.615
			C614.45,308.583,615.452,308.316,616.161,307.312z M391.046,374.586c0.542-1.535,0.354-3.051-0.805-4.251
			c-1.17-1.216-2.353-2.436-3.645-3.499c-1.479-1.22-3.386-0.529-3.921,1.39c-0.241,0.863-0.198,1.813-0.225,2.077
			c-0.025,4.817,0.973,5.77,5.374,5.732C389.084,376.023,390.491,376.165,391.046,374.586z M509.546,403.467
			c-2.909-0.51-5.443,0.25-7.512,2.531c-0.745,0.821-1.601,1.633-1.061,2.898c0.484,1.133,1.572,1.033,2.522,1.053
			c2.944,0.477,4.738-1.744,6.863-3.182c0.691-0.468,1.388-1.037,1.101-2.008C511.192,403.866,510.342,403.605,509.546,403.467z
			 M300.143,411.334c1.145-0.135,2.327-0.125,3.428-0.434c2.632-0.74,2.859-2.385,1.398-4.75c-2.962-4.794-7.259-4.455-11.615-3.633
			c-2.788,0.527-3.316,3.147-1.285,5.207C294.314,410.006,296.805,411.683,300.143,411.334z M417.532,365.433
			c-1.823-0.198-4.265,4.075-4.243,6.966c0.015,2.344,1.353,2.688,2.772,2.577c3.263-0.132,5.461-3.077,5.082-6.574
			C420.913,366.266,419.23,365.615,417.532,365.433z M366.167,390.888c1.264-1.126,1.942-2.514,1.148-4.18
			c-0.805-1.681-2.39-1.436-3.784-1.353c-2.992,0.172-5.882,0.276-8.638,2.221c-2.299,1.62-6.063-3.532-8.072,0.75
			c-2.01,4.282-2.488,10.375,0.659,9.264c3.146-1.111,3.829-1.372,4.354,0.22c0.598,1.82-2.038,1.25-3.08,2.042
			c-3.214,2.444-7.445,2.914-10.338,6.083c-1.279,1.396-1.444,2.723-0.916,4.3c0.544,1.625,1.879,1.207,3.141,1.291
			c4.767,0.322,8.359-2.592,12.147-4.795c4.615-2.682,9.029-5.746,13.525-8.655C370.187,395.565,370.184,393.597,366.167,390.888z
			 M436.828,392.068c-2.148,1.255-2.019,3.63,0.067,5.078c5.754,3.992,11.715,7.625,17.622,11.356
			c2.727,1.723,5.362,2.692,8.365,3.022c1.274,0.143,2.915,0.705,3.387-1.178c0.422-1.686,0.689-3.567-1.031-4.853
			c-3.329-2.494-6.959-4.382-10.784-5.874c-0.668-0.259-1.344-0.518-1.968-0.868c-0.271-0.152-0.577-0.533-0.59-0.822
			c-0.023-0.557,0.463-0.768,0.918-0.79c1.691-0.078,3.391-0.183,4.933,0.809c0.832,0.537,1.663,1.109,2.56,1.505
			c2.881,1.266,7.955-1.063,8.916-4.18c0.644-2.09-0.778-2.74-2.377-3.245c-1.033-0.328-1.616,0.044-2.81-1.354
			c-1.255-1.464,1.159,1.812-4.096-3.258c0.574,0.555-0.995,0.667-1.578,0.748c-3.967,0.55-7.742,1.009-11.48-1.725
			c-2.077-1.52-5.144-1.376-7.779-0.494c-1.489,0.498-1.714,1.864-1.227,3.228C438.374,390.566,438.154,391.292,436.828,392.068z
			 M520.213,281.08c-0.191,2.464,1.313,3.808,3.445,3.525c2.337-0.309,5.114-0.642,6.768-2.114c2.429-2.166,4.499-5.126,5.854-8.17
			c1.319-2.968-1.684-4.838-6.216-4.051C524.839,271.179,520.633,275.713,520.213,281.08z M323.699,398.569
			c-1.435,0.752-3.066,2.12-3.792,4.314c-0.607,1.834,0.187,3.149,2.044,3.05c2.459-0.135,5.015-0.039,7.313-1.283
			c2.355-1.274,4.665-2.645,6.966-4.025c0.817-0.489,1.507-1.172,1.874-2.118c0.661-1.708-0.069-3.021-1.82-2.858
			C332.181,396.035,328.068,396.499,323.699,398.569z M349.846,560.476c1.221-0.607,1.896-1.775,1.896-3.215
			c0-2.164-1.507-3.707-4.146-3.707h-4.687c-0.103,0-0.17,0.07-0.17,0.17v11.17c0,0.1,0.067,0.168,0.17,0.168h2.64
			c0.103,0,0.17-0.068,0.17-0.168v-3.826c0-0.066,0.032-0.1,0.1-0.1h1.101l1.742,3.926c0.052,0.117,0.102,0.168,0.254,0.168h2.93
			c0.117,0,0.167-0.102,0.117-0.203L349.846,560.476z M347.41,558.513h-1.592c-0.067,0-0.1-0.033-0.1-0.1v-2.236
			c0-0.066,0.032-0.1,0.1-0.1h1.592c0.847,0,1.353,0.475,1.353,1.217C348.763,558.038,348.257,558.513,347.41,558.513z
			 M376.504,553.554h-2.76c-0.117,0-0.185,0.07-0.22,0.17l-3.976,11.17c-0.034,0.1,0.016,0.168,0.117,0.168h2.775
			c0.119,0,0.187-0.068,0.22-0.168l0.541-1.779h3.741l0.541,1.779c0.035,0.1,0.101,0.168,0.22,0.168h2.792
			c0.103,0,0.152-0.068,0.118-0.168l-3.891-11.17C376.688,553.624,376.621,553.554,376.504,553.554z M373.964,560.646l1.117-3.588
			h0.051l1.065,3.588H373.964z M403.262,553.554h-4.452c-0.1,0-0.17,0.07-0.17,0.17v11.17c0,0.1,0.07,0.168,0.17,0.168h4.452
			c2.028,0,3.519-0.846,4.095-2.623c0.237-0.744,0.337-1.402,0.337-3.129c0-1.744-0.1-2.387-0.337-3.133
			C406.78,554.399,405.29,553.554,403.262,553.554z M404.512,561.323c-0.27,0.811-0.844,1.098-1.895,1.098h-0.896
			c-0.067,0-0.103-0.033-0.103-0.1v-6.025c0-0.066,0.035-0.102,0.103-0.102h0.896c1.051,0,1.625,0.287,1.895,1.1
			c0.103,0.338,0.17,0.73,0.17,2.016S404.614,560.983,404.512,561.323z M429.054,553.554h-2.641c-0.1,0-0.167,0.07-0.167,0.17v11.17
			c0,0.1,0.067,0.168,0.167,0.168h2.641c0.102,0,0.169-0.068,0.169-0.168v-11.17C429.223,553.624,429.155,553.554,429.054,553.554z
			 M452.393,553.353c-2.031,0-3.706,0.945-4.314,2.824c-0.272,0.881-0.34,1.557-0.34,3.133c0,1.572,0.067,2.25,0.34,3.129
			c0.608,1.879,2.283,2.826,4.314,2.826s3.706-0.947,4.314-2.826c0.287-0.879,0.339-1.557,0.339-3.129
			c0-1.576-0.052-2.252-0.339-3.133C456.099,554.298,454.424,553.353,452.393,553.353z M453.864,561.593
			c-0.204,0.643-0.729,1.016-1.472,1.016c-0.746,0-1.271-0.373-1.473-1.016c-0.135-0.391-0.169-0.914-0.169-2.283
			c0-1.373,0.034-1.896,0.169-2.287c0.202-0.641,0.727-1.016,1.473-1.016c0.743,0,1.268,0.375,1.472,1.016
			c0.136,0.391,0.17,0.914,0.17,2.287C454.034,560.679,454,561.202,453.864,561.593z M185.553,505.839l-2.775-1.082
			c-3.723-1.424-4.806-3.047-4.806-7.787c0-4.67,1.625-6.701,5.008-6.701c3.521,0,5.011,2.234,5.146,6.771
			c0,0.404,0.339,0.676,0.746,0.541l3.791-0.611c0.407-0.066,0.609-0.336,0.609-0.742c-0.339-7.178-3.521-10.968-10.425-10.968
			s-10.291,4.062-10.291,11.915c0,7.107,1.76,10.221,8.058,12.66l2.775,1.082c3.656,1.422,4.671,3.387,4.671,8.666
			c0,6.229-1.625,7.92-5.146,7.92c-3.521,0-5.348-2.031-5.62-7.717c0-0.408-0.27-0.678-0.744-0.609l-3.995,0.746
			c-0.406,0.066-0.542,0.336-0.542,0.744c0.339,7.92,3.858,11.848,10.833,11.848c7.785,0,10.697-4.332,10.697-13.609
			C193.543,511.257,191.442,508.21,185.553,505.839z M230.709,485.26c-5.215,0-8.667,2.438-10.089,6.837
			c-0.676,2.031-0.88,3.723-0.88,16.789s0.204,14.76,0.88,16.791c1.422,4.4,4.874,6.838,10.089,6.838
			c5.21,0,8.731-2.438,10.086-6.838c0.677-2.031,0.879-3.725,0.879-16.791s-0.202-14.758-0.879-16.789
			C239.44,487.698,235.919,485.26,230.709,485.26z M235.583,524.12c-0.676,2.098-2.438,3.248-4.874,3.248
			c-2.438,0-4.132-1.15-4.809-3.248c-0.474-1.355-0.609-2.371-0.609-15.234s0.135-13.877,0.609-15.232
			c0.676-2.098,2.371-3.248,4.809-3.248c2.436,0,4.197,1.15,4.874,3.248c0.407,1.355,0.542,2.369,0.542,15.232
			S235.989,522.765,235.583,524.12z M290.146,485.868h-4.13c-0.404,0-0.676,0.272-0.676,0.677v34.729
			c0,3.996-2.031,6.094-5.28,6.094s-5.28-2.098-5.28-6.094v-34.729c0-0.404-0.272-0.677-0.676-0.677h-4.132
			c-0.405,0-0.676,0.272-0.676,0.677v34.054c0,7.92,4.197,11.916,10.765,11.916c6.565,0,10.765-3.996,10.765-11.916v-34.054
			C290.824,486.141,290.553,485.868,290.146,485.868z M340.784,485.868h-3.589c-0.406,0-0.676,0.272-0.676,0.677v34.528h-0.271
			l-10.291-34.528c-0.135-0.474-0.475-0.677-1.016-0.677h-5.076c-0.406,0-0.679,0.272-0.679,0.677v44.683
			c0,0.406,0.272,0.678,0.679,0.678h3.586c0.407,0,0.679-0.271,0.679-0.678V496.7h0.34l10.492,34.527
			c0.136,0.473,0.475,0.678,1.016,0.678h4.807c0.406,0,0.676-0.271,0.676-0.678v-44.683
			C341.46,486.141,341.19,485.868,340.784,485.868z M380.116,485.868h-9.547c-0.405,0-0.677,0.272-0.677,0.677v44.683
			c0,0.406,0.271,0.678,0.677,0.678h9.547c5.821,0,9.138-2.438,10.628-7.176c0.812-2.506,1.083-5.553,1.083-15.844
			s-0.271-13.338-1.083-15.84C389.254,488.307,385.938,485.868,380.116,485.868z M385.396,522.899
			c-0.948,2.709-2.708,3.926-5.822,3.926h-3.793c-0.27,0-0.404-0.133-0.404-0.404v-35.07c0-0.27,0.135-0.404,0.404-0.404h3.793
			c3.114,0,4.874,1.219,5.822,3.928c0.608,1.895,0.88,4.4,0.88,14.012C386.276,518.501,386.005,521.005,385.396,522.899z
			 M431.431,505.839l-2.775-1.082c-3.723-1.424-4.806-3.047-4.806-7.787c0-4.67,1.622-6.701,5.008-6.701
			c3.521,0,5.011,2.234,5.146,6.771c0,0.404,0.337,0.676,0.744,0.541l3.792-0.611c0.407-0.066,0.609-0.336,0.609-0.742
			c-0.339-7.178-3.521-10.968-10.426-10.968c-6.904,0-10.29,4.062-10.29,11.915c0,7.107,1.759,10.221,8.057,12.66l2.775,1.082
			c3.655,1.422,4.671,3.387,4.671,8.666c0,6.229-1.624,7.92-5.146,7.92c-3.521,0-5.35-2.031-5.619-7.717
			c0-0.408-0.27-0.678-0.744-0.609l-3.994,0.746c-0.407,0.066-0.542,0.336-0.542,0.744c0.339,7.92,3.858,11.848,10.832,11.848
			c7.786,0,10.695-4.332,10.695-13.609C439.418,511.257,437.319,508.21,431.431,505.839z M487.349,485.868h-4.13
			c-0.406,0-0.676,0.272-0.676,0.677v18.821c0,0.271-0.138,0.406-0.407,0.406h-9.884c-0.271,0-0.406-0.135-0.406-0.406v-18.821
			c0-0.404-0.271-0.677-0.677-0.677h-4.13c-0.406,0-0.676,0.272-0.676,0.677v44.683c0,0.406,0.27,0.678,0.676,0.678h4.13
			c0.406,0,0.677-0.271,0.677-0.678v-19.971c0-0.27,0.135-0.408,0.406-0.408h9.884c0.27,0,0.407,0.139,0.407,0.408v19.971
			c0,0.406,0.27,0.678,0.676,0.678h4.13c0.407,0,0.677-0.271,0.677-0.678v-44.683C488.025,486.141,487.756,485.868,487.349,485.868z
			 M528.237,485.868h-4.062c-0.407,0-0.609,0.272-0.744,0.677l-9.816,44.683c-0.067,0.406,0.202,0.678,0.608,0.678h4.062
			c0.407,0,0.609-0.271,0.677-0.678l2.031-10.088h10.223l2.031,10.088c0.067,0.406,0.27,0.678,0.744,0.678h4.062
			c0.406,0,0.676-0.271,0.608-0.678l-9.682-44.683C528.914,486.141,528.645,485.868,528.237,485.868z M521.942,516.401l4.196-20.039
			h0.203l3.927,20.039H521.942z M579.822,510.849c3.588-1.826,5.619-5.549,5.619-11.713c0-9.746-4.332-13.268-12.457-13.268h-8.055
			c-0.407,0-0.679,0.272-0.679,0.677v44.683c0,0.406,0.271,0.678,0.679,0.678h4.13c0.404,0,0.676-0.271,0.676-0.678v-18.549
			c0-0.271,0.135-0.406,0.407-0.406h2.774c0.609,0,1.287,0,1.896-0.068l5.754,19.227c0.135,0.338,0.34,0.475,0.744,0.475h4.604
			c0.34,0,0.475-0.34,0.34-0.678L579.822,510.849z M573.052,507.329h-2.909c-0.272,0-0.407-0.135-0.407-0.406v-15.572
			c0-0.27,0.135-0.404,0.407-0.404h2.909c4.876,0,6.907,1.963,6.907,8.189C579.959,505.435,577.793,507.329,573.052,507.329z
			 M631.137,485.868h-17.398c-0.406,0-0.676,0.272-0.676,0.677v44.683c0,0.406,0.27,0.678,0.676,0.678h17.398
			c0.406,0,0.678-0.271,0.678-0.678v-3.725c0-0.404-0.271-0.678-0.678-0.678h-12.186c-0.271,0-0.406-0.133-0.406-0.404v-14.828
			c0-0.27,0.135-0.404,0.406-0.404h10.561c0.407,0,0.677-0.271,0.677-0.678v-3.723c0-0.406-0.27-0.678-0.677-0.678h-10.561
			c-0.271,0-0.406-0.137-0.406-0.406v-14.354c0-0.27,0.135-0.404,0.406-0.404h12.186c0.406,0,0.678-0.271,0.678-0.678v-3.724
			C631.814,486.141,631.543,485.868,631.137,485.868z"/>
	</g>
</g>
</svg>
