<?xml version="1.0" encoding="utf-8"?>
<!-- Generator: Adobe Illustrator 15.1.0, SVG Export Plug-In . SVG Version: 6.00 Build 0)  -->
<!DOCTYPE svg PUBLIC "-//W3C//DTD SVG 1.1//EN" "http://www.w3.org/Graphics/SVG/1.1/DTD/svg11.dtd">
<svg version="1.1" id="Layer_1" xmlns="http://www.w3.org/2000/svg" xmlns:xlink="http://www.w3.org/1999/xlink" x="0px" y="0px"
	 width="250px" height="250px" viewBox="275 275 250 250" enable-background="new 275 275 250 250" xml:space="preserve">
<g>
	<g>
		<path fill="#FFFFFF" d="M377.371,371.525c1.36,1.262,2.737,2.506,4.095,3.77c1.677,1.56,3.132,3.403,5.253,4.542
			c-0.281-1.358-1.232-2.125-1.995-2.991c-1.313-1.495-2.726-2.892-4.091-4.336c-1.285-1.359-2.714-2.52-4.307-3.451
			c-0.24-0.14-0.566-0.425-0.82-0.091c-0.259,0.338-0.027,0.688,0.208,0.933C376.248,370.462,376.806,370.999,377.371,371.525z
			 M357.611,353.525c0.365,0.053,0.754,0.12,0.981,0.442c0.554,0.789,1.641,0.827,2.13,1.705c0.059,0.105,0.269,0.117,0.345,0.146
			c0.295,0.006,0.528-0.021,0.6-0.274c0.092-0.324-0.106-0.542-0.338-0.716c-1.309-0.985-2.582-2.03-4.07-2.718
			c-0.305-0.141-0.637-0.614-0.946-0.169c-0.281,0.405,0.106,0.77,0.345,1.085C356.894,353.34,357.238,353.471,357.611,353.525z
			 M364.769,358.46c1.413,0.996,2.617,2.242,3.815,3.497c1.484,1.554,2.983,3.089,4.481,4.628c0.166,0.17,0.357,0.451,0.609,0.231
			c0.241-0.208,0.078-0.491-0.083-0.677c-1.152-1.331-2.33-2.639-3.473-3.982c-0.89-1.044-1.901-1.948-2.944-2.804
			c-0.731-0.6-1.418-1.286-2.125-1.626c-0.377-0.075-0.558-0.03-0.599,0.204C364.405,358.189,364.586,358.332,364.769,358.46z
			 M379.417,375.783c-0.145-0.11-0.305-0.2-0.399-0.263c-0.281-0.041-0.427,0.066-0.533,0.235c-0.157,0.255-0.216,0.526-0.07,0.812
			c0.137,0.266,0.387,0.391,0.609,0.559c1.195,0.9,2.452,1.729,3.557,2.741c1.755,1.607,3.561,3.167,5.05,5.076
			c0.591,0.757,1.271,1.444,2.014,2.052c0.233,0.19,0.459,0.362,0.73,0.163c0.299-0.22,0.162-0.523,0.025-0.77
			c-0.167-0.301-0.354-0.599-0.573-0.859C386.736,381.836,383.192,378.675,379.417,375.783z M439.792,355.781
			c1.022-0.765,1.971-1.646,3.113-2.234c0.226-0.118,0.351-0.344,0.366-0.62c-0.014-0.169-0.072-0.326-0.234-0.372
			c-0.417-0.118-0.831,0.014-1.09,0.312c-0.767,0.886-1.902,1.199-2.711,2.013c-0.277,0.279-0.792,0.465-0.496,0.944
			C439.009,356.257,439.472,356.02,439.792,355.781z M410.441,387.234c0.409-0.284,0.941-0.525,1.315-0.92
			c-0.003-0.259-0.001-0.833,0.004-0.833s0.007,0.562,0.003,0.825c0.016-0.015,0.029-0.027,0.042-0.042
			c1.45-1.65,2.903-3.284,4.494-4.797c1.611-1.532,3.318-2.916,5.082-4.231c0.443-0.331,1.151-0.612,0.737-1.265
			c-0.437-0.688-1.017-0.167-1.474,0.202c-0.168,0.135-0.294,0.323-0.458,0.464c-0.604,0.522-1.159,1.148-1.838,1.525
			c-1.279,0.71-2.142,1.906-3.231,2.831c-1.049,0.89-1.979,1.944-2.906,2.98c-0.72,0.802-1.515,1.541-2.061,2.505
			C409.965,386.807,409.912,387.064,410.441,387.234z M427.529,366.482c0.268,0.147,0.491-0.041,0.589-0.286
			c0.207-0.509,0.678-0.718,1.011-1.081c2.137-2.316,4.199-4.715,6.697-6.627c0.139-0.106,0.224-0.289,0.314-0.412
			c-0.042-0.486-0.315-0.446-0.601-0.367c-0.452,0.125-0.582,0.651-0.94,0.872c-2.179,1.349-4.2,2.927-5.924,4.806
			c-0.566,0.618-0.721,1.673-1.226,2.352C427.287,365.955,427.194,366.299,427.529,366.482z M414.603,379.392
			c0.23,0.004,0.386-0.131,0.548-0.29c1.035-1.014,2.104-1.99,3.118-3.03c2.016-2.069,4.403-3.696,6.325-5.877
			c0.226-0.256,0.603-0.49,0.348-0.864c-0.264-0.391-0.694-0.223-0.977,0.009c-0.769,0.629-1.676,1.021-2.422,1.691
			c-0.875,0.79-1.624,1.707-2.465,2.528c-1.633,1.593-3.199,3.248-4.682,4.995c-0.148,0.174-0.247,0.366-0.159,0.607
			C414.299,379.335,414.446,379.377,414.603,379.392z M438.095,384.979c0.299,0.048,0.602,0.116,0.901,0.115
			c0.586-0.004,1.53,0.419,1.589-0.472c0.052-0.812-0.896-0.695-1.62-0.737c-0.229,0.031-0.562,0.047-0.882,0.13
			c-0.28,0.072-0.664,0.134-0.625,0.548C437.487,384.904,437.827,384.934,438.095,384.979z M430.761,381.43
			c0.853,0.411,1.701,0.829,2.569,1.197c0.51,0.216,1.062,0.315,1.605,0.133c0.837-0.28,1.651-0.623,2.537-0.734
			c0.346-0.044,0.637-0.301,0.632-0.704c-0.003-0.418-0.327-0.592-0.672-0.654c-0.631-0.115-1.226-0.373-1.841-0.518
			c-1.146-0.271-2.154-1.102-3.409-0.94c-0.391,0.043-0.79,0.053-1.172,0.139c-0.448,0.102-0.921,0.249-0.954,0.854
			C430.026,380.763,430.269,381.193,430.761,381.43z M440.632,377.228c-0.646-0.065-1.227-0.298-1.819-0.557
			c-1.097-0.479-2.266-0.688-3.354-0.837c-0.479,0-0.922-0.076-1.086,0.436c-0.115,0.355,0.081,0.657,0.385,0.765
			c1.616,0.578,3.09,1.636,4.93,1.45c0.741-0.075,1.23-0.158,2.139,0.638C442.736,379.919,443.696,377.536,440.632,377.228z
			 M448.391,386.579c-0.306-0.14-0.641-0.241-0.9-0.448c-1.697-1.354-3.381-0.688-5.063,0.014c-0.256,0.108-0.454,0.344-0.462,0.66
			c-0.006,0.332,0.219,0.526,0.484,0.621c0.668,0.239,1.23,0.684,1.854,1.005c0.841,0.432,1.689,0.87,2.57,1.194
			c1.041,0.384,2.463-0.553,2.483-1.642C449.29,387.392,449.011,386.865,448.391,386.579z M448.131,381.236
			c-1.942-0.458-3.954-0.592-5.936-0.866c-0.004,0.025-0.006,0.05-0.008,0.076c-0.243,0-0.487-0.022-0.728,0.005
			c-0.315,0.036-0.609,0.163-0.671,0.534c-0.056,0.338,0.189,0.596,0.433,0.653c1.024,0.239,1.866,0.896,2.795,1.334
			c1.38,0.65,2.896,0.863,4.223,1.683c0.779,0.482,1.564,0.943,2.326,1.464c0.923,0.633,1.738,0.391,2.444-0.598
			c0.513-0.718,0.402-1.146-0.453-2.038C451.325,382.201,449.731,381.612,448.131,381.236z M384.357,388.21
			c-0.447-0.23-0.756,0.021-0.79,0.365c-0.104,1.223,1.601,3.355,2.583,3.445c0.704,0.064,1.125-0.463,0.828-1.145
			C386.441,389.642,385.495,388.795,384.357,388.21z M368.324,369.204c-4.182-3.819-6.486-4.873-2.37-0.656
			c1.316,1.349,1.258,2.279,2.557,3.646c1.264,1.33,3.419,2.761,4.566,4.22c1.099,1.399,2.421,3.144,3.653,4.414
			c1.905,1.963,4.994,3.402,7.114,5.09c0.747,0.595,1.446,1.367,2.44,1.588c0.334,0.075,0.613,0.098,0.676-0.372
			c-0.012-0.319-0.237-0.475-0.456-0.66c-1.623-1.368-3.281-2.694-4.843-4.135c-2.486-2.293-4.893-4.668-7.084-7.295
			C372.739,372.838,370.43,371.127,368.324,369.204z M430.195,374.465c6.473-5.229,8.638-8.667,0.865-2.741
			c-2.284,1.743-4.381,3.708-6.423,5.737c-1.76,1.751-3.681,3.29-5.593,4.839c-1.55,1.258-3.195,2.383-4.796,3.57
			c-0.183,0.136-0.307,0.328-0.246,0.574c0.07,0.272,0.299,0.281,0.667,0.292c0.792-0.046,1.434-0.788,2.147-1.249
			c2.936-1.9,6.473-3.096,9.007-5.557C427.395,378.405,428.496,375.836,430.195,374.465z M405.083,402.974
			c-0.424-0.137-0.593,0.225-0.742,0.546c-0.116,0.246-1.318,0.359-1.373,0.624c-0.339,1.652,0.206,2.43-0.122,4.083
			c-0.633,2.08-0.463,5.282-0.897,7.402c-0.032,0.165-0.08,0.368-0.094,0.561c-0.976-0.329-2.499,0.177-2.79,1.101
			c-0.304,0.963-1.145,1.735-0.933,2.887c-0.412-2.245-0.631,2.586,1.343,1.472c0.889-0.503,0.663-1.257,0.811-1.721
			c0.122-0.382,0.312-1.749,0.405-2.141c0.033-0.141,0.096-0.298,0.258-0.287c0.161,0.011,0.212,0.179,0.237,0.318
			c0.084,0.453,0.008,1.875,0.098,2.328c0.113,0.57,0.422,0.935,1.009,0.962c0.556,0.024,0.76-0.385,0.907-0.843
			c0.437-1.332,0.139-2.525-0.656-3.551c0.159-0.207,0.18-0.63,0.263-0.897c0.914-2.885,1.336-5.896,2.029-8.838
			c0.247-1.044,0.685-2.092,0.616-3.218C405.433,403.45,405.433,403.085,405.083,402.974z M431.236,405.403
			c0.461-0.054,0.827-0.271,0.884-0.795c0.049-0.474-0.245-0.762-0.621-0.952c-0.399-0.201-0.832-0.113-1.252-0.096
			c-0.333,0-0.667-0.026-0.996,0.006c-0.315,0.03-0.593,0.199-0.688,0.536c-0.105,0.377,0.159,0.577,0.422,0.753
			C429.674,405.313,430.425,405.499,431.236,405.403z M417.301,406.702c-0.36,0.55,0.126,0.876,0.464,1.173
			c1.515,1.329,2.951,2.762,4.59,3.928c0.603,0.428,1.23,0.823,1.826,0.898c0.936,0.014,1.995-0.83,2.218-1.632
			c0.282-1.018-0.5-1.243-1.087-1.599c-1.071-0.651-2.273-1.006-3.356-1.67c-1.012-0.62-2.195-0.914-3.262-1.465
			C418.195,406.077,417.625,406.207,417.301,406.702z M429.252,407.439c0.089-0.791-0.506-0.819-1.005-0.939
			c-0.089-0.021-0.178-0.047-0.268-0.051c-1.166-0.062-2.273-0.347-3.301-0.949c-0.475-0.279-0.993-0.258-1.51-0.195
			c-0.25,0.029-0.483,0.139-0.555,0.419c-0.077,0.299,0.142,0.432,0.329,0.61c1.484,1.4,3.422,1.274,4.94,1.749
			C428.598,408.044,429.167,408.19,429.252,407.439z M394.886,385.31c0.68,0.258,1.145,0.671,1.106,1.361
			c-0.111,1.963,1.361,2.824,2.439,3.924c0.484,0.495,0.908,0.802,0.566,1.588c-0.242,0.559-0.104,1.136,0.426,1.474
			c0.567,0.362,1.198,0.396,1.746-0.038c0.454-0.36,0.737-0.884,0.439-1.473c-0.342-0.675-0.033-0.949,0.453-1.35
			c1.295-1.07,2.576-2.174,2.586-4.158c0.004-0.767,0.423-1.248,1.223-1.359c0.704-0.098,1.193-0.504,1.354-1.303
			c0.395-2.002-1.051-4.699-2.938-5.27c-0.841-0.254-1.052-0.717-0.817-1.525c0.083-0.289,0.149-1.682,0.204-1.978
			c0.101-0.543,0.343-2.006-0.314-2.26c-0.707-0.272-1.17-1.712-2.517-1.461c-0.967,0.179-0.489,2.996,0.193,3.553
			c0.223,0.181,0.514,0.271,0.774,0.402c0.181,0.093,0.436,0.61,0.428,0.87c-0.009,0.347,0.086,1.152-0.415,1.266
			c-0.501,0.114-1.069,0.347-1.765,0.575s-1.543-0.846-2.077-0.893c-0.294-0.026-0.696-0.09-0.74,0.26
			c-0.126,0.993-0.861,1.108-1.548,1.391c-0.689,0.284-1.066,0.92-1.323,1.631c-0.16,0.442-0.289,0.911-0.527,1.305
			C392.679,383.762,392.877,384.546,394.886,385.31z M383.329,405.928c-1.079-0.28-2.175-0.112-3.064,0.509
			c-0.534,0.373-1.08,0.53-1.641,0.731c-0.214,0.076-0.502,0.237-0.623-0.111c-0.092-0.268,0.153-0.386,0.343-0.483
			c0.388-0.201,0.66-0.457,0.531-0.972c-0.141-0.566-0.547-0.728-1.038-0.736c-0.699-0.014-1.398-0.002-2.097-0.014
			c-0.203-0.004-0.484,0.053-0.561-0.202c-0.102-0.342,0.247-0.37,0.424-0.514c0.32-0.26,1.042-0.187,0.96-0.693
			c-0.084-0.529-0.777-0.483-1.226-0.635c-0.169-0.058-0.368-0.086-0.541-0.053c-1.698,0.325-3.391,0.049-5.085-0.028
			c-0.745-0.034-1.343,0.212-1.57,1.005c-0.193,0.671-0.198,1.458,0.393,1.834l5.154-0.462c0.245-0.023,0.528-0.039,0.569,0.306
			c0.035,0.28-0.212,0.375-0.415,0.423c-0.533,0.123-1.07,0.273-1.611,0.312c-1.016,0.072-1.673,0.435-1.851,1.629
			c-0.099,0.652,0.074,0.962,0.592,1.02c1.234,0.142,2.473,0.312,3.605-0.521c0.8-0.588,1.723-0.668,2.753-0.443
			c-0.182,0.421-0.479,0.642-0.778,0.693c-0.784,0.137-1.392,0.603-2.04,1.015c-0.933,0.592-1.146,1.535-0.387,2.343
			c0.584,0.623,1.165,1.316,2.012,1.579c0.795,0.248,1.313-0.266,1.809-0.803c0.04-0.042,0.108-0.062,0.166-0.077
			c1.025-0.239,1.725-1.074,2.428-1.737c1.021-0.963,2.14-1.806,3.129-2.811c0.321-0.325,0.663-0.516,0.587-1.043
			C384.177,406.412,383.825,406.057,383.329,405.928z M359.152,381.835c0.382-0.165,0.909-0.306,0.815-0.864
			c-0.093-0.543-0.614-0.523-0.89-0.54c-2.243,0.148-4.328,0.404-6.375,0.842c-1.692,0.362-3.289,1.061-4.536,2.44
			c-0.538,0.593-0.742,1.151-0.25,1.852c0.534,0.762,1.405,1.09,2.061,0.645c1.602-1.085,3.227-2.073,5.072-2.67
			C356.451,383.086,357.79,382.422,359.152,381.835z M359.68,378.442c0.424,0.021,0.851,0.006,1.277,0.006
			c1.825,0.391,3.255-0.82,4.856-1.333c0.331-0.106,0.579-0.4,0.505-0.812c-0.079-0.441-0.429-0.497-0.781-0.479
			c-2.1,0.102-3.966,1.159-5.976,1.631c-0.246,0.058-0.403,0.292-0.343,0.595C359.27,378.304,359.455,378.432,359.68,378.442z
			 M447.01,379.26c1.04,0.421,1.995,1.034,3.045,1.387c0.637,0.215,1.247,0.452,1.862,0.729c1.613,0.725,3.186,1.884,5.08,0.905
			c1.083-0.56,1.938-1.43,2.566-2.476c0.499-0.833,0.306-2.025-0.28-2.466c-2.033-1.532-4.377-2.303-6.785-2.835
			c-0.766-0.168-1.582-0.178-2.316-0.469c-2.267-0.897-4.677-0.715-7.074-1.192c-1.14,0.212-2.334,0.433-3.529,0.66
			c-0.377,0.072-0.65,0.316-0.566,0.723c0.136,0.659,0.374,1.471,1.015,1.581c1.189,0.204,2.097,0.927,3.11,1.464
			C444.421,377.952,445.674,378.719,447.01,379.26z M342.051,377.746c-0.381,0.345-0.565,0.826-0.403,1.384
			c0.345,1.184,2.393,2.778,3.732,2.774c0.107-0.021,0.391-0.028,0.641-0.125c2.384-0.923,4.784-1.805,7.135-2.812
			c2.375-1.018,4.458-2.696,6.938-3.506c0.215-0.07,0.391-0.295,0.566-0.469c0.196-0.197,0.421-0.405,0.337-0.735
			c-0.092-0.361-0.38-0.459-0.695-0.521c-2.063-0.408-4.149-0.262-6.164,0.128c-3.367,0.649-6.591,1.967-9.977,2.6
			C343.371,376.612,342.674,377.184,342.051,377.746z M440.701,371.35c0.183-0.009,0.361-0.062,0.541-0.091
			c3.23-0.539,6.385-0.334,9.402,1.108c0.271,0.129,0.528,0.158,0.773-0.033c0.254-0.198,0.303-0.479,0.193-0.77
			c-0.122-0.323-0.216-0.693-0.434-0.934c-1.374-1.532-2.914-2.714-4.976-2.425c-0.96-0.049-1.776,0.088-2.602,0.379
			c-1.143,0.406-2.28,0.781-3.248,1.579c-0.293,0.24-0.852,0.279-0.678,0.837C439.833,371.508,440.318,371.369,440.701,371.35z
			 M333.835,344.966c0.433,0.445,0.851,0.907,1.406,1.199c0.929,0.488,1.771,1.117,2.492,1.897c2.762,2.99,6.372,3.871,10.097,4.484
			c0.627,0.05,0.677-0.311,0.501-0.838c-0.329-0.99-1.224-1.474-1.811-2.237c-1.546-2.013-3.468-3.453-5.951-3.916
			c-1.887-0.353-3.707-0.964-5.532-1.555c-0.23-0.074-0.47-0.131-0.709-0.154c-0.309-0.029-0.634-0.001-0.804,0.321
			C333.327,344.539,333.619,344.744,333.835,344.966z M458.033,361.012c-0.249-0.09-0.541-0.109-0.806-0.082
			c-4.141,0.423-8.249,1.07-12.334,1.884c-0.831,0.165-1.665,0.434-2.307,1.061c-0.78,0.764-0.602,1.485,0.408,1.787
			c0.994,0.3,1.988,0.6,3.006,0.5c1.475,0.128,2.865-0.301,4.284-0.432c3.002-0.276,5.641-1.634,7.954-3.655
			C458.716,361.66,458.636,361.229,458.033,361.012z M343.284,360.927c-0.381-0.053-0.754,0.061-0.912,0.474
			c-0.156,0.409,0.135,0.643,0.403,0.869c0.998,0.843,2.093,1.528,3.235,2.121c2.771,1.439,5.821,1.369,8.785,1.76
			c0.928,0.033,1.818-0.151,2.698-0.424c0.451-0.139,1.059-0.097,1.135-0.758c0.077-0.68-0.345-1.159-0.861-1.465
			c-0.764-0.456-1.566-0.833-2.463-0.951c-1.236-0.164-2.468-0.359-3.696-0.579C348.85,361.481,346.055,361.309,343.284,360.927z
			 M453.051,353.358c0.227-0.05,0.513-0.063,0.756-0.174c1.181-0.539,2.418-0.837,3.685-1.029c1.178-0.177,2.031-1.202,3.215-1.372
			c0.074-0.01,0.131-0.13,0.203-0.185c1.142-0.874,2.176-1.884,3.266-2.82c0.505-0.435,0.916-1.142,1.628-1.267
			c1.112-0.195,1.653-1.135,2.334-1.881c0.312-0.343,0.287-0.845,0.018-1.25c-0.268-0.402-0.625-0.215-0.99-0.136
			c-1.52,0.334-3.029,0.502-4.534,1.153c-1.435,0.621-3.171,0.505-4.646,1.305c-0.286,0.155-0.668,0.135-0.926,0.375
			c-0.951,0.891-1.944,1.722-2.836,2.702c-0.553,0.606-0.968,1.382-1.725,1.876c-0.578,0.376-0.84,1.347-0.673,2.154
			C451.945,353.371,452.587,353.198,453.051,353.358z M357.259,391.018c0.071,0.622,0.312,1.168,0.922,1.278
			c1.571,0.283,3.007,1.296,4.592,0.93c3.091,0.352,5.227-1.302,7.051-3.46c1.341-1.585,2.512-3.328,4.107-4.67
			c0.587-0.495,0.356-1.161,0.277-1.78c-0.072-0.554-0.51-0.672-0.935-0.753c-0.958-0.183-1.865,0.034-2.763,0.386
			c-2.482,0.974-4.996,1.895-7.258,3.36c-0.76,0.493-1.607,0.72-2.348,1.182c-1.029,0.642-1.963,1.451-2.988,2.103
			C357.354,389.953,357.189,390.391,357.259,391.018z M398.35,414.735c0.449-0.104,0.252-0.657,0.213-1.015
			c-0.183-1.639-0.368-4.767-0.567-6.403l0.018-0.002c-0.195-1.603,0.077-2.466-0.609-3.312c-0.192-0.238-0.111-0.624-0.223-0.912
			c-0.116-0.297-0.309-0.579-0.674-0.511c-0.354,0.067-0.457,0.392-0.491,0.713c-0.026,0.239-0.04,0.506,0.033,0.727
			c0.447,1.346,0.438,2.767,0.671,4.146c0.32,1.898,0.643,3.796,1.008,5.685C397.797,414.208,397.795,414.859,398.35,414.735z
			 M442.445,392.382c0.499-0.081,0.992-0.181,1.045-0.849c0.053-0.701,0.135-1.41-0.517-1.918c-1.695-1.325-3.562-2.361-5.44-3.337
			c-0.689-0.357-1.243-1.046-1.9-1.188c-1.319-0.285-2.397-1.089-3.631-1.507c-1.317-0.448-2.571-1.188-4.034-1.074
			c-0.596,0.047-1.146,0.191-1.183,0.915c-0.038,0.738-0.2,1.664,0.579,2.051c0.821,0.407,1.307,1.173,1.733,1.828
			c0.841,1.289,1.803,2.452,2.799,3.587c0.505,0.574,1.114,1.187,1.787,1.423c1.393,0.487,2.75,1.314,4.327,0.89
			C439.601,393.612,440.955,392.628,442.445,392.382z M333.313,353.359c-2.262-0.651-4.638-0.495-6.931-0.9
			c-0.358,0.037-0.794-0.114-0.961,0.355c-0.155,0.438,0.057,0.806,0.353,1.112c0.086,0.089,0.192,0.155,0.291,0.231
			c2.499,1.944,5.156,3.574,8.166,4.494c1.364,0.417,2.716,0.951,4.169,0.315c0.994-0.434,1.217-1.132,0.563-2.003
			C337.508,355.025,335.502,353.99,333.313,353.359z M476.173,352.211c-0.263-0.818-0.942-0.513-1.479-0.552
			c-0.236-0.018-0.481,0.06-0.723,0.095c-1.053,0.153-2.102,0.353-3.16,0.452c-2.789,0.262-5.391,1.074-7.717,2.75
			c-0.645,0.466-1.094,1.157-1.772,1.613c-0.549,0.371-0.668,2.166-0.208,2.366c0.903,0.392,1.59,1.359,2.717,1.19
			c0.333-0.033,0.723,0.041,0.986-0.118c1.057-0.632,2.285-0.671,3.364-1.135c0.854-0.368,1.805-0.661,2.531-1.195
			c1.548-1.135,3.232-2.048,4.717-3.277C475.894,354.017,476.373,352.843,476.173,352.211z M457.804,367.01
			c1.506,0.18,3.028,0.556,4.52,0.455c2.136-0.145,4.334,1.324,6.405-0.249c0.047-0.035,0.121-0.026,0.175-0.053
			c1.301-0.66,2.629-2.304,2.709-3.911c0.046-0.798-0.498-0.975-1.061-1.015c-1.091-0.076-2.183-0.111-3.274-0.111
			c-0.879,0-1.851-0.159-2.615,0.171c-1.345,0.585-2.696,0.676-4.093,0.682c-0.315,0.002-0.613,0.084-0.791,0.384
			c-0.266,0.445-0.702,0.604-1.136,0.737c-0.574,0.175-1.019,0.514-1.43,0.96c-0.334,0.363-0.622,0.738-0.497,1.256
			C456.851,366.886,457.35,366.955,457.804,367.01z M363.041,381.797c0.508,0.332,1.161,0.214,1.649,0.508
			c2.095,1.262,3.723-0.188,5.444-1.003c0.432-0.204,0.761-0.699,0.634-1.273c-0.132-0.609-0.648-0.695-1.146-0.747
			c-0.273-0.028-0.547-0.036-0.82-0.052c-2.034,0.132-3.852,1.099-5.769,1.673C362.493,381.066,362.57,381.491,363.041,381.797z
			 M360.943,385.134c0.179,0.019,0.361,0.003,0.444,0.003c0.556,0.05,0.995-0.065,1.429-0.19c0.249-0.072,0.618-0.085,0.595-0.446
			c-0.021-0.331-0.386-0.334-0.635-0.428c-0.621-0.232-1.243-0.152-1.869-0.028c-0.306,0.062-0.64,0.121-0.652,0.518
			C360.241,385.022,360.601,385.097,360.943,385.134z M464.779,349.43c-0.253,0.06-0.335,0.342-0.396,0.599
			c-0.374,1.536,0.036,2.083,1.808,2.027c1.171,0.225,2.337-0.841,3.693-0.957c1.951-0.166,3.799-0.824,5.705-1.201
			c1.972-0.39,3.171-2.693,2.39-4.622c-0.35-0.857-0.785-1.752-1.884-2.014c-2.396-0.569-4.305,0.55-6.079,1.926
			c-0.994,0.771-1.906,1.71-2.859,2.543C466.45,348.348,465.785,349.195,464.779,349.43z M342.588,367.025
			c0.514-0.045,1.12-0.038,1.283-0.678c0.162-0.626-0.068-1.25-0.602-1.586c-0.922-0.582-1.858-1.411-2.857-1.536
			c-2.496-0.314-4.913-1.278-7.638-1.007c-0.657,0-1.482-0.061-2.297,0.016c-1.099,0.102-1.69,1.147-1.185,2.047
			c1.023,1.823,2.54,3.016,4.456,3.629c0.458,0.146,0.939,0.154,1.432-0.034c0.479-0.183,1-0.283,1.509-0.333
			C338.655,367.352,340.622,367.197,342.588,367.025z M345.099,354.535c-1.249-0.636-2.564-0.724-3.633-0.773
			c-0.542,0-0.816-0.005-1.089,0.002c-0.427,0.01-0.879-0.003-1.088,0.505c-0.193,0.468,0.15,0.764,0.353,1.112
			c0.47,0.809,1.263,1.254,1.874,1.892c0.984,1.029,2.062,1.693,3.451,1.862c1.416,0.173,2.821,0.432,4.222,0.723
			c1.364,0.284,2.758,0.417,4.143,0.588c0.462,0.057,0.828-0.183,1.047-0.617c0.164-0.323,0.098-0.638-0.152-0.873
			c-1.273-1.202-2.527-2.44-4.223-2.985c-0.324-0.104-0.619-0.248-0.887-0.472c-0.493-0.411-1.059-0.598-1.692-0.594
			C346.631,354.912,345.809,354.897,345.099,354.535z M464.367,369.233c-1.482-0.135-2.951-0.291-4.416-0.595
			c-1.247-0.261-2.524-0.35-3.523-0.479c-1.244-0.022-2.061,0.205-2.782,0.694c-0.868,0.59-1.024,1.192-0.455,2.074
			c0.494,0.762,1.032,1.478,1.774,2.028c1.17,0.866,2.424,1.544,3.71,2.188c0.867,0.435,1.604,0.45,2.372-0.155
			c1.493-1.175,2.621-2.738,3.946-4.092C465.765,370.104,465.455,369.331,464.367,369.233z M324.66,348.802
			c0.528,0.311,1.07,0.59,1.673,0.737c2.657,0.648,5.356,1.112,7.962,1.986c0.533,0.178,1.142,0.227,1.437-0.433
			c0.296-0.664-0.036-1.192-0.557-1.552c-1.581-1.09-2.916-2.5-4.418-3.687c-1.269-1.003-2.626-1.841-4.257-2.047
			c-1.871-0.235-3.026,0.825-3.017,2.909C323.382,347.633,323.857,348.329,324.66,348.802z M447.638,360.456
			c0.043-0.006,0.164-0.027,0.284-0.039c2.787-0.284,5.511-0.993,8.282-1.375c0.414-0.057,0.868-0.028,1.232-0.303
			c1.409-1.063,2.872-2.059,3.917-3.568c0.41-0.591,0.282-1.177-0.394-1.303c-1.333-0.249-2.761-0.251-3.958,0.264
			c-1.139,0.489-2.248,0.718-3.421,0.781c-1.387,0.074-2.482,0.961-3.697,1.471c-1.068,0.448-1.933,1.441-2.877,2.211
			c-0.418,0.342-0.413,0.831-0.294,1.315C446.822,360.36,447.157,360.479,447.638,360.456z M401.721,401.715
			c0.227-0.93,0.666-1.396,1.59-1.386c0.979,0.01,1.094-0.7,1.099-1.511c0.003-0.807-0.209-1.404-1.1-1.403
			c-0.758,0.002-1.313-0.293-1.8-0.935c-0.675-0.893-1.814-0.776-2.279,0.223c-0.287,0.614-0.628,0.762-1.254,0.706
			c-1.042-0.092-1.252,0.237-1.224,1.608c0.023,1.138,0.26,1.38,1.375,1.328c0.884-0.322,1.013,0.295,1.042,1.063
			c0.021,0.562,0.091,1.117,0.572,1.351c-0.069,2.417-0.33,4.828-0.198,7.249c0.07,1.294,0.14,2.586,0.229,3.878
			c0.019,0.265,0.079,0.591,0.403,0.623c0.343,0.034,0.419-0.298,0.468-0.552c0.082-0.42,0.14-0.851,0.145-1.279
			c0.018-1.531,0.006-3.062,0.006-4.594c-0.011,0,0.661-0.105,0.648-0.105c0-1.758-0.633-3.416-0.688-5.168
			C401.242,402.664,401.586,402.275,401.721,401.715z M339.679,374.897c0.4,0.304,0.811,0.559,1.369,0.606
			c0.127-0.037,0.311-0.066,0.475-0.141c1.251-0.569,2.486-1.17,3.626-1.965c0.945-0.659,1.767-1.468,2.385-2.465
			c0.632-1.02,0.432-1.629-0.543-2.177c-0.95-0.535-1.927-0.582-2.991-0.512c-2.514,0.166-4.949,1.007-7.488,0.909
			c-0.387-0.015-0.746,0.136-0.886,0.541c-0.154,0.444-0.116,0.953,0.232,1.249C337.259,372.129,338.216,373.782,339.679,374.897z
			 M380.002,391.956c0.547,0.45,1.124,0.602,1.753,0.682c1.136,0.145,1.509-0.31,1.139-1.429c-0.329-0.992-0.635-2.012-1.115-2.926
			c-0.789-1.501-1.825-2.738-3.732-2.526c-1.197,0.257-2.431,0.104-3.558,1.09c-0.993,0.871-1.876,1.801-2.68,2.833
			c-0.537,0.688-0.309,1.84,0.381,2.394c0.586,0.469,1.273,0.584,1.981,0.608c1.3,0.043,2.516-0.375,3.732-0.789
			C378.611,391.653,379.395,391.46,380.002,391.956z M349.367,371.145c-0.162,0.297-0.414,0.626-0.155,0.965
			c0.286,0.374,0.643,0.163,0.997,0.043c3.125-1.056,6.291-1.617,9.565-0.845c0.288,0.067,0.602,0.042,0.901,0.016
			c0.223-0.021,0.401-0.178,0.45-0.417c0.052-0.257-0.121-0.404-0.302-0.538c-1.8-1.316-3.806-2.009-5.53-2.184
			C352.326,368.198,350.4,369.236,349.367,371.145z M427.393,372.282c0.916-0.028,1.343-0.727,1.872-1.345
			c1.159-1.357,2.575-2.416,3.929-3.543c1.675-1.396,3.088-3.07,4.435-4.783c0.498-0.633,1.399-1.124,1.317-2.189
			c-0.007-0.34,0.066-0.718-0.271-0.951c-0.229-0.16-0.496-0.125-0.678,0.056c-0.407,0.403-1.018,0.527-1.367,0.92
			c-1.384,1.562-3.183,2.659-4.417,4.384c-0.272,0.38-0.581,0.746-0.926,1.051c-1.715,1.51-3.389,3.053-4.633,5.041
			c-0.219,0.35-0.335,0.684-0.14,1.064C426.712,372.37,427.048,372.292,427.393,372.282z M428.246,388.643
			c-0.307-0.251-0.54-0.603-0.825-0.89c-1.507-1.511-3.288-2.173-5.365-1.867c-0.415,0.061-0.871,0.001-1.229,0.294
			c-1.661,1.363-2.399,3.284-2.827,5.356c-0.155,0.748,0.284,1.142,1.011,1.089c0.614-0.044,1.222-0.19,1.717-0.577
			c0.66-0.516,1.313-0.537,2.055-0.239c1.164,0.467,2.373,0.76,3.62,0.852c0.182,0,0.369,0.031,0.545-0.004
			c0.789-0.164,1.697-0.136,2.01-1.178C429.281,390.386,429.185,389.407,428.246,388.643z M366.852,365.935
			c1.608,1.687,3.672,2.82,5.122,4.705c0.315,0.409,0.776,0.727,1.219,0.991c0.67,0.401,1.22,0.093,1.231-0.758
			c-0.08-0.555-0.378-1.131-0.839-1.625c-2.797-3.001-5.593-6.003-8.603-8.779c-0.649-0.597-1.304-1.113-2.081-1.485
			c-0.345-0.166-0.691-0.363-1.015-0.062c-0.368,0.343-0.084,0.695,0.086,1.028C363.183,362.32,365.077,364.073,366.852,365.935z
			 M428.354,398.562c-1.857,0.027-3.377,0.592-4.88,1.184c-0.642,0.252-0.692,0.859-0.192,1.36c0.278,0.277,0.627,0.401,0.99,0.434
			c1.024,0.091,2.051,0.175,3.08,0.217c1.002,0.042,1.885-0.448,2.771-0.838c0.668-0.293,0.74-0.913,0.241-1.468
			C429.764,398.785,428.977,398.58,428.354,398.562z M356.617,389.006c0.359-0.025,0.624-0.23,0.838-0.514
			c0.273-0.362,0.625-0.61,1.04-0.735c0.448-0.136,0.774-0.353,0.79-0.897c0.017-0.561-0.04-1.05-0.578-1.39
			c-0.96-0.606-1.999-0.591-3.066-0.627c-1.571-0.054-2.658,1.062-3.954,1.656c-0.742,0.339-1.171,1.794-0.78,2.3
			c0.632,0.817,1.282,1.67,2.262,1.416c0.917-0.039,1.654,0.047,2.188-0.544C355.713,389.275,356.107,389.041,356.617,389.006z
			 M417.507,405.208c0.467-0.177,0.445-0.631,0.451-1.116c0.064-0.489-0.051-0.921-0.593-1.192
			c-1.148-0.574-2.202-1.287-3.154-2.201c-0.482-0.461-1.237-0.49-1.897-0.565c-0.367-0.04-0.476,0.3-0.547,0.64
			c-0.168,0.791,0.491,1.043,0.812,1.543c0.757,1.173,1.741,2.031,2.835,2.802C416.103,405.601,416.807,405.47,417.507,405.208z
			 M458.942,385.398c-0.388-0.807-1.157-0.499-1.792-0.571c-0.119-0.015-0.242-0.005-0.364-0.005
			c-1.527,0.003-3.178,1.709-3.222,3.334c-0.031,1.12,0.603,1.583,1.664,1.333c1.063-0.249,1.816-0.973,2.633-1.631
			C458.404,387.416,459.171,385.871,458.942,385.398z M431.5,410.589c-0.898-0.359-1.46,0.818-2.348,1.015
			c-1.049,0.232-1.511,1.193-2.27,1.777c-0.345,0.264-0.423,0.777-0.193,1.229c0.232,0.456,0.655,0.411,1.048,0.368
			c0.642-0.07,1.25-0.25,1.791-0.646c0.348-0.253,0.683-0.543,1.114-0.637c0.781-0.17,1.38-0.6,1.849-1.287
			c0.272-0.399,0.791-0.655,0.487-1.29C432.703,410.54,432.198,410.597,431.5,410.589z M386.984,401.025
			c-0.903,0.696-1.782,1.425-2.767,1.993c-0.317,0.182-0.68,0.398-0.51,0.88c0.162,0.455,0.548,0.553,0.968,0.548
			c0.541,0,0.994-0.217,1.403-0.581c0.65-0.579,1.211-1.238,1.748-1.929c0.252-0.324,0.649-0.626,0.289-1.045
			C387.749,400.463,387.335,400.755,386.984,401.025z M463.976,378.092c-0.908-0.119-1.409,0.573-1.945,1.062
			c-0.902,0.823-2.037,1.462-2.286,2.906c-0.164,0.957-0.035,1.218,1.06,1.229c0.375,0.035,0.7-0.161,1.051-0.639
			c0.417-0.566,0.961-1.184,1.512-1.494c0.774-0.438,1.059-1.111,1.387-1.791C465.115,378.624,464.768,378.195,463.976,378.092z
			 M372.301,414.31c0.528,0.06,0.819-0.051,0.915-0.271c0.137-0.314-0.051-0.516-0.222-0.755c-0.861-1.202-2.274-1.371-3.417-2.045
			c-0.255-0.151-0.619-0.129-0.817,0.191c-0.182,0.296,0.032,0.543,0.178,0.779C369.776,413.561,371.465,413.342,372.301,414.31z
			 M360.934,369.178c0.419,0.275,1.054,0.255,1.59,0.245c0.488-0.01,0.786-0.364,0.666-0.912c-0.261-1.194-1.349-2.072-2.553-2.098
			c-1.045-0.023-1.664,0.501-1.274,1.124C359.762,368.178,360.321,368.773,360.934,369.178z M343.078,384.974
			c-0.39,0.082-0.863,0.058-0.925,0.579c-0.076,0.628-0.501,1.446,0.185,1.854c1.076,0.64,1.871,1.771,3.262,1.898
			c1.105,0.1,1.437-0.085,1.427-1.286c0.003-0.759-0.254-1.367-0.712-1.989C345.436,384.839,344.346,384.705,343.078,384.974z
			 M338.928,382.664c0.406,0.336,0.765,0.595,1.275,0.598c0.438,0.006,0.877-0.016,1.071-0.527c0.174-0.462-0.173-0.703-0.37-1.058
			c-0.442-0.804-1.183-1.303-1.662-2.036c-0.493-0.753-1.313-0.965-1.96-1.454c-0.27-0.204-0.651-0.016-0.868,0.312
			c-0.305,0.465-0.082,1.938,0.382,2.197C337.657,381.178,338.183,382.047,338.928,382.664z M323.913,357.951
			c0.81-0.11,1.033-0.676,1.022-1.429c-0.003-0.288,0.048-0.639-0.164-0.822c-0.607-0.528-0.749-1.285-1.004-1.995
			c-0.084-0.232-0.216-0.49-0.399-0.631c-0.514-0.395-0.932-1.122-1.7-0.851c-0.494,0.174-0.574,1.376-0.148,2.201
			c0.408,0.792,0.774,1.582,0.926,2.48C322.589,357.75,323.125,358.058,323.913,357.951z M394.932,396.037
			c0.049,0.394,0.232,0.628,0.659,0.599c1.442-0.099,1.909-0.626,1.906-2.19c-0.001-0.139,0.004-0.279-0.002-0.418
			c-0.044-0.97-0.704-1.505-1.808-1.397c-0.812,0.08-1,0.717-0.965,1.437C394.756,394.726,394.852,395.382,394.932,396.037z
			 M469.061,370.384c-1.485,0.583-2.412,1.726-2.942,3.282c-0.388,1.138-0.068,1.721,1.088,1.738
			c0.548-0.025,1.007-0.242,1.47-0.708c0.955-0.962,1.026-2.285,1.436-3.454C470.392,370.446,469.878,370.062,469.061,370.384z
			 M325.942,362.563c-0.658,0.375-0.552,1.211-0.32,1.823c0.421,1.108,0.927,2.19,1.493,3.226c0.377,0.688,1.124,0.773,1.782,0.605
			c0.567-0.145,0.384-0.779,0.47-1.432c-0.116-1.255-0.971-2.394-1.586-3.594C327.525,362.691,326.638,362.166,325.942,362.563z
			 M436.811,406.155c-0.465-0.199-1.069-0.329-1.407-0.02c-0.845,0.769-1.981,1.228-2.432,2.452c-0.34,0.924-0.064,1.424,1.148,1.43
			c0.763-0.289,1.585-0.976,2.411-1.602c0.348-0.263,0.464-0.873,0.661-1.337C437.38,406.641,437.203,406.325,436.811,406.155z
			 M331.713,370.4c-0.349-0.146-0.594,0.118-0.677,0.456c-0.082,0.334-0.088,0.689-0.127,1.036
			c-0.178,1.448,0.862,2.283,1.586,3.193c0.442,0.556,1.333,0.521,1.953,0.112c0.597-0.392,0.591-1.136,0.323-1.731
			C334.135,372.048,333.12,370.984,331.713,370.4z M404.769,392.3c-1.003-0.043-1.857,0.696-1.875,1.587
			c-0.023,1.212,0.813,2.235,1.853,2.152c1.242-0.099,0.83-1.182,0.972-1.933C405.593,393.385,406.015,392.355,404.769,392.3z
			 M367.285,407.518c-0.571-0.368-1.111-0.757-1.626-1.211c-0.41-0.359-0.971-0.417-1.467-0.151
			c-0.512,0.277-0.382,0.817-0.347,1.283c0.058,0.757,0.341,1.35,1.118,1.553c0.512,0.133,0.928,0.443,1.332,0.796
			c0.352,0.312,0.795,0.328,1.203,0.116c0.361-0.187,0.319-0.578,0.33-0.964C367.778,408.432,367.776,407.834,367.285,407.518z
			 M414.641,392.52c0.177-0.029,0.613,0.042,0.812-0.155c1.155-1.127,2.357-2.264,2.427-4.097c0.031-0.825-0.746-1.287-1.39-0.763
			c-1.047,0.855-2.154,1.653-3.004,2.75c-0.385,0.497-0.594,1.062-0.343,1.685C413.397,392.569,413.984,392.455,414.641,392.52z
			 M478.876,352.132c-1.594,0.809-2.438,2.106-2.502,3.962c0,0.224-0.009,0.447,0.004,0.669c0.025,0.467-0.063,1.013,0.543,1.166
			c0.563,0.142,0.946-0.176,1.186-0.663c0.714-1.445,1.275-2.955,1.528-4.569C479.736,352.052,479.549,351.791,478.876,352.132z
			 M473.456,367.883c0.962-1.358,1.552-2.875,1.774-4.55c0.098-0.748-0.269-1.022-0.908-0.904c-0.976,0.18-1.655,0.778-1.954,1.784
			c-0.278,0.944-0.535,1.896-0.769,2.854c-0.165,0.683,0.219,1.182,0.89,1.234C472.873,368.316,473.215,368.225,473.456,367.883z
			 M396.624,390.843c0.185-0.523,0.12-1.041-0.275-1.451c-0.399-0.416-0.803-0.832-1.244-1.194
			c-0.505-0.417-1.155-0.181-1.338,0.474c-0.083,0.294-0.068,0.619-0.077,0.709c-0.008,1.644,0.333,1.969,1.834,1.957
			C395.954,391.334,396.435,391.382,396.624,390.843z M437.069,400.7c-0.993-0.174-1.857,0.087-2.564,0.864
			c-0.253,0.281-0.546,0.558-0.361,0.989c0.165,0.386,0.537,0.353,0.86,0.359c1.006,0.163,1.617-0.595,2.343-1.086
			c0.235-0.159,0.474-0.354,0.375-0.685C437.63,400.837,437.34,400.747,437.069,400.7z M365.598,403.385
			c0.391-0.047,0.794-0.042,1.17-0.148c0.898-0.253,0.976-0.813,0.477-1.62c-1.011-1.637-2.477-1.521-3.964-1.241
			c-0.952,0.18-1.132,1.074-0.438,1.778C363.609,402.931,364.459,403.506,365.598,403.385z M405.664,387.719
			c-0.621-0.067-1.456,1.391-1.448,2.377c0.005,0.8,0.462,0.917,0.945,0.879c1.114-0.045,1.863-1.05,1.734-2.244
			C406.818,388.004,406.243,387.781,405.664,387.719z M388.133,396.407c0.432-0.384,0.663-0.858,0.392-1.427
			c-0.274-0.574-0.815-0.49-1.292-0.462c-1.021,0.06-2.007,0.094-2.948,0.758c-0.785,0.554-2.069-1.205-2.755,0.256
			c-0.686,1.461-0.85,3.542,0.225,3.162c1.074-0.379,1.307-0.468,1.486,0.075c0.204,0.622-0.695,0.427-1.051,0.698
			c-1.097,0.833-2.541,0.995-3.528,2.077c-0.437,0.475-0.494,0.928-0.313,1.467c0.186,0.555,0.641,0.412,1.072,0.44
			c1.627,0.11,2.853-0.885,4.146-1.637c1.575-0.915,3.082-1.961,4.617-2.954C389.505,398.004,389.504,397.332,388.133,396.407z
			 M412.25,396.81c-0.733,0.428-0.69,1.239,0.022,1.733c1.964,1.362,3.999,2.603,6.014,3.875c0.932,0.589,1.83,0.918,2.855,1.031
			c0.435,0.049,0.995,0.241,1.156-0.401c0.145-0.575,0.235-1.218-0.352-1.656c-1.136-0.852-2.376-1.496-3.681-2.005
			c-0.229-0.089-0.46-0.177-0.672-0.297c-0.092-0.052-0.197-0.181-0.2-0.28c-0.008-0.19,0.157-0.262,0.312-0.27
			c0.577-0.026,1.156-0.062,1.684,0.276c0.284,0.184,0.566,0.379,0.873,0.514c0.983,0.432,2.716-0.363,3.043-1.426
			c0.221-0.714-0.266-0.936-0.811-1.107c-0.353-0.112-0.553,0.015-0.96-0.463c-0.428-0.5,0.396,0.619-1.397-1.112
			c0.196,0.19-0.339,0.228-0.538,0.255c-1.355,0.188-2.644,0.344-3.919-0.589c-0.709-0.519-1.756-0.469-2.655-0.168
			c-0.508,0.17-0.585,0.637-0.419,1.102C412.778,396.297,412.703,396.545,412.25,396.81z M440.709,358.929
			c-0.064,0.841,0.448,1.3,1.177,1.204c0.797-0.106,1.744-0.22,2.31-0.723c0.828-0.739,1.535-1.749,1.998-2.788
			c0.45-1.013-0.575-1.651-2.122-1.382C442.289,355.55,440.854,357.097,440.709,358.929z M373.638,399.029
			c-0.49,0.256-1.046,0.723-1.294,1.472c-0.207,0.627,0.063,1.076,0.697,1.041c0.839-0.046,1.712-0.014,2.496-0.438
			c0.804-0.436,1.592-0.903,2.377-1.374c0.279-0.166,0.515-0.4,0.64-0.723c0.226-0.583-0.024-1.032-0.621-0.976
			C376.533,398.164,375.13,398.322,373.638,399.029z M382.562,454.289c0.417-0.208,0.647-0.606,0.647-1.097
			c0-0.739-0.515-1.266-1.415-1.266h-1.6c-0.035,0-0.058,0.022-0.058,0.058v3.812c0,0.034,0.023,0.058,0.058,0.058h0.901
			c0.035,0,0.059-0.023,0.059-0.058v-1.306c0-0.022,0.011-0.034,0.034-0.034h0.376l0.594,1.34c0.018,0.04,0.035,0.058,0.087,0.058h1
			c0.04,0,0.057-0.034,0.04-0.07L382.562,454.289z M381.73,453.618h-0.542c-0.022,0-0.034-0.011-0.034-0.034v-0.762
			c0-0.022,0.011-0.035,0.034-0.035h0.542c0.29,0,0.462,0.163,0.462,0.415C382.193,453.457,382.02,453.618,381.73,453.618z
			 M391.661,451.927h-0.942c-0.04,0-0.062,0.022-0.075,0.058l-1.357,3.812c-0.012,0.034,0.006,0.058,0.04,0.058h0.947
			c0.041,0,0.063-0.023,0.075-0.058l0.185-0.607h1.277l0.185,0.607c0.012,0.034,0.034,0.058,0.074,0.058h0.954
			c0.035,0,0.052-0.023,0.04-0.058l-1.328-3.812C391.724,451.949,391.7,451.927,391.661,451.927z M390.794,454.346l0.38-1.226h0.019
			l0.363,1.226H390.794z M400.793,451.927h-1.519c-0.035,0-0.059,0.022-0.059,0.058v3.812c0,0.034,0.024,0.058,0.059,0.058h1.519
			c0.692,0,1.201-0.288,1.398-0.896c0.081-0.253,0.114-0.478,0.114-1.067c0-0.595-0.033-0.814-0.114-1.068
			C401.993,452.215,401.486,451.927,400.793,451.927z M401.219,454.578c-0.091,0.276-0.286,0.374-0.646,0.374h-0.306
			c-0.023,0-0.035-0.011-0.035-0.034v-2.055c0-0.023,0.012-0.036,0.035-0.036h0.306c0.359,0,0.555,0.098,0.646,0.375
			c0.036,0.117,0.059,0.249,0.059,0.688S401.255,454.461,401.219,454.578z M409.597,451.927h-0.902
			c-0.034,0-0.058,0.022-0.058,0.058v3.812c0,0.034,0.023,0.058,0.058,0.058h0.902c0.034,0,0.058-0.023,0.058-0.058v-3.812
			C409.655,451.949,409.63,451.927,409.597,451.927z M417.563,451.857c-0.694,0-1.266,0.323-1.473,0.965
			c-0.093,0.299-0.116,0.53-0.116,1.068s0.023,0.769,0.116,1.067c0.207,0.642,0.778,0.966,1.473,0.966
			c0.691,0,1.265-0.324,1.472-0.966c0.098-0.299,0.117-0.529,0.117-1.067s-0.02-0.77-0.117-1.068
			C418.827,452.18,418.254,451.857,417.563,451.857z M418.064,454.67c-0.068,0.221-0.247,0.347-0.502,0.347
			s-0.434-0.126-0.502-0.347c-0.047-0.134-0.058-0.312-0.058-0.779c0-0.469,0.011-0.647,0.058-0.78
			c0.068-0.219,0.247-0.348,0.502-0.348s0.434,0.129,0.502,0.348c0.047,0.133,0.059,0.312,0.059,0.78
			C418.122,454.357,418.111,454.536,418.064,454.67z M326.488,435.641l-0.947-0.37c-1.271-0.486-1.64-1.04-1.64-2.657
			c0-1.595,0.554-2.287,1.708-2.287c1.203,0,1.711,0.763,1.757,2.311c0,0.139,0.116,0.231,0.254,0.184l1.294-0.207
			c0.139-0.023,0.208-0.114,0.208-0.253c-0.115-2.451-1.201-3.743-3.558-3.743c-2.357,0-3.512,1.386-3.512,4.067
			c0,2.424,0.601,3.487,2.75,4.319l0.947,0.369c1.248,0.485,1.594,1.156,1.594,2.958c0,2.126-0.555,2.703-1.756,2.703
			c-1.202,0-1.825-0.692-1.918-2.635c0-0.138-0.092-0.23-0.254-0.207l-1.363,0.255c-0.14,0.022-0.186,0.114-0.186,0.254
			c0.116,2.703,1.316,4.044,3.697,4.044c2.657,0,3.651-1.479,3.651-4.646C329.215,437.49,328.498,436.45,326.488,435.641z
			 M341.901,428.618c-1.78,0-2.958,0.831-3.443,2.334c-0.231,0.69-0.301,1.269-0.301,5.729c0,4.459,0.069,5.038,0.301,5.731
			c0.485,1.502,1.664,2.334,3.443,2.334c1.778,0,2.979-0.832,3.442-2.334c0.231-0.693,0.3-1.272,0.3-5.731
			c0-4.46-0.069-5.038-0.3-5.729C344.88,429.449,343.679,428.618,341.901,428.618z M343.564,441.881
			c-0.23,0.716-0.832,1.108-1.663,1.108c-0.832,0-1.41-0.393-1.642-1.108c-0.162-0.463-0.208-0.809-0.208-5.2
			c0-4.39,0.046-4.735,0.208-5.198c0.23-0.716,0.81-1.108,1.642-1.108c0.831,0,1.432,0.393,1.663,1.108
			c0.139,0.463,0.185,0.809,0.185,5.198C343.749,441.072,343.702,441.418,343.564,441.881z M362.186,428.824h-1.41
			c-0.138,0-0.23,0.094-0.23,0.232v11.852c0,1.364-0.693,2.081-1.802,2.081c-1.109,0-1.802-0.717-1.802-2.081v-11.852
			c0-0.139-0.093-0.232-0.231-0.232h-1.411c-0.138,0-0.23,0.094-0.23,0.232v11.622c0,2.703,1.433,4.067,3.674,4.067
			c2.241,0,3.674-1.364,3.674-4.067v-11.622C362.418,428.918,362.325,428.824,362.186,428.824z M379.469,428.824h-1.225
			c-0.139,0-0.231,0.094-0.231,0.232v11.783h-0.092l-3.512-11.783c-0.046-0.163-0.162-0.232-0.347-0.232h-1.733
			c-0.139,0-0.231,0.094-0.231,0.232v15.25c0,0.138,0.093,0.231,0.231,0.231h1.224c0.139,0,0.232-0.093,0.232-0.231v-11.785h0.116
			l3.582,11.785c0.046,0.16,0.162,0.231,0.346,0.231h1.641c0.139,0,0.231-0.094,0.231-0.231v-15.251
			C379.7,428.918,379.608,428.824,379.469,428.824z M392.893,428.824h-3.258c-0.138,0-0.231,0.094-0.231,0.232v15.25
			c0,0.138,0.092,0.231,0.231,0.231h3.258c1.987,0,3.12-0.833,3.627-2.45c0.277-0.854,0.37-1.895,0.37-5.407
			s-0.092-4.552-0.37-5.406C396.013,429.657,394.881,428.824,392.893,428.824z M394.696,441.464
			c-0.323,0.924-0.924,1.339-1.987,1.339h-1.294c-0.092,0-0.138-0.044-0.138-0.137v-11.971c0-0.091,0.047-0.138,0.138-0.138h1.294
			c1.063,0,1.664,0.416,1.987,1.341c0.208,0.647,0.301,1.501,0.301,4.782S394.904,440.817,394.696,441.464z M410.408,435.641
			l-0.948-0.37c-1.271-0.486-1.64-1.04-1.64-2.657c0-1.595,0.554-2.287,1.709-2.287c1.201,0,1.711,0.763,1.757,2.311
			c0,0.139,0.115,0.231,0.254,0.184l1.294-0.207c0.14-0.023,0.207-0.114,0.207-0.253c-0.114-2.451-1.2-3.743-3.558-3.743
			c-2.356,0-3.512,1.386-3.512,4.067c0,2.424,0.599,3.487,2.75,4.319l0.947,0.369c1.247,0.485,1.594,1.156,1.594,2.958
			c0,2.126-0.555,2.703-1.757,2.703s-1.825-0.692-1.918-2.635c0-0.138-0.091-0.23-0.253-0.207l-1.363,0.255
			c-0.14,0.022-0.186,0.114-0.186,0.254c0.115,2.703,1.317,4.044,3.697,4.044c2.658,0,3.649-1.479,3.649-4.646
			C413.133,437.49,412.418,436.45,410.408,435.641z M429.493,428.824h-1.409c-0.141,0-0.231,0.094-0.231,0.232v6.423
			c0,0.093-0.048,0.14-0.139,0.14h-3.374c-0.093,0-0.139-0.047-0.139-0.14v-6.423c0-0.139-0.093-0.232-0.229-0.232h-1.411
			c-0.138,0-0.23,0.094-0.23,0.232v15.25c0,0.138,0.093,0.231,0.23,0.231h1.411c0.137,0,0.229-0.093,0.229-0.231v-6.816
			c0-0.093,0.046-0.139,0.139-0.139h3.374c0.091,0,0.139,0.047,0.139,0.139v6.816c0,0.138,0.091,0.231,0.231,0.231h1.409
			c0.14,0,0.23-0.093,0.23-0.231v-15.25C429.724,428.918,429.633,428.824,429.493,428.824z M443.448,428.824h-1.387
			c-0.14,0-0.207,0.094-0.254,0.232l-3.35,15.25c-0.023,0.138,0.068,0.231,0.206,0.231h1.387c0.139,0,0.209-0.093,0.232-0.231
			l0.691-3.443h3.489l0.694,3.443c0.022,0.138,0.092,0.231,0.254,0.231h1.386c0.139,0,0.23-0.093,0.207-0.231l-3.304-15.25
			C443.679,428.918,443.588,428.824,443.448,428.824z M441.3,439.246l1.432-6.841h0.07l1.34,6.841H441.3z M461.055,437.351
			c1.224-0.624,1.917-1.895,1.917-3.998c0-3.326-1.478-4.529-4.252-4.529h-2.748c-0.139,0-0.233,0.094-0.233,0.232v15.25
			c0,0.138,0.095,0.231,0.233,0.231h1.409c0.139,0,0.23-0.093,0.23-0.231v-6.331c0-0.093,0.046-0.139,0.14-0.139h0.946
			c0.208,0,0.439,0,0.646-0.023l1.965,6.562c0.045,0.114,0.115,0.162,0.253,0.162h1.571c0.117,0,0.162-0.116,0.117-0.231
			L461.055,437.351z M458.743,436.149h-0.992c-0.094,0-0.139-0.047-0.139-0.139v-5.315c0-0.091,0.045-0.138,0.139-0.138h0.992
			c1.664,0,2.358,0.671,2.358,2.796C461.102,435.504,460.362,436.149,458.743,436.149z M478.569,428.824h-5.938
			c-0.138,0-0.23,0.094-0.23,0.232v15.25c0,0.138,0.093,0.231,0.23,0.231h5.938c0.139,0,0.231-0.093,0.231-0.231v-1.271
			c0-0.138-0.093-0.232-0.231-0.232h-4.159c-0.093,0-0.138-0.044-0.138-0.137v-5.061c0-0.093,0.045-0.139,0.138-0.139h3.604
			c0.14,0,0.23-0.091,0.23-0.231v-1.27c0-0.14-0.091-0.232-0.23-0.232h-3.604c-0.093,0-0.138-0.047-0.138-0.138v-4.9
			c0-0.092,0.045-0.138,0.138-0.138h4.159c0.139,0,0.231-0.092,0.231-0.23v-1.271C478.799,428.918,478.707,428.824,478.569,428.824z
			"/>
	</g>
</g>
</svg>
