<?xml version="1.0" encoding="utf-8"?>
<!-- Generator: Adobe Illustrator 15.1.0, SVG Export Plug-In . SVG Version: 6.00 Build 0)  -->
<!DOCTYPE svg PUBLIC "-//W3C//DTD SVG 1.1//EN" "http://www.w3.org/Graphics/SVG/1.1/DTD/svg11.dtd">
<svg version="1.1" id="Layer_1" xmlns="http://www.w3.org/2000/svg" xmlns:xlink="http://www.w3.org/1999/xlink" x="0px" y="0px"
	 width="250px" height="250px" viewBox="275 275 250 250" enable-background="new 275 275 250 250" xml:space="preserve">
<g>
	<g>
		<path fill="#FFFFFF" d="M404.75,469.53l-0.465-0.182c-0.622-0.235-0.805-0.507-0.805-1.296c0-0.781,0.271-1.119,0.84-1.119
			c0.588,0,0.837,0.372,0.86,1.129c0,0.069,0.056,0.113,0.124,0.091l0.634-0.101c0.068-0.013,0.103-0.059,0.103-0.126
			c-0.057-1.196-0.588-1.829-1.745-1.829c-1.154,0-1.72,0.678-1.72,1.988c0,1.185,0.293,1.704,1.347,2.111l0.465,0.181
			c0.611,0.237,0.78,0.564,0.78,1.444c0,1.04-0.271,1.322-0.86,1.322s-0.895-0.34-0.941-1.288c0-0.067-0.043-0.113-0.122-0.102
			l-0.668,0.124c-0.068,0.011-0.092,0.057-0.092,0.124c0.058,1.321,0.646,1.977,1.812,1.977c1.304,0,1.79-0.723,1.79-2.271
			C406.086,470.434,405.736,469.925,404.75,469.53z M396.913,469.53l-0.464-0.182c-0.623-0.235-0.804-0.507-0.804-1.296
			c0-0.781,0.271-1.119,0.837-1.119c0.59,0,0.839,0.372,0.861,1.129c0,0.069,0.056,0.113,0.124,0.091l0.634-0.101
			c0.068-0.013,0.103-0.059,0.103-0.126c-0.056-1.196-0.588-1.829-1.744-1.829c-1.155,0-1.722,0.678-1.722,1.988
			c0,1.185,0.295,1.704,1.348,2.111l0.464,0.181c0.612,0.237,0.781,0.564,0.781,1.444c0,1.04-0.272,1.322-0.86,1.322
			c-0.59,0-0.895-0.34-0.94-1.288c0-0.067-0.045-0.113-0.124-0.102l-0.669,0.124c-0.067,0.011-0.09,0.057-0.09,0.124
			c0.056,1.321,0.646,1.977,1.812,1.977c1.303,0,1.789-0.723,1.789-2.271C398.25,470.434,397.899,469.925,396.913,469.53z
			 M339.192,466.2h-0.69c-0.068,0-0.114,0.044-0.114,0.112v3.139c0,0.046-0.022,0.068-0.068,0.068h-1.653
			c-0.045,0-0.067-0.023-0.067-0.068v-3.139c0-0.068-0.046-0.112-0.113-0.112h-0.692c-0.067,0-0.113,0.044-0.113,0.112v7.453
			c0,0.067,0.045,0.112,0.113,0.112h0.692c0.067,0,0.113-0.045,0.113-0.112v-3.331c0-0.046,0.022-0.068,0.067-0.068h1.653
			c0.046,0,0.068,0.022,0.068,0.068v3.331c0,0.067,0.045,0.112,0.114,0.112h0.69c0.068,0,0.113-0.045,0.113-0.112v-7.453
			C339.305,466.244,339.26,466.2,339.192,466.2z M344.865,466.2h-0.69c-0.067,0-0.113,0.044-0.113,0.112v7.453
			c0,0.067,0.046,0.112,0.113,0.112h0.69c0.068,0,0.113-0.045,0.113-0.112v-7.453C344.979,466.244,344.934,466.2,344.865,466.2z
			 M353.166,469.722h-1.597c-0.068,0-0.113,0.045-0.113,0.111v0.601c0,0.067,0.045,0.112,0.113,0.112h0.758
			c0.046,0,0.069,0.022,0.069,0.068c0,1.568-0.033,1.75-0.103,1.964c-0.113,0.351-0.418,0.542-0.826,0.542s-0.713-0.191-0.827-0.542
			c-0.079-0.226-0.103-0.395-0.103-2.54s0.023-2.315,0.103-2.541c0.113-0.35,0.407-0.542,0.815-0.542
			c0.556,0,0.849,0.35,0.929,0.984c0.011,0.066,0.056,0.101,0.135,0.088l0.635-0.124c0.068-0.011,0.09-0.067,0.08-0.135
			c-0.125-1.073-0.725-1.672-1.789-1.672c-0.873,0-1.45,0.407-1.687,1.141c-0.114,0.339-0.147,0.621-0.147,2.801
			s0.034,2.461,0.147,2.801c0.237,0.733,0.814,1.14,1.687,1.14c0.872,0,1.46-0.406,1.687-1.14c0.114-0.34,0.148-0.621,0.148-2.677
			v-0.328C353.281,469.767,353.235,469.722,353.166,469.722z M361.366,466.2h-0.691c-0.068,0-0.113,0.044-0.113,0.112v3.139
			c0,0.046-0.022,0.068-0.068,0.068h-1.653c-0.045,0-0.067-0.023-0.067-0.068v-3.139c0-0.068-0.046-0.112-0.113-0.112h-0.691
			c-0.068,0-0.113,0.044-0.113,0.112v7.453c0,0.067,0.045,0.112,0.113,0.112h0.691c0.067,0,0.113-0.045,0.113-0.112v-3.331
			c0-0.046,0.022-0.068,0.067-0.068h1.653c0.046,0,0.068,0.022,0.068,0.068v3.331c0,0.067,0.045,0.112,0.113,0.112h0.691
			c0.067,0,0.113-0.045,0.113-0.112v-7.453C361.479,466.244,361.433,466.2,361.366,466.2z M373.46,466.956
			c0.531,0,0.792,0.338,0.849,1.027c0,0.069,0.058,0.103,0.125,0.09l0.645-0.125c0.068-0.009,0.104-0.056,0.092-0.135
			c-0.103-1.175-0.715-1.717-1.722-1.717c-0.872,0-1.416,0.408-1.654,1.13c-0.101,0.316-0.136,0.633-0.136,2.812
			c0,2.18,0.035,2.496,0.136,2.812c0.238,0.723,0.782,1.13,1.654,1.13c1.007,0,1.619-0.543,1.722-1.717
			c0.011-0.079-0.023-0.124-0.092-0.136l-0.645-0.124c-0.067-0.011-0.125,0.023-0.125,0.091c-0.057,0.688-0.317,1.027-0.849,1.027
			c-0.408,0-0.657-0.17-0.771-0.53c-0.067-0.216-0.103-0.431-0.103-2.553c0-2.124,0.035-2.338,0.103-2.552
			C372.803,467.125,373.052,466.956,373.46,466.956z M382.497,473.03h-2.016c-0.046,0-0.068-0.022-0.068-0.067v-6.651
			c0-0.068-0.045-0.112-0.113-0.112h-0.69c-0.068,0-0.113,0.044-0.113,0.112v7.453c0,0.067,0.045,0.112,0.113,0.112h2.888
			c0.068,0,0.112-0.045,0.112-0.112v-0.621C382.611,473.075,382.565,473.03,382.497,473.03z M388.918,466.2h-0.68
			c-0.067,0-0.102,0.044-0.125,0.112l-1.642,7.453c-0.012,0.067,0.033,0.112,0.102,0.112h0.68c0.068,0,0.103-0.045,0.114-0.112
			l0.339-1.684h1.71l0.34,1.684c0.012,0.067,0.046,0.112,0.125,0.112h0.679c0.069,0,0.113-0.045,0.103-0.112l-1.62-7.453
			C389.031,466.244,388.987,466.2,388.918,466.2z M387.865,471.291l0.703-3.343h0.033l0.656,3.343H387.865z M335.813,342.315v8.147
			c58.495,0,105.913,47.418,105.913,105.914h8.147C449.873,393.382,398.807,342.315,335.813,342.315z M448.869,466.2h-0.69
			c-0.067,0-0.112,0.044-0.112,0.112v7.453c0,0.067,0.045,0.112,0.112,0.112h0.69c0.07,0,0.115-0.045,0.115-0.112v-7.453
			C448.985,466.244,448.94,466.2,448.869,466.2z M457.353,466.2h-0.6c-0.067,0-0.113,0.044-0.113,0.112v5.758h-0.046l-1.722-5.758
			c-0.022-0.08-0.079-0.112-0.169-0.112h-0.85c-0.069,0-0.112,0.044-0.112,0.112v7.453c0,0.067,0.043,0.112,0.112,0.112h0.6
			c0.068,0,0.113-0.045,0.113-0.112v-5.76h0.058l1.754,5.76c0.023,0.078,0.079,0.112,0.171,0.112h0.803
			c0.07,0,0.113-0.045,0.113-0.112v-7.453C457.466,466.244,457.422,466.2,457.353,466.2z M335.813,326.021v8.147
			c67.494,0,122.209,54.715,122.209,122.208h8.146c0-1.064-0.015-2.126-0.04-3.185c0.025,1.059,0.04,2.12,0.04,3.185V326.021
			H335.813z M402.14,344.144c0.066,0.039,0.133,0.078,0.199,0.118c0,0,0.001,0,0.001,0
			C402.273,344.223,402.206,344.183,402.14,344.144z M406.939,347.127c0.002,0.001,0.004,0.002,0.007,0.004
			c0.121,0.08,0.244,0.16,0.365,0.241C407.187,347.29,407.064,347.208,406.939,347.127z M410.348,349.428
			c0.045,0.031,0.09,0.062,0.134,0.093c0.001,0,0.003,0.001,0.004,0.002C410.44,349.491,410.394,349.46,410.348,349.428z
			 M441.726,380.378c-2.546-3.543-5.267-6.95-8.147-10.214l0.001-3.407h0.001v-8.147h-11.557c0.003,0.002,0.006,0.005,0.009,0.008
			c-3.267-2.883-6.678-5.607-10.224-8.156c0.001,0,0.001,0,0.001,0h29.916V380.378L441.726,380.378z M444.701,384.702
			c0.001,0.001,0.001,0.002,0.002,0.004c0.12,0.181,0.239,0.362,0.359,0.543c0.001,0.002,0.003,0.005,0.004,0.007
			C444.945,385.071,444.823,384.886,444.701,384.702z M447.921,389.84c0.001,0.002,0.003,0.004,0.005,0.006l0.046,0.079
			C447.954,389.896,447.938,389.868,447.921,389.84z M449.873,393.236v-50.921h-50.922l0,0c-5.655-3.137-11.565-5.867-17.695-8.147
			h76.766v76.764v0.002C455.74,404.802,453.011,398.89,449.873,393.236z M433.74,466.2h-0.679c-0.067,0-0.102,0.044-0.125,0.112
			l-1.641,7.453c-0.012,0.067,0.033,0.112,0.101,0.112h0.68c0.069,0,0.103-0.045,0.115-0.112l0.339-1.684h1.71l0.34,1.684
			c0.01,0.067,0.046,0.112,0.125,0.112h0.679c0.067,0,0.113-0.045,0.102-0.112l-1.619-7.453
			C433.855,466.244,433.809,466.2,433.74,466.2z M432.689,471.291l0.702-3.343h0.033l0.657,3.343H432.689z M441.477,466.2h-1.597
			c-0.068,0-0.113,0.044-0.113,0.112v7.453c0,0.067,0.045,0.112,0.113,0.112h1.597c0.973,0,1.528-0.406,1.778-1.197
			c0.136-0.418,0.181-0.926,0.181-2.643c0-1.716-0.045-2.225-0.181-2.643C443.005,466.605,442.449,466.2,441.477,466.2z
			 M442.361,472.376c-0.159,0.45-0.455,0.654-0.975,0.654h-0.635c-0.046,0-0.068-0.022-0.068-0.067v-5.85
			c0-0.044,0.022-0.068,0.068-0.068h0.635c0.521,0,0.815,0.204,0.975,0.655c0.101,0.316,0.146,0.733,0.146,2.338
			C442.507,471.641,442.461,472.059,442.361,472.376z M426.21,470.366c0.601-0.306,0.94-0.926,0.94-1.955
			c0-1.625-0.725-2.212-2.083-2.212h-1.35c-0.067,0-0.113,0.045-0.113,0.112v7.453c0,0.068,0.046,0.112,0.113,0.112h0.692
			c0.067,0,0.113-0.044,0.113-0.112v-3.095c0-0.044,0.022-0.067,0.067-0.067h0.464c0.102,0,0.216,0,0.318-0.011l0.962,3.207
			c0.021,0.057,0.056,0.078,0.125,0.078h0.77c0.056,0,0.079-0.057,0.056-0.112L426.21,470.366z M425.077,469.779h-0.486
			c-0.045,0-0.067-0.023-0.067-0.068v-2.599c0-0.044,0.022-0.068,0.067-0.068h0.486c0.815,0,1.156,0.328,1.156,1.366
			C426.234,469.463,425.871,469.779,425.077,469.779z M419.234,466.2h-3.59c-0.067,0-0.113,0.044-0.113,0.112v0.62
			c0,0.067,0.046,0.112,0.113,0.112h1.269c0.045,0,0.068,0.023,0.068,0.068v6.652c0,0.067,0.044,0.112,0.113,0.112h0.69
			c0.068,0,0.113-0.045,0.113-0.112v-6.652c0-0.044,0.023-0.068,0.068-0.068h1.268c0.069,0,0.115-0.045,0.115-0.112v-0.62
			C419.349,466.244,419.303,466.2,419.234,466.2z M433.58,456.376c0-53.995-43.772-97.766-97.768-97.766v8.147
			c17.317,0,33.483,4.918,47.189,13.426l-47.189,47.19v11.731l53.967-54.278c2.216,1.673,4.353,3.446,6.4,5.314l-60.442,60.387
			l5.686,5.836l60.467-60.522c1.875,2.046,3.656,4.179,5.336,6.392l-54.143,54.144l11.391-0.021l47.405-47.37
			c8.585,13.749,13.553,29.987,13.553,47.391H433.58z M389.778,384.824c-0.523-0.395-1.052-0.783-1.583-1.167
			C388.726,384.042,389.254,384.43,389.778,384.824C389.778,384.825,389.778,384.824,389.778,384.824z M465.655,469.722h-1.598
			c-0.067,0-0.113,0.045-0.113,0.111v0.601c0,0.067,0.046,0.112,0.113,0.112h0.759c0.045,0,0.069,0.022,0.069,0.068
			c0,1.568-0.036,1.75-0.104,1.964c-0.113,0.351-0.419,0.542-0.825,0.542c-0.41,0-0.715-0.191-0.828-0.542
			c-0.079-0.226-0.102-0.395-0.102-2.54s0.022-2.315,0.102-2.541c0.113-0.35,0.407-0.542,0.814-0.542c0.556,0,0.85,0.35,0.93,0.984
			c0.011,0.066,0.056,0.101,0.135,0.088l0.636-0.124c0.067-0.011,0.09-0.067,0.079-0.135c-0.125-1.073-0.725-1.672-1.791-1.672
			c-0.871,0-1.448,0.407-1.686,1.141c-0.113,0.339-0.147,0.621-0.147,2.801s0.034,2.461,0.147,2.801
			c0.237,0.733,0.814,1.14,1.686,1.14c0.874,0,1.461-0.406,1.688-1.14c0.113-0.34,0.147-0.621,0.147-2.677v-0.328
			C465.768,469.767,465.723,469.722,465.655,469.722z"/>
	</g>
</g>
</svg>
