<?xml version="1.0" encoding="utf-8"?>
<!-- Generator: Adobe Illustrator 15.1.0, SVG Export Plug-In . SVG Version: 6.00 Build 0)  -->
<!DOCTYPE svg PUBLIC "-//W3C//DTD SVG 1.1//EN" "http://www.w3.org/Graphics/SVG/1.1/DTD/svg11.dtd">
<svg version="1.1" id="Layer_1" xmlns="http://www.w3.org/2000/svg" xmlns:xlink="http://www.w3.org/1999/xlink" x="0px" y="0px"
	 width="800px" height="800px" viewBox="0 0 800 800" enable-background="new 0 0 800 800" xml:space="preserve">
<rect fill="#1B1817" width="800" height="800"/>
<g>
	<g>
		<path fill="#FFFFFF" d="M409.907,586.627l-1.202-0.468c-1.613-0.612-2.086-1.313-2.086-3.359c0-2.021,0.704-2.897,2.174-2.897
			c1.525,0,2.168,0.965,2.229,2.923c0,0.178,0.145,0.293,0.319,0.236l1.644-0.262c0.175-0.031,0.263-0.149,0.263-0.324
			c-0.145-3.1-1.521-4.737-4.517-4.737c-2.99,0-4.455,1.756-4.455,5.148c0,3.069,0.761,4.414,3.489,5.468l1.202,0.468
			c1.583,0.614,2.024,1.463,2.024,3.742c0,2.691-0.704,3.422-2.23,3.422c-1.525,0-2.317-0.879-2.436-3.334
			c0-0.175-0.113-0.293-0.318-0.265l-1.731,0.323c-0.175,0.028-0.236,0.146-0.236,0.321c0.148,3.422,1.67,5.118,4.691,5.118
			c3.375,0,4.635-1.871,4.635-5.879C413.366,588.969,412.457,587.652,409.907,586.627z M389.613,586.627l-1.203-0.468
			c-1.613-0.612-2.081-1.313-2.081-3.359c0-2.021,0.704-2.897,2.168-2.897c1.526,0,2.171,0.965,2.23,2.923
			c0,0.178,0.145,0.293,0.321,0.236l1.642-0.262c0.177-0.031,0.265-0.149,0.265-0.324c-0.146-3.1-1.523-4.737-4.517-4.737
			c-2.99,0-4.458,1.756-4.458,5.148c0,3.069,0.763,4.414,3.489,5.468l1.202,0.468c1.585,0.614,2.024,1.463,2.024,3.742
			c0,2.691-0.704,3.422-2.228,3.422c-1.526,0-2.317-0.879-2.433-3.334c0-0.175-0.118-0.293-0.324-0.265l-1.731,0.323
			c-0.175,0.028-0.234,0.146-0.234,0.321c0.146,3.422,1.672,5.118,4.691,5.118c3.374,0,4.635-1.871,4.635-5.879
			C393.073,588.969,392.164,587.652,389.613,586.627z M240.138,578.003h-1.788c-0.177,0-0.295,0.116-0.295,0.291v8.13
			c0,0.116-0.059,0.175-0.177,0.175h-4.28c-0.118,0-0.175-0.059-0.175-0.175v-8.13c0-0.175-0.118-0.291-0.292-0.291h-1.791
			c-0.175,0-0.293,0.116-0.293,0.291v19.301c0,0.175,0.118,0.291,0.293,0.291h1.791c0.175,0,0.292-0.116,0.292-0.291v-8.626
			c0-0.118,0.057-0.177,0.175-0.177h4.28c0.118,0,0.177,0.059,0.177,0.177v8.626c0,0.175,0.118,0.291,0.295,0.291h1.788
			c0.175,0,0.293-0.116,0.293-0.291v-19.301C240.431,578.119,240.313,578.003,240.138,578.003z M254.829,578.003h-1.788
			c-0.175,0-0.293,0.116-0.293,0.291v19.301c0,0.175,0.118,0.291,0.293,0.291h1.788c0.177,0,0.293-0.116,0.293-0.291v-19.301
			C255.122,578.119,255.006,578.003,254.829,578.003z M276.325,587.126h-4.134c-0.177,0-0.293,0.118-0.293,0.29v1.553
			c0,0.175,0.116,0.293,0.293,0.293h1.963c0.118,0,0.177,0.057,0.177,0.175c0,4.063-0.087,4.532-0.264,5.087
			c-0.293,0.907-1.084,1.403-2.14,1.403c-1.056,0-1.848-0.496-2.141-1.403c-0.205-0.584-0.264-1.023-0.264-6.578
			c0-5.557,0.059-5.996,0.264-6.58c0.293-0.907,1.054-1.403,2.112-1.403c1.437,0,2.199,0.905,2.405,2.545
			c0.028,0.175,0.145,0.262,0.35,0.231l1.644-0.321c0.175-0.028,0.234-0.175,0.206-0.35c-0.323-2.779-1.878-4.329-4.634-4.329
			c-2.258,0-3.754,1.054-4.368,2.953c-0.295,0.879-0.382,1.609-0.382,7.254c0,5.643,0.087,6.373,0.382,7.252
			c0.614,1.899,2.11,2.953,4.368,2.953s3.784-1.054,4.37-2.953c0.293-0.879,0.383-1.609,0.383-6.933v-0.849
			C276.62,587.244,276.502,587.126,276.325,587.126z M297.559,578.003h-1.791c-0.175,0-0.293,0.116-0.293,0.291v8.13
			c0,0.116-0.059,0.175-0.177,0.175h-4.28c-0.118,0-0.175-0.059-0.175-0.175v-8.13c0-0.175-0.118-0.291-0.293-0.291h-1.791
			c-0.177,0-0.293,0.116-0.293,0.291v19.301c0,0.175,0.116,0.291,0.293,0.291h1.791c0.175,0,0.293-0.116,0.293-0.291v-8.626
			c0-0.118,0.057-0.177,0.175-0.177h4.28c0.118,0,0.177,0.059,0.177,0.177v8.626c0,0.175,0.118,0.291,0.293,0.291h1.791
			c0.175,0,0.293-0.116,0.293-0.291v-19.301C297.852,578.119,297.734,578.003,297.559,578.003z M328.877,579.962
			c1.377,0,2.053,0.876,2.199,2.66c0,0.178,0.149,0.265,0.324,0.234l1.67-0.324c0.177-0.025,0.265-0.144,0.236-0.35
			c-0.265-3.041-1.85-4.444-4.458-4.444c-2.258,0-3.667,1.054-4.283,2.925c-0.262,0.818-0.352,1.638-0.352,7.282
			c0,5.643,0.09,6.463,0.352,7.28c0.616,1.871,2.024,2.925,4.283,2.925c2.608,0,4.193-1.405,4.458-4.446
			c0.028-0.204-0.059-0.321-0.236-0.351l-1.67-0.321c-0.175-0.028-0.324,0.06-0.324,0.234c-0.146,1.784-0.822,2.66-2.199,2.66
			c-1.056,0-1.701-0.439-1.994-1.372c-0.175-0.558-0.265-1.113-0.265-6.609c0-5.5,0.09-6.056,0.265-6.61
			C327.177,580.399,327.821,579.962,328.877,579.962z M352.28,595.693h-5.219c-0.118,0-0.177-0.06-0.177-0.175v-17.225
			c0-0.175-0.118-0.291-0.295-0.291h-1.788c-0.175,0-0.293,0.116-0.293,0.291v19.301c0,0.175,0.118,0.291,0.293,0.291h7.479
			c0.177,0,0.292-0.116,0.292-0.291v-1.608C352.573,595.809,352.457,595.693,352.28,595.693z M368.908,578.003h-1.76
			c-0.175,0-0.262,0.116-0.324,0.291l-4.25,19.301c-0.031,0.175,0.087,0.291,0.262,0.291h1.76c0.177,0,0.265-0.116,0.295-0.291
			l0.879-4.358h4.429l0.879,4.358c0.031,0.175,0.118,0.291,0.324,0.291h1.757c0.177,0,0.293-0.116,0.265-0.291l-4.195-19.301
			C369.201,578.119,369.085,578.003,368.908,578.003z M366.182,591.189l1.819-8.657h0.087l1.701,8.657H366.182z M231.387,257.194
			v21.099c151.478,0,274.273,122.795,274.273,274.272h21.096C526.756,389.436,394.516,257.194,231.387,257.194z M524.159,578.003
			h-1.788c-0.175,0-0.293,0.116-0.293,0.291v19.301c0,0.175,0.118,0.291,0.293,0.291h1.788c0.18,0,0.298-0.116,0.298-0.291v-19.301
			C524.457,578.119,524.339,578.003,524.159,578.003z M546.126,578.003h-1.553c-0.175,0-0.293,0.116-0.293,0.291v14.913h-0.118
			l-4.46-14.913c-0.057-0.206-0.205-0.291-0.437-0.291h-2.199c-0.18,0-0.293,0.116-0.293,0.291v19.301
			c0,0.175,0.113,0.291,0.293,0.291h1.552c0.175,0,0.293-0.116,0.293-0.291v-14.913h0.148l4.543,14.913
			c0.062,0.204,0.206,0.291,0.441,0.291h2.082c0.179,0,0.292-0.116,0.292-0.291v-19.301
			C546.418,578.119,546.305,578.003,546.126,578.003z M231.387,215v21.096c174.782,0,316.47,141.688,316.47,316.469h21.097
			c0-2.758-0.039-5.507-0.104-8.249c0.066,2.742,0.104,5.491,0.104,8.249V215H231.387z M403.146,261.93
			c0.172,0.102,0.344,0.203,0.516,0.305c0.001,0,0.002,0.001,0.003,0.002C403.492,262.134,403.318,262.032,403.146,261.93z
			 M415.573,269.655c0.005,0.003,0.011,0.006,0.016,0.01c0.317,0.207,0.633,0.416,0.948,0.625
			C416.216,270.078,415.896,269.865,415.573,269.655z M424.402,275.616c0.115,0.081,0.231,0.16,0.347,0.241
			c0.002,0.001,0.005,0.003,0.007,0.005C424.639,275.779,424.52,275.698,424.402,275.616z M505.66,355.762
			c-6.594-9.173-13.641-17.996-21.1-26.449l0.003-8.823h0.001v-21.099h-29.926c0.008,0.007,0.016,0.014,0.024,0.021
			c-8.46-7.467-17.292-14.521-26.474-21.121c0.001,0,0.001,0,0.002,0.001h77.469V355.762z M513.363,366.96
			c0.002,0.003,0.004,0.005,0.006,0.008c0.31,0.47,0.62,0.938,0.928,1.409c0.004,0.005,0.007,0.011,0.01,0.016
			C513.994,367.914,513.679,367.438,513.363,366.96z M521.702,380.264c0.003,0.005,0.007,0.011,0.01,0.016l0.12,0.204
			C521.788,380.41,521.745,380.337,521.702,380.264z M526.756,389.058V257.194H394.89c0,0,0,0,0,0
			c-14.643-8.123-29.949-15.193-45.824-21.099h198.79v198.789l0.001,0.003C541.951,419.011,534.88,403.703,526.756,389.058z
			 M484.979,578.003h-1.758c-0.175,0-0.263,0.116-0.323,0.291l-4.25,19.301c-0.03,0.175,0.087,0.291,0.262,0.291h1.758
			c0.18,0,0.267-0.116,0.298-0.291l0.879-4.358h4.429l0.879,4.358c0.026,0.175,0.118,0.291,0.323,0.291h1.758
			c0.175,0,0.293-0.116,0.263-0.291l-4.193-19.301C485.276,578.119,485.158,578.003,484.979,578.003z M482.256,591.189l1.818-8.657
			h0.088l1.7,8.657H482.256z M505.013,578.003h-4.136c-0.175,0-0.293,0.116-0.293,0.291v19.301c0,0.175,0.118,0.291,0.293,0.291
			h4.136c2.519,0,3.957-1.052,4.604-3.098c0.35-1.084,0.468-2.4,0.468-6.843c0-4.446-0.118-5.763-0.468-6.845
			C508.97,579.055,507.531,578.003,505.013,578.003z M507.3,593.997c-0.411,1.169-1.176,1.696-2.522,1.696h-1.645
			c-0.118,0-0.175-0.06-0.175-0.175V580.37c0-0.115,0.057-0.177,0.175-0.177h1.645c1.347,0,2.111,0.529,2.522,1.696
			c0.263,0.82,0.38,1.902,0.38,6.056C507.68,592.097,507.562,593.179,507.3,593.997z M465.479,588.792
			c1.556-0.79,2.435-2.398,2.435-5.06c0-4.21-1.875-5.729-5.395-5.729h-3.494c-0.175,0-0.293,0.116-0.293,0.291v19.301
			c0,0.175,0.118,0.291,0.293,0.291h1.793c0.175,0,0.293-0.116,0.293-0.291v-8.014c0-0.116,0.057-0.175,0.175-0.175h1.202
			c0.263,0,0.556,0,0.822-0.029l2.492,8.306c0.057,0.146,0.145,0.203,0.323,0.203h1.994c0.144,0,0.205-0.146,0.144-0.291
			L465.479,588.792z M462.545,587.272h-1.259c-0.118,0-0.175-0.06-0.175-0.175v-6.728c0-0.115,0.057-0.177,0.175-0.177h1.259
			c2.112,0,2.995,0.849,2.995,3.539C465.54,586.455,464.601,587.272,462.545,587.272z M447.413,578.003h-9.296
			c-0.175,0-0.293,0.116-0.293,0.291v1.608c0,0.176,0.118,0.291,0.293,0.291h3.284c0.118,0,0.179,0.062,0.179,0.177v17.225
			c0,0.175,0.114,0.291,0.293,0.291h1.788c0.175,0,0.293-0.116,0.293-0.291V580.37c0-0.115,0.058-0.177,0.175-0.177h3.284
			c0.179,0,0.297-0.115,0.297-0.291v-1.608C447.71,578.119,447.592,578.003,447.413,578.003z M484.564,552.565
			c0-139.825-113.353-253.174-253.178-253.174v21.099c44.846,0,86.709,12.737,122.201,34.768l-122.201,122.2v30.379l139.752-140.555
			c5.737,4.334,11.271,8.923,16.575,13.76L231.194,537.417l14.722,15.115l156.586-156.728c4.854,5.299,9.467,10.821,13.819,16.553
			L276.113,552.565l29.498-0.053l122.76-122.669c22.23,35.604,35.094,77.655,35.094,122.722H484.564z M371.132,367.277
			c-1.354-1.022-2.72-2.028-4.097-3.021c1.377,0.994,2.745,2,4.1,3.023C371.134,367.278,371.133,367.277,371.132,367.277z
			 M567.624,587.126h-4.137c-0.175,0-0.293,0.118-0.293,0.29v1.553c0,0.175,0.118,0.293,0.293,0.293h1.964
			c0.118,0,0.179,0.057,0.179,0.175c0,4.063-0.092,4.532-0.267,5.087c-0.293,0.907-1.084,1.403-2.138,1.403
			c-1.059,0-1.85-0.496-2.143-1.403c-0.205-0.584-0.263-1.023-0.263-6.578c0-5.557,0.058-5.996,0.263-6.58
			c0.293-0.907,1.054-1.403,2.111-1.403c1.438,0,2.2,0.905,2.405,2.545c0.03,0.175,0.145,0.262,0.35,0.231l1.645-0.321
			c0.175-0.028,0.235-0.175,0.205-0.35c-0.323-2.779-1.876-4.329-4.635-4.329c-2.256,0-3.751,1.054-4.368,2.953
			c-0.293,0.879-0.38,1.609-0.38,7.254c0,5.643,0.087,6.373,0.38,7.252c0.617,1.899,2.112,2.953,4.368,2.953
			c2.261,0,3.782-1.054,4.372-2.953c0.293-0.879,0.381-1.609,0.381-6.933v-0.849C567.917,587.244,567.799,587.126,567.624,587.126z"
			/>
	</g>
</g>
</svg>
