<?xml version="1.0" encoding="utf-8"?>
<!-- Generator: Adobe Illustrator 15.1.0, SVG Export Plug-In . SVG Version: 6.00 Build 0)  -->
<!DOCTYPE svg PUBLIC "-//W3C//DTD SVG 1.1//EN" "http://www.w3.org/Graphics/SVG/1.1/DTD/svg11.dtd">
<svg version="1.1" id="Layer_1" xmlns="http://www.w3.org/2000/svg" xmlns:xlink="http://www.w3.org/1999/xlink" x="0px" y="0px"
	 width="250px" height="250px" viewBox="275 275 250 250" enable-background="new 275 275 250 250" xml:space="preserve">
<g>
	<g>
		<path fill="#FFFFFF" d="M370.589,416.698c0,2.288-1.913,4.199-4.202,4.199c-2.289,0-4.202-1.911-4.202-4.199v-3.946h-8.403v3.946
			c0,5.434,3.75,10.366,8.614,12.081c1.334,0.478,2.561,0.516,3.991,0.516c1.431,0,3.067-0.038,4.401-0.516
			c4.865-1.715,8.205-6.647,8.205-12.081v-3.946h-8.404L370.589,416.698L370.589,416.698z M404.255,429.514h8.394l0.041-25.166
			h-8.404L404.255,429.514z M387.468,429.514h8.394l0.021-25.166h-8.403L387.468,429.514z M437.89,416.753
			c0,2.289-1.907,4.196-4.197,4.196c-2.288,0-4.196-1.907-4.196-4.196v-4.103h-8.393v4.103c0,5.437,3.529,10.11,8.393,11.826
			c1.336,0.478,2.671,0.762,4.196,0.762h0.096c5.437-0.094,10.015-3.528,11.731-8.392c0.478-1.336,0.765-2.767,0.765-4.195
			l0.019-4.002h-8.404L437.89,416.753z M332.773,421.06c-2.288,0-4.162-2.092-4.162-4.382l-0.039-12.427h-8.404l0.051,12.427
			c0,5.438,3.529,10.111,8.393,11.828c1.336,0.477,2.637,0.956,4.162,0.956c1.431,0,12.605,0,12.605,0v-8.402h-8.403
			C336.974,421.06,333.931,421.06,332.773,421.06z M471.432,416.916c0,2.283-1.913,4.145-4.204,4.145h-4.538l0,0l-7.899,0.005v8.397
			h7.899l4.542,0.002c1.433,0,2.864-0.285,4.2-0.76c4.868-1.711,8.306-6.274,8.401-11.693v-0.094c0-0.028,0-12.664,0-12.664h-8.404
			C471.429,404.252,471.432,416.886,471.432,416.916z M370.787,371.484c-1.334-0.477-2.765-0.763-4.195-0.763
			c-1.431,0-2.862,0.286-4.196,0.763c-4.865,1.715-8.615,6.185-8.615,11.712v21.153h8.403l0.084-21.01
			c0-2.288,1.913-4.201,4.201-4.201c2.29,0,4.203,1.914,4.203,4.201l-0.083,21.01h8.403v-21.153
			C378.992,377.669,375.653,373.199,370.787,371.484z M404.255,371.406c-1.336-0.477-2.766-0.763-4.197-0.763
			c-1.43,0-2.861,0.286-4.196,0.763c-4.864,1.717-8.394,6.39-8.394,11.828l0.011,12.711h25.211l-0.041-12.711
			C412.649,377.796,409.119,373.122,404.255,371.406z M404.255,387.446h-8.394v-4.212c0-2.29,1.908-4.197,4.197-4.197
			c2.29,0,4.197,1.907,4.197,4.197V387.446L404.255,387.446z M445.52,378.879c-1.717-4.863-6.295-8.298-11.732-8.394h-0.095
			c-1.525,0-2.86,0.286-4.196,0.763c-4.863,1.717-8.393,6.295-8.393,11.732v1.466c0,1.622,0.572,3.147,1.525,4.387l12.632,15.521
			l10.453-0.006l-15.549-19.521c-0.611-0.734-0.669-1.752-0.669-1.752c0-2.289,1.908-4.196,4.196-4.196
			c2.29,0,4.197,1.907,4.197,4.196l0.009,4.466h8.404l-0.019-4.466C446.284,381.645,445.997,380.214,445.52,378.879z
			 M454.622,370.638v8.404l12.605,8.403h-12.605v25.21h8.404v-16.808h16.638v-8.403l-12.437-8.403h12.605v-8.404H454.622z
			 M320.167,379.042h16.807v33.614h8.403v-42.018h-25.21V379.042z"/>
	</g>
</g>
</svg>
