<?xml version="1.0" encoding="utf-8"?>
<!-- Generator: Adobe Illustrator 15.1.0, SVG Export Plug-In . SVG Version: 6.00 Build 0)  -->
<!DOCTYPE svg PUBLIC "-//W3C//DTD SVG 1.1//EN" "http://www.w3.org/Graphics/SVG/1.1/DTD/svg11.dtd">
<svg version="1.1" id="Layer_1" xmlns="http://www.w3.org/2000/svg" xmlns:xlink="http://www.w3.org/1999/xlink" x="0px" y="0px"
	 width="250px" height="250px" viewBox="275 275 250 250" enable-background="new 275 275 250 250" xml:space="preserve">
<g>
	<g>
		<path fill="#FFFFFF" d="M379.455,419.65c-8.479,0-15.354-6.872-15.354-15.351c0-8.479,6.874-15.352,15.354-15.352
			c3.369,0,6.483,1.084,9.015,2.925l0.058-0.059c0.448,0.383,1.029,0.615,1.666,0.615c1.415,0,2.563-1.142,2.563-2.552
			c0-0.636-0.237-1.219-0.626-1.666l0.025-0.025c-0.049-0.038-0.1-0.072-0.149-0.111c-0.185-0.184-0.398-0.339-0.632-0.46
			c-3.319-2.316-7.352-3.681-11.707-3.681c-11.309,0-20.477,9.165-20.477,20.469c0,11.306,9.167,20.469,20.477,20.469
			c4.727,0,9.077-1.605,12.543-4.294l-3.808-3.808C385.885,418.582,382.796,419.65,379.455,419.65z M392.408,371.175
			c0-1.419-1.149-2.569-2.566-2.569c-1.418,0-12.739-0.024-12.739-0.024v5.118c0,0,11.792,0.045,12.739,0.045
			C391.259,373.744,392.408,372.594,392.408,371.175z M418.041,389.282v-15.483c2.825,0.005,5.113,2.294,5.123,5.121
			c0,0.006-0.001,0.012-0.001,0.017c0,1.421,1.149,2.572,2.568,2.572c1.418,0,2.567-1.151,2.567-2.572
			c0-0.007-0.002-0.015-0.002-0.022c-0.012-5.667-4.604-10.255-10.268-10.255c-5.671,0-5.106,0.025-5.106,0.025v16.584
			c-2.603,1.03-4.947,2.571-6.9,4.507c-1.769,1.755-3.949,5.101-5.757,8.14l-3.844,6.998c-0.694,1.487-2.571,5.386-4.462,8.165
			l3.851,3.851c1.438-1.885,2.969-4.319,4.278-6.543l0.005,0.008l3.518-6.42c0.79-1.708,3.823-8.065,6.24-10.464
			C412.036,391.342,414.873,389.831,418.041,389.282z M468.187,392.873l-60.872-61.054c-3.964-3.964-10.39-3.964-14.354,0
			l-61.148,61.054c-3.964,3.965-3.964,10.392,0,14.356l61.045,60.95c3.964,3.965,10.391,3.965,14.354,0l60.974-60.95
			C472.152,403.265,472.152,396.838,468.187,392.873z M464.613,403.621l-60.967,60.965c-1.998,2-5.238,2-7.236,0l-60.966-60.965
			c-1.999-1.999-1.999-5.24,0-7.238l60.966-60.966c1.999-1.999,5.238-1.999,7.236,0l60.967,60.966
			C466.611,398.383,466.611,401.623,464.613,403.621z M423.157,384.012v5.241c7.311,1.183,12.892,7.514,12.892,15.151
			c0,8.479-6.88,15.352-15.367,15.352c-3.312,0-6.375-1.049-8.884-2.826l-0.008,0.009c-0.466-0.479-1.116-0.779-1.837-0.779
			c-1.415,0-2.564,1.148-2.564,2.563c0,0.723,0.3,1.372,0.779,1.838l-0.063,0.062c3.438,2.6,7.718,4.146,12.362,4.146
			c11.32,0,20.499-9.163,20.499-20.469C440.966,393.907,433.207,385.328,423.157,384.012z"/>
	</g>
</g>
</svg>
