<?xml version="1.0" encoding="utf-8"?>
<!-- Generator: Adobe Illustrator 15.1.0, SVG Export Plug-In . SVG Version: 6.00 Build 0)  -->
<!DOCTYPE svg PUBLIC "-//W3C//DTD SVG 1.1//EN" "http://www.w3.org/Graphics/SVG/1.1/DTD/svg11.dtd">
<svg version="1.1" id="Layer_1" xmlns="http://www.w3.org/2000/svg" xmlns:xlink="http://www.w3.org/1999/xlink" x="0px" y="0px"
	 width="250px" height="250px" viewBox="0 0 250 250" enable-background="new 0 0 250 250" xml:space="preserve">
<g>
	<g>
		<path fill="#FFFFFF" d="M200.294,136.434c-0.863-7.564-7.58-17.175-9.666-20.431c-15.324-23.912-34.833-25.428-59.944-25.428
			c-2.6,0-6.177,0.027-9.859,0.065c1.118-1.197,2.115-2.519,2.963-3.944c2.715-4.559,3.829-10.011,3.133-15.352
			c-0.164-1.253-0.44-2.487-0.709-3.683c-0.11-0.496-0.219-0.978-0.312-1.437c-2.11-5.255-5.046-9.457-8.728-12.489
			c-3.732-3.076-8.358-5.052-13.749-5.874c-4.792-0.731-9.536-0.316-14.101,1.232c-7.832,2.656-14.132,8.303-17.865,15.555
			c-2.18,3.597-3.83,7.04-4.705,8.733c-13.034,25.234-4.592,42.898,7.963,64.66c1.296,2.244,3.102,5.319,4.971,8.483
			c-3.142-0.731-6.442-0.792-9.722-0.132c-1.06,0.211-2.115,0.493-3.135,0.842c-5.531,1.876-10.325,5.699-13.496,10.767
			c-3.203,5.119-4.599,11.286-3.928,17.363c0.755,6.84,3.915,13.286,8.898,18.153c3.07,2.995,6.75,5.311,10.756,6.814
			c6.975,3.048,18.675,2.031,22.542,1.851c28.357-1.322,39.424-17.47,51.979-39.23c1.317-2.283,3.112-5.449,4.946-8.705
			c1.076,3.48,2.977,6.74,5.56,9.458c3.689,3.879,8.603,6.494,13.838,7.361c4.428,0.735,9.021,0.359,13.283-1.083
			c9.112-3.092,16.037-10.616,18.522-20.134C200.886,145.434,201.059,140.867,200.294,136.434z M83.311,61.001
			c2.494-2.303,5.352-4.012,8.494-5.078c9.154-3.105,18.997-0.11,24.493,7.455c5.657,7.787,4.625,18.071-2.4,23.921
			c-1.364,1.135-2.907,2-4.583,2.569c-5.028,1.705-10.225,0.478-13.562-3.205c-2.825-3.12-3.46-7.451-1.583-10.782
			c0.819-1.453,2.163-2.583,3.688-3.101c0.792-0.269,1.576-0.354,2.332-0.253c1.495,0.197,2.574,0.907,3.035,1.997
			c0.156,0.368,0.23,0.756,0.228,1.153c0,0.036-0.004,0.073-0.006,0.109c0.302,1.216,1.397,2.119,2.706,2.119
			c1.5,0,2.72-1.185,2.785-2.669c0.003-0.371,0.005-0.478,0.005-0.123c0,0.042-0.004,0.082-0.005,0.123
			c-0.001,0.065-0.002,0.141-0.002,0.223c0.23-1.496-0.016-3.136-0.812-4.563c-2.398-4.303-7.773-6.193-12.781-4.496
			c-0.593,0.202-1.177,0.454-1.735,0.749c-6.763,3.575-9.513,12.352-6.133,19.563c2.077,4.432,5.626,7.862,9.993,9.659
			c2.92,1.202,6.125,1.64,9.342,1.318c3.248-0.016,10.273-0.038,25.03-0.038c18.434,0,34.666,1.07,46.236,13.153
			c-3.886-1.297-8.133-1.932-12.94-1.926l-10.16,0.012c-16.234,0.021-33.023,0.041-49.535-0.01
			c-11.51-0.038-20.374-4.848-26.341-14.298C72.235,83.718,74.007,69.594,83.311,61.001z M140.438,116.289l-24.308,42.129
			l-24.308-42.129H140.438z M96.803,189.227c-2.79,2.097-5.669,3.655-8.56,4.637c-6.046,2.051-12.295,1.646-18.575-1.204
			c-10.166-4.611-15.422-15.952-12.231-26.38c1.755-5.733,6.115-10.281,11.662-12.161c1.763-0.599,3.611-0.923,5.491-0.959
			c3.933-0.077,7.812,1.478,10.641,4.269c2.616,2.576,4.049,5.884,4.037,9.314c-0.017,4.552-2.632,8.494-6.506,9.808
			c-0.771,0.262-1.576,0.412-2.395,0.448c-2.569,0.112-4.587-0.895-5.682-2.829c-0.71-1.259-0.589-2.911-0.503-3.564
			c0.042-0.318,0.148-0.617,0.3-0.886c-0.163-0.016-0.172-0.077,0.042-0.2c0.057-0.034,0.11-0.07,0.164-0.106
			c0.163-0.205,0.36-0.383,0.583-0.526c0.727-0.874,0.875-2.142,0.274-3.182c-0.597-1.034-1.752-1.537-2.863-1.354
			c-0.029,0.009-0.06,0.018-0.088,0.029c-3.805,1.473-5.977,6.099-4.843,10.313c1.82,6.763,9.048,10.749,16.112,8.882
			c0.375-0.1,0.749-0.211,1.114-0.334c8.058-2.734,12.817-11.477,11.072-20.341c-0.376-1.914-1.031-3.742-1.928-5.444l0.025-0.017
			c0,0-1.693-2.815-13.879-23.937c-9.174-15.9-16.341-30.439-11.799-46.418c0.878,4.115,2.539,8.243,5.003,12.458
			c9.867,16.878,19.808,34.107,30.39,52.673c3.356,5.887,4.465,12.997,3.125,20.024C105.645,179.268,102.027,185.303,96.803,189.227
			z M181.502,161.993c-0.93,0.472-1.888,0.877-2.849,1.202c-8.843,3.002-18.246-0.655-22.36-8.695
			c-3.431-6.706-1.1-15.265,5.091-18.692c0.603-0.335,1.235-0.614,1.881-0.833c4.309-1.464,8.757-0.169,11.068,3.216
			c1.375,2.015,1.677,4.068,0.896,6.105c-0.516,1.345-1.387,2.235-2.588,2.643c-0.275,0.096-0.569,0.161-0.874,0.2
			c-0.812,0.104-1.519-0.062-2.072-0.464c-1.109-0.178-2.263,0.325-2.858,1.358c-0.541,0.938-0.473,2.056,0.077,2.909
			c1.662,1.746,4.332,2.645,6.847,2.186c0.502-0.094,0.996-0.222,1.471-0.383c5.03-1.705,8.078-7.236,7.089-12.867
			c-1.425-8.113-9.222-13.585-17.749-12.456c-1.25,0.164-2.482,0.453-3.664,0.854c-4.35,1.475-7.888,4.397-10.234,8.149
			l-0.014-0.007c0,0-0.071,0.127-0.296,0.525c-0.094,0.159-0.186,0.321-0.274,0.482c-1.148,2.023-4.43,7.77-13.21,22.988
			c-9.136,15.833-18.097,29.268-34.072,33.383c2.711-2.395,5.025-5.237,6.916-8.511c3.872-6.701,7.791-13.53,11.581-20.133
			c6.395-11.145,13.009-22.67,19.607-33.953c3.871-6.617,9.205-11.118,15.851-13.371c2.752-0.933,5.739-1.474,8.882-1.608
			c12.449-0.528,23.253,6.964,26.88,18.642C195.867,145.637,191.234,157.045,181.502,161.993z"/>
	</g>
</g>
</svg>
