<?xml version="1.0" encoding="utf-8"?>
<!-- Generator: Adobe Illustrator 15.1.0, SVG Export Plug-In . SVG Version: 6.00 Build 0)  -->
<!DOCTYPE svg PUBLIC "-//W3C//DTD SVG 1.1//EN" "http://www.w3.org/Graphics/SVG/1.1/DTD/svg11.dtd">
<svg version="1.1" id="Layer_1" xmlns="http://www.w3.org/2000/svg" xmlns:xlink="http://www.w3.org/1999/xlink" x="0px" y="0px"
	 width="800px" height="800px" viewBox="0 0 800 800" enable-background="new 0 0 800 800" xml:space="preserve">
<rect fill="#1B1817" width="800" height="800"/>
<g>
	<g>
		<g>
			<path fill-rule="evenodd" clip-rule="evenodd" fill="#FFFFFF" d="M353.542,544.588c-0.403,0.204-0.816,0.309-1.244,0.309
				c-0.549,0-1.044-0.099-1.486-0.299c-0.442-0.199-0.824-0.474-1.142-0.82c-0.318-0.351-0.563-0.76-0.738-1.238
				c-0.175-0.479-0.263-1.001-0.263-1.567c0-0.526,0.087-1.019,0.263-1.479c0.175-0.456,0.42-0.856,0.738-1.199
				c0.317-0.343,0.699-0.612,1.142-0.807c0.441-0.193,0.937-0.291,1.486-0.291c0.367,0,0.731,0.07,1.095,0.209
				c0.361,0.141,0.738,0.417,1.126,0.835l1.462-1.073c-0.527-0.607-1.095-1.036-1.708-1.289c-0.612-0.255-1.277-0.382-1.993-0.382
				c-0.816,0-1.564,0.131-2.246,0.396c-0.68,0.264-1.268,0.639-1.758,1.127c-0.494,0.486-0.879,1.076-1.156,1.769
				c-0.279,0.688-0.418,1.459-0.418,2.305c0,0.825,0.139,1.575,0.418,2.253c0.277,0.679,0.663,1.256,1.156,1.739
				c0.49,0.48,1.078,0.854,1.758,1.117c0.682,0.264,1.43,0.396,2.246,0.396c0.777,0,1.508-0.151,2.193-0.447
				c0.687-0.299,1.27-0.774,1.746-1.433l-1.552-1.104C354.322,544.062,353.945,544.387,353.542,544.588z M136.592,358.025h9.699
				v42.672h11.712v-42.672h9.699v-10.146h-31.11V358.025z M334.08,543.612h-0.031l-5.117-7.846h-2.492v10.561h1.88v-8.102h0.029
				l5.223,8.102h2.387v-10.561h-1.88V543.612z M194.036,347.879l-12.832,52.818h11.936l2.164-9.624h11.863l2.164,9.624h12.458
				l-12.756-52.818H194.036z M196.646,381.823l4.476-22.456h0.298l4.252,22.456H196.646z M241.334,400.697h12.009v-52.818h-12.009
				V400.697z M314.117,536.973c-0.498-0.486-1.091-0.857-1.775-1.11c-0.688-0.255-1.442-0.375-2.269-0.366
				c-0.816,0-1.564,0.131-2.246,0.396c-0.68,0.264-1.268,0.639-1.761,1.127c-0.49,0.486-0.875,1.076-1.156,1.769
				c-0.276,0.688-0.417,1.459-0.417,2.305c0,0.825,0.141,1.575,0.417,2.253c0.28,0.679,0.666,1.256,1.156,1.739
				c0.494,0.48,1.081,0.854,1.761,1.117c0.682,0.264,1.43,0.396,2.246,0.396c0.826-0.01,1.581-0.153,2.269-0.425
				c0.684-0.274,1.277-0.654,1.775-1.142c0.498-0.487,0.886-1.068,1.163-1.746c0.279-0.675,0.417-1.425,0.417-2.253
				c0-0.846-0.138-1.61-0.417-2.298C315.003,538.049,314.614,537.461,314.117,536.973z M313.468,542.539
				c-0.174,0.479-0.42,0.888-0.738,1.238c-0.321,0.347-0.703,0.621-1.149,0.82c-0.45,0.2-0.945,0.299-1.493,0.299
				c-0.547,0-1.042-0.099-1.484-0.299c-0.442-0.199-0.824-0.474-1.142-0.82c-0.318-0.351-0.565-0.76-0.738-1.238
				c-0.174-0.479-0.263-1.001-0.263-1.567c0-0.526,0.088-1.019,0.263-1.479c0.173-0.456,0.42-0.856,0.738-1.199
				c0.317-0.343,0.699-0.612,1.142-0.807c0.441-0.193,0.937-0.291,1.484-0.291c0.548,0,1.043,0.098,1.493,0.291
				c0.446,0.194,0.828,0.464,1.149,0.807c0.317,0.343,0.563,0.743,0.738,1.199c0.172,0.46,0.26,0.952,0.26,1.479
				C313.728,541.538,313.641,542.06,313.468,542.539z M292.161,544.588c-0.403,0.204-0.818,0.309-1.246,0.309
				c-0.546,0-1.042-0.099-1.484-0.299c-0.442-0.199-0.823-0.474-1.142-0.82c-0.318-0.351-0.565-0.76-0.738-1.238
				c-0.175-0.479-0.262-1.001-0.262-1.567c0-0.526,0.087-1.019,0.262-1.479c0.172-0.456,0.42-0.856,0.738-1.199
				c0.319-0.343,0.699-0.612,1.142-0.807c0.442-0.193,0.938-0.291,1.484-0.291c0.37,0,0.733,0.07,1.097,0.209
				c0.362,0.141,0.739,0.417,1.128,0.835l1.461-1.073c-0.527-0.607-1.098-1.036-1.71-1.289c-0.612-0.255-1.274-0.382-1.99-0.382
				c-0.816,0-1.564,0.131-2.247,0.396c-0.68,0.264-1.268,0.639-1.76,1.127c-0.491,0.486-0.877,1.076-1.156,1.769
				c-0.279,0.688-0.418,1.459-0.418,2.305c0,0.825,0.139,1.575,0.418,2.253c0.279,0.679,0.665,1.256,1.156,1.739
				c0.492,0.48,1.08,0.854,1.76,1.117c0.683,0.264,1.431,0.396,2.247,0.396c0.776,0,1.507-0.151,2.192-0.447
				c0.687-0.299,1.268-0.774,1.746-1.433l-1.552-1.104C292.94,544.062,292.564,544.387,292.161,544.588z M390.777,536.415
				c-0.359-0.236-0.774-0.401-1.246-0.501c-0.473-0.101-0.961-0.147-1.472-0.147h-3.55v10.561h1.88v-4.372h1.346
				c0.556,0,1.09-0.038,1.603-0.118c0.513-0.08,0.961-0.23,1.35-0.457c0.389-0.224,0.697-0.539,0.926-0.947
				c0.228-0.404,0.342-0.944,0.342-1.609c0-0.586-0.106-1.078-0.321-1.47C391.421,536.961,391.134,536.647,390.777,536.415z
				 M389.754,539.688c-0.155,0.198-0.354,0.349-0.597,0.448c-0.243,0.1-0.511,0.158-0.797,0.178
				c-0.29,0.022-0.568,0.031-0.837,0.031h-1.135v-2.97h1.346c0.248,0,0.504,0.015,0.774,0.046c0.267,0.029,0.513,0.095,0.731,0.199
				c0.219,0.105,0.398,0.255,0.537,0.449c0.138,0.191,0.209,0.454,0.209,0.782C389.986,539.212,389.908,539.488,389.754,539.688z
				 M368.321,541.762h4.85v-1.7h-4.85v-2.596h5.12v-1.699h-7v10.561h7.266v-1.7h-5.386V541.762z M401.504,537.466h3.239v8.861h1.879
				v-8.861h3.237v-1.699h-8.355V537.466z M510.107,541.762h4.85v-1.7h-4.85v-2.596h5.116v-1.699h-6.996v10.561h7.267v-1.7h-5.387
				V541.762z M504.685,313.152v-0.068h0.003c16.479,0,29.84-13.361,29.84-29.84c0-16.479-13.361-29.841-29.84-29.841
				c-0.647,0-1.287,0.028-1.924,0.068h-99.441c-1.307-0.085-2.611-0.086-3.908,0h-99.588c-0.637-0.041-1.277-0.068-1.924-0.068
				c-16.479,0-29.84,13.361-29.84,29.841c0,16.275,13.035,29.499,29.231,29.824v0.084h4.783
				c14.498,2.036,25.655,14.484,25.655,29.542c0,5.338-1.408,10.344-3.863,14.679l0.123,0.205l-51.422,89.064l0.008,0.005
				c-0.051,0.086-0.105,0.168-0.156,0.255c-8.243,14.271-3.352,32.521,10.92,40.762c14.274,8.241,32.525,3.351,40.764-10.921
				c0.05-0.087,0.094-0.177,0.144-0.264l0.007,0.004l52.629-91.158c5.413-7.556,14.249-12.492,24.252-12.492
				c11.044,0,20.679,6.003,25.839,14.92h0.116l51.228,88.73l0.006-0.003c0.049,0.087,0.093,0.176,0.143,0.263
				c8.241,14.271,26.491,19.162,40.763,10.921c14.272-8.24,19.163-26.49,10.924-40.762c-0.051-0.087-0.105-0.17-0.156-0.256
				l0.006-0.004l-51.713-89.571l0.043-0.072c-2.225-4.177-3.49-8.944-3.49-14.007C474.844,326.514,488.203,313.152,504.685,313.152z
				 M401.101,342.381c-16.48,0-29.841-13.361-29.841-29.841c0-16.479,13.361-29.84,29.841-29.84c16.479,0,29.84,13.361,29.84,29.84
				C430.94,329.02,417.58,342.381,401.101,342.381z M605.833,347.879l-12.829,52.818h11.936l2.164-9.624h11.86l2.163,9.624h12.458
				l-12.756-52.818H605.833z M608.446,381.823l4.476-22.456h0.299l4.252,22.456H608.446z M653.132,347.879v52.818h12.011v-52.818
				H653.132z M548.391,358.025h9.697v42.672h11.715v-42.672h9.697v-10.146h-31.109V358.025z M449.904,537.466h3.236v8.861h1.88
				v-8.861h3.24v-1.699h-8.356V537.466z M438.775,540.808c-0.369-0.229-0.772-0.408-1.21-0.537s-0.841-0.263-1.209-0.403
				c-0.367-0.139-0.676-0.303-0.924-0.493c-0.249-0.189-0.373-0.46-0.373-0.82c0-0.238,0.049-0.444,0.15-0.619
				c0.097-0.173,0.231-0.316,0.394-0.426c0.164-0.106,0.349-0.187,0.553-0.237c0.202-0.049,0.413-0.075,0.635-0.075
				c0.366,0,0.717,0.068,1.052,0.201c0.333,0.134,0.597,0.345,0.797,0.634l1.374-1.447c-0.418-0.387-0.89-0.666-1.411-0.835
				c-0.522-0.168-1.062-0.253-1.62-0.253c-0.485,0-0.964,0.066-1.43,0.194c-0.469,0.129-0.884,0.325-1.246,0.591
				c-0.364,0.262-0.658,0.592-0.881,0.99c-0.224,0.397-0.335,0.87-0.335,1.418c0,0.627,0.123,1.128,0.373,1.499
				c0.248,0.371,0.557,0.672,0.926,0.896c0.366,0.223,0.77,0.4,1.207,0.529c0.437,0.129,0.839,0.268,1.208,0.41
				c0.368,0.145,0.676,0.32,0.926,0.53c0.248,0.209,0.372,0.507,0.372,0.896c0,0.238-0.054,0.45-0.163,0.634
				c-0.109,0.185-0.255,0.336-0.432,0.454c-0.18,0.119-0.38,0.209-0.598,0.27c-0.219,0.059-0.438,0.09-0.658,0.09
				c-0.415,0-0.811-0.097-1.186-0.291c-0.371-0.194-0.673-0.467-0.903-0.813l-1.416,1.374c0.438,0.516,0.959,0.884,1.566,1.104
				c0.608,0.218,1.239,0.327,1.895,0.327c0.517,0,1.011-0.071,1.477-0.209c0.469-0.138,0.879-0.347,1.23-0.626
				c0.355-0.279,0.635-0.629,0.844-1.052c0.208-0.423,0.312-0.918,0.312-1.483c0-0.63-0.124-1.132-0.371-1.509
				C439.45,541.34,439.142,541.036,438.775,540.808z M496.851,540.717c0.422-0.517,0.634-1.157,0.634-1.923
				c0-0.597-0.109-1.09-0.328-1.479c-0.219-0.386-0.513-0.694-0.879-0.923c-0.368-0.23-0.789-0.394-1.261-0.486
				c-0.473-0.095-0.963-0.14-1.471-0.14h-3.67v10.561h1.88v-4.477h1.372l2.448,4.477h2.268l-2.805-4.67
				C495.823,541.548,496.429,541.234,496.851,540.717z M494.024,540.203c-0.271,0.025-0.537,0.036-0.808,0.036h-1.461v-2.863h1.627
				c0.238,0,0.482,0.015,0.737,0.046c0.253,0.029,0.484,0.09,0.692,0.185c0.209,0.096,0.38,0.235,0.508,0.425
				c0.132,0.19,0.194,0.439,0.194,0.746c0,0.35-0.067,0.621-0.209,0.813c-0.138,0.193-0.32,0.338-0.544,0.435
				C494.539,540.117,494.293,540.179,494.024,540.203z M477.552,536.973c-0.498-0.486-1.09-0.857-1.774-1.11
				c-0.688-0.255-1.442-0.375-2.269-0.366c-0.816,0-1.564,0.131-2.246,0.396c-0.681,0.264-1.269,0.639-1.762,1.127
				c-0.493,0.486-0.877,1.076-1.155,1.769c-0.279,0.688-0.418,1.459-0.418,2.305c0,0.825,0.139,1.575,0.418,2.253
				c0.278,0.679,0.662,1.256,1.155,1.739c0.493,0.48,1.081,0.854,1.762,1.117c0.682,0.264,1.43,0.396,2.246,0.396
				c0.826-0.01,1.581-0.153,2.269-0.425c0.685-0.274,1.276-0.654,1.774-1.142s0.885-1.068,1.163-1.746
				c0.279-0.675,0.418-1.425,0.418-2.253c0-0.846-0.139-1.61-0.418-2.298C478.437,538.049,478.05,537.461,477.552,536.973z
				 M476.903,542.539c-0.175,0.479-0.42,0.888-0.737,1.238c-0.319,0.347-0.703,0.621-1.149,0.82c-0.449,0.2-0.947,0.299-1.494,0.299
				c-0.546,0-1.041-0.099-1.483-0.299c-0.441-0.199-0.822-0.474-1.141-0.82c-0.318-0.351-0.566-0.76-0.738-1.238
				c-0.176-0.479-0.263-1.001-0.263-1.567c0-0.526,0.087-1.019,0.263-1.479c0.172-0.456,0.42-0.856,0.738-1.199
				s0.699-0.612,1.141-0.807c0.442-0.193,0.938-0.291,1.483-0.291c0.547,0,1.045,0.098,1.494,0.291
				c0.446,0.194,0.83,0.464,1.149,0.807c0.317,0.343,0.562,0.743,0.737,1.199c0.173,0.46,0.26,0.952,0.26,1.479
				C477.163,541.538,477.076,542.06,476.903,542.539z"/>
		</g>
	</g>
</g>
</svg>
