<?xml version="1.0" encoding="utf-8"?>
<!-- Generator: Adobe Illustrator 15.1.0, SVG Export Plug-In . SVG Version: 6.00 Build 0)  -->
<!DOCTYPE svg PUBLIC "-//W3C//DTD SVG 1.1//EN" "http://www.w3.org/Graphics/SVG/1.1/DTD/svg11.dtd">
<svg version="1.1" id="Layer_1" xmlns="http://www.w3.org/2000/svg" xmlns:xlink="http://www.w3.org/1999/xlink" x="0px" y="0px"
	 width="250px" height="250px" viewBox="275 275 250 250" enable-background="new 275 275 250 250" xml:space="preserve">
<g>
	<g>
		<g>
			<path fill="#FFFFFF" d="M386.248,442.013c-0.116,0.061-0.236,0.09-0.361,0.09c-0.159,0-0.303-0.028-0.432-0.087
				c-0.129-0.058-0.24-0.138-0.332-0.238c-0.092-0.102-0.164-0.221-0.215-0.359c-0.051-0.14-0.076-0.292-0.076-0.456
				c0-0.152,0.025-0.296,0.076-0.43c0.051-0.133,0.123-0.248,0.215-0.348c0.092-0.101,0.203-0.178,0.332-0.235
				c0.128-0.056,0.272-0.084,0.432-0.084c0.106,0,0.212,0.021,0.318,0.061c0.105,0.041,0.214,0.121,0.327,0.243l0.425-0.312
				c-0.153-0.178-0.318-0.301-0.497-0.375c-0.178-0.073-0.371-0.111-0.579-0.111c-0.237,0-0.454,0.039-0.653,0.115
				c-0.197,0.076-0.368,0.187-0.51,0.327c-0.144,0.142-0.255,0.312-0.336,0.514c-0.081,0.2-0.121,0.425-0.121,0.67
				c0,0.24,0.041,0.459,0.121,0.655c0.081,0.197,0.192,0.365,0.336,0.505c0.142,0.14,0.312,0.248,0.51,0.325
				c0.2,0.076,0.416,0.114,0.653,0.114c0.226,0,0.438-0.043,0.637-0.129c0.199-0.087,0.369-0.226,0.507-0.417l-0.451-0.321
				C386.475,441.861,386.366,441.956,386.248,442.013z M323.207,387.802h2.818v12.4h3.403v-12.4h2.818v-2.948h-9.04V387.802
				L323.207,387.802z M380.593,441.73h-0.009l-1.487-2.28h-0.724v3.069h0.546v-2.354h0.009l1.517,2.354h0.694v-3.069h-0.546V441.73
				L380.593,441.73z M339.9,384.854l-3.729,15.348h3.468l0.628-2.796h3.447l0.629,2.796h3.62l-3.707-15.348H339.9z M340.657,394.718
				l1.301-6.525h0.087l1.235,6.525H340.657z M353.643,400.202h3.489v-15.348h-3.489V400.202z M374.792,439.801
				c-0.145-0.141-0.317-0.249-0.516-0.322c-0.2-0.074-0.419-0.109-0.66-0.106c-0.237,0-0.454,0.039-0.653,0.115
				c-0.197,0.076-0.368,0.187-0.511,0.327c-0.143,0.142-0.254,0.312-0.336,0.514c-0.08,0.2-0.121,0.425-0.121,0.67
				c0,0.24,0.041,0.459,0.121,0.655c0.082,0.197,0.194,0.365,0.336,0.505c0.144,0.14,0.314,0.248,0.511,0.325
				c0.199,0.076,0.416,0.114,0.653,0.114c0.24-0.002,0.459-0.044,0.66-0.123c0.199-0.08,0.371-0.189,0.516-0.332
				c0.145-0.141,0.258-0.311,0.338-0.507c0.081-0.196,0.122-0.414,0.122-0.655c0-0.245-0.041-0.468-0.122-0.667
				C375.05,440.114,374.937,439.943,374.792,439.801z M374.604,441.419c-0.05,0.139-0.122,0.258-0.215,0.359
				c-0.093,0.101-0.204,0.18-0.334,0.238c-0.13,0.058-0.274,0.087-0.434,0.087c-0.159,0-0.302-0.029-0.431-0.087
				c-0.128-0.059-0.239-0.139-0.332-0.238c-0.093-0.103-0.165-0.221-0.215-0.359c-0.05-0.14-0.076-0.292-0.076-0.456
				c0-0.152,0.025-0.296,0.076-0.43c0.05-0.133,0.122-0.249,0.215-0.349c0.092-0.1,0.203-0.177,0.332-0.234
				c0.128-0.056,0.272-0.085,0.431-0.085c0.159,0,0.303,0.029,0.434,0.085c0.13,0.058,0.241,0.135,0.334,0.234
				c0.092,0.1,0.164,0.216,0.215,0.349c0.05,0.134,0.075,0.277,0.075,0.43C374.679,441.127,374.654,441.279,374.604,441.419z
				 M368.413,442.013c-0.117,0.061-0.238,0.09-0.363,0.09c-0.158,0-0.303-0.028-0.431-0.087c-0.128-0.058-0.239-0.138-0.332-0.238
				c-0.092-0.102-0.164-0.221-0.214-0.359c-0.051-0.14-0.076-0.292-0.076-0.456c0-0.152,0.025-0.296,0.076-0.43
				c0.05-0.133,0.122-0.248,0.214-0.348c0.093-0.101,0.203-0.178,0.332-0.235c0.128-0.056,0.273-0.084,0.431-0.084
				c0.108,0,0.213,0.021,0.319,0.061c0.105,0.041,0.215,0.121,0.328,0.243l0.424-0.312c-0.153-0.178-0.318-0.301-0.497-0.375
				c-0.178-0.073-0.37-0.111-0.578-0.111c-0.237,0-0.455,0.039-0.653,0.115c-0.198,0.076-0.369,0.187-0.511,0.327
				c-0.143,0.142-0.255,0.312-0.336,0.514c-0.081,0.2-0.121,0.425-0.121,0.67c0,0.24,0.041,0.459,0.121,0.655
				c0.081,0.197,0.193,0.365,0.336,0.505c0.143,0.14,0.313,0.248,0.511,0.325c0.198,0.076,0.416,0.114,0.653,0.114
				c0.226,0,0.438-0.043,0.637-0.129c0.199-0.087,0.368-0.226,0.507-0.417l-0.451-0.321
				C368.638,441.861,368.53,441.956,368.413,442.013z M397.068,439.638c-0.104-0.068-0.224-0.116-0.361-0.146
				c-0.138-0.029-0.279-0.043-0.428-0.043h-1.031v3.069h0.546v-1.271h0.391c0.161,0,0.316-0.011,0.466-0.034
				s0.279-0.067,0.392-0.133c0.113-0.065,0.203-0.156,0.269-0.275c0.066-0.117,0.1-0.274,0.1-0.467c0-0.171-0.031-0.313-0.093-0.429
				C397.255,439.797,397.172,439.707,397.068,439.638z M396.771,440.591c-0.045,0.057-0.103,0.102-0.173,0.13
				c-0.071,0.028-0.148,0.045-0.231,0.052c-0.085,0.006-0.165,0.008-0.244,0.008h-0.329v-0.862h0.391
				c0.072,0,0.146,0.005,0.225,0.014c0.077,0.008,0.148,0.028,0.212,0.058c0.063,0.03,0.115,0.073,0.156,0.131
				c0.04,0.056,0.061,0.131,0.061,0.227C396.838,440.452,396.815,440.531,396.771,440.591z M390.543,441.193h1.409v-0.494h-1.409
				v-0.754h1.488v-0.495h-2.034v3.069h2.112v-0.494h-1.565V441.193z M400.186,439.945h0.94v2.574h0.546v-2.574h0.94v-0.495h-2.427
				V439.945z M431.742,441.193h1.41v-0.494h-1.41v-0.754h1.487v-0.495h-2.033v3.069h2.111v-0.494h-1.565V441.193L431.742,441.193z
				 M430.167,374.763v-0.02h0.001c4.788,0,8.671-3.883,8.671-8.671c0-4.789-3.883-8.671-8.671-8.671
				c-0.188,0-0.373,0.008-0.559,0.02h-28.896c-0.379-0.025-0.758-0.025-1.135,0H370.64c-0.185-0.012-0.371-0.02-0.559-0.02
				c-4.788,0-8.671,3.882-8.671,8.671c0,4.729,3.788,8.572,8.494,8.666v0.024h1.39c4.213,0.592,7.455,4.209,7.455,8.584
				c0,1.551-0.409,3.005-1.123,4.265l0.036,0.06l-14.942,25.88l0.003,0.001c-0.016,0.025-0.031,0.05-0.046,0.074
				c-2.395,4.147-0.974,9.45,3.173,11.845s9.451,0.975,11.845-3.173c0.014-0.025,0.027-0.052,0.042-0.077l0.002,0.001l15.292-26.488
				c1.573-2.195,4.141-3.63,7.047-3.63c3.208,0,6.008,1.744,7.508,4.335h0.034l14.885,25.783l0.002-0.001
				c0.015,0.026,0.027,0.052,0.042,0.077c2.395,4.146,7.697,5.567,11.845,3.173c4.147-2.394,5.568-7.697,3.174-11.845
				c-0.015-0.024-0.03-0.049-0.045-0.074l0.002-0.001l-15.026-26.028l0.012-0.021c-0.646-1.214-1.014-2.599-1.014-4.07
				C421.496,378.646,425.378,374.763,430.167,374.763z M400.069,383.256c-4.79,0-8.672-3.882-8.672-8.671s3.882-8.671,8.672-8.671
				c4.788,0,8.671,3.882,8.671,8.671C408.739,379.374,404.857,383.256,400.069,383.256z M459.559,384.854l-3.728,15.348h3.468
				l0.63-2.796h3.445l0.63,2.796h3.619l-3.707-15.348H459.559z M460.319,394.718l1.301-6.525h0.087l1.235,6.525H460.319z
				 M473.304,384.854v15.348h3.489v-15.348H473.304z M442.867,387.802h2.818v12.4h3.404v-12.4h2.817v-2.948h-9.04V387.802
				L442.867,387.802z M414.249,439.945h0.94v2.574h0.546v-2.574h0.942v-0.495h-2.429V439.945z M411.015,440.915
				c-0.106-0.066-0.224-0.118-0.352-0.155c-0.127-0.038-0.244-0.077-0.352-0.117c-0.105-0.041-0.196-0.088-0.269-0.144
				c-0.071-0.055-0.107-0.134-0.107-0.238c0-0.068,0.014-0.129,0.043-0.18s0.067-0.092,0.114-0.123
				c0.049-0.031,0.102-0.056,0.161-0.069c0.059-0.014,0.12-0.022,0.186-0.022c0.105,0,0.207,0.02,0.305,0.059
				c0.098,0.038,0.174,0.101,0.231,0.185l0.399-0.421c-0.121-0.112-0.259-0.194-0.41-0.243s-0.308-0.072-0.471-0.072
				c-0.141,0-0.28,0.019-0.415,0.056c-0.136,0.038-0.257,0.095-0.362,0.172c-0.106,0.077-0.19,0.172-0.257,0.288
				c-0.064,0.115-0.097,0.253-0.097,0.412c0,0.182,0.036,0.327,0.108,0.436c0.072,0.107,0.162,0.195,0.27,0.26
				c0.106,0.064,0.224,0.116,0.351,0.153c0.127,0.038,0.244,0.078,0.351,0.12c0.107,0.041,0.197,0.092,0.27,0.154
				c0.072,0.06,0.108,0.146,0.108,0.26c0,0.069-0.016,0.13-0.048,0.184c-0.031,0.055-0.074,0.098-0.126,0.133
				c-0.052,0.034-0.109,0.061-0.173,0.078c-0.064,0.017-0.128,0.026-0.191,0.026c-0.121,0-0.236-0.029-0.345-0.084
				c-0.108-0.058-0.195-0.137-0.263-0.237l-0.412,0.399c0.128,0.15,0.279,0.257,0.456,0.321c0.177,0.062,0.359,0.095,0.551,0.095
				c0.15,0,0.293-0.021,0.429-0.061c0.137-0.04,0.256-0.101,0.357-0.182c0.103-0.082,0.185-0.183,0.246-0.307
				c0.06-0.123,0.09-0.267,0.09-0.43c0-0.184-0.035-0.329-0.107-0.439C411.211,441.07,411.122,440.981,411.015,440.915z
				 M427.891,440.889c0.123-0.15,0.185-0.337,0.185-0.56c0-0.173-0.031-0.317-0.095-0.43c-0.064-0.112-0.15-0.201-0.256-0.268
				c-0.107-0.068-0.229-0.115-0.366-0.142c-0.138-0.028-0.28-0.041-0.428-0.041h-1.066v3.069h0.546v-1.302h0.399l0.711,1.302h0.659
				l-0.814-1.357C427.592,441.131,427.768,441.039,427.891,440.889z M427.07,440.74c-0.078,0.007-0.155,0.01-0.235,0.01h-0.424
				v-0.831h0.473c0.068,0,0.14,0.004,0.215,0.013c0.072,0.009,0.14,0.026,0.201,0.054c0.061,0.027,0.109,0.068,0.147,0.124
				c0.037,0.055,0.056,0.127,0.056,0.217c0,0.102-0.02,0.18-0.061,0.235c-0.041,0.057-0.094,0.099-0.158,0.127
				C427.219,440.714,427.149,440.732,427.07,440.74z M422.283,439.801c-0.145-0.141-0.316-0.249-0.516-0.322
				c-0.2-0.074-0.419-0.109-0.66-0.106c-0.236,0-0.454,0.039-0.651,0.115c-0.198,0.076-0.369,0.187-0.513,0.327
				c-0.144,0.142-0.255,0.312-0.335,0.514c-0.081,0.2-0.122,0.425-0.122,0.67c0,0.24,0.041,0.459,0.122,0.655
				c0.08,0.197,0.191,0.365,0.335,0.505s0.314,0.248,0.513,0.325c0.197,0.076,0.415,0.114,0.651,0.114
				c0.24-0.002,0.46-0.044,0.66-0.123c0.199-0.08,0.371-0.189,0.516-0.332c0.145-0.141,0.257-0.311,0.338-0.507
				s0.121-0.414,0.121-0.655c0-0.245-0.04-0.468-0.121-0.667S422.428,439.943,422.283,439.801z M422.094,441.419
				c-0.051,0.139-0.121,0.258-0.214,0.359c-0.092,0.101-0.204,0.18-0.334,0.238c-0.13,0.058-0.274,0.087-0.434,0.087
				c-0.158,0-0.303-0.029-0.432-0.087c-0.127-0.059-0.238-0.139-0.331-0.238c-0.092-0.103-0.164-0.221-0.215-0.359
				c-0.051-0.14-0.075-0.292-0.075-0.456c0-0.152,0.024-0.296,0.075-0.43c0.051-0.133,0.123-0.249,0.215-0.349
				c0.093-0.1,0.203-0.177,0.331-0.234c0.129-0.056,0.273-0.085,0.432-0.085c0.159,0,0.304,0.029,0.434,0.085
				c0.13,0.058,0.242,0.135,0.334,0.234c0.093,0.1,0.163,0.216,0.214,0.349c0.051,0.134,0.076,0.277,0.076,0.43
				C422.17,441.127,422.145,441.279,422.094,441.419z"/>
		</g>
	</g>
</g>
</svg>
