<?xml version="1.0" encoding="utf-8"?>
<!-- Generator: Adobe Illustrator 15.1.0, SVG Export Plug-In . SVG Version: 6.00 Build 0)  -->
<!DOCTYPE svg PUBLIC "-//W3C//DTD SVG 1.1//EN" "http://www.w3.org/Graphics/SVG/1.1/DTD/svg11.dtd">
<svg version="1.1" id="Layer_1" xmlns="http://www.w3.org/2000/svg" xmlns:xlink="http://www.w3.org/1999/xlink" x="0px" y="0px"
	 width="800px" height="800px" viewBox="0 0 800 800" enable-background="new 0 0 800 800" xml:space="preserve">
<rect fill="#1B1817" width="800" height="800"/>
<g>
	<g>
		<path fill-rule="evenodd" clip-rule="evenodd" fill="#FFFFFF" d="M328.023,561.143h-8.724c-0.218,0-0.359,0.143-0.359,0.358
			v23.698c0,0.216,0.141,0.359,0.359,0.359h8.724c4.202,0,7.002-1.867,8.151-5.422c0.395-1.22,0.609-2.551,0.609-6.786
			c0-4.238-0.214-5.567-0.609-6.787C335.025,563.01,332.225,561.143,328.023,561.143z M332.082,578.665
			c-0.718,2.189-2.371,3.087-5.065,3.087h-3.625c-0.146,0-0.216-0.07-0.216-0.214v-16.376c0-0.143,0.07-0.216,0.216-0.216h3.625
			c2.694,0,4.347,0.899,5.065,3.089c0.25,0.684,0.429,1.761,0.429,5.315C332.511,576.868,332.332,577.981,332.082,578.665z
			 M261.627,561.501c-0.07-0.216-0.213-0.358-0.465-0.358h-3.305c-0.25,0-0.396,0.143-0.466,0.358l-8.367,23.698
			c-0.07,0.216,0,0.359,0.252,0.359h3.484c0.25,0,0.393-0.107,0.465-0.359l1.615-4.74h9.194l1.615,4.74
			c0.07,0.252,0.216,0.359,0.466,0.359h3.521c0.25,0,0.322-0.144,0.25-0.359L261.627,561.501z M256.135,576.689l3.266-9.48h0.109
			l3.23,9.48H256.135z M224.104,561.143h-8.726c-0.216,0-0.359,0.143-0.359,0.358v23.698c0,0.216,0.143,0.359,0.359,0.359h8.726
			c4.2,0,7.002-1.867,8.151-5.422c0.396-1.22,0.609-2.551,0.609-6.786c0-4.238-0.213-5.567-0.609-6.787
			C231.106,563.01,228.303,561.143,224.104,561.143z M228.16,578.665c-0.718,2.189-2.369,3.087-5.062,3.087h-3.625
			c-0.146,0-0.218-0.07-0.218-0.214v-16.376c0-0.143,0.073-0.216,0.218-0.216h3.625c2.693,0,4.345,0.899,5.062,3.089
			c0.252,0.684,0.432,1.761,0.432,5.315C228.592,576.868,228.412,577.981,228.16,578.665z M301.163,561.143h-3.482
			c-0.252,0-0.396,0.106-0.504,0.358l-4.811,9.48h-0.109l-4.774-9.48c-0.109-0.252-0.286-0.358-0.504-0.358h-3.625
			c-0.252,0-0.359,0.18-0.289,0.358l7.075,14.075v9.623c0,0.216,0.143,0.359,0.359,0.359h3.518c0.216,0,0.359-0.144,0.359-0.359
			v-9.623l7.075-14.075C301.521,561.322,301.451,561.143,301.163,561.143z M485.087,561.143h-3.161
			c-0.323,0-0.502,0.106-0.609,0.358l-6.609,15.045h-0.141l-6.716-15.045c-0.106-0.252-0.288-0.358-0.611-0.358h-3.195
			c-0.216,0-0.358,0.143-0.358,0.358v23.698c0,0.216,0.143,0.359,0.358,0.359h3.123c0.218,0,0.361-0.144,0.361-0.359v-14.938h0.143
			l5.17,11.49c0.146,0.322,0.36,0.468,0.684,0.468h2.082c0.323,0,0.539-0.146,0.682-0.468l5.172-11.49h0.143v14.938
			c0,0.216,0.144,0.359,0.359,0.359h3.125c0.214,0,0.359-0.144,0.359-0.359v-23.698
			C485.446,561.285,485.301,561.143,485.087,561.143z M509.074,561.143h-3.519c-0.216,0-0.358,0.143-0.358,0.358v23.698
			c0,0.216,0.143,0.359,0.358,0.359h3.519c0.216,0,0.358-0.144,0.358-0.359v-23.698C509.433,561.285,509.29,561.143,509.074,561.143
			z M368.708,575.146c2.8-1.042,4.631-3.52,4.631-6.716c0-4.309-3.302-7.288-7.792-7.288h-9.442c-0.216,0-0.361,0.143-0.361,0.358
			v23.698c0,0.216,0.145,0.359,0.361,0.359h3.519c0.215,0,0.358-0.144,0.358-0.359v-9.298c0-0.146,0.073-0.216,0.216-0.216h4.2
			l4.669,9.514c0.107,0.252,0.25,0.359,0.539,0.359h3.986c0.25,0,0.396-0.216,0.25-0.466L368.708,575.146z M365.405,571.879h-5.208
			c-0.143,0-0.216-0.073-0.216-0.216v-6.501c0-0.143,0.073-0.216,0.216-0.216h5.208c2.226,0,3.734,1.365,3.734,3.484
			C369.139,570.514,367.631,571.879,365.405,571.879z M547.029,561.143h-3.126c-0.213,0-0.358,0.143-0.358,0.358v16.839h-0.144
			l-9.945-16.839c-0.146-0.252-0.323-0.358-0.611-0.358h-3.305c-0.214,0-0.358,0.143-0.358,0.358v23.698
			c0,0.216,0.145,0.359,0.358,0.359h3.125c0.216,0,0.359-0.144,0.359-0.359v-16.805h0.146l9.979,16.805
			c0.146,0.252,0.322,0.359,0.611,0.359h3.269c0.213,0,0.358-0.144,0.358-0.359v-23.698
			C547.388,561.285,547.242,561.143,547.029,561.143z M584.625,572.131h-8.079c-0.216,0-0.358,0.143-0.358,0.358v2.871
			c0,0.216,0.143,0.358,0.358,0.358h4.021c0.146,0,0.218,0.073,0.218,0.219c0,1.398-0.146,2.402-0.396,3.159
			c-0.646,1.974-2.479,3.05-4.633,3.05c-2.479,0-3.913-1.219-4.598-3.195c-0.285-0.897-0.431-2.153-0.431-5.601
			c0-3.484,0.146-4.704,0.431-5.602c0.685-1.976,2.119-3.195,4.598-3.195c2.371,0,3.843,1.077,4.92,3.017
			c0.072,0.143,0.249,0.25,0.468,0.179l3.016-1.328c0.178-0.109,0.214-0.325,0.141-0.505c-1.004-2.728-3.947-5.169-8.508-5.169
			c-4.311,0-7.468,2.01-8.726,5.89c-0.502,1.506-0.646,2.871-0.646,6.714c0,3.841,0.144,5.205,0.646,6.716
			c1.258,3.877,4.415,5.887,8.726,5.887c4.202,0,7.432-2.189,8.617-5.996c0.396-1.222,0.575-3.338,0.575-5.351v-2.117
			C584.984,572.273,584.841,572.131,584.625,572.131z M553.495,468.815c0-3.343,12.433-5.478,14.229-8.578
			c0.274-0.474,0.461-0.913,0.575-1.323c11.613-21.852,17.199-50.223,17.199-86.652c0-127.997-52.932-158.216-193.492-158.216
			c-6.926,0-158.087,0.922-177.915,0v14.102c8.474,0,33.89-0.886,33.89,42.3v190.118h0.056c0.819,5.604,14.293,7.627,14.265,11.161
			c-0.027,3.604-19.312,3.798-19.312,7.699c0,3.9,44.625,6.637,44.625,11.005c0,4.367-56.977,3.504-56.511,8.115
			c0.466,4.61,69.028,15.513,147.075,16.183c78.113,0.67,154.87-7.802,154.87-11.538c0-3.741-39.66-4.899-39.66-7.904
			c0-3.007,56.743-2.76,56.743-6.021c0-3.264-21.56-4.933-21.56-8.614c0-3.685,33.17-1.381,33.17-4.654
			C561.742,472.723,553.495,472.161,553.495,468.815z M467.704,459.258c-4.856,6.683,4.527,6.98,4.527,10.275
			c0,3.525-26.131,4.055-26.131,7.109s27.839,3.745,27.839,7.345c0,3.603-56.627,4.768-56.627,8.05
			c0,3.284,42.418,5.172,42.418,8.467c0,3.296-54.294,5.77-82.505,5.77c-28.213,0-56.352-2.503-56.352-5.811
			c0-3.305,45.223-1.321,45.223-6.289c0-4.967-36.21-7.418-36.21-11.39c0-3.975,24.893-5.031,24.893-8.045
			c0-3.012-12.581-4.938-12.581-8.163c0-2.859,5.63-1.648,6.907-6.127l0.542-0.001v-190c0-42.3,22.828-42.3,42.359-42.3
			c99.201,0,93.194,141,93.194,141S486.856,418.866,467.704,459.258z M437.723,561.501c-0.07-0.216-0.214-0.358-0.466-0.358h-3.305
			c-0.25,0-0.396,0.143-0.466,0.358l-8.365,23.698c-0.072,0.216,0,0.359,0.25,0.359h3.484c0.25,0,0.395-0.107,0.466-0.359
			l1.614-4.74h9.194l1.615,4.74c0.072,0.252,0.216,0.359,0.465,0.359h3.521c0.25,0,0.323-0.144,0.25-0.359L437.723,561.501z
			 M432.23,576.689l3.266-9.48h0.109l3.229,9.48H432.23z M407.991,561.143h-15.297c-0.216,0-0.358,0.143-0.358,0.358v23.698
			c0,0.216,0.143,0.359,0.358,0.359h15.297c0.214,0,0.359-0.144,0.359-0.359v-3.086c0-0.216-0.146-0.361-0.359-0.361h-11.204
			c-0.143,0-0.216-0.07-0.216-0.214v-6.178c0-0.144,0.073-0.214,0.216-0.214h9.444c0.216,0,0.358-0.145,0.358-0.358v-3.089
			c0-0.216-0.143-0.359-0.358-0.359h-9.444c-0.143,0-0.216-0.072-0.216-0.215v-5.963c0-0.143,0.073-0.216,0.216-0.216h11.204
			c0.214,0,0.359-0.143,0.359-0.356v-3.089C408.351,561.285,408.205,561.143,407.991,561.143z M362.894,521.327
			c-39.597-0.829-96.529-6.848-96.529-2.864c0,3.984,38.546,9.933,94.125,11.137c52.166,1.126,95.629-4.884,95.629-8.147
			C456.119,518.186,411.394,522.34,362.894,521.327z"/>
	</g>
</g>
</svg>
