<?xml version="1.0" encoding="utf-8"?>
<!-- Generator: Adobe Illustrator 15.1.0, SVG Export Plug-In . SVG Version: 6.00 Build 0)  -->
<!DOCTYPE svg PUBLIC "-//W3C//DTD SVG 1.1//EN" "http://www.w3.org/Graphics/SVG/1.1/DTD/svg11.dtd">
<svg version="1.1" id="Layer_1" xmlns="http://www.w3.org/2000/svg" xmlns:xlink="http://www.w3.org/1999/xlink" x="0px" y="0px"
	 width="250px" height="250px" viewBox="275 275 250 250" enable-background="new 275 275 250 250" xml:space="preserve">
<g>
	<g>
		<path fill="#FFFFFF" d="M374.641,456.939h-3.083c-0.077,0-0.126,0.049-0.126,0.127v8.371c0,0.078,0.05,0.128,0.126,0.128h3.083
			c1.484,0,2.473-0.659,2.879-1.916c0.14-0.431,0.215-0.9,0.215-2.397c0-1.498-0.076-1.967-0.215-2.397
			C377.115,457.598,376.125,456.939,374.641,456.939z M376.075,463.131c-0.253,0.773-0.838,1.09-1.79,1.09h-1.28
			c-0.052,0-0.076-0.024-0.076-0.074v-5.787c0-0.051,0.024-0.077,0.076-0.077h1.28c0.952,0,1.537,0.318,1.79,1.091
			c0.087,0.243,0.151,0.625,0.151,1.879C376.226,462.495,376.162,462.888,376.075,463.131z M351.18,457.066
			c-0.025-0.078-0.075-0.127-0.164-0.127h-1.168c-0.088,0-0.14,0.05-0.165,0.127l-2.957,8.372c-0.024,0.078,0,0.127,0.089,0.127
			h1.231c0.088,0,0.139-0.037,0.164-0.127l0.57-1.674h3.249l0.57,1.674c0.025,0.09,0.076,0.127,0.165,0.127h1.245
			c0.087,0,0.114-0.052,0.087-0.127L351.18,457.066z M349.24,462.431l1.154-3.349h0.039l1.141,3.349H349.24z M337.921,456.939
			h-3.083c-0.076,0-0.127,0.049-0.127,0.127v8.371c0,0.078,0.051,0.128,0.127,0.128h3.083c1.484,0,2.475-0.659,2.88-1.916
			c0.14-0.431,0.215-0.9,0.215-2.397c0-1.498-0.075-1.967-0.215-2.397C340.396,457.598,339.406,456.939,337.921,456.939z
			 M339.354,463.131c-0.254,0.773-0.836,1.09-1.788,1.09h-1.281c-0.051,0-0.077-0.024-0.077-0.074v-5.787
			c0-0.051,0.026-0.077,0.077-0.077h1.281c0.952,0,1.535,0.318,1.788,1.091c0.09,0.243,0.153,0.625,0.153,1.879
			C339.507,462.495,339.444,462.888,339.354,463.131z M365.15,456.939h-1.23c-0.089,0-0.14,0.037-0.177,0.127l-1.7,3.349h-0.039
			l-1.687-3.349c-0.038-0.091-0.101-0.127-0.179-0.127h-1.281c-0.088,0-0.125,0.063-0.102,0.127l2.5,4.973v3.398
			c0,0.078,0.051,0.128,0.127,0.128h1.243c0.076,0,0.127-0.052,0.127-0.128v-3.398l2.499-4.973
			C365.277,457.002,365.251,456.939,365.15,456.939z M430.139,456.939h-1.117c-0.113,0-0.177,0.037-0.216,0.127l-2.335,5.315h-0.049
			l-2.374-5.315c-0.036-0.091-0.102-0.127-0.216-0.127h-1.128c-0.076,0-0.126,0.049-0.126,0.127v8.371
			c0,0.078,0.05,0.128,0.126,0.128h1.104c0.077,0,0.127-0.052,0.127-0.128v-5.277h0.052l1.826,4.061
			c0.051,0.113,0.126,0.165,0.242,0.165h0.735c0.113,0,0.19-0.052,0.24-0.165l1.828-4.061h0.051v5.277
			c0,0.078,0.051,0.128,0.128,0.128h1.104c0.075,0,0.126-0.052,0.126-0.128v-8.371C430.266,456.988,430.215,456.939,430.139,456.939
			z M438.614,456.939h-1.242c-0.077,0-0.127,0.049-0.127,0.127v8.371c0,0.078,0.051,0.128,0.127,0.128h1.242
			c0.078,0,0.127-0.052,0.127-0.128v-8.371C438.741,456.988,438.692,456.939,438.614,456.939z M389.016,461.886
			c0.99-0.368,1.637-1.243,1.637-2.373c0-1.523-1.167-2.575-2.753-2.575h-3.337c-0.076,0-0.127,0.05-0.127,0.125v8.374
			c0,0.076,0.052,0.127,0.127,0.127h1.245c0.076,0,0.126-0.051,0.126-0.127v-3.284c0-0.052,0.025-0.076,0.076-0.076h1.484l1.65,3.36
			c0.038,0.091,0.088,0.128,0.19,0.128h1.409c0.088,0,0.14-0.076,0.088-0.164L389.016,461.886z M387.849,460.732h-1.839
			c-0.051,0-0.077-0.025-0.077-0.076v-2.297c0-0.051,0.026-0.077,0.077-0.077h1.839c0.788,0,1.32,0.482,1.32,1.231
			C389.169,460.25,388.637,460.732,387.849,460.732z M452.026,456.939h-1.104c-0.075,0-0.127,0.049-0.127,0.127v5.949h-0.052
			l-3.514-5.949c-0.051-0.091-0.113-0.127-0.215-0.127h-1.168c-0.077,0-0.126,0.049-0.126,0.127v8.371
			c0,0.078,0.051,0.128,0.126,0.128h1.104c0.077,0,0.127-0.052,0.127-0.128V459.5h0.053l3.525,5.938
			c0.052,0.091,0.114,0.128,0.215,0.128h1.155c0.075,0,0.127-0.052,0.127-0.128v-8.371
			C452.153,456.988,452.101,456.939,452.026,456.939z M465.311,460.822h-2.855c-0.076,0-0.125,0.051-0.125,0.126v1.014
			c0,0.077,0.049,0.127,0.125,0.127h1.421c0.053,0,0.078,0.026,0.078,0.077c0,0.494-0.052,0.85-0.14,1.116
			c-0.229,0.697-0.876,1.078-1.637,1.078c-0.877,0-1.384-0.431-1.627-1.129c-0.1-0.317-0.151-0.76-0.151-1.979
			c0-1.23,0.051-1.661,0.151-1.979c0.243-0.697,0.75-1.129,1.627-1.129c0.837,0,1.356,0.381,1.738,1.066
			c0.024,0.051,0.087,0.088,0.164,0.063l1.066-0.469c0.062-0.038,0.074-0.115,0.05-0.18c-0.354-0.964-1.395-1.826-3.006-1.826
			c-1.524,0-2.64,0.711-3.085,2.081c-0.176,0.533-0.228,1.016-0.228,2.373s0.052,1.84,0.228,2.373
			c0.445,1.37,1.561,2.081,3.085,2.081c1.483,0,2.625-0.774,3.044-2.12c0.14-0.432,0.203-1.18,0.203-1.89v-0.748
			C465.437,460.871,465.388,460.822,465.311,460.822z M454.31,424.314c0-1.181,4.395-1.936,5.028-3.03
			c0.097-0.168,0.163-0.322,0.203-0.468c4.104-7.722,6.076-17.746,6.076-30.618c0-45.227-18.703-55.906-68.368-55.906
			c-2.448,0-55.859,0.327-62.866,0v4.984c2.994,0,11.975-0.313,11.975,14.946v67.178h0.021c0.288,1.979,5.05,2.693,5.04,3.943
			c-0.009,1.273-6.824,1.342-6.824,2.72s15.769,2.346,15.769,3.89c0,1.542-20.133,1.236-19.969,2.867
			c0.165,1.628,24.392,5.48,51.969,5.718c27.601,0.236,54.723-2.756,54.723-4.077s-14.014-1.73-14.014-2.793
			s20.051-0.975,20.051-2.127c0-1.153-7.619-1.743-7.619-3.044c0-1.302,11.72-0.488,11.72-1.645
			C457.224,425.695,454.31,425.497,454.31,424.314z M423.996,420.938c-1.716,2.362,1.6,2.466,1.6,3.63
			c0,1.246-9.233,1.434-9.233,2.513c0,1.078,9.838,1.323,9.838,2.596s-20.01,1.685-20.01,2.845c0,1.159,14.988,1.825,14.988,2.991
			c0,1.164-19.186,2.039-29.153,2.039c-9.969,0-19.913-0.886-19.913-2.054s15.981-0.467,15.981-2.223
			c0-1.755-12.796-2.62-12.796-4.024c0-1.403,8.796-1.777,8.796-2.843c0-1.064-4.445-1.744-4.445-2.886
			c0-1.009,1.989-0.58,2.44-2.163l0.191-0.001v-67.136c0-14.947,8.066-14.947,14.968-14.947c35.052,0,32.93,49.822,32.93,49.822
			S430.764,406.665,423.996,420.938z M413.403,457.066c-0.023-0.078-0.075-0.127-0.164-0.127h-1.168
			c-0.089,0-0.141,0.05-0.165,0.127l-2.955,8.372c-0.025,0.078,0,0.127,0.088,0.127h1.231c0.088,0,0.14-0.037,0.163-0.127
			l0.572-1.674h3.248l0.57,1.674c0.024,0.09,0.076,0.127,0.164,0.127h1.244c0.089,0,0.114-0.052,0.089-0.127L413.403,457.066z
			 M411.463,462.431l1.153-3.349h0.038l1.142,3.349H411.463z M402.897,456.939h-5.405c-0.076,0-0.126,0.049-0.126,0.127v8.371
			c0,0.078,0.05,0.128,0.126,0.128h5.405c0.076,0,0.127-0.052,0.127-0.128v-1.09c0-0.076-0.052-0.127-0.127-0.127h-3.958
			c-0.051,0-0.077-0.024-0.077-0.076v-2.183c0-0.051,0.026-0.075,0.077-0.075h3.337c0.075,0,0.127-0.051,0.127-0.127v-1.092
			c0-0.076-0.052-0.125-0.127-0.125h-3.337c-0.051,0-0.077-0.026-0.077-0.078v-2.105c0-0.051,0.026-0.077,0.077-0.077h3.958
			c0.076,0,0.127-0.05,0.127-0.125v-1.091C403.025,456.988,402.973,456.939,402.897,456.939z M386.963,442.87
			c-13.991-0.293-34.107-2.419-34.107-1.012s13.619,3.511,33.258,3.936c18.433,0.397,33.791-1.727,33.791-2.878
			C419.903,441.76,404.1,443.228,386.963,442.87z"/>
	</g>
</g>
</svg>
