<?xml version="1.0" encoding="utf-8"?>
<!-- Generator: Adobe Illustrator 15.1.0, SVG Export Plug-In . SVG Version: 6.00 Build 0)  -->
<!DOCTYPE svg PUBLIC "-//W3C//DTD SVG 1.1//EN" "http://www.w3.org/Graphics/SVG/1.1/DTD/svg11.dtd">
<svg version="1.1" id="Layer_1" xmlns="http://www.w3.org/2000/svg" xmlns:xlink="http://www.w3.org/1999/xlink" x="0px" y="0px"
	 width="250px" height="250px" viewBox="275 275 250 250" enable-background="new 275 275 250 250" xml:space="preserve">
<g>
	<g>
		<path fill="#FFFFFF" d="M396.129,433.759c0-4.776-3.122-8.883-7.424-10.391c-1.182-0.42-2.446-0.671-3.712-0.671
			c-1.265,0-2.53,0.251-3.712,0.671c-4.303,1.508-7.424,5.614-7.424,10.391v14.774c0,4.86,3.122,8.883,7.424,10.391
			c1.182,0.419,2.447,0.671,3.712,0.671c1.266,0,2.53-0.252,3.712-0.671c4.303-1.508,7.424-5.53,7.424-10.391V433.759z
			 M388.705,448.533c0,2.011-1.688,3.688-3.712,3.688s-3.712-1.677-3.712-3.688v-14.774c0-2.011,1.688-3.687,3.712-3.687
			s3.712,1.676,3.712,3.687V448.533z M391.739,467.257h-3.155c-0.058,0-0.097,0.039-0.097,0.097v0.742
			c0,0.059,0.04,0.097,0.097,0.097h1.003c0.039,0,0.058,0.02,0.058,0.059v5.472c0,0.058,0.039,0.097,0.097,0.097h0.84
			c0.057,0,0.096-0.039,0.096-0.097v-5.472c0-0.039,0.02-0.059,0.058-0.059h1.004c0.058,0,0.097-0.038,0.097-0.097v-0.742
			C391.835,467.296,391.796,467.257,391.739,467.257z M387.415,467.257h-0.839c-0.058,0-0.096,0.039-0.096,0.097v4.931
			c0,0.415-0.212,0.686-0.599,0.686c-0.386,0-0.608-0.271-0.608-0.686v-4.931c0-0.058-0.039-0.097-0.097-0.097h-0.839
			c-0.058,0-0.096,0.039-0.096,0.097v4.796c0,1.168,0.626,1.757,1.64,1.757c1.013,0,1.63-0.589,1.63-1.757v-4.796
			C387.511,467.296,387.473,467.257,387.415,467.257z M381.336,467.17c-0.81,0-1.341,0.376-1.552,1.023
			c-0.097,0.289-0.126,0.521-0.126,2.344c0,1.825,0.029,2.057,0.126,2.346c0.211,0.647,0.742,1.023,1.552,1.023
			c0.802,0,1.333-0.376,1.544-1.023c0.097-0.289,0.126-0.521,0.126-2.346c0-1.823-0.03-2.055-0.126-2.344
			C382.668,467.546,382.137,467.17,381.336,467.17z M381.886,472.602c-0.068,0.223-0.279,0.367-0.551,0.367
			c-0.28,0-0.491-0.145-0.559-0.367c-0.058-0.183-0.067-0.259-0.067-2.065c0-1.803,0.009-1.881,0.067-2.064
			c0.068-0.222,0.279-0.366,0.559-0.366c0.271,0,0.483,0.145,0.551,0.366c0.059,0.184,0.068,0.262,0.068,2.064
			C381.954,472.344,381.945,472.42,381.886,472.602z M358.738,468.105c0.376,0,0.57,0.242,0.599,0.801
			c0,0.068,0.048,0.098,0.106,0.087l0.782-0.134c0.057-0.009,0.077-0.059,0.067-0.116c-0.058-1.09-0.646-1.573-1.583-1.573
			c-0.8,0-1.283,0.376-1.486,1.004c-0.086,0.27-0.125,0.54-0.125,2.363c0,1.825,0.039,2.096,0.125,2.365
			c0.203,0.626,0.686,1.004,1.486,1.004c0.937,0,1.525-0.483,1.583-1.573c0.009-0.06-0.01-0.106-0.067-0.116l-0.782-0.136
			c-0.058-0.009-0.106,0.021-0.106,0.089c-0.029,0.559-0.222,0.8-0.599,0.8c-0.29,0-0.444-0.126-0.521-0.367
			c-0.049-0.155-0.068-0.288-0.068-2.065c0-1.775,0.02-1.91,0.068-2.064C358.294,468.232,358.448,468.105,358.738,468.105z
			 M346.907,470.885c0.493-0.277,0.781-0.819,0.781-1.679c0-1.437-0.704-1.949-1.872-1.949h-1.322c-0.058,0-0.097,0.039-0.097,0.097
			v6.369c0,0.058,0.039,0.097,0.097,0.097h0.839c0.058,0,0.097-0.039,0.097-0.097v-2.528c0-0.039,0.02-0.058,0.058-0.058h0.492
			l0.801,2.614c0.019,0.048,0.048,0.068,0.106,0.068h0.897c0.048,0,0.067-0.049,0.048-0.097L346.907,470.885z M345.827,470.22
			h-0.337c-0.039,0-0.058-0.021-0.058-0.06v-1.91c0-0.039,0.02-0.059,0.058-0.059h0.337c0.579,0,0.83,0.242,0.83,1.014
			C346.656,469.987,346.406,470.22,345.827,470.22z M351.732,467.257h-2.692c-0.058,0-0.096,0.039-0.096,0.097v6.369
			c0,0.058,0.038,0.097,0.096,0.097h2.692c0.058,0,0.097-0.039,0.097-0.097v-0.744c0-0.058-0.039-0.096-0.097-0.096h-1.699
			c-0.039,0-0.057-0.02-0.057-0.058v-1.796c0-0.037,0.019-0.056,0.057-0.056h1.466c0.058,0,0.097-0.04,0.097-0.098v-0.744
			c0-0.058-0.039-0.096-0.097-0.096h-1.466c-0.039,0-0.057-0.02-0.057-0.058v-1.728c0-0.039,0.019-0.059,0.057-0.059h1.699
			c0.058,0,0.097-0.038,0.097-0.097v-0.742C351.829,467.296,351.79,467.257,351.732,467.257z M351.551,444.623h3.711
			c2.109,0,3.713,1.677,3.713,3.771v11.463h7.424v-11.463c0-2.85-1.012-5.447-2.869-7.458c1.772-1.928,2.869-4.441,2.869-7.208
			c0-0.083,0-0.083,0-0.083c0-4.86-3.121-8.884-7.424-10.391c-1.098-0.42-2.362-0.671-3.713-0.671h-11.135v37.273h7.424V444.623
			L351.551,444.623z M351.551,429.958h3.711c2.025,0,3.713,1.677,3.713,3.688c0,2.012-1.688,3.604-3.713,3.604h-3.711V429.958
			L351.551,429.958z M354.897,467.257h-0.81c-0.058,0-0.087,0.039-0.106,0.097l-1.418,6.369c-0.01,0.058,0.019,0.097,0.077,0.097
			h0.82c0.067,0,0.096-0.039,0.106-0.097l0.261-1.322h1.302l0.261,1.322c0.01,0.058,0.038,0.097,0.106,0.097h0.82
			c0.059,0,0.087-0.039,0.077-0.097l-1.389-6.369C354.994,467.296,354.955,467.257,354.897,467.257z M353.99,471.531l0.482-2.441
			h0.029l0.464,2.441H353.99z M364.479,467.257h-0.84c-0.058,0-0.097,0.039-0.097,0.097v2.586c0,0.039-0.02,0.059-0.058,0.059h-1.11
			c-0.039,0-0.058-0.02-0.058-0.059v-2.586c0-0.058-0.039-0.097-0.097-0.097h-0.839c-0.058,0-0.097,0.039-0.097,0.097v6.369
			c0,0.058,0.039,0.097,0.097,0.097h0.839c0.058,0,0.097-0.039,0.097-0.097v-2.731c0-0.038,0.02-0.058,0.058-0.058h1.11
			c0.038,0,0.058,0.02,0.058,0.058v2.731c0,0.058,0.039,0.097,0.097,0.097h0.84c0.058,0,0.096-0.039,0.096-0.097v-6.369
			C364.575,467.296,364.537,467.257,364.479,467.257z M371.658,467.257h-0.714c-0.058,0-0.097,0.039-0.097,0.097v4.535h-0.049
			l-1.215-4.535c-0.02-0.067-0.058-0.097-0.136-0.097h-1.021c-0.058,0-0.098,0.039-0.098,0.097v6.369
			c0,0.058,0.04,0.097,0.098,0.097h0.713c0.058,0,0.097-0.039,0.097-0.097v-4.536h0.058l1.273,4.536
			c0.02,0.066,0.058,0.097,0.135,0.097h0.956c0.058,0,0.096-0.039,0.096-0.097v-6.369
			C371.754,467.296,371.716,467.257,371.658,467.257z M376.252,470.161h-1.467c-0.058,0-0.096,0.039-0.096,0.097v0.716
			c0,0.056,0.038,0.095,0.096,0.095h0.512c0.038,0,0.058,0.021,0.058,0.059c0,1.217-0.02,1.312-0.068,1.476
			c-0.067,0.223-0.309,0.368-0.588,0.368c-0.27,0-0.511-0.146-0.579-0.368c-0.058-0.183-0.068-0.259-0.068-2.063
			s0.01-1.883,0.068-2.066c0.067-0.222,0.289-0.366,0.569-0.366c0.386,0,0.608,0.261,0.656,0.772
			c0.01,0.057,0.049,0.087,0.106,0.077l0.782-0.135c0.049-0.01,0.087-0.058,0.078-0.116c-0.106-1.033-0.686-1.535-1.631-1.535
			c-0.81,0-1.341,0.376-1.554,1.023c-0.097,0.291-0.125,0.521-0.125,2.346c0,1.823,0.028,2.055,0.125,2.345
			c0.213,0.646,0.744,1.022,1.554,1.022c0.8,0,1.332-0.376,1.544-1.022c0.096-0.29,0.125-0.521,0.125-2.336v-0.29
			C376.348,470.2,376.309,470.161,376.252,470.161z M366.872,467.257h-0.839c-0.058,0-0.096,0.039-0.096,0.097v6.369
			c0,0.058,0.038,0.097,0.096,0.097h0.839c0.058,0,0.097-0.039,0.097-0.097v-6.369C366.969,467.296,366.93,467.257,366.872,467.257z
			 M398.126,467.257h-0.839c-0.058,0-0.097,0.039-0.097,0.097v2.586c0,0.039-0.019,0.059-0.058,0.059h-1.11
			c-0.038,0-0.058-0.02-0.058-0.059v-2.586c0-0.058-0.039-0.097-0.096-0.097h-0.839c-0.058,0-0.097,0.039-0.097,0.097v6.369
			c0,0.058,0.039,0.097,0.097,0.097h0.839c0.058,0,0.096-0.039,0.096-0.097v-2.731c0-0.038,0.02-0.058,0.058-0.058h1.11
			c0.039,0,0.058,0.02,0.058,0.058v2.731c0,0.058,0.039,0.097,0.097,0.097h0.839c0.058,0,0.096-0.039,0.096-0.097v-6.369
			C398.222,467.296,398.184,467.257,398.126,467.257z M439.185,468.105c0.375,0,0.569,0.242,0.598,0.801
			c0,0.068,0.048,0.098,0.106,0.087l0.781-0.134c0.059-0.009,0.077-0.059,0.068-0.116c-0.059-1.09-0.647-1.573-1.583-1.573
			c-0.801,0-1.284,0.376-1.486,1.004c-0.087,0.27-0.125,0.54-0.125,2.363c0,1.825,0.038,2.096,0.125,2.365
			c0.202,0.626,0.686,1.004,1.486,1.004c0.936,0,1.524-0.483,1.583-1.573c0.009-0.06-0.01-0.106-0.068-0.116l-0.781-0.136
			c-0.059-0.009-0.106,0.021-0.106,0.089c-0.028,0.559-0.223,0.8-0.598,0.8c-0.29,0-0.445-0.126-0.521-0.367
			c-0.048-0.155-0.067-0.288-0.067-2.065c0-1.775,0.02-1.91,0.067-2.064C438.74,468.232,438.895,468.105,439.185,468.105z
			 M436.435,467.257h-2.693c-0.058,0-0.096,0.039-0.096,0.097v6.369c0,0.058,0.038,0.097,0.096,0.097h2.693
			c0.058,0,0.097-0.039,0.097-0.097v-0.744c0-0.058-0.039-0.096-0.097-0.096h-1.699c-0.038,0-0.058-0.02-0.058-0.058v-1.796
			c0-0.037,0.02-0.056,0.058-0.056h1.467c0.059,0,0.098-0.04,0.098-0.098v-0.744c0-0.058-0.039-0.096-0.098-0.096h-1.467
			c-0.038,0-0.058-0.02-0.058-0.058v-1.728c0-0.039,0.02-0.059,0.058-0.059h1.699c0.058,0,0.097-0.038,0.097-0.097v-0.742
			C436.531,467.296,436.492,467.257,436.435,467.257z M440.689,444.923h7.424v14.82h7.425v-26.216c0-4.777-3.122-8.884-7.425-10.392
			c-1.182-0.419-2.447-0.67-3.711-0.67c-1.267,0-2.532,0.251-3.713,0.67c-4.303,1.508-7.425,5.614-7.425,10.392v26.216h7.425
			V444.923L440.689,444.923z M440.689,433.527c0-2.011,1.687-3.688,3.712-3.688c2.024,0,3.712,1.677,3.712,3.688v3.957h-7.425
			L440.689,433.527L440.689,433.527z M444.49,467.257h-3.154c-0.059,0-0.096,0.039-0.096,0.097v0.742
			c0,0.059,0.037,0.097,0.096,0.097h1.004c0.038,0,0.058,0.02,0.058,0.059v5.472c0,0.058,0.038,0.097,0.097,0.097h0.84
			c0.057,0,0.096-0.039,0.096-0.097v-5.472c0-0.039,0.021-0.059,0.059-0.059h1.002c0.06,0,0.098-0.038,0.098-0.097v-0.742
			C444.588,467.296,444.55,467.257,444.49,467.257z M455.771,467.257h-0.713c-0.059,0-0.097,0.039-0.097,0.097v4.535h-0.049
			l-1.215-4.535c-0.02-0.067-0.059-0.097-0.137-0.097h-1.022c-0.058,0-0.097,0.039-0.097,0.097v6.369
			c0,0.058,0.039,0.097,0.097,0.097h0.715c0.058,0,0.097-0.039,0.097-0.097v-4.536h0.058l1.274,4.536
			c0.02,0.066,0.058,0.097,0.134,0.097h0.955c0.06,0,0.098-0.039,0.098-0.097v-6.369
			C455.868,467.296,455.83,467.257,455.771,467.257z M432.468,467.257h-2.691c-0.059,0-0.098,0.039-0.098,0.097v6.369
			c0,0.058,0.039,0.097,0.098,0.097h0.84c0.058,0,0.096-0.039,0.096-0.097v-2.644c0-0.04,0.02-0.059,0.059-0.059h1.466
			c0.058,0,0.097-0.039,0.097-0.097v-0.742c0-0.059-0.039-0.097-0.097-0.097h-1.466c-0.039,0-0.059-0.02-0.059-0.059v-1.775
			c0-0.039,0.02-0.059,0.059-0.059h1.697c0.06,0,0.097-0.038,0.097-0.097v-0.742C432.565,467.296,432.528,467.257,432.468,467.257z
			 M446.508,467.257h-0.839c-0.058,0-0.098,0.039-0.098,0.097v6.369c0,0.058,0.04,0.097,0.098,0.097h0.839
			c0.058,0,0.097-0.039,0.097-0.097v-6.369C446.605,467.296,446.566,467.257,446.508,467.257z M344.532,326.094v89.072h7.422
			v-81.649h96.496v81.649h7.423v-89.072H344.532z M449.529,467.17c-0.811,0-1.341,0.376-1.554,1.023
			c-0.097,0.289-0.125,0.521-0.125,2.344c0,1.825,0.028,2.057,0.125,2.346c0.213,0.647,0.743,1.023,1.554,1.023
			c0.801,0,1.332-0.376,1.544-1.023c0.097-0.289,0.125-0.521,0.125-2.346c0-1.823-0.028-2.055-0.125-2.344
			C450.861,467.546,450.329,467.17,449.529,467.17z M450.078,472.602c-0.067,0.223-0.279,0.367-0.55,0.367
			c-0.28,0-0.492-0.145-0.56-0.367c-0.058-0.183-0.067-0.259-0.067-2.065c0-1.803,0.01-1.881,0.067-2.064
			c0.067-0.222,0.279-0.366,0.56-0.366c0.271,0,0.482,0.145,0.55,0.366c0.058,0.184,0.067,0.262,0.067,2.064
			C450.146,472.344,450.136,472.42,450.078,472.602z M402.749,467.257h-0.841c-0.057,0-0.096,0.039-0.096,0.097v4.931
			c0,0.415-0.213,0.686-0.599,0.686s-0.607-0.271-0.607-0.686v-4.931c0-0.058-0.038-0.097-0.097-0.097h-0.839
			c-0.058,0-0.097,0.039-0.097,0.097v4.796c0,1.168,0.627,1.757,1.641,1.757s1.631-0.589,1.631-1.757v-4.796
			C402.846,467.296,402.806,467.257,402.749,467.257z M441.028,415.166c0,0,0-15.999,0-22.268c0-8.869-5.263-16.524-12.809-20.106
			c1.062-1.706,1.68-3.72,1.68-5.878c0-6.149-4.985-11.134-11.135-11.134s-11.135,4.985-11.135,11.134
			c0,2.122,0.595,4.104,1.625,5.792c-1.989,0.931-3.816,2.146-5.427,3.601c-0.681-8.105-5.693-15.035-12.71-18.38
			c1.056-1.702,1.667-3.709,1.667-5.858c0-6.149-4.985-11.135-11.134-11.135s-11.134,4.985-11.134,11.135
			c0,2.139,0.604,4.136,1.65,5.833c-7.557,3.561-12.789,11.243-12.789,20.15c0,12.299,0,37.113,0,37.113h7.422
			c0,0,0-28.914,0-37.113c0-8.198,6.647-14.845,14.846-14.845c8.198,0,14.846,6.647,14.846,14.845v11.134h7.835
			c1.564-6.829,7.431-11.134,14.433-11.134c8.197,0,14.845,6.647,14.845,14.846v5.675c-3.939-3.528-9.141-5.675-14.845-5.675
			c-12.299,0-22.269,9.97-22.269,22.268h7.423c0-8.199,6.646-14.845,14.846-14.845c8.197,0,14.845,6.646,14.845,14.845H441.028
			L441.028,415.166z M381.646,355.784c-2.05,0-3.712-1.662-3.712-3.711c0-2.05,1.662-3.711,3.712-3.711s3.711,1.661,3.711,3.711
			C385.358,354.122,383.696,355.784,381.646,355.784z M418.759,370.63c-2.05,0-3.711-1.662-3.711-3.711
			c0-2.05,1.661-3.711,3.711-3.711c2.051,0,3.712,1.661,3.712,3.711C422.471,368.968,420.81,370.63,418.759,370.63z
			 M411.858,467.257h-0.811c-0.059,0-0.086,0.039-0.106,0.097l-1.419,6.369c-0.009,0.058,0.02,0.097,0.078,0.097h0.819
			c0.068,0,0.098-0.039,0.106-0.097l0.261-1.322h1.302l0.261,1.322c0.01,0.058,0.039,0.097,0.106,0.097h0.821
			c0.058,0,0.087-0.039,0.077-0.097l-1.391-6.369C411.954,467.296,411.916,467.257,411.858,467.257z M410.95,471.531l0.482-2.441
			h0.029l0.463,2.441H410.95z M425.802,459.743v-37.282h-7.425v14.989h-7.425v-14.989h-7.423v37.282h7.423v-14.854h7.425v14.854
			H425.802L425.802,459.743z M408.46,467.257h-0.83c-0.086,0-0.134,0.029-0.154,0.097l-1.061,3.696h-0.039l-1.091-3.696
			c-0.019-0.067-0.067-0.097-0.154-0.097h-0.839c-0.059,0-0.097,0.039-0.097,0.097v6.369c0,0.058,0.038,0.097,0.097,0.097h0.742
			c0.058,0,0.097-0.039,0.097-0.097v-4.149h0.058l0.851,2.981c0.02,0.058,0.058,0.097,0.125,0.097h0.425
			c0.068,0,0.105-0.039,0.126-0.097l0.849-2.981h0.058v4.149c0,0.058,0.038,0.097,0.097,0.097h0.742
			c0.059,0,0.097-0.039,0.097-0.097v-6.369C408.557,467.296,408.519,467.257,408.46,467.257z M417.647,467.257h-0.714
			c-0.058,0-0.097,0.039-0.097,0.097v4.535h-0.048l-1.216-4.535c-0.02-0.067-0.058-0.097-0.136-0.097h-1.023
			c-0.058,0-0.096,0.039-0.096,0.097v6.369c0,0.058,0.038,0.097,0.096,0.097h0.716c0.057,0,0.097-0.039,0.097-0.097v-4.536h0.058
			l1.273,4.536c0.02,0.066,0.059,0.097,0.135,0.097h0.955c0.06,0,0.098-0.039,0.098-0.097v-6.369
			C417.743,467.296,417.705,467.257,417.647,467.257z M423.253,467.257h-0.811c-0.059,0-0.087,0.039-0.106,0.097l-1.418,6.369
			c-0.01,0.058,0.019,0.097,0.076,0.097h0.821c0.067,0,0.096-0.039,0.105-0.097l0.261-1.322h1.303l0.26,1.322
			c0.01,0.058,0.039,0.097,0.105,0.097h0.821c0.058,0,0.088-0.039,0.077-0.097l-1.389-6.369
			C423.349,467.296,423.311,467.257,423.253,467.257z M422.347,471.531l0.481-2.441h0.029l0.463,2.441H422.347z M428.503,467.257
			h-2.693c-0.058,0-0.096,0.039-0.096,0.097v6.369c0,0.058,0.038,0.097,0.096,0.097h0.841c0.058,0,0.096-0.039,0.096-0.097v-2.644
			c0-0.04,0.02-0.059,0.058-0.059h1.467c0.059,0,0.098-0.039,0.098-0.097v-0.742c0-0.059-0.039-0.097-0.098-0.097h-1.467
			c-0.038,0-0.058-0.02-0.058-0.059v-1.775c0-0.039,0.02-0.059,0.058-0.059h1.699c0.058,0,0.097-0.038,0.097-0.097v-0.742
			C428.6,467.296,428.561,467.257,428.503,467.257z"/>
	</g>
</g>
</svg>
