<?xml version="1.0" encoding="utf-8"?>
<!-- Generator: Adobe Illustrator 15.1.0, SVG Export Plug-In . SVG Version: 6.00 Build 0)  -->
<!DOCTYPE svg PUBLIC "-//W3C//DTD SVG 1.1//EN" "http://www.w3.org/Graphics/SVG/1.1/DTD/svg11.dtd">
<svg version="1.1" id="Layer_1" xmlns="http://www.w3.org/2000/svg" xmlns:xlink="http://www.w3.org/1999/xlink" x="0px" y="0px"
	 width="800px" height="800px" viewBox="0 0 800 800" enable-background="new 0 0 800 800" xml:space="preserve">
<rect fill="#1B1817" width="800" height="800"/>
<g>
	<g>
		<path fill-rule="evenodd" clip-rule="evenodd" fill="#FFFFFF" d="M388.601,503.266c0-14.612-9.548-27.173-22.709-31.787
			c-3.614-1.281-7.483-2.051-11.354-2.051c-3.869,0-7.741,0.77-11.355,2.051c-13.162,4.614-22.709,17.175-22.709,31.787v45.19
			c0,14.869,9.548,27.173,22.709,31.784c3.614,1.282,7.486,2.052,11.355,2.052c3.871,0,7.74-0.77,11.354-2.052
			c13.162-4.611,22.709-16.915,22.709-31.784V503.266z M365.892,548.456c0,6.152-5.162,11.279-11.354,11.279
			c-6.193,0-11.355-5.127-11.355-11.279v-45.19c0-6.153,5.162-11.279,11.355-11.279c6.192,0,11.354,5.126,11.354,11.279V548.456z
			 M375.171,605.73h-9.652c-0.177,0-0.297,0.117-0.297,0.295v2.272c0,0.178,0.12,0.295,0.297,0.295h3.069
			c0.12,0,0.177,0.061,0.177,0.178v16.736c0,0.177,0.118,0.295,0.295,0.295h2.57c0.175,0,0.293-0.118,0.293-0.295v-16.736
			c0-0.117,0.06-0.178,0.177-0.178h3.071c0.175,0,0.295-0.117,0.295-0.295v-2.272C375.466,605.848,375.346,605.73,375.171,605.73z
			 M361.947,605.73h-2.568c-0.177,0-0.295,0.117-0.295,0.295v15.084c0,1.269-0.649,2.096-1.832,2.096
			c-1.18,0-1.858-0.827-1.858-2.096v-15.084c0-0.178-0.12-0.295-0.297-0.295h-2.567c-0.177,0-0.293,0.117-0.293,0.295v14.67
			c0,3.571,1.916,5.372,5.016,5.372c3.1,0,4.989-1.801,4.989-5.372v-14.67C362.242,605.848,362.125,605.73,361.947,605.73z
			 M343.351,605.465c-2.479,0-4.102,1.15-4.749,3.128c-0.297,0.887-0.386,1.595-0.386,7.173c0,5.579,0.089,6.288,0.386,7.173
			c0.647,1.979,2.27,3.129,4.749,3.129c2.453,0,4.076-1.15,4.723-3.129c0.297-0.885,0.386-1.594,0.386-7.173
			c0-5.578-0.089-6.286-0.386-7.173C347.426,606.615,345.803,605.465,343.351,605.465z M345.036,622.083
			c-0.208,0.679-0.855,1.122-1.685,1.122c-0.856,0-1.503-0.443-1.711-1.122c-0.178-0.562-0.204-0.796-0.204-6.317
			c0-5.519,0.026-5.756,0.204-6.316c0.208-0.679,0.855-1.122,1.711-1.122c0.83,0,1.477,0.443,1.685,1.122
			c0.178,0.561,0.207,0.798,0.207,6.316C345.242,621.287,345.213,621.521,345.036,622.083z M274.225,608.327
			c1.153,0,1.743,0.738,1.832,2.45c0,0.206,0.146,0.297,0.324,0.266l2.393-0.412c0.175-0.029,0.235-0.178,0.206-0.354
			c-0.177-3.335-1.978-4.812-4.842-4.812c-2.448,0-3.925,1.15-4.545,3.07c-0.266,0.825-0.382,1.652-0.382,7.23
			c0,5.579,0.116,6.406,0.382,7.233c0.621,1.918,2.097,3.068,4.545,3.068c2.865,0,4.665-1.475,4.842-4.812
			c0.029-0.178-0.031-0.323-0.206-0.354l-2.393-0.413c-0.177-0.028-0.324,0.061-0.324,0.267c-0.088,1.712-0.678,2.45-1.832,2.45
			c-0.885,0-1.357-0.384-1.592-1.122c-0.148-0.473-0.208-0.885-0.208-6.317c0-5.43,0.06-5.845,0.208-6.316
			C272.868,608.711,273.34,608.327,274.225,608.327z M238.039,616.83c1.508-0.855,2.39-2.51,2.39-5.138
			c0-4.396-2.153-5.962-5.725-5.962h-4.044c-0.177,0-0.295,0.117-0.295,0.295v19.481c0,0.177,0.118,0.295,0.295,0.295h2.567
			c0.178,0,0.297-0.118,0.297-0.295v-7.734c0-0.117,0.058-0.175,0.177-0.175h1.503l2.452,7.997c0.058,0.148,0.146,0.207,0.324,0.207
			h2.745c0.146,0,0.206-0.146,0.146-0.295L238.039,616.83z M234.735,614.793h-1.033c-0.12,0-0.177-0.061-0.177-0.178v-5.845
			c0-0.117,0.058-0.178,0.177-0.178h1.033c1.77,0,2.537,0.738,2.537,3.1C237.271,614.083,236.504,614.793,234.735,614.793z
			 M252.797,605.73h-8.235c-0.177,0-0.295,0.117-0.295,0.295v19.481c0,0.177,0.118,0.295,0.295,0.295h8.235
			c0.177,0,0.297-0.118,0.297-0.295v-2.273c0-0.177-0.12-0.295-0.297-0.295h-5.195c-0.118,0-0.175-0.06-0.175-0.177v-5.49
			c0-0.117,0.058-0.175,0.175-0.175h4.485c0.177,0,0.297-0.12,0.297-0.298v-2.272c0-0.178-0.12-0.295-0.297-0.295h-4.485
			c-0.118,0-0.175-0.06-0.175-0.178v-5.283c0-0.117,0.058-0.178,0.175-0.178h5.195c0.177,0,0.297-0.117,0.297-0.295v-2.272
			C253.094,605.848,252.974,605.73,252.797,605.73z M252.243,536.498h11.353c6.452,0,11.357,5.126,11.357,11.534v35.064h22.709
			v-35.064c0-8.716-3.097-16.663-8.776-22.813c5.419-5.896,8.776-13.585,8.776-22.047c0-0.255,0-0.255,0-0.255
			c0-14.866-9.547-27.173-22.709-31.784c-3.357-1.284-7.226-2.051-11.357-2.051h-34.062v114.015h22.709V536.498z M252.243,491.638
			h11.353c6.195,0,11.357,5.127,11.357,11.279c0,6.153-5.162,11.022-11.357,11.022h-11.353V491.638z M262.478,605.73h-2.479
			c-0.177,0-0.266,0.117-0.324,0.295l-4.339,19.481c-0.029,0.177,0.06,0.295,0.237,0.295h2.508c0.207,0,0.295-0.118,0.326-0.295
			l0.796-4.043h3.984l0.798,4.043c0.029,0.177,0.115,0.295,0.324,0.295h2.51c0.178,0,0.264-0.118,0.235-0.295l-4.25-19.481
			C262.775,605.848,262.655,605.73,262.478,605.73z M259.704,618.806l1.475-7.468h0.089l1.419,7.468H259.704z M291.788,605.73
			h-2.568c-0.177,0-0.295,0.117-0.295,0.295v7.911c0,0.117-0.06,0.178-0.177,0.178h-3.395c-0.118,0-0.178-0.061-0.178-0.178v-7.911
			c0-0.178-0.117-0.295-0.295-0.295h-2.567c-0.178,0-0.295,0.117-0.295,0.295v19.481c0,0.177,0.117,0.295,0.295,0.295h2.567
			c0.178,0,0.295-0.118,0.295-0.295v-8.353c0-0.118,0.06-0.178,0.178-0.178h3.395c0.117,0,0.177,0.06,0.177,0.178v8.353
			c0,0.177,0.118,0.295,0.295,0.295h2.568c0.177,0,0.294-0.118,0.294-0.295v-19.481C292.083,605.848,291.965,605.73,291.788,605.73z
			 M313.748,605.73h-2.184c-0.178,0-0.295,0.117-0.295,0.295v13.873h-0.149l-3.718-13.873c-0.06-0.206-0.177-0.295-0.415-0.295
			h-3.126c-0.177,0-0.297,0.117-0.297,0.295v19.481c0,0.177,0.12,0.295,0.297,0.295h2.182c0.177,0,0.297-0.118,0.297-0.295v-13.874
			h0.177l3.896,13.874c0.06,0.206,0.175,0.295,0.412,0.295h2.923c0.177,0,0.294-0.118,0.294-0.295v-19.481
			C314.042,605.848,313.925,605.73,313.748,605.73z M327.799,614.615h-4.488c-0.177,0-0.295,0.117-0.295,0.295v2.187
			c0,0.175,0.118,0.292,0.295,0.292h1.565c0.117,0,0.177,0.061,0.177,0.178c0,3.721-0.06,4.016-0.208,4.517
			c-0.206,0.679-0.944,1.122-1.8,1.122c-0.825,0-1.563-0.443-1.77-1.122c-0.177-0.562-0.208-0.796-0.208-6.317
			c0-5.519,0.031-5.756,0.208-6.316c0.206-0.679,0.885-1.122,1.741-1.122c1.182,0,1.86,0.798,2.006,2.363
			c0.031,0.175,0.149,0.264,0.324,0.235l2.393-0.415c0.148-0.028,0.266-0.175,0.237-0.353c-0.326-3.159-2.098-4.693-4.989-4.693
			c-2.479,0-4.102,1.15-4.754,3.128c-0.295,0.887-0.381,1.595-0.381,7.173c0,5.579,0.086,6.288,0.381,7.173
			c0.652,1.979,2.275,3.129,4.754,3.129c2.448,0,4.073-1.15,4.723-3.129c0.295-0.885,0.384-1.594,0.384-7.142v-0.887
			C328.094,614.732,327.976,614.615,327.799,614.615z M299.107,605.73h-2.567c-0.177,0-0.295,0.117-0.295,0.295v19.481
			c0,0.177,0.118,0.295,0.295,0.295h2.567c0.178,0,0.297-0.118,0.297-0.295v-19.481C299.404,605.848,299.285,605.73,299.107,605.73z
			 M394.709,605.73h-2.567c-0.177,0-0.295,0.117-0.295,0.295v7.911c0,0.117-0.058,0.178-0.177,0.178h-3.395
			c-0.117,0-0.177-0.061-0.177-0.178v-7.911c0-0.178-0.118-0.295-0.295-0.295h-2.567c-0.178,0-0.295,0.117-0.295,0.295v19.481
			c0,0.177,0.117,0.295,0.295,0.295h2.567c0.177,0,0.295-0.118,0.295-0.295v-8.353c0-0.118,0.06-0.178,0.177-0.178h3.395
			c0.12,0,0.177,0.06,0.177,0.178v8.353c0,0.177,0.118,0.295,0.295,0.295h2.567c0.177,0,0.295-0.118,0.295-0.295v-19.481
			C395.004,605.848,394.887,605.73,394.709,605.73z M520.301,608.327c1.15,0,1.74,0.738,1.829,2.45c0,0.206,0.148,0.297,0.326,0.266
			l2.391-0.412c0.177-0.029,0.234-0.178,0.206-0.354c-0.178-3.335-1.979-4.812-4.841-4.812c-2.45,0-3.927,1.15-4.545,3.07
			c-0.267,0.825-0.384,1.652-0.384,7.23c0,5.579,0.117,6.406,0.384,7.233c0.618,1.918,2.095,3.068,4.545,3.068
			c2.862,0,4.663-1.475,4.841-4.812c0.028-0.178-0.029-0.323-0.206-0.354l-2.391-0.413c-0.178-0.028-0.326,0.061-0.326,0.267
			c-0.089,1.712-0.679,2.45-1.829,2.45c-0.887,0-1.359-0.384-1.594-1.122c-0.148-0.473-0.207-0.885-0.207-6.317
			c0-5.43,0.059-5.845,0.207-6.316C518.941,608.711,519.414,608.327,520.301,608.327z M511.889,605.73h-8.235
			c-0.177,0-0.295,0.117-0.295,0.295v19.481c0,0.177,0.118,0.295,0.295,0.295h8.235c0.177,0,0.295-0.118,0.295-0.295v-2.273
			c0-0.177-0.118-0.295-0.295-0.295h-5.195c-0.117,0-0.178-0.06-0.178-0.177v-5.49c0-0.117,0.061-0.175,0.178-0.175h4.485
			c0.178,0,0.298-0.12,0.298-0.298v-2.272c0-0.178-0.12-0.295-0.298-0.295h-4.485c-0.117,0-0.178-0.06-0.178-0.178v-5.283
			c0-0.117,0.061-0.178,0.178-0.178h5.195c0.177,0,0.295-0.117,0.295-0.295v-2.272C512.184,605.848,512.065,605.73,511.889,605.73z
			 M524.901,537.414h22.71v45.332h22.709v-80.19c0-14.611-9.548-27.173-22.709-31.787c-3.614-1.281-7.485-2.049-11.354-2.049
			c-3.872,0-7.743,0.768-11.355,2.049c-13.161,4.614-22.711,17.176-22.711,31.787v80.19h22.711V537.414z M524.901,502.556
			c0-6.152,5.16-11.279,11.355-11.279c6.192,0,11.354,5.127,11.354,11.279v12.104h-22.71V502.556z M536.533,605.73h-9.651
			c-0.178,0-0.295,0.117-0.295,0.295v2.272c0,0.178,0.117,0.295,0.295,0.295h3.071c0.117,0,0.177,0.061,0.177,0.178v16.736
			c0,0.177,0.118,0.295,0.295,0.295h2.567c0.178,0,0.295-0.118,0.295-0.295v-16.736c0-0.117,0.061-0.178,0.178-0.178h3.068
			c0.178,0,0.298-0.117,0.298-0.295v-2.272C536.831,605.848,536.711,605.73,536.533,605.73z M571.039,605.73h-2.185
			c-0.177,0-0.295,0.117-0.295,0.295v13.873h-0.148l-3.718-13.873c-0.061-0.206-0.178-0.295-0.415-0.295h-3.129
			c-0.177,0-0.295,0.117-0.295,0.295v19.481c0,0.177,0.118,0.295,0.295,0.295h2.185c0.178,0,0.297-0.118,0.297-0.295v-13.874h0.176
			l3.897,13.874c0.058,0.206,0.178,0.295,0.412,0.295h2.923c0.178,0,0.295-0.118,0.295-0.295v-19.481
			C571.334,605.848,571.217,605.73,571.039,605.73z M499.758,605.73h-8.235c-0.177,0-0.297,0.117-0.297,0.295v19.481
			c0,0.177,0.12,0.295,0.297,0.295h2.568c0.177,0,0.294-0.118,0.294-0.295v-8.087c0-0.12,0.061-0.178,0.178-0.178h4.485
			c0.178,0,0.295-0.117,0.295-0.295v-2.272c0-0.177-0.117-0.295-0.295-0.295h-4.485c-0.117,0-0.178-0.06-0.178-0.177v-5.433
			c0-0.117,0.061-0.178,0.178-0.178h5.195c0.178,0,0.295-0.117,0.295-0.295v-2.272C500.053,605.848,499.936,605.73,499.758,605.73z
			 M542.704,605.73h-2.569c-0.176,0-0.295,0.117-0.295,0.295v19.481c0,0.177,0.119,0.295,0.295,0.295h2.569
			c0.176,0,0.295-0.118,0.295-0.295v-19.481C542.999,605.848,542.88,605.73,542.704,605.73z M230.775,173.933v272.46h22.705V196.638
			h295.165v249.755h22.705v-272.46H230.775z M551.941,605.465c-2.479,0-4.102,1.15-4.752,3.128
			c-0.295,0.887-0.383,1.595-0.383,7.173c0,5.579,0.088,6.288,0.383,7.173c0.65,1.979,2.273,3.129,4.752,3.129
			c2.45,0,4.073-1.15,4.723-3.129c0.295-0.885,0.384-1.594,0.384-7.173c0-5.578-0.089-6.286-0.384-7.173
			C556.015,606.615,554.392,605.465,551.941,605.465z M553.624,622.083c-0.206,0.679-0.855,1.122-1.683,1.122
			c-0.855,0-1.506-0.443-1.712-1.122c-0.177-0.562-0.206-0.796-0.206-6.317c0-5.519,0.029-5.756,0.206-6.316
			c0.206-0.679,0.856-1.122,1.712-1.122c0.827,0,1.477,0.443,1.683,1.122c0.178,0.561,0.207,0.798,0.207,6.316
			C553.831,621.287,553.802,621.521,553.624,622.083z M408.85,605.73h-2.57c-0.175,0-0.295,0.117-0.295,0.295v15.084
			c0,1.269-0.649,2.096-1.829,2.096c-1.182,0-1.86-0.827-1.86-2.096v-15.084c0-0.178-0.117-0.295-0.295-0.295h-2.567
			c-0.178,0-0.295,0.117-0.295,0.295v14.67c0,3.571,1.918,5.372,5.018,5.372s4.989-1.801,4.989-5.372v-14.67
			C409.145,605.848,409.024,605.73,408.85,605.73z M525.939,446.393c0,0,0-48.94,0-68.115c0-27.127-16.097-50.545-39.18-61.5
			c3.252-5.219,5.136-11.378,5.136-17.98c0-18.81-15.248-34.058-34.058-34.058s-34.058,15.248-34.058,34.058
			c0,6.49,1.816,12.555,4.968,17.717c-6.082,2.85-11.672,6.567-16.596,11.016c-2.085-24.792-17.417-45.988-38.88-56.222
			c3.229-5.207,5.098-11.345,5.098-17.921c0-18.809-15.249-34.058-34.058-34.058s-34.058,15.249-34.058,34.058
			c0,6.543,1.849,12.652,5.047,17.842c-23.115,10.893-39.118,34.393-39.118,61.639c0,37.619,0,113.525,0,113.525h22.705
			c0,0,0-88.445,0-113.525c0-25.077,20.331-45.41,45.41-45.41c25.077,0,45.41,20.333,45.41,45.41v34.058h23.968
			c4.784-20.889,22.728-34.058,44.146-34.058c25.078,0,45.41,20.331,45.41,45.41v17.358c-12.052-10.79-27.961-17.358-45.41-17.358
			c-37.62,0-68.115,30.497-68.115,68.115h22.706c0-25.08,20.33-45.41,45.409-45.41c25.078,0,45.41,20.33,45.41,45.41H525.939z
			 M344.3,264.752c-6.271,0-11.353-5.082-11.353-11.353s5.082-11.353,11.353-11.353s11.353,5.082,11.353,11.353
			S350.57,264.752,344.3,264.752z M457.824,310.163c-6.271,0-11.353-5.082-11.353-11.353s5.082-11.353,11.353-11.353
			c6.269,0,11.353,5.082,11.353,11.353S464.093,310.163,457.824,310.163z M436.712,605.73h-2.479c-0.177,0-0.266,0.117-0.326,0.295
			l-4.339,19.481c-0.028,0.177,0.06,0.295,0.237,0.295h2.508c0.208,0,0.297-0.118,0.326-0.295l0.796-4.043h3.984l0.798,4.043
			c0.029,0.177,0.118,0.295,0.324,0.295h2.51c0.178,0,0.266-0.118,0.237-0.295l-4.253-19.481
			C437.007,605.848,436.889,605.73,436.712,605.73z M433.936,618.806l1.477-7.468h0.089l1.417,7.468H433.936z M479.365,582.746
			V468.707h-22.709v45.849h-22.71v-45.849h-22.709v114.039h22.709v-45.435h22.71v45.435H479.365z M426.321,605.73h-2.539
			c-0.264,0-0.412,0.089-0.472,0.295l-3.246,11.306h-0.118l-3.337-11.306c-0.058-0.206-0.206-0.295-0.472-0.295h-2.567
			c-0.178,0-0.295,0.117-0.295,0.295v19.481c0,0.177,0.117,0.295,0.295,0.295h2.272c0.177,0,0.295-0.118,0.295-0.295v-12.692h0.177
			l2.599,9.122c0.061,0.175,0.178,0.295,0.384,0.295h1.3c0.206,0,0.323-0.12,0.384-0.295l2.596-9.122h0.178v12.692
			c0,0.177,0.117,0.295,0.295,0.295h2.272c0.178,0,0.295-0.118,0.295-0.295v-19.481C426.616,605.848,426.499,605.73,426.321,605.73z
			 M454.421,605.73h-2.184c-0.178,0-0.295,0.117-0.295,0.295v13.873h-0.148l-3.719-13.873c-0.06-0.206-0.178-0.295-0.415-0.295
			h-3.128c-0.176,0-0.295,0.117-0.295,0.295v19.481c0,0.177,0.119,0.295,0.295,0.295h2.186c0.176,0,0.295-0.118,0.295-0.295v-13.874
			h0.178l3.896,13.874c0.058,0.206,0.178,0.295,0.413,0.295h2.922c0.178,0,0.295-0.118,0.295-0.295v-19.481
			C454.716,605.848,454.599,605.73,454.421,605.73z M471.569,605.73h-2.479c-0.178,0-0.267,0.117-0.326,0.295l-4.339,19.481
			c-0.029,0.177,0.06,0.295,0.236,0.295h2.511c0.206,0,0.295-0.118,0.323-0.295l0.796-4.043h3.987l0.796,4.043
			c0.028,0.177,0.117,0.295,0.323,0.295h2.51c0.178,0,0.267-0.118,0.235-0.295l-4.248-19.481
			C471.864,605.848,471.747,605.73,471.569,605.73z M468.796,618.806l1.475-7.468h0.088l1.417,7.468H468.796z M487.627,605.73
			h-8.235c-0.177,0-0.297,0.117-0.297,0.295v19.481c0,0.177,0.12,0.295,0.297,0.295h2.568c0.177,0,0.295-0.118,0.295-0.295v-8.087
			c0-0.12,0.06-0.178,0.177-0.178h4.486c0.177,0,0.295-0.117,0.295-0.295v-2.272c0-0.177-0.118-0.295-0.295-0.295h-4.486
			c-0.117,0-0.177-0.06-0.177-0.177v-5.433c0-0.117,0.06-0.178,0.177-0.178h5.195c0.178,0,0.295-0.117,0.295-0.295v-2.272
			C487.922,605.848,487.805,605.73,487.627,605.73z"/>
	</g>
</g>
</svg>
