<?xml version="1.0" encoding="utf-8"?>
<!-- Generator: Adobe Illustrator 15.1.0, SVG Export Plug-In . SVG Version: 6.00 Build 0)  -->
<!DOCTYPE svg PUBLIC "-//W3C//DTD SVG 1.1//EN" "http://www.w3.org/Graphics/SVG/1.1/DTD/svg11.dtd">
<svg version="1.1" id="Layer_1" xmlns="http://www.w3.org/2000/svg" xmlns:xlink="http://www.w3.org/1999/xlink" x="0px" y="0px"
	 width="250px" height="250px" viewBox="275 275 250 250" enable-background="new 275 275 250 250" xml:space="preserve">
<g>
	<g>
		<path fill="#FFFFFF" d="M375.559,407.878h2.119v-3.875h-2.119c-1.612,0-2.986-0.576-4.12-1.729
			c-1.155-1.133-1.731-2.503-1.731-4.112v-6.451h7.952v-3.904h-7.952v-7.955h-3.881v18.309c0,2.681,0.945,4.977,2.836,6.883
			C370.574,406.932,372.872,407.878,375.559,407.878z M368.193,414.364c-0.526,0-0.998,0.158-1.417,0.471v-2.826h-0.939v7.07h2.355
			c0.65,0,1.204-0.23,1.662-0.688c0.462-0.461,0.694-1.02,0.694-1.67s-0.232-1.205-0.694-1.662
			C369.396,414.596,368.844,414.364,368.193,414.364z M369.19,417.719c-0.274,0.279-0.606,0.418-0.997,0.418h-1.417v-1.416
			c0-0.391,0.139-0.723,0.419-0.998c0.274-0.273,0.606-0.412,0.997-0.412c0.39,0,0.723,0.139,0.997,0.412
			c0.274,0.275,0.412,0.609,0.412,0.998C369.602,417.112,369.464,417.446,369.19,417.719z M373.82,414.364
			c-0.65,0-1.206,0.232-1.668,0.695c-0.458,0.457-0.686,1.012-0.686,1.662s0.229,1.209,0.686,1.67
			c0.463,0.457,1.019,0.688,1.668,0.688c0.65,0,1.205-0.23,1.662-0.688c0.462-0.461,0.694-1.02,0.694-1.67s-0.232-1.205-0.694-1.662
			C375.025,414.596,374.47,414.364,373.82,414.364z M374.817,417.719c-0.274,0.279-0.606,0.418-0.997,0.418
			c-0.39,0-0.723-0.139-0.997-0.418c-0.28-0.273-0.418-0.607-0.418-0.998c0-0.389,0.139-0.723,0.418-0.998
			c0.274-0.273,0.607-0.412,0.997-0.412c0.391,0,0.723,0.139,0.997,0.412c0.274,0.275,0.412,0.609,0.412,0.998
			C375.229,417.112,375.092,417.446,374.817,417.719z M380.886,414.835c-0.416-0.312-0.884-0.471-1.409-0.471
			c-0.651,0-1.208,0.232-1.67,0.695c-0.457,0.457-0.686,1.012-0.686,1.662s0.229,1.209,0.686,1.67
			c0.463,0.457,1.02,0.688,1.67,0.688h2.354v-7.07h-0.946V414.835z M380.886,418.137h-1.409c-0.391,0-0.723-0.139-0.997-0.418
			c-0.28-0.273-0.42-0.607-0.42-0.998s0.14-0.723,0.42-0.998c0.274-0.273,0.606-0.412,0.997-0.412c0.389,0,0.722,0.139,0.996,0.412
			c0.274,0.275,0.413,0.607,0.413,0.998V418.137L380.886,418.137z M354.925,371.182c0,0-8.105,2.571-15.856,8.759
			c-6.923,5.527-13.585,14.748-13.585,14.748s5.704,9.835,11.973,16.019c7.092,6.992,14.85,10.436,14.85,10.436
			s-5.888-10.404-5.098-25.483C347.998,380.582,354.925,371.182,354.925,371.182z M422.982,415.221
			c-0.16-0.068-0.332-0.104-0.515-0.104s-0.354,0.035-0.514,0.104c-0.16,0.068-0.301,0.162-0.418,0.281
			c-0.119,0.119-0.212,0.258-0.282,0.42c-0.068,0.158-0.104,0.332-0.104,0.514s0.034,0.354,0.104,0.514s0.163,0.303,0.282,0.422
			c0.117,0.121,0.258,0.217,0.418,0.285c0.159,0.068,0.331,0.104,0.514,0.104s0.354-0.033,0.515-0.104
			c0.16-0.068,0.301-0.164,0.421-0.285c0.121-0.119,0.216-0.262,0.285-0.422s0.104-0.332,0.104-0.514s-0.035-0.355-0.104-0.514
			c-0.069-0.162-0.164-0.301-0.285-0.42C423.282,415.384,423.142,415.29,422.982,415.221z M412.413,419.079v-2.357
			c0-0.65-0.231-1.205-0.694-1.662c-0.456-0.463-1.011-0.695-1.66-0.695c-0.65,0-1.208,0.232-1.669,0.695
			c-0.458,0.457-0.687,1.012-0.687,1.662v2.357h0.938v-2.357c0-0.391,0.14-0.723,0.42-0.998c0.273-0.273,0.605-0.412,0.997-0.412
			c0.39,0,0.722,0.139,0.996,0.412c0.274,0.275,0.411,0.609,0.411,0.998v2.357H412.413z M415.78,414.364
			c-0.65,0-1.207,0.232-1.668,0.695c-0.458,0.457-0.688,1.012-0.688,1.662s0.229,1.209,0.688,1.67
			c0.461,0.457,1.018,0.688,1.668,0.688h2.354v-7.07h-0.945v2.826C416.774,414.522,416.305,414.364,415.78,414.364z
			 M417.189,418.137h-1.409c-0.391,0-0.723-0.139-0.997-0.418c-0.279-0.273-0.419-0.607-0.419-0.998s0.14-0.723,0.419-0.998
			c0.274-0.273,0.607-0.412,0.997-0.412s0.724,0.139,0.997,0.412c0.275,0.275,0.412,0.607,0.412,0.998V418.137L417.189,418.137z
			 M397.521,407.878h3.88v-20.229h-3.88V407.878z M409.167,397.523c0-1.61,0.577-2.98,1.732-4.112
			c1.134-1.133,2.668-1.698,4.28-1.698s3.145,0.565,4.279,1.698c1.135,1.132,1.702,2.502,1.702,4.112v10.355h3.91v-10.355
			c0-2.683-0.955-4.966-2.865-6.854c-1.891-1.907-4.34-2.86-7.026-2.86c-2.688,0-5.146,0.953-7.057,2.86
			c-1.892,1.888-2.837,4.172-2.837,6.854v10.355h3.881V397.523L409.167,397.523z M399.461,385.349c0.756,0,1.393-0.268,1.911-0.805
			c0.537-0.536,0.806-1.171,0.806-1.907c0-0.754-0.269-1.401-0.806-1.938c-0.518-0.515-1.155-0.774-1.911-0.774
			c-0.757,0-1.394,0.259-1.911,0.774c-0.538,0.537-0.806,1.184-0.806,1.938c0,0.736,0.269,1.371,0.806,1.907
			C398.067,385.081,398.704,385.349,399.461,385.349z M406.742,412.485c-0.124-0.125-0.278-0.188-0.461-0.188
			c-0.184,0-0.338,0.062-0.464,0.188c-0.129,0.131-0.194,0.287-0.194,0.471c0,0.178,0.065,0.332,0.194,0.463
			c0.126,0.129,0.28,0.195,0.464,0.195c0.183,0,0.337-0.066,0.461-0.195c0.131-0.131,0.195-0.285,0.195-0.463
			C406.938,412.772,406.872,412.616,406.742,412.485z M405.811,419.079h0.939v-4.715h-0.939V419.079z M430.05,418.137h-3.295v0.941
			h3.295c0.39,0,0.725-0.139,1.005-0.414c0.273-0.279,0.41-0.613,0.41-1.004s-0.137-0.723-0.41-0.998
			c-0.28-0.273-0.615-0.41-1.005-0.41h-1.879c-0.13,0-0.243-0.047-0.339-0.137c-0.092-0.092-0.138-0.203-0.138-0.334
			s0.046-0.24,0.138-0.332c0.096-0.092,0.209-0.139,0.339-0.139h3.294v-0.945h-3.294c-0.39,0-0.725,0.137-1.004,0.412
			c-0.274,0.279-0.412,0.613-0.412,1.004s0.138,0.723,0.412,0.998c0.279,0.273,0.614,0.412,1.004,0.412h1.879
			c0.13,0,0.24,0.045,0.333,0.137c0.092,0.092,0.137,0.203,0.137,0.332c0,0.131-0.045,0.244-0.137,0.34
			C430.29,418.093,430.18,418.137,430.05,418.137z M446.945,412.009h-0.939v4.713c0,0.65,0.229,1.209,0.686,1.67
			c0.464,0.457,1.02,0.688,1.669,0.688h0.438v-0.941h-0.438c-0.389,0-0.721-0.139-0.997-0.418c-0.278-0.273-0.418-0.607-0.418-0.998
			v-1.41h1.885v-0.947h-1.885V412.009L446.945,412.009z M444.114,419.079h0.938v-4.715h-0.938V419.079z M445.046,412.485
			c-0.127-0.125-0.28-0.188-0.464-0.188c-0.183,0-0.337,0.062-0.462,0.188c-0.131,0.131-0.194,0.287-0.194,0.471
			c0,0.178,0.064,0.332,0.194,0.463c0.125,0.129,0.279,0.195,0.462,0.195c0.184,0,0.337-0.066,0.464-0.195
			c0.129-0.131,0.193-0.285,0.193-0.463C445.24,412.772,445.175,412.616,445.046,412.485z M441.332,415.723
			c0.274-0.273,0.607-0.412,0.997-0.412h0.938v-0.947h-0.938c-0.649,0-1.207,0.232-1.669,0.695
			c-0.458,0.457-0.686,1.012-0.686,1.662v2.357h0.939v-2.357C440.914,416.331,441.053,415.999,441.332,415.723z M386.644,416.714
			c0,0.393-0.138,0.723-0.413,0.998c-0.275,0.279-0.607,0.418-0.997,0.418c-0.39,0-0.722-0.139-0.996-0.418
			c-0.281-0.275-0.419-0.607-0.419-0.998v-2.357h-0.939v2.357c0,0.65,0.229,1.209,0.686,1.67c0.462,0.459,1.019,0.688,1.669,0.688
			c0.525,0,0.995-0.156,1.41-0.469v0.469c0,0.391-0.138,0.725-0.413,0.998c-0.274,0.279-0.606,0.42-0.997,0.42
			c-0.303,0-0.579-0.09-0.824-0.268c-0.24-0.176-0.409-0.4-0.505-0.682h-0.976c0.106,0.547,0.374,0.994,0.802,1.346
			c0.438,0.359,0.938,0.543,1.502,0.543c0.649,0,1.204-0.23,1.662-0.688c0.462-0.461,0.693-1.02,0.693-1.67v-4.715h-0.946V416.714
			L386.644,416.714z M468.606,387.779v10.354c0,1.61-0.567,2.98-1.702,4.111c-1.135,1.154-2.669,1.73-4.281,1.73
			c-1.61,0-3.145-0.576-4.279-1.73c-1.155-1.131-1.731-2.5-1.731-4.111v-10.354h-3.881v10.354c0,2.682,0.944,4.976,2.836,6.882
			c1.91,1.889,4.37,2.832,7.056,2.832c2.17,0,4.271-0.645,5.983-1.936v3.566c0,1.609-0.567,2.98-1.702,4.111
			c-1.135,1.152-2.828,1.729-4.441,1.729c-1.253,0-2.708-0.367-3.724-1.102c-0.871-0.627-1.515-1.424-1.929-2.385h-4.092
			c0.489,2.055,1.556,3.766,3.215,5.125c1.812,1.49,4.202,2.234,6.529,2.234c2.688,0,5.297-0.943,7.188-2.83
			c1.91-1.906,2.865-4.201,2.865-6.883v-21.699H468.606L468.606,387.779z M442.519,334.988c0,0-11.368,0.024-19.856,2.362
			c-9.603,2.645-16.462,7.644-16.462,7.644s11.953,0.102,24.615,8.325c12.661,8.223,17.337,18.921,17.337,18.921
			s1.827-8.305,0.345-18.112C447.172,345.369,442.519,334.988,442.519,334.988z M442.475,402.274
			c-1.153-1.133-1.731-2.503-1.731-4.112v-6.451h8.112v-3.904h-8.112v-8.114h-3.881v18.469c0,2.681,0.944,4.977,2.836,6.883
			c1.91,1.887,4.209,2.832,6.896,2.832h2.279v-3.875h-2.279C444.984,404.003,443.61,403.427,442.475,402.274z M438.083,419.079
			h0.939v-4.715h-0.939V419.079z M439.014,412.485c-0.125-0.125-0.279-0.188-0.463-0.188c-0.182,0-0.337,0.062-0.461,0.188
			c-0.131,0.131-0.195,0.287-0.195,0.471c0,0.178,0.065,0.332,0.195,0.463c0.124,0.129,0.279,0.195,0.461,0.195
			c0.184,0,0.338-0.066,0.463-0.195c0.13-0.131,0.195-0.285,0.195-0.463C439.209,412.772,439.144,412.616,439.014,412.485z
			 M392.842,415.503c-0.121-0.119-0.262-0.213-0.422-0.281s-0.332-0.104-0.513-0.104c-0.183,0-0.355,0.035-0.515,0.104
			c-0.161,0.068-0.299,0.162-0.417,0.281c-0.119,0.119-0.212,0.258-0.282,0.42c-0.069,0.158-0.104,0.332-0.104,0.514
			s0.035,0.354,0.104,0.514s0.163,0.303,0.282,0.422c0.118,0.121,0.257,0.217,0.417,0.285c0.16,0.068,0.332,0.104,0.515,0.104
			c0.181,0,0.353-0.033,0.513-0.104c0.161-0.068,0.301-0.164,0.422-0.285c0.12-0.119,0.216-0.262,0.284-0.422
			c0.069-0.16,0.104-0.332,0.104-0.514s-0.035-0.355-0.104-0.514C393.057,415.76,392.962,415.62,392.842,415.503z M401.029,419.079
			v-2.357c0-0.391,0.138-0.723,0.412-0.998c0.274-0.273,0.606-0.412,0.997-0.412s0.725,0.139,1.004,0.412
			c0.274,0.275,0.412,0.609,0.412,0.998v2.357h0.939v-2.357c0-0.65-0.229-1.205-0.688-1.662c-0.461-0.463-1.019-0.695-1.668-0.695
			c-0.781,0-1.407,0.318-1.878,0.947c-0.472-0.631-1.101-0.947-1.886-0.947c-0.65,0-1.207,0.232-1.669,0.695
			c-0.457,0.457-0.686,1.012-0.686,1.662v2.357h0.939v-2.357c0-0.391,0.14-0.723,0.418-0.998c0.275-0.273,0.608-0.412,0.997-0.412
			c0.391,0,0.723,0.139,0.998,0.412c0.274,0.275,0.411,0.609,0.411,0.998v2.357H401.029z M384.371,390.668
			c-1.891,1.888-2.835,4.172-2.835,6.854v10.355h3.88v-10.355c0-1.61,0.577-2.98,1.731-4.112c1.134-1.133,2.508-1.698,4.12-1.698
			h2.278v-3.904h-2.278C388.58,387.808,386.281,388.761,384.371,390.668z M430.946,379.925c-0.756,0-1.394,0.259-1.91,0.774
			c-0.538,0.537-0.806,1.184-0.806,1.938c0,0.735,0.268,1.371,0.806,1.907c0.517,0.537,1.154,0.805,1.91,0.805
			s1.393-0.268,1.911-0.805c0.537-0.536,0.806-1.172,0.806-1.907c0-0.754-0.269-1.401-0.806-1.938
			C432.338,380.184,431.701,379.925,430.946,379.925z M432.886,387.808h-3.881v20.07h3.881V387.808z M433.359,418.594
			c0.419,0.312,0.892,0.469,1.416,0.469c0.65,0,1.204-0.229,1.661-0.686c0.463-0.463,0.694-1.02,0.694-1.672
			c0-0.648-0.231-1.203-0.694-1.662c-0.457-0.461-1.011-0.693-1.661-0.693h-2.355v7.07h0.939V418.594z M433.359,415.298h1.416
			c0.391,0,0.722,0.137,0.996,0.412c0.274,0.273,0.411,0.607,0.411,0.996c0,0.393-0.137,0.725-0.411,0.998
			c-0.274,0.281-0.606,0.422-0.996,0.422s-0.723-0.141-0.997-0.422c-0.28-0.275-0.419-0.607-0.419-0.998V415.298z M425.772,446.62
			c-13.452,6.855-25.054,5.557-25.054,5.557s6.277,5.734,15.512,9.355c8.247,3.23,19.563,4.393,19.563,4.393
			s5.664-9.859,7.883-18.381c2.512-9.641,1.613-18.078,1.613-18.078S439.224,439.766,425.772,446.62z"/>
	</g>
</g>
</svg>
