<?xml version="1.0" encoding="utf-8"?>
<!-- Generator: Adobe Illustrator 15.1.0, SVG Export Plug-In . SVG Version: 6.00 Build 0)  -->
<!DOCTYPE svg PUBLIC "-//W3C//DTD SVG 1.1//EN" "http://www.w3.org/Graphics/SVG/1.1/DTD/svg11.dtd">
<svg version="1.1" id="Layer_1" xmlns="http://www.w3.org/2000/svg" xmlns:xlink="http://www.w3.org/1999/xlink" x="0px" y="0px"
	 width="800px" height="800px" viewBox="0 0 800 800" enable-background="new 0 0 800 800" xml:space="preserve">
<rect fill="#1B1817" width="800" height="800"/>
<g>
	<g>
		<path fill-rule="evenodd" clip-rule="evenodd" fill="#FFFFFF" d="M327.46,399.402h7.044v-12.881h-7.044
			c-5.361,0-9.926-1.916-13.697-5.747c-3.84-3.766-5.758-8.324-5.758-13.674v-21.446h26.44v-12.98h-26.44v-26.449h-12.904v60.875
			c0,8.917,3.142,16.549,9.431,22.888C310.883,396.265,318.528,399.402,327.46,399.402z M302.967,420.975
			c-1.746,0-3.315,0.521-4.709,1.562v-9.397h-3.122v23.506h7.832c2.163,0,4.002-0.758,5.526-2.28
			c1.536-1.539,2.307-3.389,2.307-5.554s-0.771-4.006-2.307-5.527C306.969,421.745,305.13,420.975,302.967,420.975z
			 M306.283,432.129c-0.913,0.928-2.018,1.394-3.316,1.394h-4.709v-4.711c0-1.298,0.464-2.403,1.395-3.318
			c0.913-0.912,2.017-1.368,3.315-1.368c1.298,0,2.403,0.456,3.316,1.368c0.912,0.915,1.368,2.021,1.368,3.318
			S307.195,431.217,306.283,432.129z M321.678,420.975c-2.163,0-4.009,0.771-5.548,2.31c-1.521,1.521-2.281,3.362-2.281,5.527
			s0.76,4.015,2.281,5.554c1.539,1.522,3.386,2.28,5.548,2.28c2.162,0,4.004-0.758,5.526-2.28c1.535-1.539,2.306-3.389,2.306-5.554
			s-0.771-4.006-2.306-5.527C325.683,421.745,323.84,420.975,321.678,420.975z M324.993,432.129
			c-0.912,0.928-2.017,1.394-3.315,1.394c-1.297,0-2.403-0.466-3.315-1.394c-0.929-0.912-1.392-2.02-1.392-3.317
			s0.463-2.403,1.392-3.318c0.912-0.912,2.018-1.368,3.315-1.368c1.298,0,2.403,0.456,3.315,1.368
			c0.913,0.915,1.369,2.021,1.369,3.318S325.906,431.217,324.993,432.129z M345.172,422.537c-1.38-1.041-2.94-1.562-4.683-1.562
			c-2.163,0-4.014,0.771-5.553,2.31c-1.52,1.521-2.281,3.362-2.281,5.527s0.761,4.015,2.281,5.554c1.539,1.522,3.39,2.28,5.553,2.28
			h7.829V413.14h-3.146V422.537z M345.172,433.522h-4.683c-1.299,0-2.404-0.466-3.316-1.394c-0.93-0.912-1.395-2.02-1.395-3.317
			s0.465-2.403,1.395-3.318c0.912-0.912,2.017-1.368,3.316-1.368c1.294,0,2.4,0.456,3.312,1.368
			c0.913,0.915,1.372,2.021,1.372,3.318V433.522z M258.851,277.396c0,0-26.95,8.547-52.722,29.124
			c-23.017,18.376-45.17,49.033-45.17,49.033s18.967,32.702,39.812,53.258c23.579,23.256,49.375,34.702,49.375,34.702
			s-19.578-34.594-16.949-84.729C235.822,308.649,258.851,277.396,258.851,277.396z M485.138,423.823
			c-0.532-0.228-1.103-0.345-1.708-0.345c-0.608,0-1.18,0.117-1.712,0.345c-0.532,0.229-0.996,0.542-1.388,0.936
			c-0.394,0.393-0.705,0.858-0.937,1.392c-0.23,0.531-0.345,1.105-0.345,1.71c0,0.607,0.114,1.18,0.345,1.709
			c0.231,0.534,0.543,1.004,0.937,1.407c0.392,0.4,0.855,0.717,1.388,0.945c0.532,0.23,1.104,0.345,1.712,0.345
			c0.605,0,1.176-0.114,1.708-0.345c0.532-0.229,1.001-0.545,1.401-0.945c0.402-0.403,0.717-0.873,0.949-1.407
			c0.229-0.529,0.344-1.102,0.344-1.709c0-0.604-0.114-1.179-0.344-1.71c-0.232-0.533-0.547-0.999-0.949-1.392
			C486.139,424.365,485.67,424.053,485.138,423.823z M450,436.646v-7.834c0-2.165-0.769-4.006-2.307-5.527
			c-1.521-1.539-3.363-2.31-5.524-2.31c-2.162,0-4.015,0.771-5.549,2.31c-1.522,1.521-2.281,3.362-2.281,5.527v7.834h3.121v-7.834
			c0-1.298,0.465-2.403,1.393-3.318c0.912-0.912,2.018-1.368,3.316-1.368c1.296,0,2.401,0.456,3.313,1.368
			c0.913,0.915,1.369,2.021,1.369,3.318v7.834H450z M461.192,420.975c-2.162,0-4.013,0.771-5.548,2.31
			c-1.523,1.521-2.284,3.362-2.284,5.527s0.761,4.015,2.284,5.554c1.535,1.522,3.386,2.28,5.548,2.28h7.831V413.14h-3.146v9.397
			C464.498,421.496,462.939,420.975,461.192,420.975z M465.877,433.522h-4.685c-1.297,0-2.402-0.466-3.314-1.394
			c-0.931-0.912-1.395-2.02-1.395-3.317s0.464-2.403,1.395-3.318c0.912-0.912,2.018-1.368,3.314-1.368
			c1.298,0,2.403,0.456,3.315,1.368c0.913,0.915,1.369,2.021,1.369,3.318V433.522z M400.48,399.402h12.903v-67.259H400.48V399.402z
			 M439.208,364.974c0-5.351,1.918-9.908,5.758-13.672c3.771-3.767,8.871-5.647,14.231-5.647c5.359,0,10.459,1.881,14.23,5.647
			c3.771,3.764,5.659,8.321,5.659,13.672v34.428h13.003v-34.428c0-8.917-3.176-16.51-9.529-22.789
			c-6.286-6.342-14.43-9.511-23.363-9.511s-17.11,3.168-23.462,9.511c-6.289,6.278-9.433,13.872-9.433,22.789v34.428h12.905V364.974
			z M406.931,324.499c2.515,0,4.631-0.893,6.355-2.677c1.783-1.782,2.678-3.896,2.678-6.34c0-2.509-0.895-4.658-2.678-6.442
			c-1.725-1.714-3.841-2.576-6.355-2.576c-2.514,0-4.633,0.862-6.352,2.576c-1.788,1.784-2.681,3.934-2.681,6.442
			c0,2.444,0.894,4.558,2.681,6.34C402.298,323.606,404.417,324.499,406.931,324.499z M431.145,414.728
			c-0.415-0.42-0.928-0.628-1.536-0.628c-0.609,0-1.123,0.208-1.539,0.628c-0.431,0.43-0.647,0.952-0.647,1.56
			c0,0.594,0.217,1.105,0.647,1.539c0.416,0.434,0.93,0.649,1.539,0.649c0.608,0,1.121-0.216,1.536-0.649
			c0.433-0.434,0.648-0.945,0.648-1.539C431.793,415.68,431.577,415.157,431.145,414.728z M428.048,436.646h3.122v-15.671h-3.122
			V436.646z M508.642,433.522h-10.955v3.123h10.955c1.294,0,2.41-0.456,3.338-1.369c0.912-0.93,1.368-2.042,1.368-3.34
			s-0.456-2.402-1.368-3.317c-0.928-0.913-2.044-1.369-3.338-1.369h-6.249c-0.431,0-0.808-0.152-1.127-0.458
			c-0.304-0.305-0.456-0.673-0.456-1.105c0-0.434,0.152-0.801,0.456-1.105c0.319-0.305,0.696-0.456,1.127-0.456h10.955v-3.15
			h-10.955c-1.294,0-2.407,0.456-3.338,1.371c-0.912,0.93-1.368,2.043-1.368,3.341c0,1.297,0.456,2.402,1.368,3.317
			c0.931,0.913,2.044,1.369,3.338,1.369h6.249c0.431,0,0.799,0.152,1.105,0.455c0.304,0.309,0.455,0.675,0.455,1.108
			c0,0.431-0.151,0.809-0.455,1.129C509.44,433.371,509.072,433.522,508.642,433.522z M564.814,413.14h-3.122v15.672
			c0,2.165,0.759,4.015,2.28,5.554c1.539,1.522,3.387,2.28,5.549,2.28h1.457v-3.123h-1.457c-1.295,0-2.4-0.466-3.316-1.394
			c-0.927-0.912-1.391-2.02-1.391-3.317v-4.687h6.267v-3.15h-6.267V413.14z M555.4,436.646h3.122v-15.671H555.4V436.646z
			 M558.5,414.728c-0.418-0.42-0.931-0.628-1.538-0.628c-0.608,0-1.12,0.208-1.538,0.628c-0.433,0.43-0.647,0.952-0.647,1.56
			c0,0.594,0.215,1.105,0.647,1.539c0.418,0.434,0.93,0.649,1.538,0.649c0.607,0,1.12-0.216,1.538-0.649
			c0.431-0.434,0.646-0.945,0.646-1.539C559.146,415.68,558.931,415.157,558.5,414.728z M546.154,425.493
			c0.912-0.912,2.018-1.368,3.315-1.368h3.122v-3.15h-3.122c-2.162,0-4.012,0.771-5.549,2.31c-1.521,1.521-2.281,3.362-2.281,5.527
			v7.834h3.122v-7.834C544.762,427.514,545.226,426.408,546.154,425.493z M364.316,428.786c0,1.301-0.457,2.405-1.372,3.317
			c-0.912,0.93-2.017,1.394-3.314,1.394c-1.296,0-2.402-0.464-3.313-1.394c-0.931-0.912-1.395-2.017-1.395-3.317v-7.835H351.8v7.835
			c0,2.165,0.761,4.016,2.281,5.554c1.539,1.522,3.389,2.284,5.55,2.284c1.746,0,3.306-0.521,4.686-1.562v1.562
			c0,1.297-0.457,2.405-1.372,3.316c-0.912,0.931-2.017,1.395-3.314,1.395c-1.007,0-1.923-0.297-2.739-0.89
			c-0.8-0.577-1.361-1.33-1.68-2.261h-3.244c0.353,1.812,1.242,3.303,2.667,4.471c1.458,1.201,3.122,1.805,4.997,1.805
			c2.16,0,4.003-0.763,5.524-2.283c1.538-1.539,2.306-3.39,2.306-5.553v-15.673h-3.145V428.786z M636.837,332.577v34.425
			c0,5.351-1.886,9.908-5.662,13.672c-3.771,3.833-8.87,5.749-14.231,5.749c-5.357,0-10.457-1.916-14.229-5.749
			c-3.841-3.764-5.759-8.321-5.759-13.672v-34.425h-12.904v34.425c0,8.917,3.143,16.547,9.431,22.888
			c6.353,6.276,14.53,9.414,23.461,9.414c7.214,0,14.2-2.147,19.894-6.44v11.86c0,5.35-1.886,9.907-5.662,13.672
			c-3.771,3.829-9.401,5.745-14.764,5.745c-4.166,0-9.005-1.221-12.382-3.664c-2.898-2.084-5.035-4.728-6.411-7.93h-13.607
			c1.626,6.835,5.173,12.525,10.688,17.043c6.023,4.956,13.973,7.433,21.712,7.433c8.936,0,17.611-3.139,23.898-9.412
			c6.354-6.341,9.529-13.97,9.529-22.887v-72.146H636.837z M550.101,157.049c0,0-37.802,0.079-66.022,7.853
			c-31.929,8.795-54.738,25.415-54.738,25.415s39.743,0.339,81.844,27.683c42.101,27.341,57.648,62.912,57.648,62.912
			s6.074-27.612,1.143-60.223C565.57,191.566,550.101,157.049,550.101,157.049z M549.953,380.774
			c-3.837-3.766-5.758-8.324-5.758-13.674v-21.446h26.974v-12.98h-26.974v-26.98h-12.903v61.407c0,8.917,3.142,16.549,9.43,22.888
			c6.352,6.276,13.996,9.414,22.929,9.414h7.576v-12.881h-7.576C558.293,386.521,553.725,384.605,549.953,380.774z M535.35,436.646
			h3.122v-15.671h-3.122V436.646z M538.446,414.728c-0.416-0.42-0.929-0.628-1.537-0.628c-0.607,0-1.122,0.208-1.537,0.628
			c-0.432,0.43-0.649,0.952-0.649,1.56c0,0.594,0.218,1.105,0.649,1.539c0.415,0.434,0.93,0.649,1.537,0.649
			c0.608,0,1.121-0.216,1.537-0.649c0.434-0.434,0.648-0.945,0.648-1.539C539.095,415.68,538.88,415.157,538.446,414.728z
			 M384.923,424.759c-0.403-0.394-0.869-0.706-1.404-0.936c-0.532-0.228-1.104-0.345-1.708-0.345c-0.606,0-1.177,0.117-1.711,0.345
			c-0.532,0.229-0.996,0.542-1.39,0.936c-0.393,0.393-0.704,0.858-0.935,1.392c-0.229,0.531-0.345,1.105-0.345,1.71
			c0,0.607,0.116,1.18,0.345,1.709c0.23,0.534,0.542,1.004,0.935,1.407c0.394,0.4,0.857,0.717,1.39,0.945
			c0.534,0.23,1.105,0.345,1.711,0.345c0.604,0,1.175-0.114,1.708-0.345c0.536-0.229,1.001-0.545,1.404-0.945
			c0.4-0.403,0.717-0.873,0.945-1.407c0.231-0.529,0.346-1.102,0.346-1.709c0-0.604-0.115-1.179-0.346-1.71
			C385.64,425.617,385.323,425.151,384.923,424.759z M412.147,436.646v-7.834c0-1.298,0.456-2.403,1.368-3.318
			c0.914-0.912,2.018-1.368,3.316-1.368c1.298,0,2.41,0.456,3.338,1.368c0.912,0.915,1.37,2.021,1.37,3.318v7.834h3.123v-7.834
			c0-2.165-0.76-4.006-2.283-5.527c-1.535-1.539-3.387-2.31-5.548-2.31c-2.597,0-4.678,1.051-6.246,3.15
			c-1.569-2.1-3.66-3.15-6.271-3.15c-2.161,0-4.012,0.771-5.548,2.31c-1.52,1.521-2.281,3.362-2.281,5.527v7.834h3.123v-7.834
			c0-1.298,0.464-2.403,1.392-3.318c0.915-0.912,2.021-1.368,3.314-1.368c1.299,0,2.404,0.456,3.316,1.368
			c0.912,0.915,1.369,2.021,1.369,3.318v7.834H412.147z M356.758,342.185c-6.286,6.278-9.428,13.872-9.428,22.789v34.428h12.903
			v-34.428c0-5.351,1.919-9.908,5.756-13.672c3.773-3.767,8.339-5.647,13.699-5.647h7.576v-12.98h-7.576
			C370.753,332.674,363.111,335.843,356.758,342.185z M511.62,306.464c-2.517,0-4.635,0.862-6.354,2.576
			c-1.788,1.784-2.68,3.934-2.68,6.442c0,2.444,0.892,4.558,2.68,6.34c1.72,1.784,3.838,2.677,6.354,2.677
			c2.514,0,4.629-0.893,6.352-2.677c1.786-1.782,2.679-3.896,2.679-6.34c0-2.509-0.893-4.658-2.679-6.442
			C516.249,307.326,514.134,306.464,511.62,306.464z M518.07,332.674h-12.904v66.728h12.904V332.674z M519.643,435.036
			c1.39,1.042,2.963,1.564,4.706,1.564c2.162,0,4.005-0.761,5.525-2.283c1.539-1.539,2.306-3.39,2.306-5.555
			c0-2.161-0.767-4.004-2.306-5.527c-1.521-1.539-3.363-2.307-5.525-2.307h-7.829v23.505h3.123V435.036z M519.643,424.076h4.706
			c1.298,0,2.402,0.458,3.316,1.368c0.911,0.916,1.366,2.021,1.366,3.318c0,1.299-0.455,2.403-1.366,3.318
			c-0.914,0.928-2.019,1.395-3.316,1.395c-1.294,0-2.402-0.467-3.316-1.395c-0.927-0.915-1.39-2.02-1.39-3.318V424.076z
			 M494.417,528.226c-44.729,22.791-83.304,18.471-83.304,18.471s20.873,19.07,51.577,31.105
			c27.423,10.744,65.047,14.606,65.047,14.606s18.833-32.782,26.211-61.111c8.35-32.053,5.362-60.116,5.362-60.116
			S539.145,505.434,494.417,528.226z"/>
	</g>
</g>
</svg>
